<svg width="500" height="500" viewBox="0 0 500 500" fill="none" xmlns="http://www.w3.org/2000/svg">
<rect opacity="0.3" x="148.233" y="336.347" width="295.462" height="138.325" fill="#6CAFFF"/>
<rect opacity="0.1" x="268.316" y="10.2396" width="152.847" height="259.284" transform="rotate(90 268.316 10.2396)" fill="#0C1B62"/>
<rect opacity="0.6" x="330.866" y="76.6329" width="127" height="150.234" fill="#28DBE4"/>
<path d="M196.455 91.6047H78.1507M133.519 403.604V351.223M70.9057 98.7802V335.684M78.6524 343.854H123.955" stroke="#98AAF5" stroke-width="3.6" stroke-linecap="round"/>
<rect x="40.9238" y="139.713" width="259.284" height="174.308" rx="9" fill="#D6E9FF"/>
<path d="M65.7669 203.383C65.232 203.383 64.7739 203.194 64.3926 202.818C64.0162 202.442 63.8304 201.986 63.8354 201.451C63.8304 200.926 64.0162 200.478 64.3926 200.107C64.7739 199.73 65.232 199.542 65.7669 199.542C66.272 199.542 66.7178 199.73 67.1041 200.107C67.4953 200.478 67.6934 200.926 67.6984 201.451C67.6934 201.808 67.5993 202.132 67.4161 202.424C67.2378 202.717 67.0025 202.949 66.7103 203.123C66.4231 203.296 66.1086 203.383 65.7669 203.383Z" fill="#768EF2"/>
<path d="M77.0016 191.757V194.431H69.662V191.757H77.0016ZM71.1923 203.167V191.177C71.1923 190.296 71.3582 189.565 71.69 188.986C72.0218 188.401 72.4824 187.965 73.0718 187.678C73.6611 187.386 74.3421 187.24 75.1147 187.24C75.6199 187.24 76.0953 187.279 76.541 187.359C76.9917 187.433 77.326 187.5 77.5439 187.559L76.9645 190.219C76.8308 190.174 76.6673 190.137 76.4742 190.107C76.286 190.078 76.1077 190.063 75.9393 190.063C75.5134 190.063 75.2212 190.157 75.0627 190.345C74.9042 190.533 74.825 190.791 74.825 191.118V203.167H71.1923Z" fill="#768EF2"/>
<path d="M84.1264 203.383C82.9279 203.383 81.8977 203.137 81.036 202.647C80.1792 202.152 79.518 201.464 79.0525 200.582C78.5919 199.695 78.3616 198.668 78.3616 197.499C78.3616 196.325 78.5919 195.298 79.0525 194.416C79.518 193.53 80.1792 192.841 81.036 192.351C81.8977 191.856 82.9279 191.608 84.1264 191.608C85.3249 191.608 86.3525 191.856 87.2093 192.351C88.0711 192.841 88.7322 193.53 89.1928 194.416C89.6584 195.298 89.8911 196.325 89.8911 197.499C89.8911 198.668 89.6584 199.695 89.1928 200.582C88.7322 201.464 88.0711 202.152 87.2093 202.647C86.3525 203.137 85.3249 203.383 84.1264 203.383ZM84.1487 200.641C84.5845 200.641 84.9535 200.508 85.2556 200.24C85.5577 199.973 85.788 199.601 85.9464 199.126C86.1099 198.65 86.1916 198.101 86.1916 197.477C86.1916 196.843 86.1099 196.288 85.9464 195.813C85.788 195.337 85.5577 194.966 85.2556 194.698C84.9535 194.431 84.5845 194.297 84.1487 194.297C83.698 194.297 83.3166 194.431 83.0046 194.698C82.6976 194.966 82.4623 195.337 82.2989 195.813C82.1404 196.288 82.0612 196.843 82.0612 197.477C82.0612 198.101 82.1404 198.65 82.2989 199.126C82.4623 199.601 82.6976 199.973 83.0046 200.24C83.3166 200.508 83.698 200.641 84.1487 200.641Z" fill="#768EF2"/>
<path d="M92.1704 203.167V191.757H95.6991V193.837H95.818C96.026 193.084 96.3652 192.524 96.8357 192.158C97.3062 191.786 97.8535 191.601 98.4775 191.601C98.6459 191.601 98.8192 191.613 98.9975 191.638C99.1758 191.657 99.3417 191.69 99.4953 191.734V194.891C99.3219 194.832 99.0941 194.785 98.8118 194.75C98.5345 194.716 98.2868 194.698 98.0689 194.698C97.6381 194.698 97.2493 194.795 96.9026 194.988C96.5609 195.176 96.291 195.441 96.0929 195.783C95.8997 196.12 95.8031 196.516 95.8031 196.972V203.167H92.1704Z" fill="#768EF2"/>
<path d="M101.394 203.167V191.757H104.848V193.851H104.975C105.212 193.158 105.613 192.611 106.178 192.21C106.743 191.809 107.416 191.608 108.199 191.608C108.991 191.608 109.67 191.811 110.234 192.217C110.799 192.623 111.158 193.168 111.311 193.851H111.43C111.643 193.173 112.059 192.631 112.678 192.225C113.297 191.813 114.028 191.608 114.87 191.608C115.949 191.608 116.826 191.955 117.5 192.648C118.173 193.336 118.51 194.282 118.51 195.486V203.167H114.877V196.318C114.877 195.748 114.731 195.315 114.439 195.018C114.147 194.716 113.768 194.565 113.302 194.565C112.802 194.565 112.408 194.728 112.121 195.055C111.839 195.377 111.698 195.81 111.698 196.355V203.167H108.206V196.281C108.206 195.751 108.062 195.332 107.775 195.025C107.488 194.718 107.109 194.565 106.639 194.565C106.322 194.565 106.042 194.641 105.799 194.795C105.556 194.943 105.366 195.156 105.227 195.434C105.093 195.711 105.027 196.038 105.027 196.414V203.167H101.394Z" fill="#768EF2"/>
<path d="M123.222 203.383C122.687 203.383 122.229 203.194 121.848 202.818C121.471 202.442 121.286 201.986 121.291 201.451C121.286 200.926 121.471 200.478 121.848 200.107C122.229 199.73 122.687 199.542 123.222 199.542C123.727 199.542 124.173 199.73 124.559 200.107C124.951 200.478 125.149 200.926 125.154 201.451C125.149 201.808 125.055 202.132 124.871 202.424C124.693 202.717 124.458 202.949 124.166 203.123C123.878 203.296 123.564 203.383 123.222 203.383Z" fill="#768EF2"/>
<path d="M127.971 203.167V191.757H131.604V203.167H127.971ZM129.792 190.427C129.281 190.427 128.843 190.258 128.477 189.922C128.11 189.58 127.927 189.169 127.927 188.688C127.927 188.213 128.11 187.807 128.477 187.47C128.843 187.128 129.281 186.958 129.792 186.958C130.307 186.958 130.745 187.128 131.106 187.47C131.473 187.807 131.656 188.213 131.656 188.688C131.656 189.169 131.473 189.58 131.106 189.922C130.745 190.258 130.307 190.427 129.792 190.427Z" fill="#768EF2"/>
<path d="M138.502 203.331C137.66 203.331 136.895 203.113 136.207 202.677C135.518 202.241 134.969 201.587 134.558 200.716C134.147 199.844 133.941 198.762 133.941 197.469C133.941 196.127 134.154 195.023 134.58 194.156C135.006 193.289 135.563 192.648 136.251 192.232C136.945 191.816 137.69 191.608 138.487 191.608C139.087 191.608 139.599 191.712 140.025 191.92C140.451 192.123 140.803 192.386 141.08 192.707C141.357 193.029 141.568 193.364 141.712 193.71H141.786V187.953H145.419V203.167H141.823V201.317H141.712C141.558 201.669 141.34 201.998 141.058 202.305C140.776 202.613 140.421 202.86 139.996 203.048C139.575 203.237 139.077 203.331 138.502 203.331ZM139.765 200.5C140.206 200.5 140.582 200.376 140.894 200.129C141.206 199.876 141.447 199.522 141.615 199.066C141.783 198.611 141.868 198.076 141.868 197.462C141.868 196.838 141.783 196.3 141.615 195.85C141.452 195.399 141.211 195.052 140.894 194.81C140.582 194.567 140.206 194.446 139.765 194.446C139.315 194.446 138.933 194.57 138.621 194.817C138.309 195.065 138.071 195.414 137.908 195.865C137.75 196.315 137.67 196.848 137.67 197.462C137.67 198.076 137.752 198.611 137.915 199.066C138.079 199.522 138.314 199.876 138.621 200.129C138.933 200.376 139.315 200.5 139.765 200.5Z" fill="#768EF2"/>
<rect x="163.291" y="172.767" width="117.729" height="120.953" rx="3.6" fill="white"/>
<rect x="173.47" y="267.816" width="43.0435" height="12.1713" rx="6.08563" fill="#768EF2"/>
<rect opacity="0.2" x="173.47" y="195.17" width="97.3701" height="18.2706" rx="4" stroke="#222E60" stroke-width="2" stroke-linecap="round" stroke-linejoin="round"/>
<path d="M177.47 187.047H196.171" stroke="#98AAF5" stroke-width="4" stroke-linecap="round"/>
<path d="M177.47 229.047H196.171" stroke="#98AAF5" stroke-width="4" stroke-linecap="round"/>
<rect opacity="0.2" x="173.47" y="235.17" width="97.3701" height="18.2706" rx="4" stroke="#222E60" stroke-width="2" stroke-linecap="round" stroke-linejoin="round"/>
<path d="M40.9238 148.713C40.9238 143.742 44.9532 139.713 49.9238 139.713H291.207C296.178 139.713 300.207 143.742 300.207 148.713V161.121H40.9238V148.713Z" fill="#435BBF"/>
<circle cx="69.104" cy="150.417" r="3.80318" fill="#F27676"/>
<circle cx="83.5245" cy="150.417" r="3.80318" fill="#FFCB71"/>
<circle cx="97.9451" cy="150.417" r="3.80318" fill="#22C1CB"/>
<rect x="9.29257" y="210.068" width="88.6525" height="88.6525" rx="9" fill="#F27676"/>
<path d="M40.6673 246.722L25.6501 252.771C23.5329 253.624 23.4718 256.599 25.5521 257.538L40.6673 264.36" stroke="#FFCB71" stroke-width="3.6" stroke-linecap="round"/>
<path d="M66.5703 246.722L81.5875 252.771C83.7047 253.624 83.7658 256.599 81.6855 257.538L66.5703 264.36" stroke="#FFCB71" stroke-width="3.6" stroke-linecap="round"/>
<path d="M57.445 237.115L48.4108 271.674" stroke="#FFCB71" stroke-width="3.6" stroke-linecap="round"/>
<path d="M262.285 266.631C263.893 270.043 263.2 276.777 262.653 279.718C265.547 294.906 252.792 303.409 245.982 284.643C244.876 281.597 245.384 280.204 244.338 279.018C243.292 277.833 240.963 279.046 238.038 278.251C235.113 277.455 231.767 267.727 232.999 265.937C234.63 263.568 242.296 264.021 243.57 263.715C244.467 263.217 244.116 261.874 241.899 259.509C239.463 256.911 234.603 256.946 235.6 254.015C236.598 251.084 247.446 252.737 251.079 254.66C253.738 255.598 260.274 262.367 262.285 266.631Z" fill="#FFD3B0"/>
<path d="M254.693 270.356C251.893 269.219 249.42 268.171 248.006 267.81C245.626 267.201 243.143 268.959 244.482 270.947C245.448 272.381 248.809 273.559 252.025 275.089" stroke="#EEAA8D" stroke-width="2.16" stroke-linecap="round"/>
<path d="M238.382 266.494C238.929 268.346 240.343 272.379 241.623 273.694C243.222 275.337 246.833 276.518 247.704 276.29C248.401 276.109 250.03 274.987 250.758 274.449" stroke="#EEAA8D" stroke-width="2.16" stroke-linecap="round"/>
<path d="M232.698 268.409C233.82 271.528 236.582 277.873 238.647 278.301C241.227 278.836 245.531 278.242 246.698 276.522" stroke="#EEAA8D" stroke-width="2.16" stroke-linecap="round"/>
<path d="M337.087 285.27C349.504 271.773 362.821 268.804 368.939 269.074L375.283 287.496C369.254 302.051 354.606 350.972 339.921 370.839C321.565 395.673 287.014 410.52 272.437 398.373C257.861 386.226 244.42 305.719 244.947 303.313C245.841 299.225 245.706 298.078 246.111 295.581C246.516 293.084 245.419 289.372 245.689 288.427C245.835 287.917 251.403 287.887 256.234 286.47C260.342 285.266 263.814 282.596 264.062 282.72C264.602 282.99 266.991 286.592 267.908 288.427C269.123 290.857 270.743 290.992 272.227 293.691C273.415 295.851 290.313 325.139 298.351 348.974C308.699 330.259 329.533 293.48 337.087 285.27Z" fill="#5472EF"/>
<path d="M320.354 500H389.447C392.619 458.044 397.36 408.569 396.498 405.463C395 400.074 379.327 400.617 361.27 401.244C351.87 401.57 341.824 401.918 332.796 401.464C330.573 422.787 327.963 443.354 325.478 462.937C324.672 469.281 321.115 493.87 320.354 500Z" fill="#222E60"/>
<path d="M360.329 499.698C359.036 476.974 356.222 432.412 354.952 415.707L379.969 400.882C382.433 400.926 384.704 401.035 386.724 401.236L395.613 433.239C394.827 446.037 394.638 481.07 393.231 499.698H360.329Z" fill="#141F4D"/>
<path d="M369.834 499.897H448.4C449.62 460.706 448.899 401.459 445.669 399.441C442.027 397.164 393.345 408.282 365.459 415.68C366.223 428.091 366.959 442.046 367.728 456.64C368.145 464.538 369.388 491.768 369.834 499.897Z" fill="#222E60"/>
<path d="M342.367 287.683C349.89 266.333 367.023 261.446 372.766 260.246C386.039 255.778 413.152 256.221 421.767 270.694C429.68 283.988 439.554 368.636 443.694 413.506C428.911 415.304 395.711 421.55 380.391 423.004C367.205 424.256 346.945 420.438 334.124 417.487C330.929 416.751 328.852 413.703 329.223 410.445C330.813 396.468 332.844 375.269 334.103 368.379C336.107 357.414 338.538 298.552 342.367 287.683Z" fill="#435BBF"/>
<path d="M435.603 341.006C438.969 366.579 441.882 393.856 443.695 413.506C437.271 414.287 427.37 415.908 416.969 417.611C410.772 418.626 404.398 419.67 398.476 420.582C413.05 403.29 426.276 373.402 424.1 366.479C421.596 358.511 415.089 328.064 412.148 313.836L435.603 341.006Z" fill="#32448F"/>
<path d="M406.861 437.069C405.381 435.475 413.453 427.488 417.674 423.694L436.598 441.764C433.515 444.467 427.236 449.788 426.78 449.447C426.211 449.02 408.711 439.06 406.861 437.069Z" fill="#FFD3B0"/>
<path d="M406.212 293.583C406.062 276.947 409.903 264.585 415.192 264.031C434.033 270.175 485.829 351.333 486.24 381.272C486.537 402.927 442.441 443.51 439.882 443.411C437.322 443.311 430.414 448.88 428.735 448.103C427.057 447.326 414.842 431.9 414.236 429.172C413.63 426.443 416.322 423.13 416.296 420.139C416.275 417.746 426.991 396.339 439.423 376.889C428.504 353.777 406.363 310.22 406.212 293.583Z" fill="#5472EF"/>
<circle cx="430.319" cy="296.735" r="12.3002" transform="rotate(2.22689 430.319 296.735)" fill="#768EF2"/>
<path d="M377.861 290.345C376.46 286.09 374.255 282.374 370.061 282.211C362.739 281.926 358.654 297.287 357.636 297.817C354.965 299.208 350.009 279.921 353.906 271.244C357.803 262.568 370.342 256.624 372.522 255.538C376.073 253.769 406.718 247.612 405.704 266.368C404.69 285.123 382.862 300.863 380.325 300.194C379.393 299.949 379.219 294.471 377.861 290.345Z" fill="white"/>
<path d="M355.674 153.941C346.017 156.154 340.986 167.471 339.678 172.853C331.302 170.722 322.36 180.165 328.959 188.342C326.42 189.408 321.086 194.19 320.059 204.793C317.223 234.09 371.559 267.965 400.22 246.568C407.685 240.995 406.675 233.027 404.161 230.249C418.181 226.96 415.884 212.081 410.953 208.871C422.442 194.124 410.761 181.047 405.169 179.194C401.387 166.236 384.849 161.487 377.052 160.732C373.95 157.546 365.332 151.728 355.674 153.941Z" fill="#6D3654"/>
<path d="M392.98 265.028L382.309 238.179L364.027 237.774L361.226 276.341C368.15 289.839 390.863 275.787 392.98 265.028Z" fill="#FFD3B0"/>
<path d="M385.39 245.932L382.309 238.179L373.376 237.981L363.768 241.337L362.342 260.969C364.419 260.478 377.95 256.919 385.39 245.932Z" fill="#EEAA8D"/>
<path d="M341.993 254.702C331.229 252.086 331.558 208.048 341.317 188.531C346.423 176.435 384.274 191.903 379.47 200.882C377.132 205.25 378.931 206.338 381.119 208.124C383.307 209.91 385.203 214.815 384.122 217.859C383.04 220.902 382.587 225.58 386.083 221.983C389.579 218.387 398.785 196.456 402.96 210.239C406.299 221.265 398.046 225.765 393.502 226.636C383.919 252.465 352.758 257.318 341.993 254.702Z" fill="#FFD3B0"/>
<path d="M363.619 232.846C362.185 231.581 347.61 238.046 346.187 238.899C342.555 240.759 347.382 247.286 355.722 243.839C364.062 240.392 365.052 234.111 363.619 232.846Z" fill="#080B18"/>
<path d="M364.162 234.603C360.897 234.673 356.082 235.503 353.298 238.479C351.383 240.526 350.591 242.835 350.355 244.796C351.892 244.923 353.704 244.673 355.722 243.839C361.984 241.25 364.103 237.064 364.162 234.603Z" fill="#F27676"/>
<path d="M351.384 215.477C347.264 219.414 341.119 226.708 341.428 228.197C341.681 229.415 348.837 228.914 352.485 227.507" stroke="#EEAA8D" stroke-width="1.56661" stroke-linecap="round"/>
<ellipse rx="6.58544" ry="3.5597" transform="matrix(-0.995346 -0.0963651 -0.0963651 0.995346 365.274 212.528)" fill="white"/>
<circle r="2.37313" transform="matrix(-0.995346 -0.0963651 -0.0963651 0.995346 364.017 212.371)" fill="#141414"/>
<ellipse rx="5.63856" ry="3.5597" transform="matrix(-0.995346 -0.0963651 -0.0963651 0.995346 340.941 210.172)" fill="white"/>
<circle r="2.37313" transform="matrix(-0.995346 -0.0963651 -0.0963651 0.995346 340.817 210.156)" fill="#141414"/>
<path d="M392.137 210.979C393.668 208.346 394.835 205.961 395.556 204.008C400.889 189.572 398.098 169.627 378.204 163.766C366.938 160.447 347.278 159.754 337.67 181.646C336.462 184.399 335.173 187.699 333.953 191.332C339.955 194.285 355.286 197.607 371.333 190.327C371.844 195.885 373.787 208.665 387.777 208.446C388.419 209.92 390.38 208.863 392.137 210.979Z" fill="#6D3654"/>
<path d="M371.611 157.625C374.713 159.14 376.927 161.811 378.125 165.05" stroke="#4F1836" stroke-width="1.56661" stroke-linecap="round"/>
<rect x="32.6377" y="390.503" width="156.138" height="99.9813" rx="18" fill="#222E60"/>
<rect x="25.0694" y="366.603" width="169.157" height="42.1484" rx="3.6" fill="#435BBF"/>
<path d="M99.9558 370.203C99.9558 368.215 101.568 366.603 103.556 366.603H190.626C192.614 366.603 194.226 368.215 194.226 370.203V405.151C194.226 407.139 192.614 408.751 190.626 408.751H103.556C101.568 408.751 99.9558 407.139 99.9558 405.151V370.203Z" fill="#5472EF"/>
<rect x="106.13" y="383.293" width="57.1606" height="8.56428" rx="4.28214" fill="#222E60"/>
<circle cx="174.654" cy="387.575" r="3.80318" fill="#F59898"/>
<circle cx="184.973" cy="387.575" r="3.80318" fill="#22C1CB"/>
<path d="M33.0498 393.576H53.0522" stroke="#98AAF5" stroke-width="3.6" stroke-linecap="round"/>
<path d="M33.0498 402.445H53.0522" stroke="#98AAF5" stroke-width="3.6" stroke-linecap="round"/>
<rect x="25.0694" y="412.053" width="169.157" height="42.1484" rx="3.6" fill="#435BBF"/>
<path d="M99.9558 415.653C99.9558 413.665 101.568 412.053 103.556 412.053H190.626C192.614 412.053 194.226 413.665 194.226 415.653V450.601C194.226 452.59 192.614 454.201 190.626 454.201H103.556C101.568 454.201 99.9558 452.59 99.9558 450.601V415.653Z" fill="#5472EF"/>
<rect x="106.13" y="428.743" width="57.1606" height="8.56428" rx="4.28214" fill="#222E60"/>
<circle cx="174.654" cy="433.025" r="3.80318" fill="#F59898"/>
<circle cx="184.973" cy="433.025" r="3.80318" fill="#22C1CB"/>
<path d="M33.0498 439.026H53.0522" stroke="#98AAF5" stroke-width="3.6" stroke-linecap="round"/>
<path d="M33.0498 447.895H53.0522" stroke="#98AAF5" stroke-width="3.6" stroke-linecap="round"/>
<rect x="25.0694" y="457.503" width="169.157" height="42.1484" rx="3.6" fill="#435BBF"/>
<path d="M99.9558 461.103C99.9558 459.114 101.568 457.503 103.556 457.503H190.626C192.614 457.503 194.226 459.114 194.226 461.103V496.051C194.226 498.039 192.614 499.651 190.626 499.651H103.556C101.568 499.651 99.9558 498.039 99.9558 496.051V461.103Z" fill="#5472EF"/>
<rect x="106.13" y="474.193" width="57.1606" height="8.56428" rx="4.28214" fill="#222E60"/>
<circle cx="174.654" cy="478.475" r="3.80318" fill="#F59898"/>
<circle cx="184.973" cy="478.475" r="3.80318" fill="#22C1CB"/>
<path d="M33.0498 484.476H53.0522" stroke="#98AAF5" stroke-width="3.6" stroke-linecap="round"/>
<path d="M33.0498 493.345H53.0522" stroke="#98AAF5" stroke-width="3.6" stroke-linecap="round"/>
<path d="M230.017 65.962L189.809 41.374L149.602 65.962C149.602 65.962 149.602 115.407 189.809 131.276C230.016 115.407 230.017 65.962 230.017 65.962Z" fill="#FFCB71"/>
<circle cx="189.809" cy="86.6631" r="23.4295" stroke="#F27676" stroke-width="3.6" stroke-linecap="round"/>
<ellipse cx="189.809" cy="86.6631" rx="9.85872" ry="22.8045" stroke="#F27676" stroke-width="3.6" stroke-linecap="round"/>
<ellipse cx="189.809" cy="86.663" rx="9.85872" ry="22.8045" transform="rotate(90 189.809 86.663)" stroke="#F27676" stroke-width="3.6" stroke-linecap="round"/>
<circle cx="70.9056" cy="91.6048" r="7.07039" stroke="#98AAF5" stroke-width="3.6" stroke-linecap="round"/>
<circle cx="131.604" cy="343.418" r="7.07039" stroke="#98AAF5" stroke-width="3.6" stroke-linecap="round"/>
<circle cx="70.9056" cy="343.418" r="7.07039" stroke="#98AAF5" stroke-width="3.6" stroke-linecap="round"/>
</svg>
