<svg width="60" height="60" viewBox="0 0 60 60" fill="none" xmlns="http://www.w3.org/2000/svg">
<rect width="60" height="60" rx="30" fill="#DCEDFF"/>
<rect x="10.1509" y="24.9055" width="39.6983" height="21.786" rx="2" fill="#FFCB71"/>
<path d="M11.0257 25.3098L30 12.3098L48.9744 25.3098L30.7075 35.6292C30.0887 35.9788 29.331 35.9737 28.717 35.616L11.0257 25.3098Z" fill="#B38E4F"/>
<path d="M14.9102 27.586V13.9897C14.9102 12.8852 15.8056 11.9897 16.9102 11.9897H43.0898C44.1944 11.9897 45.0898 12.8852 45.0898 13.9897V27.5657L31.0663 36.2159C30.4141 36.6182 29.5894 36.6124 28.9429 36.2012L14.9102 27.586Z" fill="white"/>
<path d="M22.7585 37.057L14.7262 49.203" stroke="#222E60" stroke-width="2"/>
<circle cx="29.6342" cy="26.7226" r="11.1536" transform="rotate(33.4771 29.6342 26.7226)" fill="white"/>
<path d="M30.5046 21.7396C31.3826 21.7396 32.1489 21.907 32.8037 22.2418C33.4584 22.5692 33.9606 23.0342 34.3103 23.6368C34.6675 24.232 34.846 24.9203 34.846 25.7015C34.846 26.3339 34.7344 26.9217 34.5112 27.4648C34.2954 28.008 33.9718 28.4432 33.5403 28.7706C33.1162 29.0905 32.6102 29.2505 32.0224 29.2505C31.6281 29.2505 31.3007 29.1724 31.0403 29.0161C30.7874 28.8599 30.6162 28.6404 30.527 28.3577C30.3186 28.6478 30.0508 28.8748 29.7234 29.0385C29.396 29.1947 29.0389 29.2728 28.652 29.2728C28.1014 29.2728 27.6662 29.1091 27.3462 28.7818C27.0338 28.447 26.8775 27.9931 26.8775 27.4202C26.8775 26.8771 26.9891 26.3674 27.2123 25.8912C27.4355 25.4076 27.7443 25.0207 28.1386 24.7305C28.533 24.4404 28.9757 24.2953 29.4667 24.2953C30.0917 24.2953 30.5158 24.5185 30.739 24.9649L30.8394 24.3734H32.3796L31.8885 27.1747C31.8662 27.3086 31.855 27.4276 31.855 27.5318C31.855 27.8592 32.0001 28.0229 32.2903 28.0229C32.6474 28.0229 32.919 27.7959 33.105 27.3421C33.2985 26.8808 33.3952 26.3525 33.3952 25.7573C33.3952 24.9017 33.1236 24.232 32.5805 23.7484C32.0448 23.2648 31.2896 23.023 30.3149 23.023C29.4816 23.023 28.7227 23.2239 28.0382 23.6257C27.3611 24.0274 26.8291 24.578 26.4423 25.2774C26.0554 25.9693 25.8619 26.732 25.8619 27.5653C25.8619 28.4656 26.1223 29.1649 26.6431 29.6634C27.1714 30.1619 27.908 30.4112 28.8529 30.4112C29.5895 30.4112 30.2479 30.2773 30.8283 30.0094L31.1296 31.2259C30.4005 31.5458 29.582 31.7058 28.6743 31.7058C27.8261 31.7058 27.0784 31.5421 26.4311 31.2147C25.7912 30.8874 25.2965 30.4223 24.9468 29.8197C24.5971 29.217 24.4222 28.5139 24.4222 27.7104C24.4222 26.5869 24.6864 25.5713 25.2146 24.6636C25.7429 23.7484 26.4683 23.0342 27.3909 22.5208C28.3209 22 29.3588 21.7396 30.5046 21.7396ZM29.277 27.9001C29.4853 27.9001 29.6788 27.8369 29.8573 27.7104C30.0433 27.5839 30.1884 27.4165 30.2926 27.2082C30.4042 26.9924 30.46 26.7617 30.46 26.5162C30.46 26.2632 30.3893 26.0586 30.2479 25.9024C30.1066 25.7387 29.9131 25.6569 29.6676 25.6569C29.3402 25.6569 29.0687 25.7982 28.8529 26.081C28.6371 26.3637 28.5292 26.6985 28.5292 27.0854C28.5292 27.3309 28.5925 27.5281 28.719 27.6769C28.8455 27.8257 29.0315 27.9001 29.277 27.9001Z" fill="#F27676"/>
<circle cx="29.6342" cy="26.7226" r="11.1536" transform="rotate(33.4771 29.6342 26.7226)" stroke="#435BBF" stroke-width="4"/>
<path d="M20.4798 40.5027L14.7262 49.203" stroke="#435BBF" stroke-width="3" stroke-linecap="round"/>
</svg>
