<svg width="500" height="500" viewBox="0 0 500 500" fill="none" xmlns="http://www.w3.org/2000/svg">
<g clip-path="url(#clip0_2648_102455)">
<rect opacity="0.1" x="146.154" y="41.4363" width="313.13" height="244.476" fill="#0C1B62"/>
<path d="M375.97 374.239C368.756 370.91 355.7 380.097 350.073 385.106H497.592C496.667 383.488 493.985 379.603 490.656 377.014C486.494 373.777 484.413 377.014 478.401 377.014C472.389 377.014 471.002 361.522 460.597 356.666C450.192 351.811 442.33 364.065 438.862 367.302C435.394 370.539 432.619 370.308 425.683 365.453C418.746 360.597 402.792 368.458 396.549 374.239C390.306 380.02 384.988 378.401 375.97 374.239Z" fill="#99C8FF"/>
<path d="M417.781 384.2L415.584 373.68" stroke="#7AA0CC" stroke-width="2" stroke-linecap="round"/>
<path d="M454.545 384.258C454.73 383.703 457.782 370.231 459.285 363.564" stroke="#7AA0CC" stroke-width="2" stroke-linecap="round"/>
<path d="M455.701 377.668L450.383 366.685" stroke="#7AA0CC" stroke-width="2" stroke-linecap="round"/>
<path opacity="0.3" d="M532.979 385.106H-32.9795V500H532.979V385.106Z" fill="#6CAFFF"/>
<ellipse opacity="0.2" cx="365.494" cy="467.165" rx="119.253" ry="6.6617" fill="#222E60"/>
<path d="M322.073 464.652H244.955H234.132C230.479 453.558 231.02 435.428 244.279 430.422C251.043 429.069 260.649 429.204 266.602 437.863C272.082 448.01 272.42 441.516 278.982 443.343C285.544 445.169 280.132 450.581 287.708 451.664C295.285 452.746 294.473 447.605 304.485 447.334C312.494 447.118 319.548 458.789 322.073 464.652Z" fill="#99C8FF"/>
<path d="M269.782 463.569L275.599 454.369" stroke="#7AA0CC" stroke-width="2" stroke-linecap="round"/>
<path d="M305.026 463.569L302.117 458.307" stroke="#7AA0CC" stroke-width="2" stroke-linecap="round"/>
<path d="M250.841 463.569L246.24 444.628" stroke="#7AA0CC" stroke-width="2" stroke-linecap="round"/>
<path d="M248.946 453.963L253.276 440.84" stroke="#7AA0CC" stroke-width="2" stroke-linecap="round"/>
<rect x="-63.6436" width="341.251" height="465.722" fill="#32448F"/>
<rect x="73.3955" y="57.0132" width="179.316" height="408.708" rx="3.81727" fill="#F59898"/>
<rect x="83.3955" y="57.0132" width="179.316" height="408.708" rx="3.81727" fill="#F27676"/>
<path d="M190.301 285.912C185.879 285.912 181.725 287.012 178.084 288.942C174.444 287.012 170.29 285.912 165.868 285.912C151.427 285.912 139.724 297.616 139.724 312.056C139.724 314.622 141.8 316.699 144.366 316.699C146.932 316.699 149.008 314.622 149.008 312.056C149.008 302.747 156.559 295.197 165.868 295.197C167.26 295.197 168.629 295.368 169.924 295.686C173.1 296.468 175.91 298.154 178.084 300.426C180.968 303.456 182.727 307.536 182.727 312.032C182.727 314.598 180.65 316.674 178.084 316.674C175.519 316.674 173.442 314.598 173.442 312.032C173.442 309.247 174.126 306.608 175.324 304.287C173.344 301.868 170.437 300.231 167.163 299.889C165.232 303.529 164.157 307.658 164.157 312.056C164.157 319.753 170.388 325.984 178.084 325.984C185.781 325.984 192.012 319.753 192.012 312.056C192.012 305.85 189.862 300.157 186.245 295.686C187.54 295.368 188.909 295.197 190.301 295.197C199.61 295.197 207.161 302.747 207.161 312.056C207.161 314.622 209.237 316.699 211.803 316.699C214.368 316.699 216.445 314.622 216.445 312.056C216.445 297.616 204.741 285.912 190.301 285.912Z" fill="white"/>
<path d="M150.279 326.008C149.351 323.614 146.663 322.441 144.268 323.369C141.874 324.298 140.701 326.985 141.629 329.38C147.298 343.967 161.47 354.327 178.084 354.327C194.699 354.327 208.871 343.967 214.54 329.38C215.468 326.985 214.295 324.298 211.901 323.369C209.506 322.441 206.819 323.638 205.89 326.008C201.565 337.15 190.741 345.042 178.084 345.042C165.428 345.042 154.604 337.15 150.279 326.008Z" fill="white"/>
<rect x="217.776" y="213.297" width="36.1785" height="69.9596" rx="10" fill="#A73B3B"/>
<rect x="221.505" y="208.5" width="31.2928" height="69.9596" rx="10" fill="#435BBF"/>
<rect x="225.061" y="208.534" width="31.2928" height="69.9596" rx="10" fill="#768EF2"/>
<path opacity="0.6" d="M221.504 233.786H242.122C244.421 233.786 246.286 231.921 246.286 229.622C246.286 227.322 244.421 225.457 242.122 225.457H221.504V233.786Z" fill="#32448F"/>
<rect x="230.143" y="236.401" width="4.99718" height="4.99718" rx="1" fill="#435BBF"/>
<rect x="231.342" y="236.401" width="4.99718" height="4.99718" rx="1" fill="white"/>
<rect x="237.338" y="236.401" width="4.99718" height="4.99718" rx="1" fill="#435BBF"/>
<rect x="238.538" y="236.401" width="4.99718" height="4.99718" rx="1" fill="white"/>
<rect x="244.534" y="236.401" width="4.99718" height="4.99718" rx="1" fill="#435BBF"/>
<rect x="245.733" y="236.401" width="4.99718" height="4.99718" rx="1" fill="white"/>
<rect x="230.143" y="244.796" width="4.99718" height="4.99718" rx="1" fill="#435BBF"/>
<rect x="231.342" y="244.796" width="4.99718" height="4.99718" rx="1" fill="white"/>
<rect x="237.338" y="244.796" width="4.99718" height="4.99718" rx="1" fill="#435BBF"/>
<rect x="238.538" y="244.796" width="4.99718" height="4.99718" rx="1" fill="white"/>
<rect x="244.534" y="244.796" width="4.99718" height="4.99718" rx="1" fill="#435BBF"/>
<rect x="245.733" y="244.796" width="4.99718" height="4.99718" rx="1" fill="white"/>
<rect x="230.143" y="253.19" width="4.99718" height="4.99718" rx="1" fill="#435BBF"/>
<rect x="231.342" y="253.19" width="4.99718" height="4.99718" rx="1" fill="white"/>
<rect x="237.338" y="253.19" width="4.99718" height="4.99718" rx="1" fill="#435BBF"/>
<rect x="238.538" y="253.19" width="4.99718" height="4.99718" rx="1" fill="white"/>
<rect x="244.534" y="253.19" width="4.99718" height="4.99718" rx="1" fill="#435BBF"/>
<rect x="245.733" y="253.19" width="4.99718" height="4.99718" rx="1" fill="white"/>
<rect x="214" y="223.059" width="32.2862" height="8.32848" rx="4.16424" fill="#32448F"/>
<path d="M355.778 470.38C356.637 470.125 356.149 453.758 355.778 445.516C355.084 443.224 338.485 428.709 336.68 445.516C334.874 462.323 320.498 462.323 316.47 463.087C311.57 464.016 308.505 469.48 310.983 469.893C312.864 470.207 350.153 472.046 355.778 470.38Z" fill="#FFCB71"/>
<path d="M356.206 467.185C356.141 469.092 356.008 470.312 355.778 470.38C350.153 472.046 312.864 470.207 310.983 469.893C309.686 469.677 309.908 468.077 311.116 466.468C318.537 466.632 347.571 467.131 356.206 467.185Z" fill="white"/>
<path d="M329.5 354C333.763 329.197 337.953 287.587 342.027 262.03L387.031 257.029C377.632 320.136 358.39 446.572 356.612 447.461C354.389 448.572 345.222 448.572 342.166 447.461C339.11 446.35 335.135 448.191 333.763 447.01C331.263 444.857 326.444 371.779 329.5 354Z" fill="#222E60"/>
<path d="M340.198 273.494C343.813 273.92 348.699 275.972 349.25 282.031C349.498 284.753 349.133 291.319 348.672 299.613C347.581 319.257 345.952 348.599 350.639 359.537C354.993 369.696 360.65 390.754 364.129 406.001C370.257 368.113 378.798 312.021 384.833 271.741L382.864 258.974L376.28 258.224L342.028 262.03C341.434 265.756 340.822 269.591 340.198 273.494Z" fill="#141F4D"/>
<path d="M416.15 468.843C416.644 468.382 410.553 448.305 408.038 438.071C406.766 436.828 384.186 423.131 389.88 441.767C395.607 460.517 384.356 464.625 376.235 467.44C372.133 468.862 371.5 472.884 372.585 473.505C375.48 475.159 414.95 469.963 416.15 468.843Z" fill="#FFCB71"/>
<path d="M415.557 465.722C416.025 467.573 416.265 468.736 416.15 468.843C414.95 469.963 375.48 475.159 372.585 473.505C372.048 473.198 371.932 472.058 372.448 470.813C383.567 470.128 403.768 468.387 415.557 465.722Z" fill="white"/>
<path d="M360 356.5C357.361 334.554 356.195 280.087 356.195 249.251C373.511 245.825 402.846 240.68 404.532 243.139C411.199 252.862 398.976 319.256 396.754 349.537C396.343 355.14 412.449 448.156 411.338 449.683C410.227 451.211 400.296 451.455 396.754 450.691C392.112 449.689 388.698 453.434 387.725 451.489C386.915 449.869 360.975 364.612 360 356.5Z" fill="#222E60"/>
<path d="M299.053 197.031L331.983 195.985L331.32 200.541L329.367 201.757L296.325 200.307C296.069 198.618 297.346 197.085 299.053 197.031Z" fill="#C2DEFF"/>
<path d="M267.822 238.376C268.49 238.575 273.49 239.534 275.907 239.988C276.485 240.097 272 249.131 269.967 249.423C267.935 249.715 261.308 247.614 260.898 247.524C260.489 247.434 258.355 249.416 257.247 249.546C256.138 249.676 251.074 250.402 250.286 249.044C249.657 247.957 251.164 241.956 252.11 239.955C251.36 239.878 249.411 239.75 247.614 239.85C245.368 239.974 243.746 238.864 244.142 237.892C244.538 236.92 256.572 234.245 258.071 234.28C259.57 234.315 266.988 238.128 267.822 238.376Z" fill="#FFD3B0"/>
<path d="M250.192 245.939C250.11 246.833 250.101 248.742 250.718 249.236C251.488 249.852 253.676 249.953 254.801 247.902" stroke="#EEAA8D" stroke-linecap="round"/>
<path d="M260.3 237.735C259.744 238.457 258.462 240.037 257.782 240.58C256.933 241.259 254.257 241.865 254.201 242.765C254.144 243.665 255.044 244.716 258.093 244.029C260.532 243.48 261.903 241.807 262.284 241.04" stroke="#EEAA8D" stroke-linecap="round"/>
<path d="M328.99 205.222C331.645 194.77 335.908 185.069 338.724 181.627L356.021 188.8L358.046 204.275C359.587 223.025 356.613 262.103 332.394 268.409C302.12 276.292 271.17 252.895 270.874 252.176C270.579 251.458 267.677 250.338 267.188 249.874C266.698 249.411 269.917 238.594 270.701 238.224C271.524 237.835 274.451 238.24 274.907 238.214C275.363 238.187 277.017 237.372 277.73 237.22C278.444 237.068 318.426 241.564 320.541 240.829C322.657 240.093 325.672 218.287 328.99 205.222Z" fill="#5472EF"/>
<path d="M251.468 241.441C250.774 242.264 250.485 245.81 254.313 245.617C256.49 245.508 257.131 245.016 257.238 244.354" stroke="#EEAA8D" stroke-linecap="round"/>
<path d="M251.031 242.387C250.561 243.233 249.77 245.262 250.371 246.611C251.121 248.297 254.291 248.011 254.963 247.832C255.5 247.689 255.974 246.137 256.144 245.379" stroke="#EEAA8D" stroke-linecap="round"/>
<path d="M338.782 273.528C337.606 272.789 332.565 193.031 336.176 185.52C340.398 176.739 348.398 174.057 353.936 173.599C358.366 173.233 372.344 170.992 383.555 178.676C393.897 185.766 406.918 258.139 406.202 259.592C405.486 261.045 380.242 272.331 355.853 274.347C339.657 275.686 340.758 274.77 338.782 273.528Z" fill="#435BBF"/>
<path d="M398.318 218.25C403.155 238.438 406.58 258.828 406.203 259.592C405.707 260.597 393.467 266.311 377.892 270.404C361.081 260.052 350.992 240.479 354.518 242.015C358.039 243.548 372.354 241.852 380.213 240.921C382.524 240.647 384.277 240.439 385.033 240.399C387.697 240.258 380.412 216.163 376.437 204.133L398.318 218.25Z" fill="#32448F"/>
<path d="M334.749 202.106L334.363 198.408C334.214 196.987 332.979 195.932 331.553 196.008C330.303 196.074 329.265 196.996 329.052 198.229L328.33 202.401L299.617 203.743L305.175 246.627C305.299 247.586 306.092 248.319 307.058 248.367L338.681 249.952C339.928 250.014 340.927 248.931 340.764 247.693L334.744 202.107L334.749 202.106Z" fill="#D6E9FF"/>
<path d="M302.108 222.958L327.582 206.748L300.007 206.748L302.108 222.958Z" fill="#ADD3FF"/>
<path d="M340.942 224.638C341.468 224.929 344.464 225.927 345.896 226.389C347.525 226.708 349.034 238.221 346.067 238.152C343.099 238.084 324.481 233.646 323.947 232.106C323.512 230.853 326.094 230.825 327.373 230.987C325.92 230.41 323.459 229.679 323.449 228.402C323.439 227.235 325.468 227.747 326.683 227.908C325.193 227.021 322.44 225.889 322.688 225.102C322.883 224.083 325.151 224.583 326.503 224.511C325.631 223.654 323.238 222.06 324.025 221.473C324.966 220.628 335.753 222.504 335.958 222.452C336.163 222.4 336.08 216.817 337.083 216.734C338.087 216.651 340.285 224.275 340.942 224.638Z" fill="#FFD3B0"/>
<path d="M371.568 198.065C369.383 188.489 373.226 181.147 376.253 178.862C377.445 177.961 386.373 173.147 399.705 194.484C413.037 215.821 427.295 239.06 411 251C395.395 262.434 356.062 246.525 354.085 245.364C352.107 244.204 348.043 241.404 347.404 240.411C346.764 239.419 344.604 239.005 343.872 238.578C343.14 238.15 344.224 225.552 344.865 224.872C345.505 224.192 348.146 224.949 349.138 225.146C350.13 225.342 350.551 224.541 352.339 224.254C353.77 224.024 374.97 225.64 388 229C381.512 220.198 373.317 205.725 371.568 198.065Z" fill="#5472EF"/>
<path d="M340.77 179.565C343.708 174.639 349.686 172.202 352.386 170.87C362.563 165.847 370.239 175.248 368.757 183.454C367.275 191.66 356.999 198.015 355.362 197.593C353.724 197.171 351.073 186.544 349.129 186.261C347.637 186.045 343.873 196.87 342.893 196.812C340.775 196.686 337.098 185.723 340.77 179.565Z" fill="white"/>
<path d="M327.631 119.169C322.657 121.638 321.396 128.463 321.387 131.567C316.544 131.501 312.905 137.817 317.571 141.409C316.326 142.322 314.045 145.626 314.872 151.538C317.157 167.875 351.197 179.23 364.018 163.822C367.357 159.809 365.765 155.599 364.032 154.414C371.242 150.788 368.044 142.98 364.938 141.876C369.271 132.337 361.195 126.738 357.905 126.459C354.15 119.892 344.516 119.467 340.169 120.075C338.062 118.745 332.605 116.701 327.631 119.169Z" fill="#6D3654"/>
<path d="M361.28 173.167L352.119 159.816L342.077 161.862L345.328 183.287C350.786 189.806 361.457 179.31 361.28 173.167Z" fill="#FFD3B0"/>
<path d="M344.224 176.012C347.114 175.233 353.824 172.848 357.003 166.933L353.714 162.141L343.401 165.472L343.207 169.309L344.224 176.012Z" fill="#EEAA8D"/>
<path d="M333.352 175.868C327.143 175.85 321.564 151.808 324.331 139.897C325.532 132.637 348.181 136.117 346.737 141.638C346.034 144.324 347.157 144.682 348.583 145.369C350.009 146.057 351.684 148.482 351.492 150.282C351.3 152.081 351.665 154.69 353.1 152.273C354.535 149.856 356.684 136.701 360.761 143.666C364.023 149.238 360.114 152.769 357.752 153.838C355.907 169.167 339.56 175.886 333.352 175.868Z" fill="#FFD3B0"/>
<path d="M333.66 165.446C334.188 164.887 342.947 160.32 343.868 159.92C346.704 158.688 347.106 165.826 340.448 168.776C337.138 170.242 331.95 167.259 333.66 165.446Z" fill="#080B18"/>
<path d="M345.81 161.786C345.834 163.864 344.36 167.043 340.448 168.776C339.645 169.132 338.731 169.226 337.832 169.138C338.044 167.91 338.572 166.397 339.692 164.848C341.141 162.844 343.716 162.038 345.81 161.786Z" fill="#F27676"/>
<path d="M333.34 153.264C331.609 155.948 329.214 160.727 329.577 161.498C329.875 162.129 333.709 160.92 335.513 159.676" stroke="#EEAA8D" stroke-linecap="round"/>
<ellipse rx="3.69062" ry="1.99493" transform="matrix(-0.990359 0.138527 0.138527 0.990359 340.523 149.841)" fill="white"/>
<circle r="1.32995" transform="matrix(-0.990359 0.138527 0.138527 0.990359 339.818 149.986)" fill="#141414"/>
<ellipse rx="3.15997" ry="1.99493" transform="matrix(-0.990359 0.138527 0.138527 0.990359 326.956 151.739)" fill="white"/>
<circle r="1.32995" transform="matrix(-0.990359 0.138527 0.138527 0.990359 326.779 151.81)" fill="#141414"/>
<path d="M354.96 145.484C355.451 143.849 355.774 142.397 355.912 141.238C356.931 132.674 352.802 122.17 341.194 121.577C334.621 121.242 323.817 123.435 321.443 136.621C321.145 138.279 320.874 140.246 320.684 142.385C324.341 143.21 333.13 143.016 340.923 136.95C341.928 139.912 344.658 146.623 352.253 144.674C352.796 145.393 353.726 144.561 354.96 145.484Z" fill="#6D3654"/>
<path d="M336.798 119.093C338.687 119.513 340.243 120.679 341.319 122.288" stroke="#4F1836" stroke-width="0.87796" stroke-linecap="round"/>
<circle cx="388.509" cy="194.891" r="8.39926" transform="rotate(-4.72595 388.509 194.891)" fill="#768EF2"/>
<path d="M328.853 206.371L329.224 197.731L296.312 200.064L295.994 207.73C295.945 208.908 296.92 209.873 298.098 209.81L326.961 208.282C327.99 208.228 328.809 207.4 328.853 206.371Z" fill="#C2DEFF"/>
<rect x="123.739" y="75.8662" width="104.74" height="109.025" rx="4" fill="#99C8FF"/>
<path d="M220.479 184.891H224.479C226.688 184.891 228.479 183.1 228.479 180.891V79.8662C228.479 77.6571 226.688 75.8662 224.479 75.8662H220.479C221.584 75.8662 222.479 76.7616 222.479 77.8662V182.891C222.479 183.996 221.584 184.891 220.479 184.891Z" fill="#7AA0CC"/>
<rect x="174.022" y="75.8662" width="4.06224" height="109.025" fill="#EBF4FF"/>
<rect x="123.628" y="105.41" width="4.06224" height="104.851" transform="rotate(-90 123.628 105.41)" fill="#7AA0CC"/>
<rect x="123.628" y="165.41" width="4.06224" height="104.851" transform="rotate(-90 123.628 165.41)" fill="#7AA0CC"/>
<rect x="123.628" y="102.41" width="4.06224" height="104.851" transform="rotate(-90 123.628 102.41)" fill="#EBF4FF"/>
<rect x="123.628" y="162.41" width="4.06224" height="104.851" transform="rotate(-90 123.628 162.41)" fill="#EBF4FF"/>
<circle cx="176.053" cy="100.379" r="6.31993" fill="#EBF4FF"/>
<circle cx="176.053" cy="160.379" r="6.31993" fill="#EBF4FF"/>
<rect x="123.739" y="75.8662" width="104.74" height="109.025" rx="4" stroke="#EBF4FF" stroke-width="3"/>
<rect x="236.103" y="130.332" width="76.7897" height="53.6018" rx="2" fill="#FFCB71"/>
<path d="M312.892 189.285C312.892 190.931 311.013 191.873 309.695 190.887L295.771 180.484L312.892 180.484L312.892 189.285Z" fill="#FFCB71"/>
<rect x="244.076" y="154.488" width="11.9602" height="11.9602" rx="2" fill="#E6B766"/>
<rect x="261.036" y="154.488" width="11.9602" height="11.9602" rx="2" fill="#E6B766"/>
<rect x="277.996" y="154.488" width="11.9602" height="11.9602" rx="2" fill="#E6B766"/>
<rect x="294.956" y="154.488" width="11.9602" height="11.9602" rx="2" fill="#E6B766"/>
<rect x="244.076" y="151.488" width="11.9602" height="11.9602" rx="2" fill="white"/>
<path d="M249.342 160.536L249.475 158.474L247.749 159.63L247.036 158.373L248.895 157.468L247.036 156.562L247.749 155.305L249.475 156.461L249.342 154.399H250.775L250.636 156.461L252.362 155.305L253.076 156.562L251.222 157.468L253.076 158.373L252.362 159.63L250.636 158.474L250.775 160.536H249.342Z" fill="#141F4D"/>
<rect x="261.036" y="151.488" width="11.9602" height="11.9602" rx="2" fill="white"/>
<path d="M266.302 160.536L266.435 158.474L264.709 159.63L263.996 158.373L265.855 157.468L263.996 156.562L264.709 155.305L266.435 156.461L266.302 154.399H267.735L267.596 156.461L269.322 155.305L270.036 156.562L268.182 157.468L270.036 158.373L269.322 159.63L267.596 158.474L267.735 160.536H266.302Z" fill="#141F4D"/>
<rect x="277.996" y="151.488" width="11.9602" height="11.9602" rx="2" fill="white"/>
<path d="M283.263 160.536L283.396 158.474L281.67 159.63L280.956 158.373L282.815 157.468L280.956 156.562L281.67 155.305L283.396 156.461L283.263 154.399H284.695L284.557 156.461L286.283 155.305L286.997 156.562L285.143 157.468L286.997 158.373L286.283 159.63L284.557 158.474L284.695 160.536H283.263Z" fill="#141F4D"/>
<rect x="294.956" y="151.488" width="11.9602" height="11.9602" rx="2" fill="white"/>
<path d="M300.222 160.536L300.355 158.474L298.63 159.63L297.916 158.373L299.775 157.468L297.916 156.562L298.63 155.305L300.355 156.461L300.222 154.399H301.655L301.517 156.461L303.242 155.305L303.956 156.562L302.103 157.468L303.956 158.373L303.242 159.63L301.517 158.474L301.655 160.536H300.222Z" fill="#141F4D"/>
<rect opacity="0.6" x="373" y="68.0933" width="127" height="51" fill="#28DBE4"/>
</g>
<defs>
<clipPath id="clip0_2648_102455">
<rect width="500" height="500" fill="white"/>
</clipPath>
</defs>
</svg>
