<svg width="500" height="500" viewBox="0 0 500 500" fill="none" xmlns="http://www.w3.org/2000/svg">
<g clip-path="url(#clip0_2648_102867)">
<rect opacity="0.1" x="120.914" y="174.13" width="310.697" height="140.016" fill="#0C1B62"/>
<rect opacity="0.6" x="287.34" y="80.2778" width="118.448" height="36.7059" fill="#28DBE4"/>
<path opacity="0.3" d="M532.979 385.106H-32.9795V500H532.979V385.106Z" fill="#6CAFFF"/>
<ellipse opacity="0.2" cx="278.086" cy="435.249" rx="185.671" ry="4.80493" fill="#222E60"/>
<path d="M242.862 364.299C256.675 357.923 281.674 375.514 292.447 385.106H9.99121C11.7621 382.007 16.8976 374.57 23.2728 369.611C31.2418 363.413 35.2263 369.611 46.737 369.611C58.2477 369.611 60.904 339.949 80.8264 330.652C100.749 321.355 115.801 344.819 122.442 351.017C129.083 357.215 134.396 356.772 147.677 347.475C160.959 338.178 191.507 353.23 203.46 364.299C215.413 375.367 225.596 372.267 242.862 364.299Z" fill="#99C8FF"/>
<path d="M162.807 383.371L167.013 363.227" stroke="#7AA0CC" stroke-width="2" stroke-linecap="round"/>
<path d="M92.4146 383.482C92.0604 382.419 86.2165 356.624 83.3388 343.858" stroke="#7AA0CC" stroke-width="2" stroke-linecap="round"/>
<path d="M90.201 370.864L100.384 349.835" stroke="#7AA0CC" stroke-width="2" stroke-linecap="round"/>
<rect x="279.306" y="351.205" width="95.1986" height="80.5315" rx="3.81727" fill="#F27676"/>
<path d="M286.472 412.483H298.422" stroke="#EF5454" stroke-width="3" stroke-linecap="round"/>
<path d="M286.472 419.744H305.422" stroke="#EF5454" stroke-width="3" stroke-linecap="round"/>
<rect x="337.698" y="351.205" width="45.3105" height="80.5315" rx="3.81727" fill="#F59898"/>
<rect x="300.892" y="351.205" width="18.2648" height="44.5434" fill="#FFCB71"/>
<rect x="337.306" y="351.205" width="95.1986" height="80.5315" rx="3.81727" fill="#435BBF"/>
<path d="M344.472 412.483H356.422" stroke="#5472EF" stroke-width="3" stroke-linecap="round"/>
<path d="M344.472 419.744H363.422" stroke="#5472EF" stroke-width="3" stroke-linecap="round"/>
<rect x="395.698" y="351.205" width="45.3105" height="80.5315" rx="3.81727" fill="#5472EF"/>
<rect x="358.892" y="351.205" width="18.2648" height="44.5434" fill="#FFCB71"/>
<rect x="130.69" y="351.205" width="95.1986" height="80.5315" rx="3.81727" fill="#435BBF"/>
<path d="M137.856 412.483H149.806" stroke="#5472EF" stroke-width="3" stroke-linecap="round"/>
<path d="M137.856 419.745H156.806" stroke="#5472EF" stroke-width="3" stroke-linecap="round"/>
<rect x="189.082" y="351.205" width="45.3105" height="80.5315" rx="3.81727" fill="#5472EF"/>
<rect x="152.276" y="351.205" width="18.2648" height="44.5434" fill="#FFCB71"/>
<path d="M463.757 442.053H386.639H375.815C372.162 430.959 372.704 412.83 385.962 407.824C392.727 406.471 402.333 406.606 408.286 415.265C413.766 425.412 414.104 418.918 420.666 420.744C427.227 422.571 421.816 427.983 429.392 429.065C436.969 430.147 436.157 425.006 446.169 424.735C454.178 424.519 461.232 436.19 463.757 442.053Z" fill="#99C8FF"/>
<path d="M411.466 440.971L417.283 431.771" stroke="#7AA0CC" stroke-width="2" stroke-linecap="round"/>
<path d="M446.71 440.971L443.801 435.708" stroke="#7AA0CC" stroke-width="2" stroke-linecap="round"/>
<path d="M392.524 440.971L387.924 422.029" stroke="#7AA0CC" stroke-width="2" stroke-linecap="round"/>
<path d="M390.63 431.365L394.96 418.241" stroke="#7AA0CC" stroke-width="2" stroke-linecap="round"/>
<path d="M274.51 419.727C275.354 418.181 274.159 403.157 273.456 395.838L299.98 392.677C300.565 406.26 301.561 433.674 300.858 434.657C299.98 435.887 255.891 437.292 255.715 434.657C255.54 432.023 273.456 421.659 274.51 419.727Z" fill="#FFCB71"/>
<path d="M301.098 430.444C301.088 432.879 301.016 434.436 300.858 434.657C299.98 435.887 255.891 437.292 255.715 434.657C255.674 434.03 256.659 432.963 258.198 431.677C271.165 431.625 291.299 431.321 301.098 430.444Z" fill="white"/>
<path d="M219.005 419.727C219.848 418.181 218.653 403.157 217.95 395.838L244.474 392.677C245.059 406.26 246.055 433.674 245.352 434.657C244.474 435.887 200.385 437.292 200.21 434.657C200.034 432.023 217.95 421.659 219.005 419.727Z" fill="#FFCB71"/>
<path d="M245.59 430.941C245.572 433.09 245.499 434.452 245.352 434.657C244.474 435.887 200.385 437.292 200.21 434.657C200.171 434.073 201.023 433.107 202.384 431.937C216.771 431.664 238.07 431.223 245.59 430.941Z" fill="white"/>
<path d="M213.114 296.111C213.985 269.987 219.518 237.521 223.265 201.571C239.542 202.391 261.182 198.981 262.587 204.04C264.343 210.364 247.042 404.81 247.042 406.743C247.042 408.675 236.186 409.055 233.2 408.001C230.214 406.948 223.012 408.528 221.08 408.001C219.148 407.474 216.513 406.397 216.513 403.786C216.513 400.173 212.399 317.541 213.114 296.111Z" fill="#222E60"/>
<path d="M236.942 210.364C238.464 230.388 241.298 272.053 240.455 278.517C239.662 284.593 245.624 339.737 250.273 368.659C254.052 324.51 260.045 253.677 262.041 221.186L256.554 201.431C255.307 201.307 253.905 201.24 252.384 201.213L236.942 210.364Z" fill="#141F4D"/>
<path d="M251.345 316.809C247.093 292.514 245.418 243.223 243.427 210.903C260.641 206.336 290.691 199.473 292.94 200.878C295.75 202.635 294.482 251.111 292.94 278.868C292.588 285.191 302.284 387.948 302.636 390.407C302.987 392.866 303.602 406.713 300.089 408.587C297.454 409.992 274.707 409.729 272.423 407.972C270.14 406.216 270.491 403.581 270.843 399.892C271.194 396.204 255.597 341.104 251.345 316.809Z" fill="#222E60"/>
<path d="M191.203 125.841L182.81 97.1463C182.494 96.066 183.247 94.9672 184.368 94.8713L198.328 93.6786C199.583 93.5714 200.742 94.3546 201.11 95.5585L209.688 123.567C210.021 124.653 209.265 125.77 208.132 125.864L193.06 127.117C192.216 127.187 191.44 126.654 191.203 125.841Z" fill="#222E60"/>
<path d="M188.14 99.7462C187.79 100.396 186.804 100.544 185.938 100.077C185.072 99.6097 184.654 98.7047 185.004 98.0552C185.354 97.4057 186.34 97.2578 187.206 97.7247C188.072 98.1917 188.49 99.0967 188.14 99.7462Z" fill="#FFCB71"/>
<path d="M188.988 103.319C188.638 103.969 187.652 104.117 186.786 103.65C185.92 103.183 185.502 102.278 185.852 101.628C186.202 100.979 187.188 100.831 188.054 101.298C188.92 101.765 189.338 102.67 188.988 103.319Z" fill="#FFCB71"/>
<path d="M216.752 145.619C219.039 142.455 228.948 129.218 233.389 123.502L241.047 165.022C235.644 171.374 222.386 185.636 212.581 191.864C200.325 199.65 191.805 183.674 196.177 175.23C199.138 169.509 204.212 162.974 216.752 145.619Z" fill="#5472EF"/>
<path d="M198.676 112.089C199.009 112.559 195.929 117.944 194.347 120.578C194.757 125.36 196.559 130.027 197.134 134.793C196.151 134.755 187.862 135.15 184.457 135.311C183.975 130.385 183.01 120.084 183.01 118.291C183.009 116.498 184.725 109.583 185.584 106.35L186.79 110.352C188.792 108.218 192.94 104.078 193.518 104.593C194.096 105.108 192.571 108.98 191.737 110.852C193.505 109.441 197.177 106.774 197.716 107.393C198.254 108.012 196.15 111.507 195.03 113.177C196.106 112.619 198.343 111.619 198.676 112.089Z" fill="#FFD3B0"/>
<path d="M208.189 162.425C209.489 169.683 212.955 189.044 212.487 192.015C208.771 194.924 202.078 197.521 190.829 195.237C174.085 191.839 182.628 139.414 182.878 138.633C183.129 137.852 183.25 133.594 183.397 133.204C183.47 133.011 185.676 134.479 189.669 134.634C193.663 134.79 196.683 133.325 196.971 133.336C197.542 133.358 198.116 136.677 198.537 137.133C198.959 137.588 206.889 155.168 208.189 162.425Z" fill="#768EF2"/>
<path d="M229.173 131.336C233.817 118.157 244.393 115.141 247.938 114.4C256.131 111.642 272.868 111.915 278.185 120.85C283.07 129.055 289.165 181.307 291.721 209.005C282.595 210.115 262.101 213.97 252.644 214.868C244.505 215.641 231.999 213.284 224.085 211.462C222.112 211.008 220.83 209.126 221.059 207.115C222.041 198.488 223.295 185.402 224.072 181.149C225.309 174.38 226.809 138.046 229.173 131.336Z" fill="#435BBF"/>
<path d="M286.726 164.252C288.804 180.037 290.602 196.875 291.721 209.005C287.756 209.487 281.644 210.488 275.224 211.539C271.398 212.165 267.463 212.81 263.808 213.373C272.805 202.699 280.968 184.249 279.625 179.976C278.079 175.057 274.063 156.263 272.248 147.48L286.726 164.252Z" fill="#32448F"/>
<path d="M268.984 223.55C268.071 222.566 273.053 217.636 275.659 215.294L287.34 226.448C285.437 228.117 281.561 231.401 281.28 231.19C280.929 230.927 270.126 224.779 268.984 223.55Z" fill="#FFD3B0"/>
<path d="M268.584 134.978C268.491 124.709 270.862 117.078 274.127 116.737C285.757 120.529 317.73 170.627 317.983 189.107C318.167 202.474 290.947 227.526 289.367 227.465C287.787 227.403 283.523 230.841 282.487 230.361C281.451 229.881 273.911 220.359 273.537 218.675C273.163 216.99 274.824 214.946 274.808 213.099C274.795 211.622 281.41 198.408 289.084 186.402C282.344 172.135 268.676 145.248 268.584 134.978Z" fill="#5472EF"/>
<circle cx="283.465" cy="136.924" r="7.59274" transform="rotate(2.22689 283.465 136.924)" fill="#768EF2"/>
<path d="M251.083 132.979C250.218 130.353 248.857 128.059 246.268 127.958C241.748 127.782 239.226 137.265 238.598 137.592C236.95 138.451 233.89 126.545 236.296 121.189C238.701 115.833 246.442 112.164 247.787 111.493C249.979 110.401 268.896 106.601 268.27 118.179C267.644 129.756 254.17 139.472 252.604 139.059C252.028 138.908 251.921 135.526 251.083 132.979Z" fill="white"/>
<path d="M234.46 49.5592C228.637 51.4278 226.137 58.6529 225.616 62.0319C220.352 61.1613 215.349 67.4393 219.837 72.1213C218.332 72.9102 215.302 76.132 215.228 82.7075C215.023 100.875 250.223 118.854 266.726 104.188C271.024 100.368 269.984 95.5206 268.292 93.9439C276.742 91.1844 274.547 82.1535 271.346 80.4388C277.637 70.7644 269.765 63.3355 266.229 62.4898C263.222 54.719 252.8 52.6673 247.965 52.6128C245.89 50.8164 240.284 47.6907 234.46 49.5592Z" fill="#6D3654"/>
<path d="M260.416 117.351L253.828 100.778L242.543 100.528L240.814 124.335C245.088 132.667 259.108 123.993 260.416 117.351Z" fill="#FFD3B0"/>
<path d="M255.731 105.564L253.828 100.778L248.315 100.656L242.383 102.727L241.504 114.846C242.786 114.543 251.138 112.346 255.731 105.564Z" fill="#EEAA8D"/>
<path d="M231.341 112.251C224.583 111.208 222.471 84.1049 227.448 71.5886C229.952 63.8803 254.045 71.405 251.562 77.1796C250.354 79.9889 251.518 80.5639 252.957 81.5473C254.397 82.5306 255.821 85.4479 255.316 87.3765C254.81 89.305 254.778 92.2059 256.739 89.8103C258.7 87.4146 263.21 73.4425 266.501 81.7C269.135 88.3059 264.295 91.5073 261.546 92.2822C257.01 108.672 238.099 113.294 231.341 112.251Z" fill="#FFD3B0"/>
<path d="M235.055 87.6319C232.728 90.27 229.332 95.0792 229.6 95.9787C229.82 96.7146 234.195 96.0305 236.365 94.9735" stroke="#EEAA8D" stroke-width="0.967041" stroke-linecap="round"/>
<ellipse rx="4.06509" ry="2.19734" transform="matrix(-0.999937 -0.0112735 -0.0112735 0.999937 243.444 85.0884)" fill="white"/>
<circle r="1.4649" transform="matrix(-0.999937 -0.0112735 -0.0112735 0.999937 242.662 85.058)" fill="#141414"/>
<ellipse rx="3.48059" ry="2.19734" transform="matrix(-0.999937 -0.0112735 -0.0112735 0.999937 228.354 84.9182)" fill="white"/>
<circle r="1.4649" transform="matrix(-0.999937 -0.0112735 -0.0112735 0.999937 228.276 84.9151)" fill="#141414"/>
<path d="M244.085 96.4377C243.289 97.7615 240.618 100.37 236.306 100.215" stroke="#EEAA8D" stroke-width="0.967041" stroke-linecap="round"/>
<path d="M259.884 82.7238C260.687 81.0242 261.279 79.4958 261.621 78.2566C264.142 69.0975 261.377 56.9775 248.833 54.4184C241.73 52.9691 229.602 53.5759 224.843 67.5452C224.245 69.302 223.625 71.3996 223.066 73.6978C226.912 75.1987 236.516 76.4362 246.003 71.1156C246.609 74.5073 248.476 82.2651 257.069 81.3949C257.541 82.2681 258.692 81.5147 259.884 82.7238Z" fill="#6D3654"/>
<path d="M244.456 50.988C246.443 51.7568 247.945 53.2832 248.852 55.2121" stroke="#4F1836" stroke-width="0.967041" stroke-linecap="round"/>
<rect x="76.2529" y="55.2122" width="86.1763" height="100.473" rx="10" fill="#768EF2"/>
<rect x="86" y="125.5" width="14" height="19" rx="4" fill="#5472EF"/>
<rect x="88" y="125.5" width="16" height="19" rx="4" fill="white"/>
<path d="M95.2862 138.068L95.4194 136.007L93.6935 137.163L92.9797 135.906L94.8388 135L92.9797 134.094L93.6935 132.837L95.4194 133.993L95.2862 131.932H96.7191L96.5806 133.993L98.3064 132.837L99.0202 134.094L97.1665 135L99.0202 135.906L98.3064 137.163L96.5806 136.007L96.7191 138.068H95.2862Z" fill="#141F4D"/>
<rect x="111" y="125.5" width="14" height="19" rx="4" fill="#5472EF"/>
<rect x="113" y="125.5" width="16" height="19" rx="4" fill="white"/>
<path d="M120.286 138.068L120.419 136.007L118.694 137.163L117.98 135.906L119.839 135L117.98 134.094L118.694 132.837L120.419 133.993L120.286 131.932H121.719L121.581 133.993L123.306 132.837L124.02 134.094L122.167 135L124.02 135.906L123.306 137.163L121.581 136.007L121.719 138.068H120.286Z" fill="#141F4D"/>
<rect x="136" y="125.5" width="14" height="19" rx="4" fill="#5472EF"/>
<rect x="138" y="125.5" width="16" height="19" rx="4" fill="white"/>
<path d="M145.286 138.068L145.419 136.007L143.694 137.163L142.98 135.906L144.839 135L142.98 134.094L143.694 132.837L145.419 133.993L145.286 131.932H146.719L146.581 133.993L148.306 132.837L149.02 134.094L147.167 135L149.02 135.906L148.306 137.163L146.581 136.007L146.719 138.068H145.286Z" fill="#141F4D"/>
<path d="M96.2685 80.2163L119.273 66.1486L142.277 80.2163C142.277 80.2163 142.277 108.506 119.273 117.585C96.2687 108.506 96.2685 80.2163 96.2685 80.2163Z" fill="#E6B766"/>
<path d="M100.079 78.2163L123.083 64.1486L146.087 78.2163C146.087 78.2163 146.088 106.506 123.083 115.585C100.079 106.506 100.079 78.2163 100.079 78.2163Z" fill="#FFCB71"/>
<path d="M116.45 88.4046L119.896 92.307C120.69 93.2057 122.091 93.2089 122.889 92.3138L129.716 84.6543" stroke="#F27676" stroke-width="4" stroke-linecap="round"/>
<path d="M167.228 109.981C168.16 110.78 168.16 112.22 167.228 113.019L162 117.5L162 105.5L167.228 109.981Z" fill="#768EF2"/>
<circle cx="371.748" cy="144.806" r="42.5919" fill="#2E47BA"/>
<path d="M378.914 124.741C376.32 124.741 373.884 125.386 371.748 126.518C369.613 125.386 367.176 124.741 364.582 124.741C356.112 124.741 349.247 131.606 349.247 140.076C349.247 141.581 350.465 142.799 351.97 142.799C353.475 142.799 354.693 141.581 354.693 140.076C354.693 134.616 359.122 130.187 364.582 130.187C365.399 130.187 366.202 130.287 366.961 130.474C368.824 130.932 370.472 131.921 371.748 133.254C373.439 135.031 374.471 137.425 374.471 140.062C374.471 141.567 373.253 142.785 371.748 142.785C370.243 142.785 369.025 141.567 369.025 140.062C369.025 138.428 369.426 136.88 370.129 135.518C368.968 134.1 367.262 133.139 365.342 132.939C364.21 135.074 363.579 137.496 363.579 140.076C363.579 144.591 367.234 148.245 371.748 148.245C376.263 148.245 379.917 144.591 379.917 140.076C379.917 136.436 378.656 133.096 376.535 130.474C377.295 130.287 378.097 130.187 378.914 130.187C384.374 130.187 388.803 134.616 388.803 140.076C388.803 141.581 390.021 142.799 391.526 142.799C393.031 142.799 394.249 141.581 394.249 140.076C394.249 131.606 387.384 124.741 378.914 124.741Z" fill="white"/>
<path d="M355.438 148.26C354.894 146.855 353.317 146.167 351.913 146.712C350.508 147.256 349.82 148.833 350.365 150.237C353.69 158.793 362.002 164.87 371.748 164.87C381.494 164.87 389.806 158.793 393.131 150.237C393.676 148.833 392.988 147.256 391.583 146.712C390.179 146.167 388.602 146.869 388.058 148.26C385.521 154.795 379.172 159.424 371.748 159.424C364.324 159.424 357.975 154.795 355.438 148.26Z" fill="white"/>
</g>
<defs>
<clipPath id="clip0_2648_102867">
<rect width="500" height="500" fill="white"/>
</clipPath>
</defs>
</svg>
