<svg width="500" height="500" viewBox="0 0 500 500" fill="none" xmlns="http://www.w3.org/2000/svg">
<g clip-path="url(#clip0_2648_100196)">
<rect opacity="0.1" x="83.6551" y="122.969" width="221.03" height="221.03" fill="#0C1B62"/>
<path opacity="0.3" d="M531.537 385.106H-34.4217V500H531.537V385.106Z" fill="#6CAFFF"/>
<ellipse opacity="0.2" cx="290.544" cy="404.679" rx="191.663" ry="4.80493" fill="#222E60"/>
<path d="M194.17 403.317H117.052H106.228C102.575 392.223 103.116 374.093 116.375 369.088C123.14 367.735 132.746 367.87 138.699 376.529C144.178 386.676 144.517 380.182 151.079 382.008C157.64 383.835 152.229 389.247 159.805 390.329C167.382 391.411 166.57 386.27 176.582 385.999C184.591 385.783 191.645 397.454 194.17 403.317Z" fill="#99C8FF"/>
<path d="M141.878 402.235L147.696 393.035" stroke="#7AA0CC" stroke-width="2" stroke-linecap="round"/>
<path d="M177.123 402.234L174.214 396.972" stroke="#7AA0CC" stroke-width="2" stroke-linecap="round"/>
<path d="M122.937 402.235L118.337 383.293" stroke="#7AA0CC" stroke-width="2" stroke-linecap="round"/>
<path d="M121.043 392.629L125.372 379.505" stroke="#7AA0CC" stroke-width="2" stroke-linecap="round"/>
<path d="M371.393 300.869H385.654L365.654 404.145H351.393L371.393 300.869Z" fill="#D74C4C"/>
<path d="M446.654 300.869H432.393L452.393 404.145H466.654L446.654 300.869Z" fill="#D74C4C"/>
<path d="M170.393 300.869H184.654L164.654 404.145H150.393L170.393 300.869Z" fill="#D74C4C"/>
<path d="M245.654 300.869H231.393L251.393 404.145H265.654L245.654 300.869Z" fill="#D74C4C"/>
<rect x="151.793" y="294.502" width="320.455" height="10.9562" rx="2" fill="#F27676"/>
<rect x="174.198" y="207.563" width="298.05" height="64.3001" rx="2" fill="#F27676"/>
<rect width="150.577" height="244.473" rx="23" transform="matrix(-1 0 0 1 189.027 50.7753)" fill="#1F2833"/>
<rect width="141.523" height="244.473" rx="23" transform="matrix(-1 0 0 1 189.027 50.7753)" fill="#3D5066"/>
<path d="M147.355 70.0301C148.238 66.5902 151.339 64.1849 154.89 64.1849H168.076C173.599 64.1849 178.076 68.6621 178.076 74.1849V271.839C178.076 277.362 173.599 281.839 168.076 281.839H68.4555C62.9327 281.839 58.4555 277.362 58.4555 271.839V74.1849C58.4555 68.6621 62.9327 64.1849 68.4556 64.1849H81.6417C85.193 64.1849 88.2935 66.5902 89.1762 70.0301C90.059 73.47 93.1594 75.8752 96.7108 75.8752H139.821C143.372 75.8752 146.473 73.47 147.355 70.0301Z" fill="#768EF2"/>
<path d="M83.6551 137.454C83.6551 136.349 84.5505 135.454 85.6551 135.454H149.723C150.828 135.454 151.723 136.349 151.723 137.454V171.83C151.723 172.935 150.828 173.83 149.723 173.83H85.6551C84.5505 173.83 83.6551 172.935 83.6551 171.83V137.454Z" fill="#E6B766"/>
<rect x="86.6551" y="135.454" width="68.068" height="38.3765" rx="2" fill="#FFCB71"/>
<path d="M88.6551 135.454H153.723L121.755 155.172C121.103 155.575 120.279 155.569 119.632 155.158L88.6551 135.454Z" fill="#FFEAC6"/>
<circle cx="150.031" cy="135.059" r="17.4827" fill="white"/>
<path d="M151.551 126.354C153.085 126.354 154.424 126.646 155.567 127.231C156.711 127.803 157.589 128.615 158.199 129.668C158.823 130.708 159.135 131.91 159.135 133.275C159.135 134.38 158.94 135.407 158.55 136.355C158.173 137.304 157.608 138.064 156.854 138.636C156.113 139.195 155.23 139.475 154.203 139.475C153.514 139.475 152.942 139.338 152.487 139.065C152.045 138.792 151.746 138.409 151.59 137.915C151.226 138.422 150.758 138.818 150.187 139.104C149.615 139.377 148.991 139.514 148.315 139.514C147.353 139.514 146.593 139.228 146.034 138.656C145.488 138.071 145.215 137.278 145.215 136.277C145.215 135.329 145.41 134.438 145.8 133.606C146.19 132.762 146.729 132.086 147.418 131.579C148.107 131.072 148.88 130.818 149.738 130.818C150.83 130.818 151.571 131.208 151.961 131.988L152.136 130.955H154.827L153.969 135.848C153.93 136.082 153.91 136.29 153.91 136.472C153.91 137.044 154.164 137.33 154.671 137.33C155.295 137.33 155.769 136.934 156.094 136.141C156.432 135.335 156.601 134.412 156.601 133.372C156.601 131.878 156.126 130.708 155.178 129.863C154.242 129.018 152.922 128.596 151.22 128.596C149.764 128.596 148.438 128.947 147.243 129.649C146.06 130.35 145.13 131.312 144.455 132.534C143.779 133.743 143.441 135.075 143.441 136.531C143.441 138.103 143.896 139.325 144.806 140.196C145.728 141.067 147.015 141.502 148.666 141.502C149.953 141.502 151.103 141.268 152.117 140.8L152.643 142.926C151.369 143.484 149.94 143.764 148.354 143.764C146.872 143.764 145.566 143.478 144.435 142.906C143.317 142.334 142.453 141.522 141.842 140.469C141.231 139.416 140.926 138.188 140.926 136.784C140.926 134.822 141.387 133.047 142.31 131.462C143.233 129.863 144.5 128.615 146.112 127.718C147.736 126.809 149.55 126.354 151.551 126.354ZM149.407 137.116C149.771 137.116 150.109 137.005 150.42 136.784C150.745 136.563 150.999 136.271 151.181 135.907C151.376 135.53 151.473 135.127 151.473 134.698C151.473 134.256 151.35 133.899 151.103 133.626C150.856 133.34 150.518 133.197 150.089 133.197C149.517 133.197 149.043 133.444 148.666 133.938C148.289 134.432 148.1 135.017 148.1 135.692C148.1 136.121 148.211 136.466 148.432 136.726C148.653 136.986 148.978 137.116 149.407 137.116Z" fill="#F27676"/>
<path d="M156.427 202.463H83.4737" stroke="#41D5DE" stroke-width="18" stroke-linecap="round"/>
<path d="M178.295 392.586L185.083 364.958H210.13C208.027 378.214 203.591 404.957 202.673 405.875C201.526 407.022 155.829 407.596 156.402 404.728C156.861 402.433 171.539 395.773 178.295 392.586Z" fill="#FFCB71"/>
<path d="M203.734 401.905C203.251 404.207 202.876 405.672 202.673 405.875C201.526 407.022 155.829 407.596 156.402 404.728C156.548 404 158.125 402.832 160.426 401.476C173.034 401.931 191.815 402.367 203.734 401.905Z" fill="white"/>
<path d="M186.517 169.848C188.161 170.574 194.358 181.308 195.473 184.287C195.599 184.618 187.281 190.163 182.167 191.024C180.589 189.175 177.664 186.33 176.861 185.527C175.857 184.523 167.922 187.343 166.632 179.695C166.066 176.34 170.28 173.035 172.224 172.238C170.185 170.645 165.534 166.558 166.966 164.59C168.878 161.961 179.426 166.837 183.075 168.892C183.075 168.892 184.461 168.94 186.517 169.848Z" fill="#FFD3B0"/>
<path d="M167.492 176.11C166.695 177.161 165.58 179.953 167.492 182.706C169.882 186.148 173.658 184.953 173.993 184.332C174.506 183.378 173.921 182.754 173.682 182.228" stroke="#EEAA8D" stroke-width="1.27242" stroke-linecap="round"/>
<path d="M199 269.5C209.556 255 249.263 254.343 271.697 258.805L270.168 295.133C259.205 296.217 234.795 298.078 233.266 298.384C231.354 298.766 210.102 370.546 209.556 372.379C207.166 380.409 191.468 382.621 184.509 380.983C181.259 380.218 176.67 375.821 179.155 372.379C181.641 368.937 186.721 286.366 199 269.5Z" fill="#222E60"/>
<path d="M267.14 295.422C261.829 295.912 254.774 296.5 248.471 297.026C240.68 297.675 234.04 298.229 233.266 298.384C231.407 298.755 211.285 366.555 209.651 372.06C209.604 372.22 209.572 372.327 209.556 372.379C208.572 375.686 205.331 378.006 201.372 379.477C206.928 341.202 209.651 278.83 218.925 269.703C224.509 261.643 244.929 258.55 256.401 257.466L267.873 293.03L267.14 295.422Z" fill="#141F4D"/>
<path d="M172.272 172.142C171.412 172.413 169.653 173.299 169.5 174.676C169.308 176.397 173.945 178.548 176.909 178.93C179.872 179.312 180.709 176.468 180.183 175.799C179.762 175.264 178.622 175.13 178.104 175.13" stroke="#EEAA8D" stroke-width="1.27242" stroke-linecap="round"/>
<path d="M186.086 169.609C184.62 169.083 181.077 168.28 178.629 169.274C175.57 170.517 175.881 173.122 178.629 174.15C181.378 175.178 184.079 173.624 186.612 177.305" stroke="#EEAA8D" stroke-linecap="round"/>
<path d="M256.688 195.421C263.476 190.259 268.351 183.089 279.996 175.552C284.462 171.126 292.569 206.013 289.707 212.35C286.845 218.687 259.246 248.33 234.715 249.352C210.183 250.374 181.399 197.085 181.45 195.756C181.501 194.427 179.559 190.901 179.303 190.338C179.048 189.776 192.796 180.066 193.409 179.912C194.022 179.759 194.84 181.65 195.964 182.365C197.089 183.081 197.549 183.439 199.389 183.95C201.229 184.461 231.648 216.95 232.977 216.847C234.306 216.745 250.526 200.108 256.688 195.421Z" fill="#5472EF"/>
<path d="M225.331 395.256L232.118 367.627H257.166C255.063 380.884 250.627 407.627 249.709 408.544C248.562 409.692 202.864 410.265 203.438 407.397C203.897 405.103 218.575 398.443 225.331 395.256Z" fill="#FFCB71"/>
<path d="M250.77 404.575C250.287 406.877 249.912 408.342 249.709 408.544C248.562 409.692 202.864 410.265 203.438 407.397C203.584 406.669 205.161 405.502 207.462 404.145C220.07 404.601 238.851 405.037 250.77 404.575Z" fill="white"/>
<path d="M269.468 191.702C274.579 176.165 288.071 168.397 292.16 167.579C307.288 162.673 322.476 171.159 329.632 181.177C336.787 191.194 333.456 261.618 331.411 264.276C329.367 266.933 320.985 265.094 306.062 264.276C291.138 263.458 256.589 264.889 252.909 260.187C249.229 255.485 248.82 251.601 251.887 246.695C254.953 241.788 264.357 207.239 269.468 191.702Z" fill="#435BBF"/>
<path d="M333.622 204.259C334.836 228.503 332.819 262.446 331.411 264.276C329.949 266.176 325.247 265.777 317.229 265.096C314.035 264.825 310.314 264.509 306.062 264.276C301.957 264.051 296.369 263.996 290.347 263.937C274.47 263.781 255.577 263.596 252.909 260.187C251.921 258.925 251.169 257.722 250.657 256.542C258.426 246.352 286.598 247.781 302.082 248.566C305.272 248.728 307.923 248.862 309.746 248.862C320.836 248.862 324.852 241.214 322.175 228.404C320.033 218.155 316.948 204.121 315.674 198.385L333.622 204.259Z" fill="#32448F"/>
<path d="M250.856 258.518C255.938 252.814 303.501 260.781 329.249 265.115C329.953 265.232 329.466 271.111 328.725 277.498C327.622 287.001 319.93 294.306 310.415 295.301C301.817 296.2 292.752 297.139 291.487 297.237C289.001 297.428 260.734 373.844 259.843 376.777C255.923 389.683 244.176 390.195 232.692 386.719C218.161 382.321 225.426 379.645 226.765 372.188C228.208 364.148 241.487 269.034 250.856 258.518Z" fill="#222E60"/>
<path d="M297.371 245.229C298.556 244.924 304.844 241.597 307.839 239.971C312.16 237.672 316.396 248.719 314.627 251.252C312.858 253.786 305.019 258.422 304.063 259.426C303.107 260.43 303.967 265.019 302.247 266.166C300.87 267.084 299.92 264.891 299.618 263.68C299.538 263.999 299.111 264.579 298.04 264.35C296.702 264.063 295.172 261.051 295.268 261.434C295.363 261.816 293.929 262.103 292.83 260.621C291.731 259.139 291.492 252.065 291.826 250.057C292.161 248.05 295.889 245.612 297.371 245.229Z" fill="#FFD3B0"/>
<path d="M379.492 210.239C379.492 194.976 322.849 173.433 320.076 172.095C309.751 168.749 309.515 198.111 317.734 204.503C322.897 208.519 331.501 211.387 335.516 214.191C334.369 215.019 328.059 219.608 322.227 224.006C318.125 227.099 310.516 234.904 309.417 235.813C308.317 236.721 305.258 237.342 304.589 239.35C303.92 241.358 311.52 250.918 313.05 253.069C314.579 255.22 319.455 254.742 320.22 254.216C320.984 253.69 320.602 253.451 325.191 252.495C329.78 251.539 379.492 228.212 379.492 210.239Z" fill="#5472EF"/>
<circle cx="332.316" cy="188.62" r="9.70395" fill="#768EF2"/>
<path d="M287.239 182.535C292.597 184.124 293.41 189.003 295.411 194.239C306.477 194.239 317.321 177.651 309.179 168.603C304.455 163.355 296.741 164.406 290.664 166.229C285.916 167.654 278.169 174.874 276.422 179.997C274.362 186.036 278.397 192.979 279.94 193.513C280.787 191.067 282.212 184.242 287.239 182.535Z" fill="white"/>
<path d="M277.822 100.181C271.658 101.805 268.66 109.186 267.931 112.674C262.502 111.478 256.949 117.736 261.362 122.855C259.752 123.593 256.422 126.779 255.983 133.618C254.77 152.513 290.41 173.161 308.392 158.806C313.075 155.068 312.259 149.966 310.586 148.232C319.531 145.826 317.744 136.307 314.507 134.346C321.586 124.625 313.804 116.461 310.17 115.386C307.468 107.134 296.736 104.425 291.708 104.102C289.647 102.118 283.985 98.5569 277.822 100.181Z" fill="#6D3654"/>
<path d="M302.923 170.627L295.714 153.497L283.951 153.472L282.646 178.312C287.272 186.904 301.699 177.575 302.923 170.627Z" fill="#FFD3B0"/>
<path d="M295.714 153.497L283.186 154.872L283.744 166.226C283.744 166.226 291.838 167.323 298.22 159.566L295.714 153.497Z" fill="#EEAA8D"/>
<path d="M271.126 165.249C264.151 163.791 263.445 135.471 269.313 122.72C272.343 114.836 297.001 123.993 294.1 129.865C292.688 132.722 293.867 133.385 295.311 134.487C296.755 135.59 298.076 138.704 297.444 140.683C296.812 142.662 296.619 145.679 298.791 143.294C300.964 140.909 306.426 126.617 309.397 135.392C311.774 142.411 306.562 145.476 303.658 146.132C298.035 162.938 278.101 166.707 271.126 165.249Z" fill="#FFD3B0"/>
<path d="M276.346 139.834C273.779 142.451 269.98 147.269 270.21 148.22C270.398 148.998 274.988 148.526 277.305 147.546" stroke="#EEAA8D" stroke-width="0.9" stroke-linecap="round"/>
<ellipse rx="4.23625" ry="2.28986" transform="matrix(-0.997945 -0.0640777 -0.0640777 0.997945 285.215 137.648)" fill="white"/>
<circle r="1.52658" transform="matrix(-0.997945 -0.0640777 -0.0640777 0.997945 285.215 137.649)" fill="#141414"/>
<ellipse rx="3.62715" ry="2.28986" transform="matrix(-0.997945 -0.0640777 -0.0640777 0.997945 269.522 136.641)" fill="white"/>
<circle r="1.52658" transform="matrix(-0.997945 -0.0640777 -0.0640777 0.997945 270.133 136.68)" fill="#141414"/>
<path d="M285.259 149.495C284.357 150.828 281.434 153.396 276.955 152.997" stroke="#EEAA8D" stroke-width="0.9" stroke-linecap="round"/>
<path d="M302.454 136.093C303.384 134.368 304.084 132.81 304.507 131.54C307.635 122.147 305.425 109.382 292.513 106.028C285.2 104.129 272.546 104.093 266.824 118.368C266.105 120.164 265.345 122.312 264.636 124.673C268.556 126.447 278.483 128.263 288.648 123.249C289.092 126.812 290.608 134.988 299.598 134.555C300.042 135.49 301.281 134.769 302.454 136.093Z" fill="#6D3654"/>
<path d="M288.145 102.218C290.171 103.127 291.65 104.799 292.488 106.856" stroke="#4F1836" stroke-width="1.00776" stroke-linecap="round"/>
<path d="M169.834 173.696C169.03 173.903 167.439 174.967 167.516 177.568C167.611 180.818 174.997 183.28 176.048 182.013C176.89 181 176.494 179.392 176.192 178.715" stroke="#EEAA8D" stroke-width="1.27242" stroke-linecap="round"/>
<rect x="461.752" y="207.563" width="11.8546" height="64.3002" rx="2" fill="#F59898"/>
<rect x="349.807" y="213.97" width="95.1986" height="80.5315" rx="3.81727" fill="#FFCB71"/>
<path d="M356.973 275.248H368.924" stroke="#E6B766" stroke-width="3" stroke-linecap="round"/>
<path d="M356.973 282.51H375.924" stroke="#E6B766" stroke-width="3" stroke-linecap="round"/>
<rect x="408.2" y="213.97" width="45.3105" height="80.5315" rx="3.81727" fill="#FFE0AA"/>
<rect x="371.393" y="213.97" width="18.2648" height="44.5434" fill="#FFEAC6"/>
<rect x="400.185" y="294.502" width="72.0627" height="10.9562" rx="2" fill="#F59898"/>
<circle cx="405.174" cy="167.75" r="24.6481" fill="#2E47BA"/>
<path d="M409.321 156.138C407.819 156.138 406.409 156.511 405.174 157.167C403.938 156.511 402.528 156.138 401.027 156.138C396.125 156.138 392.152 160.111 392.152 165.013C392.152 165.883 392.857 166.588 393.728 166.588C394.599 166.588 395.304 165.883 395.304 165.013C395.304 161.853 397.867 159.29 401.027 159.29C401.499 159.29 401.964 159.348 402.403 159.456C403.482 159.721 404.435 160.293 405.174 161.065C406.152 162.093 406.749 163.478 406.749 165.004C406.749 165.875 406.044 166.58 405.174 166.58C404.303 166.58 403.598 165.875 403.598 165.004C403.598 164.059 403.83 163.163 404.236 162.375C403.565 161.554 402.578 160.998 401.466 160.882C400.811 162.118 400.446 163.52 400.446 165.013C400.446 167.625 402.561 169.74 405.174 169.74C407.786 169.74 409.901 167.625 409.901 165.013C409.901 162.906 409.171 160.973 407.944 159.456C408.383 159.348 408.848 159.29 409.321 159.29C412.48 159.29 415.043 161.853 415.043 165.013C415.043 165.883 415.748 166.588 416.619 166.588C417.49 166.588 418.195 165.883 418.195 165.013C418.195 160.111 414.222 156.138 409.321 156.138Z" fill="white"/>
<path d="M395.735 169.748C395.42 168.936 394.508 168.537 393.695 168.853C392.882 169.168 392.484 170.08 392.799 170.893C394.723 175.844 399.534 179.361 405.174 179.361C410.813 179.361 415.624 175.844 417.548 170.893C417.863 170.08 417.465 169.168 416.652 168.853C415.84 168.537 414.927 168.944 414.612 169.748C413.144 173.53 409.47 176.209 405.174 176.209C400.877 176.209 397.203 173.53 395.735 169.748Z" fill="white"/>
<path d="M336.259 399.174C329.045 395.844 315.989 405.031 310.363 410.041H457.881C456.956 408.423 454.274 404.538 450.945 401.948C446.783 398.711 444.702 401.948 438.69 401.948C432.678 401.948 431.291 386.457 420.886 381.601C410.481 376.745 402.62 389 399.151 392.237C395.683 395.474 392.908 395.243 385.972 390.387C379.035 385.532 363.081 393.393 356.838 399.174C350.595 404.954 345.277 403.336 336.259 399.174Z" fill="#99C8FF"/>
<path d="M378.07 409.135L375.873 398.614" stroke="#7AA0CC" stroke-width="2" stroke-linecap="round"/>
<path d="M414.834 409.193C415.019 408.638 418.071 395.165 419.574 388.498" stroke="#7AA0CC" stroke-width="2" stroke-linecap="round"/>
<path d="M415.99 402.603L410.672 391.62" stroke="#7AA0CC" stroke-width="2" stroke-linecap="round"/>
<rect opacity="0.6" x="329.591" y="71.9692" width="127" height="51" fill="#28DBE4"/>
</g>
<defs>
<clipPath id="clip0_2648_100196">
<rect width="500" height="500" fill="white"/>
</clipPath>
</defs>
</svg>