<svg width="500" height="500" viewBox="0 0 500 500" fill="none" xmlns="http://www.w3.org/2000/svg">
<rect opacity="0.3" x="47" y="213" width="446" height="270" fill="#6CAFFF"/>
<rect opacity="0.1" x="15" y="20" width="303" height="291" fill="#0C1B62"/>
<rect opacity="0.6" x="352" y="53" width="127" height="114" fill="#28DBE4"/>
<rect x="76" y="129" width="348.712" height="243" rx="10" fill="white"/>
<rect x="106.203" y="153.712" width="131.797" height="163.373" fill="#41D5DE"/>
<path d="M106.203 284.043C106.203 284.043 146.291 270.895 172.788 271.001C198.759 271.104 238 284.043 238 284.043V316.992H106.203V284.043Z" fill="#5472EF"/>
<rect x="169" y="279" width="6" height="32" fill="white"/>
<path d="M151.296 138.445C139.956 142.223 135.231 156.389 134.286 163C123.98 161.416 114.34 173.788 123.215 182.833C120.29 184.408 114.441 190.767 114.441 203.611C114.441 239.1 183.627 273.44 215.557 244.431C223.873 236.875 221.733 227.431 218.392 224.389C234.845 218.813 230.356 201.223 224.062 197.944C236.144 178.911 220.597 164.574 213.667 163C207.618 147.889 187.206 144.112 177.756 144.112C173.661 140.649 162.636 134.667 151.296 138.445Z" fill="#6D3654"/>
<path d="M145.569 293.746C130.193 269.583 146.027 261.712 155.866 260.796L166.162 284.135C152.983 282.488 146.942 289.856 145.569 293.746Z" fill="white"/>
<circle cx="132.975" cy="214.805" r="11.6695" fill="#FCC091"/>
<circle cx="212.602" cy="214.805" r="11.6695" fill="#FCC091"/>
<path d="M197.052 293.746C212.429 269.583 196.595 261.712 186.756 260.796L176.459 284.135C189.639 282.488 195.679 289.856 197.052 293.746Z" fill="white"/>
<path d="M154.493 277.958L157.925 242.263H184.696L189.501 277.958C175.772 290.314 160.213 283.449 154.493 277.958Z" fill="#FFD3B0"/>
<path d="M156.5 258L157.5 249.5L185 243.5L188 267.5C174.8 275.5 161.333 262.667 156.5 258Z" fill="#EEAA8D"/>
<path d="M211.915 214.119C213.035 192.839 207.11 166.068 172.788 166.068C140.525 166.068 130.915 193.525 133.661 214.119C136.407 234.712 154.593 262.5 174.5 262.5C194.407 262.5 211.229 227.161 211.915 214.119Z" fill="#FFD3B0"/>
<path d="M172.459 215C172.459 215 167.958 228.756 168.5 230.5C168.943 231.926 170.969 231.354 175.167 229.25" stroke="#EEAA8D" stroke-width="1.88096" stroke-linecap="round"/>
<ellipse rx="9.10779" ry="4.92313" transform="matrix(-1 0 0 1 188.608 209.923)" fill="white"/>
<circle r="3.28209" transform="matrix(-1 0 0 1 188.608 209.923)" fill="#141414"/>
<ellipse rx="7.79824" ry="4.92313" transform="matrix(-1 0 0 1 154.798 209.923)" fill="white"/>
<circle r="3.28209" transform="matrix(-1 0 0 1 156.114 209.923)" fill="#141414"/>
<path d="M183.291 235.225C181.055 236.979 174.757 239.716 167.446 236.627" stroke="#EEAA8D" stroke-width="2.16665" stroke-linecap="round"/>
<path d="M155.627 180.483C150.136 193.114 137.78 200.848 132.288 203.136L126.797 185.288L130.915 171.559L149.449 157.831L187.203 158.517L215.347 166.754C216.949 177.737 218.59 200.939 212 203.136C205.41 205.332 202.763 197.415 202.305 193.525C185.281 200.664 164.093 187.805 155.627 180.483Z" fill="#6D3654"/>
<path d="M269.576 167.441C287.424 167.441 323.805 167.441 326.551 167.441" stroke="#222E60" stroke-width="6.86441" stroke-linecap="round" stroke-linejoin="round"/>
<path opacity="0.2" d="M269.576 192.152C305.271 192.152 378.034 192.152 383.525 192.152" stroke="#222E60" stroke-width="6.86441" stroke-linecap="round" stroke-linejoin="round"/>
<path d="M269.576 233.339C287.424 233.339 323.805 233.339 326.551 233.339" stroke="#5472EF" stroke-width="6.86441" stroke-linecap="round" stroke-linejoin="round"/>
<path opacity="0.2" d="M269.576 281.39C295.38 281.39 347.979 281.39 351.949 281.39" stroke="#222E60" stroke-width="6.86441" stroke-linecap="round" stroke-linejoin="round"/>
<path d="M107.576 337.678C133.38 337.678 185.979 337.678 189.949 337.678" stroke="#FFCB71" stroke-width="6.86441" stroke-linecap="round" stroke-linejoin="round"/>
<path opacity="0.2" d="M269.576 258.051C305.271 258.051 378.034 258.051 383.525 258.051" stroke="#222E60" stroke-width="6.86441" stroke-linecap="round" stroke-linejoin="round"/>
<circle cx="343.5" cy="362.5" r="45.5" fill="#77EEF5"/>
<path d="M319 356L339.5 376.5L384 332" stroke="#222E60" stroke-width="10" stroke-linecap="round" stroke-linejoin="round"/>
<circle cx="101" cy="148" r="44" fill="#EF5454"/>
<path d="M77.0485 136.951L101.163 122.205L125.277 136.951C125.277 136.951 125.277 166.606 101.163 176.123C77.0487 166.606 77.0485 136.951 77.0485 136.951Z" fill="#FFCB71"/>
<path d="M101.163 122.205L125.277 136.951C125.277 136.951 125.277 166.606 101.163 176.123L101.163 122.205Z" fill="#FFB435"/>
</svg>
