<svg width="500" height="500" viewBox="0 0 500 500" fill="none" xmlns="http://www.w3.org/2000/svg">
<g clip-path="url(#clip0_2648_100581)">
<rect opacity="0.1" x="44.5688" y="25.5764" width="221.03" height="221.03" fill="#0C1B62"/>
<path opacity="0.3" d="M532.979 385.106H-32.9794V500H532.979V385.106Z" fill="#6CAFFF"/>
<rect opacity="0.6" x="355.316" y="211.138" width="127" height="150.234" fill="#28DBE4"/>
<ellipse opacity="0.2" cx="293.091" cy="465.471" rx="140.952" ry="4.80493" fill="#222E60"/>
<path d="M463.757 442.553H386.639H375.815C372.162 431.459 372.703 413.33 385.962 408.324C392.727 406.971 402.333 407.106 408.286 415.765C413.766 425.912 414.104 419.418 420.666 421.244C427.227 423.071 421.816 428.483 429.392 429.565C436.969 430.647 436.157 425.506 446.169 425.235C454.178 425.019 461.232 436.69 463.757 442.553Z" fill="#99C8FF"/>
<path d="M411.466 441.471L417.283 432.271" stroke="#7AA0CC" stroke-width="2" stroke-linecap="round"/>
<path d="M446.71 441.471L443.801 436.208" stroke="#7AA0CC" stroke-width="2" stroke-linecap="round"/>
<path d="M392.524 441.471L387.924 422.529" stroke="#7AA0CC" stroke-width="2" stroke-linecap="round"/>
<path d="M390.63 431.865L394.96 418.741" stroke="#7AA0CC" stroke-width="2" stroke-linecap="round"/>
<path d="M85.473 364.299C71.6602 357.923 46.6612 375.514 35.8884 385.106H318.344C316.573 382.007 311.437 374.57 305.062 369.611C297.093 363.413 293.109 369.611 281.598 369.611C270.087 369.611 267.431 339.949 247.509 330.652C227.586 321.355 212.534 344.819 205.893 351.017C199.252 357.215 193.94 356.772 180.658 347.475C167.376 338.178 136.829 353.23 124.875 364.299C112.922 375.367 102.739 372.267 85.473 364.299Z" fill="#99C8FF"/>
<path d="M165.528 383.371L161.322 363.227" stroke="#7AA0CC" stroke-width="2" stroke-linecap="round"/>
<path d="M235.921 383.482C236.275 382.419 242.119 356.624 244.996 343.858" stroke="#7AA0CC" stroke-width="2" stroke-linecap="round"/>
<path d="M238.134 370.864L227.952 349.835" stroke="#7AA0CC" stroke-width="2" stroke-linecap="round"/>
<path d="M293.091 466.449L290.653 428.071C286.528 421.445 265.401 413.82 265.651 432.571C265.901 451.323 250.127 456.55 246.462 457.073C236.399 458.511 232.899 466.324 234.649 468.074C236.049 469.474 274.006 467.616 293.091 466.449Z" fill="#FFCB71"/>
<path d="M292.832 462.368L293.091 466.449C274.006 467.616 236.049 469.474 234.649 468.074C233.954 467.379 234.087 465.73 235.128 463.902C252.663 463.695 280.374 463.187 292.832 462.368Z" fill="white"/>
<path d="M244.15 305.061C244.149 274.559 260.151 229.305 266.651 213.304L319.656 222.805C313.655 244.973 301.154 290.71 299.154 296.31C296.654 303.311 296.279 430.821 293.028 433.821C289.778 436.822 275.527 435.322 271.277 433.821C267.026 432.321 264.276 437.322 261.276 435.322C258.276 433.321 244.15 337.034 244.15 305.061Z" fill="#222E60"/>
<path d="M315.423 238.379C309.085 261.623 300.755 291.827 299.154 296.31C298.001 299.54 297.299 328.415 296.56 358.882C295.696 394.458 294.779 432.205 293.028 433.821C292.049 434.725 290.073 435.22 287.672 435.431C286.981 428.856 285.973 419.626 284.808 408.951C280.29 367.549 273.402 304.424 273.402 290.31C273.402 273.509 280.902 240.973 284.653 226.805L315.423 238.379Z" fill="#141F4D"/>
<path d="M430.445 254.743C429.965 254.494 416.793 263.144 410.267 267.501L421.443 281.815C424.855 280.04 432.101 276.33 433.792 275.693C435.906 274.898 445.088 280.124 447.689 280.91C450.289 281.696 455.697 280.542 456.583 279.439C457.469 278.337 431.045 255.055 430.445 254.743Z" fill="#FFCB71"/>
<path d="M455.341 280.185L426.481 256.953C428.729 255.558 430.286 254.661 430.445 254.743C431.045 255.055 457.469 278.337 456.583 279.44C456.379 279.693 455.935 279.95 455.341 280.185Z" fill="white"/>
<path d="M344.158 341.064C314.905 332.313 289.153 263.475 272.402 231.555C266.401 216.054 339.157 211.804 341.657 213.554C343.657 214.954 357.909 261.641 364.784 284.81C379.077 277.351 413.882 262.558 415.538 262.558C417.288 262.558 418.269 264.682 418.663 267.214C419.414 272.027 425.226 277.121 425.226 281.184C425.226 283.842 369.671 348.696 344.158 341.064Z" fill="#222E60"/>
<path d="M250.65 150.549C255.25 132.747 265.235 120.296 269.652 116.296C280.152 108.295 282.903 166.3 273.652 197.052C266.251 221.654 253.067 227.638 247.4 227.555L237.149 184.551C239.732 180.634 246.05 168.35 250.65 150.549Z" fill="#5472EF"/>
<path d="M230.72 145.804L215.559 115.103C214.989 113.947 215.619 112.558 216.865 112.228L232.375 108.112C233.768 107.742 235.231 108.395 235.886 109.68L251.12 139.57C251.711 140.73 251.08 142.139 249.821 142.47L233.069 146.874C232.131 147.121 231.15 146.674 230.72 145.804Z" fill="#222E60"/>
<path d="M222.087 116.978C221.821 117.78 220.738 118.142 219.669 117.788C218.599 117.433 217.948 116.495 218.214 115.693C218.48 114.891 219.563 114.528 220.632 114.883C221.702 115.238 222.353 116.176 222.087 116.978Z" fill="#FFCB71"/>
<path d="M223.752 120.84C223.486 121.642 222.404 122.005 221.334 121.65C220.265 121.295 219.614 120.357 219.88 119.555C220.146 118.753 221.229 118.39 222.298 118.745C223.367 119.1 224.019 120.038 223.752 120.84Z" fill="#FFCB71"/>
<path d="M230.836 121.922C229.536 121.572 226.065 127.578 223.835 131.891L221.804 127.766C221.075 128.37 219.41 130.41 218.96 133.86C218.397 138.173 222.523 164.675 223.398 165.55C224.273 166.425 236.211 165.8 238.024 165.55C239.837 165.3 236.211 147.799 236.211 146.986C236.211 146.173 239.087 138.048 239.368 136.298C239.646 134.564 238.087 133.391 236.524 135.954C236.711 134.912 237.086 132.266 236.524 131.11C236.064 130.164 234.565 131.026 234.024 131.422C234.274 129.901 234.624 126.828 234.024 126.328C233.424 125.828 231.649 126.693 230.836 127.234C231.378 125.609 232.136 122.272 230.836 121.922Z" fill="#FFD3B0"/>
<path d="M220.898 161.05C220.773 160.174 239.024 160.3 240.024 160.425C240.524 160.8 240.024 163.05 240.462 164.487C240.899 165.925 241.899 165.8 243.524 167.675C245.15 169.55 260.526 203.803 258.651 221.93C257.867 229.506 239.274 235.306 230.773 229.555C222.273 223.805 214.647 188.927 215.397 181.676C216.147 174.426 218.772 169.55 220.023 167.675C221.273 165.8 221.023 161.925 220.898 161.05Z" fill="#768EF2"/>
<path d="M257.401 149.549C258.651 116.046 273.902 113.296 281.402 108.545C291.403 106.42 319.156 103.795 328.406 120.546C335.807 133.947 342.157 199.636 344.408 230.805L268.401 230.805C264.318 214.887 256.4 176.351 257.401 149.549Z" fill="#435BBF"/>
<path d="M310.905 134.048C322.072 142.632 344.658 160.2 345.658 161.8L349.408 210.554C331.251 212.95 302.963 216.836 288.657 219.226C286.465 220.503 284.279 221.245 282.153 221.304C276.952 221.449 280.571 220.576 288.657 219.226C305.024 209.692 321.756 170.385 316.905 163.55C312.505 157.349 311.072 141.298 310.905 134.048Z" fill="#32448F"/>
<path d="M269.777 114.546C273.177 109.846 280.611 107.837 283.903 107.42C290.716 104.92 299.466 106.608 301.029 117.109C302.592 127.61 293.778 140.361 289.091 140.361C284.403 140.361 282.778 127.328 278.34 127.328C274.152 127.328 272.473 138.02 270.12 138.517C266.12 139.36 265.526 120.421 269.777 114.546Z" fill="white"/>
<rect x="255.173" y="180.523" width="102.814" height="86.974" rx="4.12265" transform="rotate(-5.9598 255.173 180.523)" fill="#FFCB71"/>
<path d="M269.742 245.541L282.579 244.201" stroke="#E6B766" stroke-width="3.24" stroke-linecap="round"/>
<path d="M270.557 253.342L290.912 251.217" stroke="#E6B766" stroke-width="3.24" stroke-linecap="round"/>
<rect x="317.896" y="173.975" width="48.9354" height="86.974" rx="4.12265" transform="rotate(-5.9598 317.896 173.975)" fill="#FFE0AA"/>
<rect x="278.36" y="178.102" width="19.726" height="48.1069" transform="rotate(-5.9598 278.36 178.102)" fill="#FFEAC6"/>
<path d="M339.97 257.057C341.12 256.557 342.824 251.682 343.532 249.307L356.408 253.745C355.971 256.057 354.696 260.97 353.096 262.12C351.096 263.558 346.533 263.995 344.408 263.183C342.282 262.37 340.47 262.62 337.657 262.495C334.844 262.37 330.844 260.62 330.219 259.933C329.594 259.245 338.532 257.682 339.97 257.057Z" fill="#FFD3B0"/>
<path d="M335.532 255.807C337.282 253.507 340.845 250.182 342.407 248.807L344.908 251.619C343.407 253.807 339.913 258.498 338.282 259.558C335.782 261.183 333.344 258.682 335.532 255.807Z" fill="#FFD3B0"/>
<path d="M334.657 258.526C335.188 259.058 336.563 260.114 337.813 260.089C339.063 260.064 342.209 256.12 343.626 254.151" stroke="#EEAA8D" stroke-width="0.9" stroke-linecap="round"/>
<path d="M308.28 129.172C307.804 115.526 315.845 111.087 319.906 112.061C327.719 113.936 363.761 137.994 371.16 178.051C378.41 217.304 368.972 242.994 367.847 245.494C366.722 247.994 362.596 251.119 361.221 251.119C359.846 251.119 358.721 254.62 357.721 255.87C356.721 257.12 344.72 252.744 342.595 251.119C340.47 249.494 341.97 245.244 342.595 243.869C343.22 242.494 342.47 242.744 341.97 238.493C341.47 234.243 346.158 216.554 338.657 188.552C331.156 160.55 309.03 150.674 308.28 129.172Z" fill="#5472EF"/>
<circle cx="333.032" cy="134.227" r="9.16144" fill="#768EF2"/>
<path d="M249.04 43.5735C242.964 46.8091 241.643 55.3115 241.742 59.1582C235.739 59.248 231.454 67.2029 237.363 71.4896C235.853 72.6648 233.143 76.8396 234.378 84.1369C237.789 104.299 280.373 117.163 295.714 97.6144C299.709 92.5231 297.587 87.363 295.397 85.9555C304.203 81.2073 299.964 71.645 296.075 70.387C301.105 58.4126 290.9 51.7613 286.814 51.5327C281.927 43.5287 269.974 43.3433 264.609 44.2511C261.951 42.677 255.116 40.3379 249.04 43.5735Z" fill="#6D3654"/>
<path d="M292.897 111.396L281.071 95.178L268.7 98.0689L273.489 124.503C280.483 132.387 293.334 119.002 292.897 111.396Z" fill="#FFD3B0"/>
<path d="M271.472 113.367C275.093 111.706 281.816 107.844 285.21 100.936L281.071 95.1779L269.204 100.85L271.472 113.367Z" fill="#EEAA8D"/>
<path d="M258.14 113.63C250.447 113.827 242.681 84.2337 245.686 69.3752C246.916 60.3366 275.106 63.8458 273.513 70.7384C272.737 74.0918 274.141 74.4956 275.932 75.2964C277.723 76.0972 279.885 79.043 279.712 81.2801C279.538 83.5171 280.083 86.7365 281.775 83.6906C283.468 80.6446 285.664 64.2672 290.963 72.7534C295.203 79.5423 290.484 84.0569 287.595 85.4656C285.852 104.526 265.834 113.432 258.14 113.63Z" fill="#FFD3B0"/>
<path d="M260.93 100.316C261.311 99.7373 268.361 94.3221 269.115 93.8239C271.437 92.289 272.907 98.5532 267.466 102.207C264.762 104.024 259.697 102.19 260.93 100.316Z" fill="#080B18"/>
<path d="M271.128 95.1747C271.474 97.0124 270.663 100.06 267.466 102.207C266.81 102.648 266.015 102.874 265.204 102.936C265.2 101.815 265.432 100.391 266.183 98.8441C267.155 96.8416 269.311 95.7251 271.128 95.1747Z" fill="#F27676"/>
<path d="M257.324 85.62C255.275 89.0077 252.477 95.014 252.954 95.9566C253.344 96.7276 258.053 95.0939 260.245 93.4886" stroke="#EEAA8D" stroke-width="0.9" stroke-linecap="round"/>
<ellipse rx="4.57515" ry="2.47305" transform="matrix(-0.985988 0.166816 0.166816 0.985988 266.104 81.1232)" fill="white"/>
<circle r="1.6487" transform="matrix(-0.985988 0.166816 0.166816 0.985988 266.104 81.1234)" fill="#141414"/>
<ellipse rx="3.91732" ry="2.47305" transform="matrix(-0.985988 0.166816 0.166816 0.985988 249.359 83.9563)" fill="white"/>
<circle r="1.6487" transform="matrix(-0.985988 0.166816 0.166816 0.985988 250.011 83.8461)" fill="#141414"/>
<path d="M283.839 75.2123C284.389 73.1691 284.738 71.3577 284.868 69.917C285.826 59.2684 280.337 46.3989 265.933 46.0764C257.775 45.8937 244.465 48.9943 241.991 65.4186C241.68 67.4841 241.415 69.9312 241.255 72.5886C245.815 73.4805 256.7 72.928 266.141 65.1356C267.492 68.7705 271.113 76.9886 280.456 74.3041C281.154 75.1766 282.277 74.1118 283.839 75.2123Z" fill="#6D3654"/>
<path d="M260.397 43.1541C262.752 43.6076 264.721 44.9973 266.112 46.952" stroke="#4F1836" stroke-width="1.08838" stroke-linecap="round"/>
<rect x="93.3568" y="210.82" width="98.5027" height="98.5027" rx="4" fill="#F27676"/>
<circle cx="142.608" cy="246.149" r="12.2615" fill="#FFCB71"/>
<path d="M171.869 286.255H113.347C117.289 273.851 128.899 264.865 142.608 264.865C156.317 264.865 167.928 273.851 171.869 286.255Z" fill="#FFCB71"/>
<path d="M366.757 92.3079L411.433 64.988L456.107 92.308C456.107 92.308 456.108 147.247 411.433 164.879C366.758 147.247 366.757 92.3079 366.757 92.3079Z" fill="#ECB557"/>
<path d="M358.757 86.3079L403.433 58.988L448.107 86.308C448.107 86.308 448.108 141.247 403.433 158.879C358.758 141.247 358.757 86.3079 358.757 86.3079Z" fill="#FFCB71"/>
<path d="M389.459 103.44L397.843 112.934C398.636 113.833 400.037 113.836 400.835 112.941L415.989 95.9394" stroke="#F27676" stroke-width="6" stroke-linecap="round"/>
<circle cx="70.4258" cy="129.188" r="42.5919" fill="#2E47BA"/>
<path d="M77.5918 109.124C74.9978 109.124 72.5614 109.769 70.4259 110.901C68.2904 109.769 65.8539 109.124 63.2599 109.124C54.7899 109.124 47.9249 115.989 47.9249 124.459C47.9249 125.964 49.1431 127.182 50.6479 127.182C52.1527 127.182 53.371 125.964 53.371 124.459C53.371 118.998 57.7996 114.57 63.2599 114.57C64.0769 114.57 64.8794 114.67 65.639 114.856C67.5021 115.315 69.1503 116.304 70.4259 117.637C72.117 119.414 73.1489 121.807 73.1489 124.444C73.1489 125.949 71.9307 127.168 70.4259 127.168C68.921 127.168 67.7028 125.949 67.7028 124.444C67.7028 122.811 68.1041 121.263 68.8064 119.901C67.6454 118.482 65.94 117.522 64.0195 117.322C62.8874 119.457 62.2567 121.879 62.2567 124.459C62.2567 128.973 65.9113 132.628 70.4259 132.628C74.9404 132.628 78.595 128.973 78.595 124.459C78.595 120.819 77.3338 117.479 75.2128 114.856C75.9723 114.67 76.7748 114.57 77.5918 114.57C83.0522 114.57 87.4808 118.998 87.4808 124.459C87.4808 125.964 88.699 127.182 90.2038 127.182C91.7087 127.182 92.9269 125.964 92.9269 124.459C92.9269 115.989 86.0619 109.124 77.5918 109.124Z" fill="white"/>
<path d="M54.1162 132.642C53.5717 131.238 51.9952 130.55 50.5907 131.094C49.186 131.639 48.4981 133.216 49.0427 134.62C52.3677 143.176 60.6802 149.253 70.4259 149.253C80.1715 149.253 88.484 143.176 91.809 134.62C92.3536 133.216 91.6657 131.639 90.2612 131.094C88.8567 130.55 87.2802 131.252 86.7355 132.642C84.1989 139.178 77.8497 143.807 70.4259 143.807C63.002 143.807 56.653 139.178 54.1162 132.642Z" fill="white"/>
<circle cx="178.373" cy="69.4955" r="36.4194" fill="#22C1CB"/>
<path d="M169.77 84.5043C176.724 88.3701 185.668 87.2344 191.422 81.2145C198.259 74.0606 198.003 62.7183 190.849 55.8806C183.695 49.043 172.353 49.2993 165.515 56.4532C159.761 62.4731 159.031 71.4591 163.207 78.2308L161.517 83.4117C160.887 85.342 162.771 87.1428 164.671 86.4266L169.77 84.5043Z" fill="#22C1CB" stroke="white" stroke-width="3.63"/>
<path d="M175.887 70.1452L174.649 68.5496C174.006 67.7208 173.947 66.5791 174.501 65.6885C174.917 65.02 174.995 64.1948 174.711 63.4603L174.086 61.8422C173.502 60.3326 171.572 59.9006 170.401 61.0173L170.127 61.2778C169.29 62.0758 168.957 63.2683 169.261 64.3845L169.374 64.8029C171.186 71.4765 176.622 76.5476 183.405 77.8926C184.489 78.1074 185.603 77.7168 186.315 76.8728L186.593 76.544C187.64 75.3022 187.074 73.3935 185.518 72.9248L184.243 72.5408C183.508 72.3193 182.711 72.4612 182.098 72.923C181.264 73.5509 180.12 73.5706 179.265 72.9718L177.721 71.8907C177.026 71.404 176.408 70.8156 175.887 70.1452Z" fill="white"/>
<path d="M210.543 103.079L193.93 101.27L208.417 86.5037L210.543 103.079Z" fill="#22C1CB"/>
</g>
<defs>
<clipPath id="clip0_2648_100581">
<rect width="500" height="500" fill="white"/>
</clipPath>
</defs>
</svg>
