<svg width="60" height="60" viewBox="0 0 60 60" fill="none" xmlns="http://www.w3.org/2000/svg">
<rect width="60" height="60" rx="30" fill="#DCEDFF"/>
<rect x="17.0018" y="8.04352" width="25.9965" height="43.9131" rx="2" fill="#3D5066"/>
<path d="M24.2273 11.9289C23.9553 11.112 23.1908 10.5609 22.3298 10.5609H20.7668C19.6623 10.5609 18.7668 11.4563 18.7668 12.5609V47.2653C18.7668 48.3699 19.6623 49.2653 20.7668 49.2653H39.2332C40.3378 49.2653 41.2332 48.3699 41.2332 47.2653V12.5609C41.2332 11.4563 40.3378 10.5609 39.2332 10.5609H37.6703C36.8092 10.5609 36.0448 11.112 35.7727 11.9289L35.6839 12.1957C35.4119 13.0126 34.6474 13.5638 33.7864 13.5638H26.2137C25.3526 13.5638 24.5882 13.0126 24.3161 12.1957L24.2273 11.9289Z" fill="#768EF2"/>
<path d="M42.9983 24.7897V41.5818H23.4981C22.9458 41.5818 22.4981 41.1341 22.4981 40.5818V25.7897C22.4981 25.2374 22.9458 24.7897 23.4981 24.7897H42.9983Z" fill="#222E60"/>
<rect x="22.4981" y="22.3037" width="27.64" height="16.7921" rx="1" fill="white"/>
<path d="M23.464 23.7897L36.2066 33.7897L48.9493 23.7897" stroke="#7AA0CC" stroke-linecap="round"/>
<circle cx="36.0667" cy="29.7898" r="6.06667" fill="#EF5454"/>
<path d="M36.6751 26.307C37.2887 26.307 37.8243 26.424 38.2819 26.658C38.7395 26.8868 39.0905 27.2118 39.3349 27.633C39.5845 28.049 39.7093 28.53 39.7093 29.076C39.7093 29.518 39.6313 29.9288 39.4753 30.3084C39.3245 30.688 39.0983 30.9922 38.7967 31.221C38.5003 31.4446 38.1467 31.5564 37.7359 31.5564C37.4603 31.5564 37.2315 31.5018 37.0495 31.3926C36.8727 31.2834 36.7531 31.13 36.6907 30.9324C36.5451 31.1352 36.3579 31.2938 36.1291 31.4082C35.9003 31.5174 35.6507 31.572 35.3803 31.572C34.9955 31.572 34.6913 31.4576 34.4677 31.2288C34.2493 30.9948 34.1401 30.6776 34.1401 30.2772C34.1401 29.8976 34.2181 29.5414 34.3741 29.2086C34.5301 28.8706 34.7459 28.6002 35.0215 28.3974C35.2971 28.1946 35.6065 28.0932 35.9497 28.0932C36.3865 28.0932 36.6829 28.2492 36.8389 28.5612L36.9091 28.1478H37.9855L37.6423 30.1056C37.6267 30.1992 37.6189 30.2824 37.6189 30.3552C37.6189 30.584 37.7203 30.6984 37.9231 30.6984C38.1727 30.6984 38.3625 30.5398 38.4925 30.2226C38.6277 29.9002 38.6953 29.531 38.6953 29.115C38.6953 28.517 38.5055 28.049 38.1259 27.711C37.7515 27.373 37.2237 27.204 36.5425 27.204C35.9601 27.204 35.4297 27.3444 34.9513 27.6252C34.4781 27.906 34.1063 28.2908 33.8359 28.7796C33.5655 29.2632 33.4303 29.7962 33.4303 30.3786C33.4303 31.0078 33.6123 31.4966 33.9763 31.845C34.3455 32.1935 34.8603 32.3677 35.5207 32.3677C36.0355 32.3677 36.4957 32.2741 36.9013 32.0869L37.1119 32.9371C36.6023 33.1607 36.0303 33.2725 35.3959 33.2725C34.8031 33.2725 34.2805 33.1581 33.8281 32.9293C33.3809 32.7005 33.0351 32.3755 32.7907 31.9543C32.5463 31.533 32.4241 31.0416 32.4241 30.48C32.4241 29.6948 32.6087 28.985 32.9779 28.3506C33.3471 27.711 33.8541 27.2118 34.4989 26.853C35.1489 26.489 35.8743 26.307 36.6751 26.307ZM35.8171 30.6126C35.9627 30.6126 36.0979 30.5684 36.2227 30.48C36.3527 30.3916 36.4541 30.2746 36.5269 30.129C36.6049 29.9782 36.6439 29.817 36.6439 29.6454C36.6439 29.4686 36.5945 29.3256 36.4957 29.2164C36.3969 29.102 36.2617 29.0448 36.0901 29.0448C35.8613 29.0448 35.6715 29.1436 35.5207 29.3412C35.3699 29.5388 35.2945 29.7728 35.2945 30.0432C35.2945 30.2148 35.3387 30.3526 35.4271 30.4566C35.5155 30.5606 35.6455 30.6126 35.8171 30.6126Z" fill="white"/>
</svg>
