<svg width="500" height="500" viewBox="0 0 500 500" fill="none" xmlns="http://www.w3.org/2000/svg">
<g clip-path="url(#clip0_2648_101688)">
<rect opacity="0.1" x="49.3328" y="62.9038" width="135.791" height="264.053" fill="#0C1B62"/>
<rect opacity="0.1" x="202.995" y="209.31" width="208.183" height="126.457" fill="#0C1B62"/>
<path opacity="0.3" d="M532.979 385.106H-32.9794V500H532.979V385.106Z" fill="#6CAFFF"/>
<ellipse opacity="0.2" cx="203.355" cy="448.419" rx="179.5" ry="4.5" fill="#222E60"/>
<rect opacity="0.6" x="287.333" y="95.4569" width="42.811" height="42.811" fill="#28DBE4"/>
<path d="M58.8327 201.658C58.5748 200.416 59.5227 199.251 60.7909 199.251H214.218C215.166 199.251 215.984 199.916 216.176 200.844L245.345 341.28C245.603 342.522 244.655 343.687 243.387 343.687H89.96C89.0122 343.687 88.1946 343.021 88.0018 342.093L58.8327 201.658Z" fill="#F27676"/>
<path d="M27.0363 201.566C26.7784 200.324 27.7263 199.159 28.9945 199.159H72.4217C73.3695 199.159 74.1871 199.824 74.3799 200.752L103.549 341.188C103.807 342.43 102.859 343.595 101.591 343.595H58.1637C57.2159 343.595 56.3982 342.93 56.2054 342.002L27.0363 201.566Z" fill="#F59898"/>
<path d="M266.333 446.148V420.699L252.336 419.427L260.607 446.148H266.333Z" fill="#6D3654"/>
<rect x="217.133" y="316.102" width="84.8133" height="108.322" rx="2" fill="#F27676"/>
<rect x="183.441" y="316.102" width="84.8133" height="108.322" rx="2" fill="#F59898"/>
<rect x="99.0543" y="316.102" width="159.544" height="50.3435" rx="2" fill="#F27676"/>
<rect x="102.279" y="366.446" width="156.847" height="57.9789" rx="2" fill="#D74C4C"/>
<path d="M203.732 256.624C193.954 238.4 179.656 226.622 173.73 223.01L170.118 306.628L229.845 301.905C225.215 294.405 213.511 274.848 203.732 256.624Z" fill="#5472EF"/>
<path d="M216.928 451.779C215.817 451.334 218.965 428.536 220.678 417.192C221.195 413.714 244.847 395.524 242.624 420.526C240.402 445.528 244.847 443.861 251.236 449.834C254.709 453.08 259.57 459.001 254.709 457.89C249.847 456.779 218.317 452.334 216.928 451.779Z" fill="#FFCB71"/>
<path d="M216.905 446.477C216.642 449.597 216.602 451.648 216.928 451.779C217.609 452.051 225.546 453.26 234.029 454.552C242.836 455.893 252.232 457.324 254.709 457.89C257.689 458.571 257.015 456.61 255.247 454.242C245.814 452.828 228.835 449.179 216.905 446.477Z" fill="white"/>
<path d="M127.059 222.455C131.504 216.232 153.358 217.825 163.729 219.399C194.287 225.51 196.88 290.33 195.12 323.296L113.447 324.963C116.133 293.386 122.615 228.677 127.059 222.455Z" fill="#435BBF"/>
<path d="M175.463 323.697L113.447 324.963C114.537 312.153 116.251 293.89 118.2 276.291L132.893 260.235C134.375 275.514 144.561 308.073 173.452 316.073C183.773 318.931 182.678 321.496 175.463 323.697Z" fill="#32448F"/>
<path d="M209.427 441.917C203.316 438.027 201.325 419.183 201.093 410.247C199.704 409.136 177.202 417.331 176.369 419.693C175.536 422.054 180.675 453.306 182.342 454.556C184.008 455.807 225.123 458.029 225.956 454.556C226.79 451.084 217.067 446.778 209.427 441.917Z" fill="#FFCB71"/>
<path d="M224.085 451.113C209.398 452.111 192.377 450.827 180.703 449.421C181.36 452.29 181.948 454.261 182.342 454.557C184.008 455.807 225.123 458.029 225.956 454.557C226.213 453.485 225.466 452.335 224.085 451.113Z" fill="white"/>
<path d="M260.265 318.018C254.709 311.573 196.787 315.055 167.896 317.74C157.004 318.68 162.34 347.187 169.563 348.854C175.341 350.187 204.936 350.335 219.011 350.243C218.548 372.42 217.483 417.248 216.928 419.137C216.233 421.498 222.484 424.554 226.234 423.026C229.984 421.498 239.568 423.998 242.763 424.554C245.958 425.11 247.625 419.276 247.625 416.776C247.625 414.275 267.21 326.074 260.265 318.018Z" fill="#222E60"/>
<path d="M201.877 315.269C189.356 315.94 177.14 316.881 167.896 317.74C157.004 318.68 162.34 347.187 169.563 348.854C175.082 350.127 202.327 350.32 217.026 350.254C214.778 338.909 206.958 323.789 201.877 315.269Z" fill="#141F4D"/>
<path d="M188.453 317.462C174.23 313.24 132.43 311.536 113.725 317.462C107.336 326.213 110.59 348.559 113.725 349.965C121.781 353.576 152.27 354.132 154.77 354.41C157.27 354.687 170.744 412.956 170.744 416.984C170.744 421.012 172.549 428.721 176.647 428.721C178.596 428.721 202.204 421.498 203.732 419.97C205.26 418.442 207.483 415.664 204.705 410.247C201.927 404.83 206.232 322.74 188.453 317.462Z" fill="#222E60"/>
<path d="M101.78 248.568C110.225 233.678 123.031 223.635 128.032 221.135C137.512 215.336 140.811 244.401 138.171 252.457C135.532 260.513 123.448 283.571 124.698 283.987C125.948 284.404 154.701 288.988 156.645 289.266C158.59 289.543 162.479 291.071 164.701 291.349C166.924 291.627 165.257 308.712 164.701 309.406C164.146 310.101 160.534 311.628 158.312 312.879C156.09 314.129 124.837 319.129 97.3349 314.406C69.8327 309.684 91.2233 267.18 101.78 248.568Z" fill="#5472EF"/>
<path d="M175.536 291.627C171.16 291.557 164.076 293.71 163.104 294.613C158.034 298.364 160.951 308.017 162.548 308.642C164.146 309.267 168.382 307.739 172.41 308.642C176.438 309.545 181.578 312.392 185.12 312.531C188.662 312.67 187.481 308.086 187.481 302.739C187.481 297.391 179.911 291.696 175.536 291.627Z" fill="#FFD3B0"/>
<path d="M175.759 151.581C182.357 152.996 185.891 160.655 186.833 164.308C192.516 162.777 198.696 169.122 194.28 174.753C196.019 175.455 199.697 178.661 200.498 185.872C202.708 205.796 166.028 229.383 146.306 215.085C141.169 211.361 141.782 205.925 143.467 204.009C133.888 201.903 135.311 191.748 138.638 189.516C130.673 179.582 138.503 170.565 142.294 169.25C144.746 160.39 155.963 156.998 161.266 156.41C163.347 154.211 169.161 150.166 175.759 151.581Z" fill="#6D3654"/>
<path d="M168.897 236.632C162.743 238.457 161.808 244.062 159.51 250.075C146.801 250.075 134.344 231.022 143.697 220.63C149.122 214.602 157.983 215.809 164.963 217.903C170.416 219.539 179.315 227.832 181.322 233.717C183.688 240.653 179.053 248.628 177.281 249.242C176.307 246.432 174.671 238.593 168.897 236.632Z" fill="white"/>
<path d="M149.993 225.459L156.011 206.725L171.072 206.77L174.746 232.849C170.661 242.338 151.926 232.673 149.993 225.459Z" fill="#FFD3B0"/>
<path d="M153.808 213.582L156.011 206.725L161.499 206.741L171.547 210.144L173.574 224.531C169.675 223.506 158.798 220.155 153.808 213.582Z" fill="#EEAA8D"/>
<path d="M186.035 220.069C193.341 218.185 192.697 188.198 185.865 175C182.272 166.811 156.644 177.706 160.001 183.775C161.634 186.727 160.42 187.486 158.947 188.723C157.474 189.959 156.229 193.318 156.994 195.38C157.76 197.442 158.113 200.624 155.698 198.208C153.283 195.792 146.805 180.945 144.093 190.371C141.924 197.911 147.587 200.897 150.69 201.447C157.462 218.946 178.73 221.953 186.035 220.069Z" fill="#FFD3B0"/>
<path d="M168.281 204.623C169.227 203.573 180.48 207.091 181.598 207.597C184.423 208.656 181.429 213.858 175.011 212.031C168.593 210.204 167.335 205.674 168.281 204.623Z" fill="#080B18"/>
<path d="M168.03 205.96C170.435 205.736 174.042 205.939 176.338 207.889C177.918 209.231 178.695 210.86 179.034 212.281C177.916 212.504 176.564 212.473 175.011 212.031C170.192 210.659 168.282 207.763 168.03 205.96Z" fill="#F27676"/>
<path d="M179.266 193.446C182.11 196.088 186.364 200.996 186.168 202.013C186.007 202.845 181.129 202.572 178.631 201.649" stroke="#EEAA8D" stroke-width="1.1" stroke-linecap="round"/>
<ellipse cx="169.779" cy="191.57" rx="4.48513" ry="2.42439" transform="rotate(-6.33192 169.779 191.57)" fill="white"/>
<circle cx="171.208" cy="191.518" r="1.61626" transform="rotate(-6.33192 171.208 191.518)" fill="#141414"/>
<ellipse cx="186.327" cy="189.734" rx="3.84024" ry="2.42439" transform="rotate(-6.33192 186.327 189.734)" fill="white"/>
<circle cx="187.755" cy="189.785" r="1.61626" transform="rotate(-6.33192 187.755 189.785)" fill="#141414"/>
<path d="M151.471 190.771C150.403 188.993 149.585 187.38 149.076 186.057C145.307 176.276 147.017 162.668 160.509 158.487C168.149 156.119 181.531 155.46 188.283 170.276C189.132 172.14 190.041 174.375 190.907 176.837C186.848 178.905 176.439 181.314 165.442 176.509C165.146 180.299 163.945 189.021 154.416 189.005C153.993 190.015 152.647 189.314 151.471 190.771Z" fill="#6D3654"/>
<path d="M159.713 159.371C161.31 155.822 166.757 149.311 175.77 151.653" stroke="#4F1836" stroke-width="1.331" stroke-linecap="round"/>
<path d="M150.959 159.71L150.98 159.754C141.377 164.187 142.452 175.804 145.867 187.835L139.488 189.38C135.095 173.054 137.421 163.78 150.959 159.71Z" fill="#EF5454"/>
<path d="M151.027 206.236C155.252 205.103 157.53 199.904 156.114 194.623C154.699 189.342 150.127 185.978 145.902 187.11L142.077 188.135L142.42 189.414C140.576 191.681 139.866 195.183 140.814 198.723C141.763 202.262 144.129 204.94 146.859 205.981L147.202 207.26L151.027 206.236Z" fill="#FF7272"/>
<circle cx="175.932" cy="209.437" r="1.73594" fill="#EF5454"/>
<path d="M153.4 204.023L157.563 209.759C158.801 211.465 160.905 212.313 162.98 211.943L174.631 209.866" stroke="#EF5454" stroke-width="1.65" stroke-linecap="round" stroke-linejoin="round"/>
<ellipse cx="144.639" cy="197.698" rx="7.92" ry="9.9" transform="rotate(-15 144.639 197.698)" fill="#EF5454"/>
<ellipse cx="144.639" cy="197.698" rx="3.96" ry="5.94" transform="rotate(-15 144.639 197.698)" fill="#FF7272"/>
<circle cx="114.009" cy="251.718" r="10.831" fill="#768EF2"/>
<path d="M196.754 253.067C197.032 252.26 197.792 251.718 198.645 251.718H273.344C274.718 251.718 275.683 253.071 275.235 254.369L255.878 310.57C255.6 311.377 254.84 311.918 253.987 311.918H179.288C177.914 311.918 176.95 310.566 177.397 309.267L196.754 253.067Z" fill="#EBF4FF"/>
<path d="M198.828 253.067C199.106 252.26 199.865 251.718 200.719 251.718H275.418C276.791 251.718 277.756 253.071 277.309 254.369L257.951 310.57C257.673 311.377 256.914 311.918 256.06 311.918H181.361C179.988 311.918 179.023 310.566 179.47 309.267L198.828 253.067Z" fill="#ADD3FF"/>
<circle cx="231.723" cy="284.135" r="7.09599" fill="#99C8FF"/>
<rect x="144.639" y="311.918" width="112.374" height="5.18397" rx="2" fill="#ADD3FF"/>
<rect x="144.639" y="311.918" width="37.307" height="5.18397" rx="2" fill="#99C8FF"/>
<path d="M104.336 446.148V420.699L118.333 419.427L110.062 446.148H104.336Z" fill="#6D3654"/>
<rect x="61.1328" y="316.102" width="84.8133" height="108.322" rx="2" fill="#F27676"/>
<path d="M44.3361 446.148V420.699L58.3327 419.427L50.062 446.148H44.3361Z" fill="#6D3654"/>
<rect x="27.4412" y="316.102" width="84.8133" height="108.322" rx="2" fill="#F59898"/>
<rect x="335.89" y="65.792" width="150.577" height="244.473" rx="23" fill="#1F2833"/>
<rect x="335.89" y="65.792" width="141.523" height="244.473" rx="23" fill="#3D5066"/>
<path d="M377.562 85.0468C376.679 81.6069 373.579 79.2017 370.027 79.2017H356.841C351.318 79.2017 346.841 83.6788 346.841 89.2017V286.855C346.841 292.378 351.318 296.855 356.841 296.855H456.462C461.984 296.855 466.462 292.378 466.462 286.855V89.2017C466.462 83.6788 461.984 79.2017 456.462 79.2017H443.275C439.724 79.2017 436.624 81.6069 435.741 85.0468C434.858 88.4867 431.758 90.892 428.206 90.892H385.096C381.545 90.892 378.444 88.4867 377.562 85.0468Z" fill="#768EF2"/>
<path d="M413.817 216.974C411.223 216.974 408.787 217.619 406.651 218.751C404.516 217.619 402.079 216.974 399.485 216.974C391.015 216.974 384.15 223.839 384.15 232.309C384.15 233.814 385.368 235.032 386.873 235.032C388.378 235.032 389.596 233.814 389.596 232.309C389.596 226.849 394.025 222.42 399.485 222.42C400.302 222.42 401.105 222.52 401.864 222.707C403.728 223.165 405.376 224.154 406.651 225.487C408.342 227.264 409.374 229.658 409.374 232.295C409.374 233.8 408.156 235.018 406.651 235.018C405.146 235.018 403.928 233.8 403.928 232.295C403.928 230.661 404.329 229.113 405.032 227.752C403.871 226.333 402.165 225.372 400.245 225.172C399.113 227.307 398.482 229.729 398.482 232.309C398.482 236.824 402.137 240.478 406.651 240.478C411.166 240.478 414.82 236.824 414.82 232.309C414.82 228.669 413.559 225.329 411.438 222.707C412.198 222.52 413 222.42 413.817 222.42C419.278 222.42 423.706 226.849 423.706 232.309C423.706 233.814 424.924 235.032 426.429 235.032C427.934 235.032 429.152 233.814 429.152 232.309C429.152 223.839 422.287 216.974 413.817 216.974Z" fill="white"/>
<path d="M390.342 240.493C389.797 239.088 388.221 238.4 386.816 238.945C385.411 239.489 384.724 241.066 385.268 242.47C388.593 251.026 396.906 257.103 406.651 257.103C416.397 257.103 424.709 251.026 428.034 242.47C428.579 241.066 427.891 239.489 426.487 238.945C425.082 238.4 423.506 239.102 422.961 240.493C420.424 247.028 414.075 251.657 406.651 251.657C399.227 251.657 392.878 247.028 390.342 240.493Z" fill="white"/>
<circle cx="406.651" cy="149.253" r="36.4194" fill="#22C1CB"/>
<path d="M398.049 164.262C405.002 168.128 413.946 166.992 419.7 160.972C426.537 153.819 426.281 142.476 419.127 135.639C411.973 128.801 400.631 129.057 393.793 136.211C388.04 142.231 387.309 151.217 391.485 157.989L389.795 163.17C389.165 165.1 391.049 166.901 392.949 166.185L398.049 164.262Z" fill="#22C1CB" stroke="white" stroke-width="3.63"/>
<path d="M404.166 149.903L402.927 148.308C402.284 147.479 402.225 146.337 402.78 145.446C403.196 144.778 403.273 143.953 402.99 143.218L402.364 141.6C401.78 140.091 399.85 139.659 398.679 140.775L398.406 141.036C397.568 141.834 397.236 143.026 397.539 144.142L397.652 144.561C399.464 151.234 404.9 156.306 411.684 157.651C412.767 157.865 413.881 157.475 414.593 156.631L414.871 156.302C415.919 155.06 415.352 153.151 413.796 152.683L412.521 152.299C411.786 152.077 410.989 152.219 410.376 152.681C409.542 153.309 408.398 153.329 407.543 152.73L405.999 151.649C405.304 151.162 404.686 150.574 404.166 149.903Z" fill="white"/>
<rect x="287.333" y="151.328" width="73.1463" height="73.1463" rx="4" fill="#FFCB71"/>
<path d="M300.902 178.792L323.906 164.724L346.91 178.792C346.91 178.792 346.91 207.081 323.906 216.161C300.902 207.081 300.902 178.792 300.902 178.792Z" fill="#F27676"/>
<rect x="320.269" y="183.131" width="7.27487" height="7.82049" rx="2" stroke="white" stroke-width="2"/>
<rect x="316.813" y="187.36" width="14.186" height="10.5486" rx="2" fill="white"/>
<rect x="323.019" y="190.338" width="1.77327" height="4.59217" rx="0.886633" fill="#481919"/>
<circle cx="323.906" cy="191.782" r="1.4436" fill="#481919"/>
<path d="M209.88 104.973L213.943 125.053L218.735 112.413L260.44 94.8774L209.88 104.973Z" fill="#7AA0CC"/>
<path d="M214.013 108.524L260.683 94.912L236.515 138.249L214.013 108.524Z" fill="#99C8FF"/>
<path d="M210.158 105.182L260.683 94.9121L195.539 97.2736L210.158 105.182Z" fill="#99C8FF"/>
<path d="M214.013 125.192V108.532L221.375 118.247L214.013 125.192Z" fill="#3D5066"/>
</g>
<defs>
<clipPath id="clip0_2648_101688">
<rect width="500" height="500" fill="white"/>
</clipPath>
</defs>
</svg>
