<svg width="60" height="60" viewBox="0 0 60 60" fill="none" xmlns="http://www.w3.org/2000/svg">
<rect width="60" height="60" rx="30" fill="#DCEDFF"/>
<rect x="17.0018" y="8.04352" width="25.9965" height="43.9131" rx="2" fill="#3D5066"/>
<path d="M24.2273 11.9289C23.9553 11.112 23.1908 10.5609 22.3298 10.5609H20.7668C19.6623 10.5609 18.7668 11.4563 18.7668 12.5609V47.2653C18.7668 48.3699 19.6623 49.2653 20.7668 49.2653H39.2332C40.3378 49.2653 41.2332 48.3699 41.2332 47.2653V12.5609C41.2332 11.4563 40.3378 10.5609 39.2332 10.5609H37.6703C36.8092 10.5609 36.0448 11.112 35.7727 11.9289L35.6839 12.1957C35.4119 13.0126 34.6474 13.5638 33.7864 13.5638H26.2137C25.3526 13.5638 24.5882 13.0126 24.3161 12.1957L24.2273 11.9289Z" fill="#768EF2"/>
<path d="M42.9983 11.2842V34.1839C41.5375 34.7896 39.9357 35.1239 38.2559 35.1239C31.4131 35.1239 25.866 29.5768 25.866 22.734C25.866 15.8913 31.4131 10.3441 38.2559 10.3441C39.9357 10.3441 41.5375 10.6784 42.9983 11.2842Z" fill="#222E60"/>
<circle cx="38.2559" cy="19.1879" r="12.3899" fill="#22C1CB"/>
<path d="M35.3292 24.2939C37.6948 25.609 40.7375 25.2227 42.695 23.1747C45.0211 20.741 44.9339 16.8823 42.5002 14.5561C40.0665 12.23 36.2078 12.3172 33.8816 14.7509C31.9242 16.7989 31.6756 19.8559 33.0963 22.1597L32.5214 23.9222C32.3071 24.5789 32.9481 25.1915 33.5945 24.9479L35.3292 24.2939Z" fill="#22C1CB" stroke="white" stroke-width="1.23493"/>
<path d="M37.4102 19.409L36.9889 18.8662C36.7701 18.5842 36.7501 18.1958 36.9387 17.8928C37.0803 17.6654 37.1067 17.3847 37.0101 17.1348L36.7973 16.5843C36.5988 16.0708 35.9421 15.9238 35.5436 16.3037L35.4507 16.3923C35.1659 16.6638 35.0527 17.0695 35.1558 17.4492L35.1944 17.5915C35.8109 19.8619 37.6602 21.5871 39.9679 22.0447C40.3364 22.1177 40.7155 21.9849 40.9577 21.6977L41.0521 21.5859C41.4086 21.1634 41.2158 20.5141 40.6865 20.3546L40.2529 20.224C40.0027 20.1486 39.7317 20.1969 39.523 20.354C39.2392 20.5676 38.8502 20.5743 38.5592 20.3706L38.034 20.0028C37.7975 19.8372 37.5872 19.6371 37.4102 19.409Z" fill="white"/>
</svg>
