<svg width="500" height="500" viewBox="0 0 500 500" fill="none" xmlns="http://www.w3.org/2000/svg">
<g clip-path="url(#clip0_2648_100942)">
<path opacity="0.3" d="M532.979 385.106H-32.9794V500H532.979V385.106Z" fill="#6CAFFF"/>
<rect opacity="0.6" x="59.9243" y="39.5118" width="77.1973" height="97.5596" fill="#28DBE4"/>
<ellipse opacity="0.2" cx="252.16" cy="460.063" rx="190.753" ry="4.5" transform="rotate(-0.733802 252.16 460.063)" fill="#222E60"/>
<rect opacity="0.1" x="55.6791" y="287" width="165.743" height="67.3032" fill="#0C1B62"/>
<path d="M317.757 389.995C308.749 385.837 292.446 397.309 285.421 403.564H469.623C468.468 401.543 465.119 396.693 460.961 393.459C455.764 389.417 453.166 393.459 445.659 393.459C438.152 393.459 436.42 374.115 423.428 368.052C410.436 361.989 400.619 377.291 396.288 381.333C391.958 385.375 388.493 385.086 379.831 379.023C371.17 372.96 351.248 382.777 343.453 389.995C335.658 397.213 329.017 395.191 317.757 389.995Z" fill="#99C8FF"/>
<path d="M369.965 402.433L367.222 389.296" stroke="#7AA0CC" stroke-width="2" stroke-linecap="round"/>
<path d="M415.871 402.505C416.102 401.812 419.913 384.989 421.789 376.665" stroke="#7AA0CC" stroke-width="2" stroke-linecap="round"/>
<path d="M417.314 394.276L410.674 380.562" stroke="#7AA0CC" stroke-width="2" stroke-linecap="round"/>
<rect opacity="0.1" x="221.422" y="150.003" width="204.3" height="204.3" fill="#0C1B62"/>
<path d="M222.478 209.578C205.652 169.502 185.576 136.539 163.205 115.889L158.234 177.838L171.618 218.756C195.582 232.395 239.303 249.654 222.478 209.578Z" fill="#5472EF"/>
<path d="M165.508 463.747C164.561 463.084 163.755 440.669 166.32 429.026L189.401 432.236C188.691 435.511 187.6 441.592 188.565 446.035C189.359 449.688 194.708 455.514 199.873 456.513C205.379 457.579 208.043 463.939 206.385 463.939C204.727 463.939 166.692 464.576 165.508 463.747Z" fill="#FFCB71"/>
<path d="M164.903 460.066C165.068 462.221 165.284 463.591 165.508 463.748C166.299 464.301 183.548 464.201 195.399 464.073C197.077 464.043 198.565 464.015 199.766 463.993C200.452 463.98 201.782 463.977 203.154 463.979C203.378 463.976 203.592 463.973 203.796 463.97C205.227 463.951 206.155 463.939 206.385 463.939C207.295 463.939 206.903 462.022 205.452 460.116L164.903 460.066Z" fill="white"/>
<rect width="95.1986" height="80.5315" rx="3.81727" transform="matrix(-1 0 0 1 262.632 168.1)" fill="#F27676"/>
<path d="M212.983 252.735C214.685 252.069 215.32 249.515 215.42 248.434H211.724C209.16 246.649 204.838 244.549 204.295 247.204C203.616 250.523 209.389 254.141 212.983 252.735Z" fill="#FFD3B0"/>
<path d="M216.358 252.005C218.06 251.339 218.695 248.785 218.795 247.704H215.099C212.535 245.919 208.213 243.819 207.67 246.474C206.991 249.793 212.764 253.412 216.358 252.005Z" fill="#FFD3B0"/>
<path d="M207.812 246.002C207.489 246.575 207.175 248.064 208.5 249.439C209.825 250.814 211.656 251.595 212.406 251.814" stroke="#EEAA8D" stroke-linecap="round"/>
<path d="M221.948 252.735C223.65 252.069 224.284 249.515 224.385 248.434H220.689C218.125 246.649 213.803 244.549 213.26 247.204C212.581 250.523 218.354 254.141 221.948 252.735Z" fill="#FFD3B0"/>
<path d="M228.173 252.735C229.876 252.069 230.51 249.515 230.611 248.434H226.915C224.351 246.649 220.029 244.549 219.486 247.204C218.807 250.523 224.579 254.141 228.173 252.735Z" fill="#FFD3B0"/>
<path d="M220.75 245.939C220.323 246.054 219.469 246.589 219.469 247.814C219.469 249.345 221.062 251.689 223.375 252.314" stroke="#EEAA8D" stroke-linecap="round"/>
<path d="M255.466 229.378H243.516" stroke="#EF5454" stroke-width="3" stroke-linecap="round"/>
<path d="M255.466 236.64H236.516" stroke="#EF5454" stroke-width="3" stroke-linecap="round"/>
<rect width="45.3105" height="80.5315" rx="3.81727" transform="matrix(-1 0 0 1 204.24 168.1)" fill="#F59898"/>
<rect width="18.2648" height="44.5434" transform="matrix(-1 0 0 1 241.047 168.1)" fill="#F9BBBB"/>
<path d="M186.037 221.785H126.157L151.107 300.516C155.82 343.993 161.572 436.839 163.374 438.641C164.933 440.201 166.998 436.938 170.235 438.017C175.641 439.819 185.058 440.889 189.502 438.849C191.616 437.879 200.5 342.643 200.5 331C200.5 321.685 189.641 247.751 186.037 221.785Z" fill="#222E60"/>
<path d="M188.751 241.708C185.138 267.125 178.951 299.312 173.839 310.496C167.834 323.633 161.405 350.666 157.777 368.077C157.502 365.202 157.224 362.301 156.945 359.389C154.919 338.221 152.84 316.5 151.107 300.516L135.361 250.828L147.379 221.785H186.037C186.811 227.362 187.751 234.245 188.751 241.708Z" fill="#141F4D"/>
<path d="M97.1855 463.02C96.2382 462.357 98.4329 439.941 100.997 428.298L123.025 431.513C122.315 434.789 120.811 442.371 120.243 445.307C119.532 448.978 126.385 454.786 131.55 455.786C137.056 456.851 139.72 463.212 138.063 463.212C136.405 463.212 98.3695 463.849 97.1855 463.02Z" fill="#FFCB71"/>
<path d="M96.9982 459.471C96.9154 461.549 96.9664 462.866 97.1855 463.02C98.2055 463.734 126.572 463.36 135.473 463.243C136.793 463.225 137.685 463.213 137.996 463.212C138.022 463.212 138.044 463.211 138.063 463.211C138.373 463.211 138.532 462.988 138.549 462.618C138.577 462.002 138.212 460.982 137.5 459.909C137.374 459.719 137.237 459.528 137.089 459.336L96.9982 459.471Z" fill="white"/>
<path d="M162.5 341C165.605 329.911 168.143 250.273 168.143 220.548C146.797 218.146 105.116 213.579 104.673 215.132C104.229 216.684 112.858 297.761 116 326.5C113.043 368.037 94.3041 434.516 97.1875 437.255C99.3762 439.334 101.956 436.511 106.752 437.255C108.943 437.595 122.849 443.181 125.741 439.958C128.167 437.255 158.619 354.861 162.5 341Z" fill="#222E60"/>
<path d="M102.976 126.323C110.777 113.933 134.397 108.031 145.232 106.629C151.223 105.617 173.721 120.013 178.501 131.867C183.281 143.722 187.977 212.295 187.977 221.924C187.977 228.456 119.651 225.557 105.92 225.557C101.647 225.557 102.201 213.076 103.009 202.934C103.676 194.561 93.2249 141.81 102.976 126.323Z" fill="#435BBF"/>
<path d="M140.025 226.152C131.851 226.072 123.968 225.899 117.634 225.76C112.477 225.647 108.346 225.557 105.92 225.557C101.647 225.557 102.201 213.076 103.009 202.934C103.192 200.644 102.542 195.033 101.702 187.774C101.178 183.247 100.58 178.079 100.063 172.675L110.633 167.865C116.316 176.875 128.735 194.839 132.949 194.617C138.216 194.34 173.423 158.163 173.423 158.163C169.034 172.902 157.705 204.93 147.503 215.132C143.103 219.532 140.815 223.008 140.025 226.152Z" fill="#32448F"/>
<path d="M152.446 124.697C146.588 126.434 145.698 131.77 143.51 137.495C131.411 137.495 119.552 119.356 128.456 109.463C133.621 103.725 142.056 104.874 148.701 106.868C153.892 108.425 162.66 108.942 164.274 121.922C165.135 128.845 162.114 136.117 160.427 136.701C159.5 134.026 157.943 126.564 152.446 124.697Z" fill="white"/>
<path d="M163.167 37.8985C169.878 39.667 173.144 47.7051 173.937 51.5031C179.85 50.201 185.897 57.0157 181.091 62.5907C182.844 63.3946 186.471 66.8641 186.949 74.3114C188.27 94.8881 149.458 117.373 129.876 101.741C124.776 97.6701 125.664 92.1145 127.487 90.2263C117.745 87.6056 119.692 77.2396 123.217 75.1045C115.507 64.5179 123.982 55.6272 127.939 54.4566C130.881 45.4701 142.569 42.5202 148.045 42.1686C150.289 40.0084 156.455 36.13 163.167 37.8985Z" fill="#6D3654"/>
<path d="M135.831 110.615L143.682 91.9597L156.492 91.9321L157.913 118.983C152.875 128.34 137.164 118.18 135.831 110.615Z" fill="#FFD3B0"/>
<path d="M157.43 109.797C153.696 109.572 144.88 108.345 139.497 101.904L142.315 95.2083L155.782 96.6861L156.986 101.335L157.43 109.797Z" fill="#EEAA8D"/>
<path d="M170.458 108.758C178.054 107.17 178.823 76.3291 172.433 62.4432C169.133 53.8577 142.28 63.8295 145.44 70.2248C146.978 73.3362 145.694 74.0575 144.121 75.2582C142.549 76.4589 141.11 79.8504 141.798 82.0056C142.486 84.1609 142.697 87.4464 140.331 84.8491C137.965 82.2518 132.017 66.6879 128.781 76.2432C126.193 83.8874 131.869 87.2253 135.031 87.9387C141.155 106.241 162.862 110.345 170.458 108.758Z" fill="#FFD3B0"/>
<path d="M168.448 97.8533L159.844 95.5304" stroke="#EEAA8D" stroke-linecap="round"/>
<path d="M164.774 81.0805C167.569 83.9306 171.706 89.1772 171.456 90.2127C171.251 91.0598 166.252 90.5468 163.729 89.4789" stroke="#EEAA8D" stroke-linecap="round"/>
<ellipse cx="155.115" cy="78.7009" rx="4.61328" ry="2.49366" transform="rotate(-3.6739 155.115 78.7009)" fill="white"/>
<circle cx="156.015" cy="78.7008" r="1.66244" transform="rotate(-3.6739 156.015 78.7008)" fill="#141414"/>
<ellipse cx="172.205" cy="77.6037" rx="3.94996" ry="2.49366" transform="rotate(-3.6739 172.205 77.6037)" fill="white"/>
<circle cx="172.44" cy="77.6466" r="1.66244" transform="rotate(-3.6739 172.44 77.6466)" fill="#141414"/>
<path d="M136.342 77.0064C135.329 75.1285 134.567 73.4318 134.106 72.048C130.7 61.8194 133.106 47.9185 147.168 44.2663C155.132 42.198 168.912 42.1587 175.143 57.7045C175.926 59.6595 176.754 61.9995 177.526 64.5704C173.257 66.5019 162.447 68.4801 151.377 63.0191C150.893 66.8991 149.242 75.8028 139.452 75.3317C138.969 76.3495 137.62 75.5648 136.342 77.0064Z" fill="#6D3654"/>
<path d="M151.924 40.1168C149.718 41.1072 148.107 42.9271 147.195 45.1675" stroke="#4F1836" stroke-width="1.09745" stroke-linecap="round"/>
<path d="M169.993 123.824C170.375 125.353 169.068 128.731 168.367 130.229C168.367 132.045 180.126 133.575 180.318 132.619C180.509 131.663 181.847 127.265 183.664 125.353C185.48 123.441 185.193 116.558 185.193 115.028C185.193 113.499 186.532 115.22 188.348 113.499C190.164 111.778 186.818 108.049 185.193 106.52C183.568 104.99 172.383 105.946 169.993 108.049C167.602 110.153 169.515 121.912 169.993 123.824Z" fill="#FFD3B0"/>
<path d="M95 151.5C93.4704 126.453 105.712 120.738 110.863 118.565C115.348 116.674 128.755 145.219 136.532 162.5C144.308 151.601 160.05 136.443 160.815 134.913C161.771 133.001 163.874 131.759 164.926 131.567C165.977 131.376 167.411 127.743 167.794 126.596C168.176 125.449 181.274 129.177 182.421 129.368C183.568 129.56 182.994 134.053 182.421 135.774C181.847 137.495 183.186 137.208 182.421 141.701C181.656 146.194 156.608 191.352 136.532 199C116.456 206.648 96.5501 176.883 95 151.5Z" fill="#5472EF"/>
<circle cx="106.431" cy="148.619" r="9.54413" fill="#768EF2"/>
<path d="M213.594 246.439C213.302 247.325 213.169 249.42 214.969 250.72C216.769 252.02 218.615 252.762 219.312 252.97" stroke="#EEAA8D" stroke-linecap="round"/>
<circle cx="245.991" cy="91.2406" r="24.6481" fill="#2E47BA"/>
<path d="M250.138 79.6292C248.637 79.6292 247.227 80.0024 245.991 80.6576C244.755 80.0024 243.345 79.6292 241.844 79.6292C236.943 79.6292 232.97 83.6019 232.97 88.5036C232.97 89.3745 233.675 90.0795 234.546 90.0795C235.416 90.0795 236.121 89.3745 236.121 88.5036C236.121 85.3436 238.684 82.7808 241.844 82.7808C242.317 82.7808 242.781 82.8389 243.221 82.9467C244.299 83.2121 245.253 83.7844 245.991 84.5557C246.97 85.5842 247.567 86.9692 247.567 88.4953C247.567 89.3662 246.862 90.0712 245.991 90.0712C245.12 90.0712 244.415 89.3662 244.415 88.4953C244.415 87.5498 244.648 86.6541 245.054 85.8662C244.382 85.0451 243.395 84.4894 242.284 84.3733C241.629 85.609 241.264 87.0107 241.264 88.5036C241.264 91.1162 243.379 93.2311 245.991 93.2311C248.604 93.2311 250.719 91.1162 250.719 88.5036C250.719 86.397 249.989 84.4645 248.761 82.9467C249.201 82.8389 249.665 82.7808 250.138 82.7808C253.298 82.7808 255.861 85.3436 255.861 88.5036C255.861 89.3745 256.566 90.0795 257.437 90.0795C258.308 90.0795 259.013 89.3745 259.013 88.5036C259.013 83.6019 255.04 79.6292 250.138 79.6292Z" fill="white"/>
<path d="M236.553 93.2394C236.238 92.4266 235.325 92.0285 234.512 92.3437C233.7 92.6589 233.301 93.5712 233.617 94.384C235.541 99.3354 240.351 102.852 245.991 102.852C251.631 102.852 256.441 99.3354 258.366 94.384C258.681 93.5712 258.283 92.6589 257.47 92.3437C256.657 92.0285 255.745 92.4349 255.43 93.2394C253.962 97.0214 250.287 99.7004 245.991 99.7004C241.695 99.7004 238.021 97.0214 236.553 93.2394Z" fill="white"/>
<path d="M124.477 464.753H47.3586H36.5349C32.882 453.659 33.4232 435.529 46.6821 430.523C53.4468 429.17 63.0528 429.305 69.0058 437.964C74.4852 448.111 74.8235 441.617 81.3853 443.444C87.9471 445.27 82.5353 450.682 90.1118 451.765C97.6883 452.847 96.8766 447.706 106.888 447.435C114.898 447.219 121.951 458.89 124.477 464.753Z" fill="#99C8FF"/>
<path d="M72.1852 463.67L78.0029 454.47" stroke="#7AA0CC" stroke-width="2" stroke-linecap="round"/>
<path d="M107.43 463.67L104.521 458.408" stroke="#7AA0CC" stroke-width="2" stroke-linecap="round"/>
<path d="M53.2438 463.67L48.6438 444.729" stroke="#7AA0CC" stroke-width="2" stroke-linecap="round"/>
<path d="M51.3497 454.064L55.6792 440.941" stroke="#7AA0CC" stroke-width="2" stroke-linecap="round"/>
<rect x="295.908" y="39.512" width="150.577" height="244.473" rx="23" fill="#1F2833"/>
<rect x="295.908" y="39.512" width="141.523" height="244.473" rx="23" fill="#3D5066"/>
<path d="M337.58 58.7668C336.697 55.3269 333.596 52.9216 330.045 52.9216H316.859C311.336 52.9216 306.859 57.3988 306.859 62.9216V260.575C306.859 266.098 311.336 270.575 316.859 270.575H416.479C422.002 270.575 426.479 266.098 426.479 260.575V62.9216C426.479 57.3988 422.002 52.9216 416.479 52.9216H403.293C399.742 52.9216 396.641 55.3269 395.759 58.7668C394.876 62.2067 391.775 64.6119 388.224 64.6119H345.114C341.563 64.6119 338.462 62.2067 337.58 58.7668Z" fill="#768EF2"/>
<path d="M402.809 126.19C402.809 125.086 401.914 124.19 400.809 124.19H336.741C335.636 124.19 334.741 125.086 334.741 126.19V160.567C334.741 161.671 335.636 162.567 336.741 162.567H400.809C401.914 162.567 402.809 161.671 402.809 160.567V126.19Z" fill="#E6B766"/>
<path d="M332.924 124.19L334.237 129.549L401.112 124.19L367.482 97.5702C366.741 96.9836 365.69 96.9958 364.963 97.5993L332.924 124.19Z" fill="#E6B766"/>
<rect x="337.775" y="106.237" width="56" height="43.75" rx="2" fill="white"/>
<path d="M367.296 115.485C368.83 115.485 370.168 115.778 371.312 116.363C372.456 116.935 373.333 117.747 373.944 118.8C374.568 119.84 374.88 121.042 374.88 122.407C374.88 123.511 374.685 124.538 374.295 125.487C373.918 126.436 373.353 127.196 372.599 127.768C371.858 128.327 370.974 128.606 369.947 128.606C369.258 128.606 368.687 128.47 368.232 128.197C367.79 127.924 367.491 127.541 367.335 127.047C366.971 127.554 366.503 127.95 365.931 128.236C365.359 128.509 364.735 128.645 364.059 128.645C363.098 128.645 362.337 128.359 361.778 127.787C361.233 127.203 360.96 126.41 360.96 125.409C360.96 124.46 361.155 123.57 361.544 122.738C361.934 121.893 362.474 121.217 363.163 120.71C363.852 120.203 364.625 119.95 365.483 119.95C366.574 119.95 367.315 120.34 367.705 121.12L367.881 120.086H370.571L369.713 124.98C369.674 125.214 369.655 125.422 369.655 125.604C369.655 126.176 369.908 126.462 370.415 126.462C371.039 126.462 371.514 126.065 371.838 125.272C372.176 124.467 372.345 123.544 372.345 122.504C372.345 121.009 371.871 119.84 370.922 118.995C369.986 118.15 368.667 117.727 366.964 117.727C365.509 117.727 364.183 118.078 362.987 118.78C361.804 119.482 360.875 120.444 360.199 121.666C359.523 122.874 359.185 124.207 359.185 125.662C359.185 127.235 359.64 128.457 360.55 129.328C361.473 130.198 362.76 130.634 364.41 130.634C365.697 130.634 366.847 130.4 367.861 129.932L368.388 132.057C367.114 132.616 365.684 132.895 364.098 132.895C362.617 132.895 361.311 132.61 360.18 132.038C359.062 131.466 358.198 130.653 357.587 129.601C356.976 128.548 356.67 127.32 356.67 125.916C356.67 123.953 357.132 122.179 358.055 120.593C358.977 118.995 360.245 117.747 361.856 116.85C363.481 115.94 365.294 115.485 367.296 115.485ZM365.151 126.247C365.515 126.247 365.853 126.137 366.165 125.916C366.49 125.695 366.743 125.402 366.925 125.038C367.12 124.662 367.218 124.259 367.218 123.83C367.218 123.388 367.094 123.03 366.847 122.757C366.6 122.471 366.263 122.329 365.834 122.329C365.262 122.329 364.787 122.575 364.41 123.069C364.033 123.563 363.845 124.148 363.845 124.824C363.845 125.253 363.955 125.597 364.176 125.857C364.397 126.117 364.722 126.247 365.151 126.247Z" fill="#F27676"/>
<path d="M397.809 124.19C398.914 124.19 399.809 125.086 399.809 126.19V160.567C399.809 161.671 398.914 162.567 397.809 162.567H333.741C332.636 162.567 331.741 161.671 331.741 160.567V126.19C331.741 125.354 332.254 124.638 332.982 124.339L364.709 143.909C365.361 144.311 366.186 144.306 366.832 143.894L397.809 124.19Z" fill="#FFCB71"/>
<path opacity="0.3" d="M334.775 176.987H399.775" stroke="white" stroke-width="4" stroke-linecap="round"/>
<path opacity="0.3" d="M350.737 191.737H383.813" stroke="white" stroke-width="4" stroke-linecap="round"/>
<path d="M380.153 217.949L404.338 217.949" stroke="#41D5DE" stroke-width="18" stroke-linecap="round"/>
<path d="M330.212 217.949L354.397 217.949" stroke="#5472EF" stroke-width="18" stroke-linecap="round"/>
</g>
<defs>
<clipPath id="clip0_2648_100942">
<rect width="500" height="500" fill="white"/>
</clipPath>
</defs>
</svg>
