<svg width="60" height="60" viewBox="0 0 60 60" fill="none" xmlns="http://www.w3.org/2000/svg">
<rect width="60" height="60" rx="30" fill="#DCEDFF"/>
<rect x="17.0017" y="8.04346" width="25.9965" height="43.9131" rx="2" fill="#3D5066"/>
<path d="M24.2273 11.9289C23.9552 11.1119 23.1908 10.5608 22.3297 10.5608H20.7668C19.6622 10.5608 18.7668 11.4562 18.7668 12.5608V47.2653C18.7668 48.3698 19.6622 49.2653 20.7668 49.2653H39.2332C40.3377 49.2653 41.2332 48.3698 41.2332 47.2653V12.5608C41.2332 11.4562 40.3377 10.5608 39.2332 10.5608H37.6703C36.8092 10.5608 36.0448 11.1119 35.7727 11.9289L35.6839 12.1956C35.4118 13.0126 34.6474 13.5637 33.7863 13.5637H26.2137C25.3526 13.5637 24.5882 13.0126 24.3161 12.1956L24.2273 11.9289Z" fill="#22C1CB"/>
<path d="M27.6293 26.0173C29.5454 27.0825 32.01 26.7696 33.5956 25.1107C35.4797 23.1394 35.4091 20.0139 33.4378 18.1297C31.4665 16.2455 28.3409 16.3161 26.4568 18.2874C24.8712 19.9463 24.6699 22.4225 25.8206 24.2885L25.3549 25.7162C25.1814 26.2481 25.7006 26.7443 26.2241 26.547L27.6293 26.0173Z" fill="#22C1CB" stroke="white" stroke-width="1.00029"/>
<path d="M29.315 22.0605L28.9737 21.6208C28.7965 21.3924 28.7802 21.0778 28.933 20.8324C29.0477 20.6481 29.0691 20.4207 28.9909 20.2184L28.8185 19.7725C28.6577 19.3565 28.1258 19.2374 27.803 19.5452L27.7277 19.6169C27.497 19.8368 27.4054 20.1655 27.4889 20.473L27.5202 20.5883C28.0195 22.4273 29.5175 23.8247 31.3866 24.1953C31.6851 24.2545 31.9922 24.1469 32.1884 23.9143L32.2649 23.8237C32.5536 23.4815 32.3974 22.9556 31.9688 22.8264L31.6175 22.7206C31.4149 22.6595 31.1953 22.6987 31.0263 22.8259C30.7964 22.9989 30.4813 23.0044 30.2457 22.8394L29.8202 22.5415C29.6286 22.4073 29.4583 22.2452 29.315 22.0605Z" fill="white"/>
<path d="M14.9833 35.3595L16.8035 44.3542L18.9501 38.6922L37.6316 30.8372L14.9833 35.3595Z" fill="#435BBF"/>
<path d="M16.8346 36.9503L37.7404 30.8527L27.6972 46.0588L16.8346 36.9503Z" fill="#5472EF"/>
<path d="M15.1077 35.4528L37.7404 30.8527L8.55945 31.9105L15.1077 35.4528Z" fill="#5472EF"/>
<path d="M16.8346 44.4166V36.9539L20.8969 40.2512L16.8346 44.4166Z" fill="#32448F"/>
</svg>