<svg width="20" height="20" viewBox="0 0 20 20" fill="none" xmlns="http://www.w3.org/2000/svg">
<path d="M13.3333 10.7501V14.2501C13.3333 17.1667 12.1667 18.3334 9.24999 18.3334H5.74999C2.83332 18.3334 1.66666 17.1667 1.66666 14.2501V10.7501C1.66666 7.83341 2.83332 6.66675 5.74999 6.66675H9.24999C12.1667 6.66675 13.3333 7.83341 13.3333 10.7501Z" stroke="#2E47BA" stroke-width="1.3" stroke-linecap="round" stroke-linejoin="round"/>
<path d="M18.3333 5.75008V9.25008C18.3333 12.1667 17.1667 13.3334 14.25 13.3334H13.3333V10.7501C13.3333 7.83341 12.1667 6.66675 9.24999 6.66675H6.66666V5.75008C6.66666 2.83341 7.83332 1.66675 10.75 1.66675H14.25C17.1667 1.66675 18.3333 2.83341 18.3333 5.75008Z" stroke="#2E47BA" stroke-width="1.3" stroke-linecap="round" stroke-linejoin="round"/>
</svg>
