<svg width="32" height="32" viewBox="0 0 32 32" fill="none" xmlns="http://www.w3.org/2000/svg">
<rect width="32" height="32" rx="16" fill="#DEF1F2"/>
<path d="M9.60156 12.7617V12.1117C9.24258 12.1117 8.95156 12.4027 8.95156 12.7617H9.60156ZM23.0494 15.5617C23.0494 15.2028 22.7584 14.9117 22.3994 14.9117C22.0404 14.9117 21.7494 15.2028 21.7494 15.5617H23.0494ZM9.60156 13.4117H22.3994V12.1117H9.60156V13.4117ZM21.3994 22.4368H10.6016V23.7368H21.3994V22.4368ZM10.2516 22.0868V12.7617H8.95156V22.0868H10.2516ZM21.7494 15.5617V22.0868H23.0494V15.5617H21.7494ZM10.6016 22.4368C10.4083 22.4368 10.2516 22.2801 10.2516 22.0868H8.95156C8.95156 22.998 9.69029 23.7368 10.6016 23.7368V22.4368ZM21.3994 23.7368C22.3107 23.7368 23.0494 22.998 23.0494 22.0868H21.7494C21.7494 22.2801 21.5927 22.4368 21.3994 22.4368V23.7368Z" fill="#6C7E95"/>
<path d="M9.60156 12.7617H22.3994L20.4114 9.40247C20.2314 9.09832 19.9042 8.91177 19.5508 8.91177H12.4502C12.0968 8.91177 11.7696 9.09832 11.5896 9.40247L9.60156 12.7617Z" stroke="#6C7E95" stroke-width="1.3" stroke-linejoin="round"/>
<path d="M16 8.91211L16 12.762" stroke="#6C7E95" stroke-width="1.3" stroke-linecap="round" stroke-linejoin="round"/>
<path d="M13.7334 17.7351L15.371 19.3726L18.2671 16.4766" stroke="#6C7E95" stroke-width="1.3" stroke-linecap="round" stroke-linejoin="round"/>
</svg>
