<svg width="32" height="32" viewBox="0 0 32 32" fill="none" xmlns="http://www.w3.org/2000/svg">
<circle cx="16" cy="16" r="16" fill="#D2FFE1"/>
<path d="M21.3996 16.9008V12.815C21.3996 12.5498 21.2943 12.2954 21.1067 12.1079L18.0925 9.09367C17.905 8.90614 17.6506 8.80078 17.3854 8.80078H11.5996C11.0473 8.80078 10.5996 9.2485 10.5996 9.80078V22.2008C10.5996 22.7531 11.0473 23.2008 11.5996 23.2008H18.3139H20.3996C20.9519 23.2008 21.3996 22.7531 21.3996 22.2008V19.6008" stroke="#458B5C" stroke-width="1.3" stroke-miterlimit="10" stroke-linecap="round" stroke-linejoin="round"/>
<path d="M20.4998 12.4H18.7998C18.2475 12.4 17.7998 11.9523 17.7998 11.4V9.25" stroke="#458B5C" stroke-width="1.3" stroke-miterlimit="10" stroke-linecap="round" stroke-linejoin="round"/>
<path d="M13.2998 14.3096L14.4248 15.4346L16.334 13.5254" stroke="#458B5C" stroke-width="1.3" stroke-miterlimit="10" stroke-linecap="round" stroke-linejoin="round"/>
<path d="M13.2998 19.5996H18.2498" stroke="#458B5C" stroke-width="1.3" stroke-miterlimit="10" stroke-linecap="round" stroke-linejoin="round"/>
<path d="M13.2998 17.8008H15.9998" stroke="#458B5C" stroke-width="1.3" stroke-miterlimit="10" stroke-linecap="round" stroke-linejoin="round"/>
</svg>
