<svg width="20" height="20" viewBox="0 0 20 20" fill="none" xmlns="http://www.w3.org/2000/svg">
<path d="M10.4626 12.0734C10.1872 12.3487 9.83749 12.5377 9.45628 12.6171L7.73443 12.9758C7.31124 13.064 6.93651 12.6893 7.02467 12.2661L7.38339 10.5442C7.46281 10.163 7.65179 9.81327 7.92714 9.53793L14.758 2.70711C15.1485 2.31658 15.7816 2.31658 16.1722 2.70711L17.2934 3.82834C17.6839 4.21887 17.6839 4.85203 17.2934 5.24255L10.4626 12.0734Z" stroke="white" stroke-width="1.3" stroke-miterlimit="10" stroke-linecap="round" stroke-linejoin="round"/>
<path d="M16.6065 10.4424V16.001C16.6065 17.1056 15.7111 18.001 14.6065 18.001H4C2.89543 18.001 2 17.1056 2 16.001V5.39453C2 4.28996 2.89543 3.39453 4 3.39453H9.55861" stroke="white" stroke-width="1.3" stroke-miterlimit="10" stroke-linecap="round" stroke-linejoin="round"/>
</svg>
