<svg width="24" height="24" viewBox="0 0 24 24" fill="none" xmlns="http://www.w3.org/2000/svg">
<rect width="24" height="24" rx="12" fill="#010101"/>
<path fill-rule="evenodd" clip-rule="evenodd" d="M14.9336 9.66693C15.8786 10.3421 17.0365 10.7394 18.2869 10.7394V8.3344C18.0502 8.33449 17.8142 8.3098 17.5827 8.26074V10.1539C16.3323 10.1539 15.1747 9.75656 14.2294 9.08136V13.9893C14.2294 16.4445 12.238 18.4347 9.78169 18.4347C8.86522 18.4347 8.01334 18.1578 7.30566 17.6828C8.11333 18.5082 9.23965 19.0203 10.4857 19.0203C12.9423 19.0203 14.9337 17.0301 14.9337 14.5748V9.66693H14.9336ZM15.8023 7.24055C15.3193 6.71319 15.0022 6.0316 14.9336 5.27807V4.96875H14.2662C14.4342 5.92642 15.0072 6.74462 15.8023 7.24055ZM8.85926 15.7988C8.58944 15.4452 8.44359 15.0126 8.44424 14.5678C8.44424 13.4448 9.35511 12.5344 10.4788 12.5344C10.6882 12.5343 10.8964 12.5664 11.096 12.6296V10.1709C10.8628 10.1389 10.6274 10.1254 10.392 10.1304V12.0442C10.1923 11.9809 9.98409 11.9488 9.77461 11.9489C8.65089 11.9489 7.74011 12.8594 7.74011 13.9824C7.74011 14.7764 8.19537 15.464 8.85926 15.7988Z" fill="#EE1D52"/>
<path fill-rule="evenodd" clip-rule="evenodd" d="M14.2285 9.08136C15.1738 9.75656 16.3315 10.1539 17.5818 10.1539V8.26074C16.8839 8.11221 16.266 7.74762 15.8014 7.24055C15.0063 6.74462 14.4333 5.92642 14.2654 4.96875H12.5125V14.5747C12.5085 15.6945 11.5992 16.6012 10.4779 16.6012C9.81709 16.6012 9.23005 16.2865 8.8583 15.7988C8.19441 15.464 7.73915 14.7764 7.73915 13.9824C7.73915 12.8594 8.64992 11.9489 9.77365 11.9489C9.98893 11.9489 10.1964 11.9824 10.3911 12.0442V10.1304C7.97792 10.1802 6.03711 12.151 6.03711 14.5748C6.03711 15.7847 6.52043 16.8815 7.30479 17.6829C8.01246 18.1579 8.86434 18.4348 9.78082 18.4348C12.2372 18.4348 14.2285 16.4445 14.2285 13.9894V9.08136Z" fill="white"/>
<path fill-rule="evenodd" clip-rule="evenodd" d="M17.5818 8.26419V7.75228C16.9524 7.75323 16.3354 7.57706 15.8014 7.24392C16.2741 7.76116 16.8966 8.11786 17.5818 8.26419ZM14.2654 4.9722C14.2493 4.88069 14.237 4.78856 14.2285 4.69604V4.38672H11.8082V13.9927C11.8043 15.1125 10.8951 16.0192 9.77368 16.0192C9.44441 16.0192 9.13362 15.9411 8.85833 15.8023C9.23008 16.2899 9.81711 16.6047 10.4779 16.6047C11.5991 16.6047 12.5085 15.698 12.5125 14.5781V4.9722H14.2654ZM10.3912 10.1338V9.58886C10.189 9.56121 9.98506 9.54739 9.78093 9.5475C7.32433 9.5475 5.33301 11.5378 5.33301 13.9927C5.33301 15.5319 6.11563 16.8884 7.3049 17.6863C6.52055 16.8849 6.03722 15.788 6.03722 14.5781C6.03722 12.1544 7.97795 10.1837 10.3912 10.1338Z" fill="#69C9D0"/>
</svg>
