<svg width="38" height="29" viewBox="0 0 38 29" fill="none" xmlns="http://www.w3.org/2000/svg">
<path d="M2.97496 27.8949C2.57198 27.9018 2.23053 28.0457 2.04507 27.8264C1.85961 27.6072 2.1144 27.1808 2.17333 26.8463C2.29639 26.153 2.46192 25.4649 2.58151 24.7707C2.63351 24.4709 2.75484 24.3651 3.06076 24.3851C3.5348 24.4145 4.01404 24.3851 4.48722 24.3981C4.58775 24.3981 4.77234 24.3894 4.77234 24.5307C4.77234 24.7248 4.70994 24.853 4.46729 24.8383C4.13711 24.8192 3.83725 24.814 3.47327 24.827C3.15435 24.8383 3.05296 24.9258 3.00703 25.2231C2.90216 25.9017 2.88743 25.8991 3.5634 25.8991C3.70726 25.8991 3.85199 25.8991 3.99671 25.8991C4.10677 25.8991 4.24457 25.8748 4.23677 26.0576C4.22983 26.2119 4.20297 26.3462 3.99931 26.3428C3.73932 26.3384 3.47934 26.3696 3.21935 26.3367C2.86577 26.2899 2.74964 26.445 2.69071 26.77C2.56591 27.4546 2.55031 27.452 3.23842 27.452C3.46894 27.452 3.70033 27.4408 3.93172 27.4572C4.03138 27.4642 4.20124 27.4572 4.1917 27.6115C4.18217 27.7658 4.12757 27.914 3.90138 27.8984C3.52267 27.9018 3.32854 27.8949 2.97496 27.8949Z" fill="#902782"/>
<path d="M21.2708 27.9393C20.561 27.9437 20.1026 27.4402 20.2005 26.7616C20.2725 26.2633 20.3392 25.7615 20.5108 25.2883C20.7526 24.6202 21.3774 24.2605 22.0421 24.3888C22.2293 24.4144 22.4033 24.4996 22.5383 24.6318C22.6733 24.764 22.7622 24.9362 22.7917 25.1228C22.8169 25.2381 22.9174 25.3984 22.699 25.4201C22.5621 25.4339 22.3714 25.5197 22.3151 25.2745C22.2449 24.9686 22.0612 24.7978 21.7318 24.8186C21.5797 24.8214 21.432 24.8703 21.3082 24.9588C21.1844 25.0473 21.0904 25.1713 21.0385 25.3143C20.8462 25.7849 20.7916 26.2893 20.7084 26.7876C20.6642 27.0476 20.7283 27.285 20.9788 27.4159C21.0945 27.4773 21.2256 27.5035 21.356 27.4914C21.4864 27.4792 21.6104 27.4292 21.7128 27.3474C21.8374 27.2494 21.9403 27.1266 22.0152 26.9869C22.1296 26.8041 22.3454 26.8335 22.4806 26.9003C22.6158 26.967 22.4754 27.1464 22.4182 27.2469C22.1652 27.695 21.7561 27.9064 21.2708 27.9393Z" fill="#902882"/>
<path d="M25.6223 27.1333C25.709 26.6818 25.8208 26.1315 25.9282 25.5803C25.9724 25.3533 26.1449 25.3723 26.2991 25.4009C26.5089 25.4408 26.4057 25.6072 26.3858 25.7155C26.3173 26.0986 26.2272 26.4773 26.157 26.8595C26.1102 27.1194 26.0513 27.4193 26.4083 27.4912C26.7654 27.5632 26.9985 27.35 27.0834 27.0258C27.2004 26.5813 27.2776 26.1254 27.3599 25.6713C27.3885 25.5171 27.4145 25.3949 27.6112 25.3888C27.8079 25.3827 27.9093 25.4122 27.8573 25.6488C27.7126 26.31 27.574 26.973 27.4613 27.642C27.4197 27.8855 27.268 27.9566 27.1068 27.8812C26.8651 27.7685 26.6735 27.876 26.4569 27.9176C25.9828 28.0103 25.507 27.7417 25.6223 27.1333Z" fill="#912883"/>
<path d="M6.64293 27.8525C5.8933 28.0743 6.0077 27.381 5.73818 27.0881C5.33693 27.3212 5.28493 28.1055 4.5249 27.8455C4.80309 27.505 5.06048 27.1618 5.3482 26.8455C5.51025 26.6669 5.52152 26.5231 5.40886 26.3151C5.25547 26.0421 5.13934 25.7474 4.99808 25.4441C5.71911 25.1841 5.61945 25.8714 5.86471 26.1652C6.25295 25.9511 6.29802 25.1928 7.04071 25.4424C6.77119 25.776 6.53201 26.095 6.26855 26.3913C6.10909 26.5699 6.09523 26.7224 6.20702 26.9313C6.36995 27.2242 6.49387 27.5318 6.64293 27.8525Z" fill="#902883"/>
<path d="M15.3943 25.3743C15.7063 25.3605 15.8909 25.4003 16.0573 25.4879C16.144 25.5321 16.3173 25.6049 16.2306 25.7158C16.1665 25.8181 16.0729 25.9888 15.89 25.8813C15.6996 25.7745 15.4758 25.7436 15.2635 25.7947C15.0771 25.8302 14.9385 25.9506 14.9341 26.1413C14.9298 26.332 15.1031 26.3805 15.2661 26.4013C15.3527 26.4143 15.4394 26.4342 15.526 26.4455C15.851 26.488 16.1232 26.6093 16.1622 26.9759C16.2029 27.365 16.0166 27.6518 15.6664 27.8018C15.4572 27.9005 15.2274 27.9479 14.9962 27.9399C14.7649 27.9319 14.539 27.8688 14.337 27.7558C14.2556 27.7108 14.084 27.6276 14.1845 27.4958C14.2712 27.3979 14.3578 27.209 14.5667 27.365C14.8267 27.5626 15.1283 27.573 15.4264 27.4438C15.578 27.378 15.6976 27.2705 15.6725 27.0807C15.6474 26.8909 15.4931 26.8771 15.3519 26.8467C15.2955 26.8355 15.2366 26.8363 15.1785 26.8259C14.8319 26.7627 14.4731 26.7055 14.4506 26.2436C14.4324 25.8588 14.7106 25.5286 15.1343 25.4159C15.2199 25.396 15.3068 25.3821 15.3943 25.3743Z" fill="#902883"/>
<path d="M18.467 25.5671C18.4849 25.5785 18.5001 25.5937 18.5114 25.6117C18.5227 25.6296 18.5298 25.6499 18.5323 25.671C18.5348 25.692 18.5326 25.7134 18.5258 25.7335C18.519 25.7536 18.5078 25.7719 18.493 25.7872C18.3795 25.9077 18.2408 25.9302 18.0346 25.8167C17.9124 25.7491 17.7235 25.7768 17.5701 25.8002C17.4822 25.807 17.4 25.8463 17.3395 25.9104C17.2789 25.9744 17.2444 26.0587 17.2425 26.1468C17.2425 26.3479 17.4158 26.3808 17.5796 26.4068C17.6793 26.4224 17.7781 26.445 17.8769 26.4606C18.1654 26.5065 18.4064 26.6088 18.454 26.9424C18.5078 27.3124 18.3674 27.6036 18.0441 27.7709C17.8339 27.8842 17.5991 27.9441 17.3604 27.9453C17.1216 27.9465 16.8862 27.889 16.6749 27.7778C16.5778 27.7302 16.4149 27.6357 16.4877 27.5178C16.5605 27.4 16.6688 27.2154 16.895 27.3852C17.1411 27.5698 17.4323 27.5733 17.7174 27.4572C17.8725 27.3939 18.0008 27.2882 17.9887 27.1105C17.9757 26.9095 17.8015 26.88 17.642 26.8505C17.5553 26.8358 17.4687 26.8375 17.382 26.8176C17.0969 26.75 16.8014 26.6807 16.7667 26.3167C16.7441 26.1508 16.7754 25.982 16.8561 25.8353C16.9368 25.6886 17.0625 25.5718 17.2148 25.5021C17.4111 25.4028 17.6299 25.3566 17.8495 25.368C18.0692 25.3794 18.2821 25.448 18.467 25.5671Z" fill="#902883"/>
<path d="M34.7762 25.3971C35.057 25.6467 35.3733 25.3105 35.694 25.3746C35.8526 25.4067 36.1126 25.4344 36.0658 25.6251C36.0559 25.6775 36.0334 25.7268 36.0004 25.7687C35.9674 25.8106 35.9248 25.8439 35.8761 25.8659C35.8275 25.8878 35.7743 25.8977 35.721 25.8947C35.6677 25.8917 35.6159 25.8759 35.5701 25.8487C35.2468 25.6953 34.9192 25.9284 34.8178 26.3435C34.7164 26.7586 34.6228 27.1876 34.5578 27.6148C34.5215 27.8748 34.3845 27.9268 34.1748 27.8922C34.0015 27.8636 34.0621 27.6746 34.0881 27.5585C34.2086 26.9207 34.3481 26.2863 34.4617 25.6519C34.4911 25.4803 34.5431 25.3763 34.7762 25.3971Z" fill="#912983"/>
<path d="M28.2313 27.5683C28.3509 26.979 28.4965 26.29 28.6265 25.5976C28.669 25.3688 28.8865 25.3203 28.9654 25.4061C29.1777 25.6452 29.3328 25.452 29.5096 25.4061C29.6604 25.3522 29.8251 25.3522 29.9758 25.4061C30.0833 25.4511 30.287 25.4806 30.2064 25.6427C30.1431 25.7683 30.033 25.9442 29.8138 25.8966C29.2843 25.7804 29.0512 25.926 28.9359 26.4495C28.8432 26.8707 28.7565 27.2936 28.6811 27.7182C28.6369 27.9678 28.4549 27.8915 28.3128 27.8915C28.1447 27.8881 28.2079 27.7659 28.2313 27.5683Z" fill="#912984"/>
<path d="M31.178 25.5822C31.0281 26.3249 30.8807 27.0156 30.7516 27.7089C30.7057 27.955 30.5323 27.8961 30.3876 27.8909C30.2429 27.8857 30.2724 27.7176 30.2923 27.6101C30.4162 26.9593 30.5523 26.3102 30.6701 25.6593C30.71 25.4453 30.8149 25.369 31.0263 25.3898C31.1996 25.4071 31.1866 25.5129 31.178 25.5822Z" fill="#912A84"/>
<path d="M31.1706 24.8609C30.9652 24.828 30.8161 24.8869 30.8378 24.6876C30.8595 24.4883 30.947 24.3652 31.1697 24.4051C31.265 24.4224 31.4176 24.4198 31.3916 24.5593C31.3517 24.7526 31.3378 24.8652 31.1706 24.8609Z" fill="#963389"/>
<path d="M11.5469 25.4052C11.2488 25.2978 10.9845 25.4156 10.7279 25.5577C10.617 25.2111 10.416 25.322 10.208 25.4546C10.0745 26.1323 9.93325 26.8074 9.81539 27.4877C9.79286 27.6168 9.75559 27.8578 9.91678 27.8933C10.201 27.9566 10.2487 27.759 10.2868 27.5466C10.3492 27.1922 10.416 26.8386 10.4914 26.4876C10.6127 25.9226 10.8163 25.7891 11.3814 25.8966C11.5954 25.9365 11.7107 25.7649 11.774 25.6366C11.852 25.491 11.6561 25.4451 11.5469 25.4052Z" fill="#902782"/>
<path d="M9.12779 25.4986C8.85654 25.3019 8.48649 25.2326 8.2681 25.4726C8.2005 25.5472 8.16324 25.6226 8.06877 25.535C7.79665 25.2854 7.6112 25.4674 7.5488 25.7716C7.3593 26.7151 7.1747 27.6597 6.99502 28.6055C6.97769 28.6999 6.92743 28.8733 7.06262 28.9019C7.21948 28.9348 7.40927 28.9729 7.44827 28.6991C7.4942 28.3732 7.57826 28.0526 7.65279 27.699C8.37296 28.1323 8.9432 27.9278 9.19365 27.1591C9.28092 26.8707 9.3444 26.5756 9.38344 26.2769C9.42937 25.9813 9.38951 25.6858 9.12779 25.4986ZM8.89814 26.3653C8.84267 26.6374 8.82187 26.9598 8.64508 27.2319C8.50815 27.4451 8.3123 27.5638 8.05751 27.4823C7.80272 27.4009 7.77325 27.1738 7.80965 26.9485C7.85992 26.6374 7.88678 26.3141 8.06964 26.042C8.21263 25.8271 8.42322 25.7335 8.67021 25.8184C8.9172 25.9033 8.9146 26.1191 8.89814 26.3653Z" fill="#902782"/>
<path d="M33.2654 25.4868C32.9066 25.2779 32.3987 25.3438 32.066 25.6601C31.676 26.0327 31.5581 26.5206 31.546 27.0337C31.533 27.5935 31.9082 27.948 32.5149 27.941C32.7263 27.9107 32.9837 27.8786 33.2082 27.7226C33.2948 27.6611 33.443 27.6178 33.3269 27.4687C33.2402 27.3587 33.1622 27.2295 32.9854 27.3708C32.8964 27.4454 32.7902 27.4966 32.6764 27.5198C32.5626 27.5429 32.4448 27.5373 32.3337 27.5034C32.0876 27.4306 32.0166 27.2373 32.0235 26.9982C32.0313 26.713 32.2436 26.7893 32.4005 26.7858C32.7168 26.778 33.034 26.7763 33.3538 26.7858C33.5271 26.7858 33.6033 26.7304 33.6441 26.5536C33.7368 26.1055 33.6042 25.6861 33.2654 25.4868ZM32.5799 26.466C32.5799 26.466 32.1396 26.4964 32.1466 26.3386C32.0946 26.1151 32.4932 25.7788 32.7601 25.7771C33.027 25.7753 33.1813 25.9296 33.1934 26.2009C33.2056 26.4574 33.1839 26.466 32.5799 26.466Z" fill="#902883"/>
<path d="M24.6777 25.4418C24.4823 25.365 24.2683 25.3487 24.0635 25.3951C23.8588 25.4415 23.6727 25.5483 23.5294 25.7018C23.2382 26.0112 23.149 26.4012 23.0961 26.8068C23.0224 27.4065 23.1646 27.7263 23.5788 27.8753C23.8132 27.9574 24.069 27.9545 24.3015 27.8673C24.534 27.78 24.7285 27.6138 24.851 27.3978C25.026 27.0923 25.1236 26.7487 25.1353 26.3969C25.1639 25.9375 25.0746 25.61 24.6777 25.4418ZM24.6664 26.4003C24.6214 26.6525 24.5962 26.9732 24.4064 27.2392C24.2652 27.4377 24.0728 27.5651 23.8171 27.4827C23.5615 27.4004 23.5251 27.1872 23.5502 26.9628C23.5866 26.6352 23.6273 26.3041 23.8362 26.0311C23.9766 25.8483 24.1716 25.7469 24.403 25.8214C24.6508 25.8985 24.689 26.1126 24.6656 26.4003H24.6664Z" fill="#902882"/>
<path d="M13.456 25.4662C13.0868 25.2729 12.5807 25.3639 12.26 25.6915C11.9056 26.0546 11.8085 26.5165 11.7756 26.9325C11.7678 27.339 11.8622 27.6354 12.176 27.8069C12.5815 28.0271 12.988 27.9569 13.3754 27.7515C13.4828 27.6943 13.6787 27.6475 13.5296 27.4386C13.4239 27.2913 13.3286 27.274 13.1787 27.3884C13.0921 27.455 12.991 27.5003 12.8836 27.5205C12.7762 27.5407 12.6656 27.5352 12.5607 27.5045C12.3103 27.4352 12.2384 27.2332 12.2401 27.0001C12.2401 26.7245 12.455 26.7843 12.6179 26.7817C12.936 26.7774 13.254 26.7722 13.5712 26.7817C13.7723 26.7895 13.8382 26.7089 13.8668 26.5122C13.9378 26.0252 13.8035 25.6482 13.456 25.4662ZM12.8493 26.4914C12.8493 26.4914 12.3753 26.4732 12.3944 26.3016C12.4134 26.0174 12.6405 25.7816 12.9837 25.7773C13.2636 25.7721 13.4222 25.9212 13.4222 26.195C13.4222 26.5425 12.8493 26.4914 12.8493 26.4914Z" fill="#902782"/>
<path d="M7.32318 11.6622C7.25905 11.7194 6.59781 12.4421 6.54321 12.5071C4.41737 14.7834 2.62498 17.3496 1.21953 20.1291C1.02281 20.5208 0.850351 20.9238 0.666626 21.3224C0.8898 21.1482 1.08225 20.9379 1.236 20.7002C2.70233 18.6732 4.39138 16.8472 6.23296 15.159L6.39589 15.0602L6.40369 14.7881C6.42015 14.4622 6.55015 14.1373 6.42449 13.8097C6.43315 13.7967 6.44009 13.7828 6.45049 13.7689C6.4676 13.7616 6.48278 13.7504 6.4948 13.7362C6.50682 13.722 6.51536 13.7052 6.51974 13.6871C6.52412 13.669 6.52421 13.6501 6.52001 13.632C6.51581 13.6138 6.50743 13.5969 6.49555 13.5826C6.52502 13.3963 6.54668 13.2082 6.65241 13.0444C6.75814 12.8806 6.84567 12.7316 6.84913 12.5383H6.81534C6.785 12.4707 7.41157 11.7055 7.32318 11.6622Z" fill="#902682"/>
<path d="M23.1029 0.666656C23.1306 1.22823 23.1271 1.69187 23.1843 2.14859C23.2285 2.5039 23.1159 2.64343 22.7684 2.73789C19.7439 3.55357 16.8442 4.77629 14.1489 6.37252C12.2083 7.5093 10.3926 8.84692 8.73163 10.3633C8.63977 10.45 8.54819 10.5367 8.45691 10.6233C8.5973 10.6484 8.6935 10.5696 8.79143 10.4942L8.82176 10.5072C9.288 10.4613 9.68839 10.1891 10.152 10.1328C10.2605 10.1029 10.3618 10.0517 10.4501 9.98201C11.2258 9.72203 12.0057 9.73676 12.79 9.94042C12.8932 10.0089 12.9989 10.0721 13.1029 10.1397C13.1381 10.1589 13.1753 10.1743 13.2138 10.1857C13.3871 10.2151 13.5605 10.2195 13.7277 10.2628C13.786 10.271 13.8454 10.2581 13.895 10.2264C19.2681 7.80505 24.8942 6.97309 30.7404 7.47747C31.536 7.54593 32.3281 7.66899 33.1219 7.76692C33.1315 7.74525 33.1419 7.72359 33.1514 7.70279L23.1029 0.666656Z" fill="#902682"/>
<path d="M25.5184 23.3581C25.3633 22.4646 25.2411 21.5641 25.1067 20.6663C24.5902 17.1888 24.072 13.7105 23.552 10.2313C23.5191 10.0077 23.4316 9.9427 23.2201 9.94616C22.6577 9.95656 22.0935 9.9583 21.5319 9.94616C21.3231 9.94096 21.2243 10.0328 21.1333 10.2062C18.7119 14.6248 16.2868 19.0423 13.8579 23.4586C13.6846 23.7706 13.8224 23.7775 14.0763 23.7749C14.884 23.7662 15.6926 23.7593 16.5029 23.7749C16.7776 23.781 16.9163 23.6726 17.0333 23.4404C17.3799 22.7592 17.7482 22.0919 18.094 21.4116C18.198 21.2062 18.3228 21.1213 18.5611 21.1239C19.7007 21.1369 20.8403 21.1352 21.9808 21.1239C22.2226 21.1239 22.3431 21.1664 22.3587 21.4454C22.3838 21.8909 22.4687 22.332 22.5155 22.7766C22.6204 23.7662 22.6178 23.7662 23.6023 23.7662H24.0781C24.4386 23.7662 24.8017 23.7454 25.1596 23.7723C25.5011 23.8 25.5765 23.6926 25.5184 23.3581ZM21.7486 18.6046C21.0414 18.5942 20.3342 18.6046 19.5517 18.6046L21.5345 14.8712C21.6974 16.1096 21.8413 17.2189 21.9921 18.3273C22.0198 18.5275 21.9678 18.6081 21.7486 18.6046Z" fill="#EB7023"/>
<path d="M34.2984 9.99249C33.4101 9.8703 32.5106 9.97863 31.7791 9.95003C30.8076 9.95003 29.9991 9.96043 29.1914 9.94396C28.9409 9.93876 28.83 10.0107 28.7901 10.2603C28.7217 10.6875 28.6237 11.1087 28.5388 11.5334C27.7438 15.4748 26.9483 19.4165 26.1521 23.3585C26.0889 23.6687 26.1062 23.7918 26.4719 23.777C27.1929 23.7484 27.9148 23.7606 28.6385 23.7727C28.8855 23.777 28.9851 23.7016 29.0319 23.4451C29.3231 21.9459 29.649 20.4527 29.9332 18.9517C29.9913 18.6475 30.1135 18.592 30.3865 18.5964C31.1942 18.6094 32.0036 18.6197 32.813 18.5903C35.3453 18.4967 37.186 16.857 37.5569 14.3863C37.9036 12.0447 36.6383 10.3149 34.2984 9.99249ZM32.6059 15.98C32.0166 16.0077 31.4238 15.98 30.8328 15.9913C30.5849 15.9973 30.5398 15.9046 30.5866 15.6802C30.7834 14.7511 30.9792 13.8212 31.1534 12.887C31.195 12.6686 31.2756 12.5993 31.4888 12.6071C31.8485 12.621 32.2098 12.6114 32.5704 12.6114V12.6175C32.9309 12.6175 33.2923 12.6019 33.651 12.6175C34.3105 12.6522 34.6771 13.0274 34.7231 13.6852C34.8097 14.9349 33.9162 15.9141 32.6059 15.98Z" fill="#EB7023"/>
<path d="M6.41425 13.5697C6.1846 14.6963 6.43679 15.7952 7.03822 16.5162L7.05296 16.5344L7.07202 16.5578C7.17565 16.6864 7.28923 16.8067 7.41174 16.9175C8.02964 17.473 8.76714 17.7841 9.5601 17.9825C10.1043 18.1203 10.6581 18.2321 11.1911 18.4037C11.7717 18.5918 11.9711 18.915 11.9329 19.5182C11.8887 20.2384 11.4407 20.6639 10.8297 20.9438C10.1561 21.2534 9.39807 21.3278 8.67717 21.1549C7.95627 20.9821 7.31437 20.572 6.8545 19.9905C6.65777 19.7426 6.54685 19.6993 6.29899 19.9342C5.77468 20.4299 5.22178 20.8953 4.6654 21.3554C4.49208 21.501 4.48601 21.5747 4.63161 21.7567C5.62996 23.0124 6.90736 23.7135 8.51755 23.8305C10.1581 23.9492 11.731 23.7638 13.0907 22.7602C14.5527 21.6822 15.0103 20.182 14.7174 18.4349C14.4487 16.8308 13.3074 16.108 11.8731 15.705C11.7761 15.6773 11.6764 15.6582 11.5793 15.6322C11.023 15.4823 10.4527 15.3662 9.91369 15.1721C9.29318 14.9493 9.11553 14.5273 9.29838 13.8964C9.48124 13.2655 9.90502 12.8564 10.4995 12.6233C11.0373 12.406 11.6305 12.3669 12.1921 12.5118C12.7537 12.6568 13.254 12.978 13.6194 13.4284C13.8213 13.6719 13.9348 13.6615 14.1515 13.4605C14.6368 13.0081 15.1351 12.567 15.6516 12.1519C15.8969 11.9543 15.8613 11.8408 15.6811 11.6172C15.1923 11.0265 14.5803 10.5497 13.888 10.2202C13.888 10.2202 10.9103 8.9315 8.44909 10.6171C7.81612 11.042 7.2878 11.605 6.9039 12.2637C6.9039 12.2637 6.48705 13.0549 6.41425 13.5697Z" fill="#EB7023"/>
</svg>
