<svg width="27" height="28" viewBox="0 0 27 28" fill="none" xmlns="http://www.w3.org/2000/svg">
<path fill-rule="evenodd" clip-rule="evenodd" d="M9.70772 27.3334C14.6478 27.3334 18.6745 26.9555 18.6745 26.4946C18.6745 26.0337 14.6478 25.6465 9.70772 25.6465C4.76762 25.6465 0.740967 26.0245 0.740967 26.4854C0.740967 26.9463 4.76762 27.3334 9.70772 27.3334Z" fill="#CAC9C9"/>
<path fill-rule="evenodd" clip-rule="evenodd" d="M9.21419 0.740411L26.197 7.8659C26.6816 8.06869 26.9147 8.63099 26.7096 9.11954L19.4952 25.9147C19.2901 26.394 18.7215 26.6245 18.2275 26.4217L1.2541 19.287C0.769411 19.0842 0.536387 18.5219 0.741448 18.0333L7.94654 1.2474C8.16092 0.768064 8.7295 0.537615 9.21419 0.740411Z" fill="#921D26"/>
<path fill-rule="evenodd" clip-rule="evenodd" d="M25.7687 8.76999C25.806 8.86217 25.806 8.96357 25.7687 9.05575L18.7966 25.2978C18.7128 25.4822 18.4984 25.5743 18.3026 25.4914L1.87913 18.5963C1.78592 18.5595 1.71136 18.4857 1.67407 18.3935L25.7687 8.76999Z" fill="#70161E"/>
<path fill-rule="evenodd" clip-rule="evenodd" d="M9.23299 2.22472L25.1159 8.88931C25.2091 8.92618 25.2557 9.0368 25.2184 9.13819L18.47 24.8364C18.4328 24.9286 18.3209 24.9747 18.2184 24.9378L2.33549 18.2732C2.24228 18.2363 2.19568 18.1257 2.23296 18.0243L8.98133 2.3169C9.01861 2.22472 9.13046 2.17863 9.23299 2.22472Z" fill="#D5232B"/>
<path fill-rule="evenodd" clip-rule="evenodd" d="M25.2112 8.99005C25.2299 9.03614 25.2299 9.08223 25.2112 9.13754L18.4722 24.8357C18.4349 24.9279 18.3231 24.974 18.2205 24.9371L2.33764 18.2725C2.29103 18.2541 2.25375 18.2172 2.23511 18.1711L25.2112 8.99005Z" fill="#A11F24"/>
<path fill-rule="evenodd" clip-rule="evenodd" d="M22.2926 9.46237L12.4404 14.3755L11.4617 10.0154L22.2926 9.46237Z" fill="white"/>
<path fill-rule="evenodd" clip-rule="evenodd" d="M5.3988 17.8845L15.251 12.9714L16.2297 17.3223L5.3988 17.8845Z" fill="#E6E6E6"/>
<path fill-rule="evenodd" clip-rule="evenodd" d="M12.4371 14.3725L15.2521 12.9714L15.4571 13.8932L12.4371 14.3725Z" fill="#B3B3B3"/>
</svg>
