<svg width="24" height="24" viewBox="0 0 24 24" fill="none" xmlns="http://www.w3.org/2000/svg">
<path d="M0 12C0 18.6274 5.37258 24 12 24C18.6274 24 24 18.6274 24 12C24 5.37258 18.6274 0 12 0C5.37258 0 0 5.37258 0 12Z" fill="#E8F6FE"/>
<path d="M13.106 18.4615L10.6468 15.9994L15.9295 10.6628L18.434 13.1668L13.106 18.4615Z" fill="#8AB4F8"/>
<path d="M13.1238 7.85771L10.6199 5.35316L5.31024 10.6628C4.61858 11.3539 4.61801 12.4739 5.3091 13.1656C5.30967 13.1662 5.31024 13.1668 5.31024 13.1668L10.6199 18.4764L13.0762 16.0085L9.06391 11.9182L13.1238 7.85771Z" fill="#4285F4"/>
<path d="M18.4334 10.6628L13.1238 5.35316C12.4322 4.6615 11.3109 4.6615 10.6193 5.35316C9.92761 6.04482 9.92761 7.16605 10.6193 7.85713L15.9318 13.1668C16.6234 13.8584 17.7446 13.8584 18.4357 13.1668C19.1274 12.4751 19.1274 11.3539 18.4357 10.6628H18.4334Z" fill="#8AB4F8"/>
<path d="M11.8523 19C12.8216 19 13.6073 18.2143 13.6073 17.245C13.6073 16.2758 12.8216 15.4901 11.8523 15.4901C10.8831 15.4901 10.0974 16.2758 10.0974 17.245C10.0974 18.2143 10.8831 19 11.8523 19Z" fill="#246FDB"/>
</svg>
