<svg width="20" height="20" viewBox="0 0 20 20" fill="none" xmlns="http://www.w3.org/2000/svg">
<path d="M10.4619 12.0734C10.1866 12.3488 9.83683 12.5378 9.45561 12.6172L7.73374 12.9759C7.31056 13.0641 6.93582 12.6893 7.02398 12.2661L7.38271 10.5443C7.46213 10.1631 7.6511 9.81332 7.92645 9.53797L14.7573 2.70711C15.1478 2.31658 15.781 2.31658 16.1715 2.70711L17.2928 3.82836C17.6833 4.21888 17.6833 4.85205 17.2928 5.24257L10.4619 12.0734Z" stroke="#6C7E95" stroke-width="1.3" stroke-miterlimit="10" stroke-linecap="round" stroke-linejoin="round"/>
<path d="M16.6065 10.4411V15.9998C16.6065 17.1044 15.711 17.9998 14.6065 17.9998H3.99988C2.89531 17.9998 1.99988 17.1044 1.99988 15.9998V5.39319C1.99988 4.28862 2.89531 3.39319 3.99988 3.39319H9.55854" stroke="#6C7E95" stroke-width="1.3" stroke-miterlimit="10" stroke-linecap="round" stroke-linejoin="round"/>
</svg>
