<svg width="24" height="24" viewBox="0 0 24 24" fill="none" xmlns="http://www.w3.org/2000/svg">
<path d="M0 12C0 18.6274 5.37258 24 12 24C18.6274 24 24 18.6274 24 12C24 5.37258 18.6274 0 12 0C5.37258 0 0 5.37258 0 12Z" fill="black"/>
<path d="M15.6607 8.78109C15.5848 8.74185 15.5108 8.69883 15.4392 8.65219C15.2309 8.51448 15.0399 8.35222 14.8704 8.16891C14.4462 7.68352 14.2877 7.19109 14.2294 6.84633H14.2317C14.183 6.56016 14.2031 6.375 14.2062 6.375H12.274V13.8464C12.274 13.9467 12.274 14.0459 12.2698 14.1438C12.2698 14.156 12.2686 14.1673 12.2679 14.1804C12.2679 14.1858 12.2679 14.1914 12.2667 14.197C12.2667 14.1984 12.2667 14.1998 12.2667 14.2013C12.2463 14.4693 12.1604 14.7283 12.0165 14.9553C11.8725 15.1824 11.675 15.3706 11.4412 15.5034C11.1976 15.642 10.9221 15.7147 10.6418 15.7144C9.74155 15.7144 9.01194 14.9803 9.01194 14.0738C9.01194 13.1672 9.74155 12.4331 10.6418 12.4331C10.8122 12.433 10.9816 12.4598 11.1436 12.5126L11.1459 10.5452C10.6541 10.4817 10.1544 10.5208 9.67836 10.66C9.20235 10.7993 8.76037 11.0357 8.3803 11.3543C8.04727 11.6437 7.76729 11.9889 7.55296 12.3745C7.47139 12.5152 7.16366 13.0802 7.12639 13.9973C7.10296 14.5179 7.25928 15.0572 7.33382 15.2801V15.2848C7.38069 15.416 7.56233 15.8639 7.85835 16.2415C8.09704 16.5444 8.37905 16.8104 8.6953 17.0311V17.0264L8.69999 17.0311C9.63538 17.6667 10.6725 17.625 10.6725 17.625C10.852 17.6177 11.4534 17.625 12.1364 17.3013C12.8939 16.9425 13.3251 16.4079 13.3251 16.4079C13.6006 16.0885 13.8197 15.7244 13.973 15.3314C14.1478 14.8718 14.2062 14.3205 14.2062 14.1002V10.1365C14.2296 10.1505 14.5418 10.357 14.5418 10.357C14.5418 10.357 14.9915 10.6453 15.6933 10.833C16.1967 10.9666 16.875 10.9948 16.875 10.9948V9.07664C16.6373 9.10242 16.1548 9.02742 15.6607 8.78109Z" fill="white"/>
</svg>
