<svg width="16" height="16" viewBox="0 0 16 16" fill="none" xmlns="http://www.w3.org/2000/svg">
<path d="M2 3.14672C2 2.88697 2.18334 2.66333 2.43804 2.61239L7.80388 1.53922C7.93335 1.51333 8.06665 1.51333 8.19612 1.53922L13.562 2.61239C13.8167 2.66333 14 2.88697 14 3.14672V7.5C14 10.8137 11.3137 13.5 8 13.5C4.68629 13.5 2 10.8137 2 7.5V3.14672Z" fill="#F6D14B"/>
<path d="M8.41797 9.66004V6.19444H9.08517V6.50644C9.24357 6.24724 9.53637 6.13684 9.86277 6.13684C10.4916 6.13684 10.9764 6.64564 10.9764 7.44244C10.9764 8.24404 10.506 8.75764 9.86277 8.75764C9.56997 8.75764 9.29637 8.65204 9.12837 8.42644V9.66004H8.41797ZM9.08517 7.44724C9.08517 7.91284 9.32517 8.16244 9.66597 8.16244C10.0068 8.16244 10.2468 7.91284 10.2468 7.44724C10.2468 6.98164 10.0068 6.72724 9.66597 6.72724C9.32517 6.72724 9.08517 6.98164 9.08517 7.44724Z" fill="white"/>
<path d="M5.16406 8.70016V5.31616H6.61846C7.39126 5.31616 7.82806 5.68576 7.82806 6.28576C7.82806 6.81856 7.47766 7.16896 6.84886 7.24096L8.06326 8.70016H7.14646L5.91286 7.13056V8.70016H5.16406ZM5.91286 6.65056H6.58966C6.90646 6.65056 7.09366 6.53056 7.09366 6.28576C7.09366 6.03616 6.90646 5.91136 6.58966 5.91136H5.91286V6.65056Z" fill="white"/>
</svg>
