<svg width="16" height="16" viewBox="0 0 16 16" fill="none" xmlns="http://www.w3.org/2000/svg">
<rect x="2" y="1.49921" width="12.0016" height="12.0016" rx="1.2" fill="#F6D14B"/>
<path d="M6 5.49973V1.49921H10.0005V5.49973L8.00026 4.4996L6 5.49973Z" fill="white"/>
<path d="M10.5156 9.37364V6.99994H12.0595V7.3604H10.9456V8.00482H11.9795V8.36528H10.9456V9.01318H12.0687V9.37364H10.5156Z" fill="white"/>
<path d="M8.53516 9.37364V6.99994H10.079V7.3604H8.96516V8.00482H9.99902V8.36528H8.96516V9.01318H10.0883V9.37364H8.53516Z" fill="white"/>
<path d="M6.41406 9.37364V6.99994H7.3042C7.48656 6.99994 7.63955 7.03162 7.76318 7.09498C7.88758 7.15834 7.98146 7.2472 8.04482 7.36156C8.10896 7.47514 8.14102 7.60766 8.14102 7.75911C8.14102 7.91133 8.10857 8.04346 8.04366 8.1555C7.97953 8.26676 7.88488 8.35292 7.7597 8.41396C7.63453 8.47423 7.48076 8.50437 7.29841 8.50437H6.66441V8.14738H7.24045C7.34708 8.14738 7.4344 8.1327 7.5024 8.10334C7.57039 8.0732 7.62062 8.02955 7.65307 7.97237C7.6863 7.91442 7.70291 7.84333 7.70291 7.75911C7.70291 7.67488 7.6863 7.60302 7.65307 7.54353C7.61984 7.48326 7.56923 7.43767 7.50124 7.40676C7.43324 7.37508 7.34554 7.35924 7.23814 7.35924H6.84406V9.37364H6.41406ZM7.64032 8.29806L8.22795 9.37364H7.74811L7.17091 8.29806H7.64032Z" fill="white"/>
<path d="M4.5 9.37364V6.99994H6.02065V7.3604H4.93V8.00482H5.91634V8.36528H4.93V9.37364H4.5Z" fill="white"/>
</svg>
