<svg width="16" height="16" viewBox="0 0 16 16" fill="none" xmlns="http://www.w3.org/2000/svg">
<path d="M1.00167 12.3708L4.18359 7.09711L7.85777 9.12694L4.67584 14.4006L3.63424 12.0673L1.00167 12.3708Z" fill="#F0C734"/>
<path d="M14.9983 12.4702L11.8164 7.19653L8.14223 9.22636L11.3242 14.5L12.3658 12.1667L14.9983 12.4702Z" fill="#F0C734"/>
<path d="M7.62482 0.758135C7.77885 0.613122 8.01917 0.613122 8.1732 0.758135L9.65757 2.1556C9.73099 2.22472 9.82781 2.26357 9.92865 2.26435L12.0054 2.28051C12.2238 2.28221 12.4004 2.45873 12.4023 2.6771L12.4189 4.6305C12.4198 4.73734 12.4634 4.83937 12.54 4.91385L13.968 6.30274C14.1295 6.4598 14.1295 6.71918 13.968 6.87624L12.54 8.26512C12.4634 8.33961 12.4198 8.44164 12.4189 8.54847L12.4023 10.5019C12.4004 10.7202 12.2238 10.8968 12.0054 10.8985L9.92865 10.9146C9.82781 10.9154 9.73099 10.9543 9.65757 11.0234L8.1732 12.4208C8.01917 12.5659 7.77885 12.5659 7.62482 12.4208L6.14045 11.0234C6.06702 10.9543 5.97021 10.9154 5.86937 10.9146L3.79262 10.8985C3.57425 10.8968 3.3976 10.7202 3.39574 10.5019L3.37914 8.54847C3.37824 8.44164 3.33463 8.33961 3.25804 8.26512L1.82999 6.87623C1.6685 6.71917 1.6685 6.4598 1.82999 6.30274L3.25804 4.91385C3.33463 4.83937 3.37824 4.73734 3.37914 4.6305L3.39574 2.6771C3.3976 2.45873 3.57425 2.28221 3.79262 2.28051L5.86937 2.26435C5.97021 2.26357 6.06702 2.22472 6.14045 2.1556L7.62482 0.758135Z" fill="#F6D14B"/>
<path d="M8.14077 7.80405V7.57051C8.14077 7.39319 8.17994 7.23028 8.25828 7.08179C8.33813 6.93186 8.45339 6.81221 8.60405 6.72282C8.75621 6.632 8.94153 6.58659 9.15998 6.58659C9.38145 6.58659 9.56751 6.63128 9.71817 6.72066C9.87034 6.81004 9.98484 6.9297 10.0617 7.07963C10.14 7.22812 10.1792 7.39174 10.1792 7.57051V7.80405C10.1792 7.98138 10.14 8.145 10.0617 8.29493C9.98333 8.44342 9.86808 8.56236 9.71591 8.65174C9.56375 8.74256 9.37844 8.78797 9.15998 8.78797C8.93851 8.78797 8.75245 8.74256 8.60179 8.65174C8.45113 8.56236 8.33663 8.44342 8.25828 8.29493C8.17994 8.145 8.14077 7.98138 8.14077 7.80405ZM8.7984 7.57051V7.80405C8.7984 7.90641 8.82401 8.003 8.87523 8.09382C8.92797 8.18465 9.02288 8.23006 9.15998 8.23006C9.29708 8.23006 9.39049 8.18537 9.44021 8.09599C9.49143 8.0066 9.51704 7.90929 9.51704 7.80405V7.57051C9.51704 7.46527 9.49294 7.36724 9.44473 7.27641C9.39652 7.18559 9.3016 7.14018 9.15998 7.14018C9.02439 7.14018 8.93023 7.18559 8.87749 7.27641C8.82476 7.36724 8.7984 7.46527 8.7984 7.57051ZM5.76562 5.26965V5.0361C5.76562 4.85734 5.80555 4.69372 5.8854 4.54523C5.96525 4.3953 6.0805 4.27564 6.23116 4.18626C6.38333 4.09688 6.56713 4.05219 6.78258 4.05219C7.00555 4.05219 7.19237 4.09688 7.34303 4.18626C7.49369 4.27564 7.60819 4.3953 7.68653 4.54523C7.76488 4.69372 7.80405 4.85734 7.80405 5.0361V5.26965C7.80405 5.44841 7.76412 5.61204 7.68427 5.76053C7.60593 5.90902 7.49068 6.02795 7.33851 6.11734C7.18785 6.20528 7.00254 6.24925 6.78258 6.24925C6.56261 6.24925 6.37655 6.20455 6.22438 6.11517C6.07372 6.02435 5.95922 5.90541 5.88088 5.75837C5.80404 5.60988 5.76562 5.44697 5.76562 5.26965ZM6.42777 5.0361V5.26965C6.42777 5.37489 6.45339 5.4722 6.50461 5.56158C6.55734 5.65096 6.65 5.69566 6.78258 5.69566C6.92118 5.69566 7.01534 5.65096 7.06506 5.56158C7.11629 5.4722 7.1419 5.37489 7.1419 5.26965V5.0361C7.1419 4.93086 7.11779 4.83283 7.06958 4.74201C7.02137 4.65119 6.9257 4.60577 6.78258 4.60577C6.64849 4.60577 6.55583 4.65191 6.50461 4.74417C6.45339 4.83644 6.42777 4.93375 6.42777 5.0361ZM6.06393 8.63444L9.24586 4.20572H9.83795L6.65602 8.63444H6.06393Z" fill="white"/>
</svg>
