<svg width="16" height="16" viewBox="0 0 16 16" fill="none" xmlns="http://www.w3.org/2000/svg">
<path fill-rule="evenodd" clip-rule="evenodd" d="M11.4912 12.5C12.4022 12.5 13.177 11.8518 13.3155 10.9737L13.9781 6.7737C14.1502 5.68334 13.2851 4.7 12.1538 4.7H9.99844C9.65864 4.7 9.38317 4.43137 9.38317 4.1V1.9795C9.38317 1.1624 8.70393 0.5 7.86603 0.5C7.66618 0.5 7.48507 0.614777 7.4039 0.792874L5.23871 5.54368C5.13996 5.76036 4.91962 5.9 4.67648 5.9H4.5V12.5H11.4912ZM3.5 12.5V5.9H3.23053C2.55093 5.9 2 6.43726 2 7.1V11.3C2 11.9627 2.55093 12.5 3.23053 12.5H3.5Z" fill="#F6D14B"/>
<path fill-rule="evenodd" clip-rule="evenodd" d="M11.6593 6.85353L8.61347 9.89939L6.64453 7.93045L7.35164 7.22335L8.61347 8.48518L10.9522 6.14642L11.6593 6.85353Z" fill="white"/>
</svg>
