<svg width="16" height="16" viewBox="0 0 16 16" fill="none" xmlns="http://www.w3.org/2000/svg">
<path d="M1.00089 12.3237L4.18359 6.93317L7.85867 9.00797L4.67596 14.3985L3.6341 12.0134L1.00089 12.3237Z" fill="#F0C734"/>
<path d="M14.9991 12.4252L11.8164 7.03473L8.14133 9.10953L11.324 14.5L12.3659 12.115L14.9991 12.4252Z" fill="#F0C734"/>
<ellipse cx="8.00009" cy="6.36717" rx="6.00009" ry="5.86717" fill="#F6D14B"/>
<path d="M8.00004 3.5885L8.94522 5.24999L10.8533 5.61556L9.52937 7.00798L9.76343 8.8954L8.00004 8.09449L6.23666 8.8954L6.47072 7.00798L5.14683 5.61556L7.05487 5.24999L8.00004 3.5885Z" fill="white"/>
<path fill-rule="evenodd" clip-rule="evenodd" d="M8.00007 10.2785C10.2092 10.2785 12.0001 8.52728 12.0001 6.36705C12.0001 4.20682 10.2092 2.45561 8.00007 2.45561C5.79089 2.45561 4.00001 4.20682 4.00001 6.36705C4.00001 8.52728 5.79089 10.2785 8.00007 10.2785ZM8.00007 10.7674C10.4854 10.7674 12.5001 8.79731 12.5001 6.36705C12.5001 3.93679 10.4854 1.96667 8.00007 1.96667C5.51475 1.96667 3.5 3.93679 3.5 6.36705C3.5 8.79731 5.51475 10.7674 8.00007 10.7674Z" fill="white"/>
</svg>
