<svg width="13" height="12" viewBox="0 0 13 12" fill="none" xmlns="http://www.w3.org/2000/svg">
<g id="Group 38639">
<path id="Rectangle 6608" d="M0.5 1.64672C0.5 1.38697 0.68334 1.16333 0.938044 1.11239L6.30388 0.0392232C6.43335 0.0133308 6.56665 0.0133308 6.69612 0.0392232L12.062 1.11239C12.3167 1.16333 12.5 1.38697 12.5 1.64672V6C12.5 9.31371 9.81371 12 6.5 12C3.18629 12 0.5 9.31371 0.5 6V1.64672Z" fill="#F6D14B"/>
<g id="Rp">
<path id="Vector" d="M6.91602 8.16004V4.69444H7.58322V5.00644C7.74162 4.74724 8.03442 4.63684 8.36082 4.63684C8.98962 4.63684 9.47442 5.14564 9.47442 5.94244C9.47442 6.74404 9.00402 7.25764 8.36082 7.25764C8.06802 7.25764 7.79442 7.15204 7.62642 6.92644V8.16004H6.91602ZM7.58322 5.94724C7.58322 6.41284 7.82322 6.66244 8.16402 6.66244C8.50482 6.66244 8.74482 6.41284 8.74482 5.94724C8.74482 5.48164 8.50482 5.22724 8.16402 5.22724C7.82322 5.22724 7.58322 5.48164 7.58322 5.94724Z" fill="white"/>
<path id="Vector_2" d="M3.66211 7.20016V3.81616H5.11651C5.88931 3.81616 6.32611 4.18576 6.32611 4.78576C6.32611 5.31856 5.97571 5.66896 5.34691 5.74096L6.56131 7.20016H5.64451L4.41091 5.63056V7.20016H3.66211ZM4.41091 5.15056H5.08771C5.40451 5.15056 5.59171 5.03056 5.59171 4.78576C5.59171 4.53616 5.40451 4.41136 5.08771 4.41136H4.41091V5.15056Z" fill="white"/>
</g>
</g>
</svg>
