<svg width="13" height="12" viewBox="0 0 13 12" fill="none" xmlns="http://www.w3.org/2000/svg">
<g id="Group 38642">
<path id="Subtract" fill-rule="evenodd" clip-rule="evenodd" d="M9.99122 12C10.9022 12 11.677 11.3518 11.8155 10.4737L12.4781 6.2737C12.6502 5.18334 11.7851 4.2 10.6538 4.2H8.49844C8.15864 4.2 7.88317 3.93137 7.88317 3.6V1.4795C7.88317 0.662396 7.20393 0 6.36603 0C6.16618 0 5.98507 0.114777 5.9039 0.292874L3.73871 5.04368C3.63996 5.26036 3.41962 5.4 3.17648 5.4H3V12H9.99122ZM2 12V5.4H1.73053C1.05093 5.4 0.5 5.93726 0.5 6.6V10.8C0.5 11.4627 1.05093 12 1.73053 12H2Z" fill="#F6D14B"/>
<path id="Vector 4994" d="M5.5 7.07692L7.11538 8.69231L9.80769 6" stroke="white"/>
</g>
</svg>
