<svg width="42" height="30" viewBox="0 0 42 30" fill="none" xmlns="http://www.w3.org/2000/svg">
<rect width="42" height="30" rx="4" fill="#0060AF"/>
<path fill-rule="evenodd" clip-rule="evenodd" d="M8.63822 17.8747C8.63822 17.4721 8.64286 16.3959 8.63233 16.2633C8.64151 14.6619 7.40635 13.5322 6.62603 13.6203C6.08607 13.6645 5.63345 13.872 5.39057 14.4691C5.16528 15.0255 5.36671 15.7657 6.11544 15.9393C6.91595 16.1258 7.38355 16.281 7.72187 16.5C8.13643 16.768 8.47485 17.2801 8.48384 17.8753" fill="white"/>
<path fill-rule="evenodd" clip-rule="evenodd" d="M8.30356 17.8754C8.30617 17.3593 8.00059 16.9029 7.6012 16.6577C7.24694 16.4409 6.77132 16.2986 6.00405 16.1151C5.76687 16.0579 5.51877 15.9308 5.44197 15.7689C5.2388 15.9619 5.20189 16.3958 5.23764 16.6494C5.27918 16.9427 5.64292 17.4263 6.1906 17.4453C6.52506 17.4579 6.94793 17.3774 7.15071 17.3368C7.50054 17.2656 8.05402 17.4721 8.14213 17.8748" fill="white"/>
<path fill-rule="evenodd" clip-rule="evenodd" d="M8.92109 11.1245C7.99238 11.1245 7.19032 11.7018 7.19312 12.7008C7.19602 13.5408 7.91268 13.9905 8.1685 14.3117C8.55494 14.7958 8.7641 15.3687 8.78574 16.2454C8.80274 16.9431 8.80187 17.632 8.80564 17.8762H9.01055C9.00707 17.6207 8.9978 16.8893 9.00833 16.2238C9.02224 15.3469 9.23894 14.7958 9.62557 14.3117C9.88362 13.9905 10.5996 13.5408 10.6011 12.7008C10.6047 11.7018 9.80295 11.1245 8.8752 11.1245" fill="white"/>
<path fill-rule="evenodd" clip-rule="evenodd" d="M9.15689 17.8747C9.15689 17.4721 9.15206 16.3959 9.1624 16.2633C9.15331 14.6619 10.3877 13.5322 11.1687 13.6203C11.7087 13.6645 12.1607 13.872 12.4043 14.4691C12.6293 15.0255 12.4269 15.7657 11.6791 15.9393C10.878 16.1258 10.4111 16.281 10.0719 16.5C9.65781 16.768 9.34306 17.2801 9.3334 17.8753" fill="white"/>
<path fill-rule="evenodd" clip-rule="evenodd" d="M9.49123 17.8754C9.48833 17.3593 9.79381 16.9029 10.192 16.6577C10.5479 16.4409 11.024 16.2986 11.7906 16.1151C12.0282 16.0579 12.276 15.9308 12.3515 15.7689C12.5556 15.9619 12.5925 16.3958 12.5567 16.6494C12.5144 16.9427 12.1515 17.4263 11.6048 17.4453C11.2705 17.4579 10.8453 17.3774 10.6434 17.3368C10.2949 17.2656 9.73991 17.4721 9.65141 17.8748" fill="white"/>
<path fill-rule="evenodd" clip-rule="evenodd" d="M9.77767 19.5415L9.65894 18.7241L9.94577 18.6831C10.0155 18.6742 10.1005 18.6857 10.1345 18.7269C10.1721 18.7699 10.1836 18.8055 10.1909 18.862C10.2018 18.9319 10.1803 19.0126 10.0969 19.0529V19.0553C10.19 19.0553 10.2463 19.1185 10.2627 19.225C10.2651 19.2476 10.2722 19.3019 10.2651 19.3472C10.2461 19.4551 10.1779 19.4899 10.0626 19.5051L9.77767 19.5415ZM9.96229 19.3952C9.9963 19.3906 10.0308 19.3888 10.0577 19.3726C10.0991 19.3472 10.0953 19.293 10.0895 19.2525C10.0752 19.1639 10.0507 19.1301 9.95089 19.144L9.88809 19.1532L9.9279 19.3997L9.96229 19.3952ZM9.9023 19.0175C9.94026 19.0117 9.99166 19.0074 10.0131 18.9734C10.0244 18.9507 10.0387 18.9327 10.0292 18.8822C10.0176 18.8225 9.99659 18.7853 9.91592 18.7997L9.84085 18.8111L9.87051 19.0206L9.9023 19.0175Z" fill="white"/>
<path fill-rule="evenodd" clip-rule="evenodd" d="M11.0203 19.05C11.0225 19.0652 11.0251 19.0822 11.0261 19.0974C11.0493 19.2464 11.0203 19.3699 10.8425 19.4038C10.5796 19.4515 10.5293 19.2976 10.4831 19.0822L10.4585 18.9655C10.4223 18.7594 10.4067 18.6033 10.6629 18.5551C10.8073 18.5304 10.9028 18.5846 10.9425 18.7201C10.9487 18.7403 10.9564 18.7602 10.9593 18.7806L10.8021 18.8112C10.784 18.7602 10.7599 18.6692 10.6892 18.6769C10.5622 18.6914 10.6042 18.8402 10.6172 18.9025L10.6645 19.1262C10.6787 19.1939 10.7069 19.302 10.8167 19.2812C10.9059 19.2643 10.867 19.1333 10.859 19.0796" fill="white"/>
<path fill-rule="evenodd" clip-rule="evenodd" d="M11.2723 19.2972L11.218 18.4514L11.4291 18.3906L11.8719 19.1263L11.7056 19.1732L11.6007 18.9862L11.4161 19.0385L11.4399 19.2511L11.2723 19.2972ZM11.4006 18.9019L11.534 18.8655L11.3568 18.5232L11.4006 18.9019Z" fill="white"/>
<path fill-rule="evenodd" clip-rule="evenodd" d="M6.05633 18.6577C6.12241 18.4583 6.18154 18.3114 6.43379 18.3766C6.56875 18.4122 6.65242 18.4683 6.64846 18.6161C6.64778 18.6489 6.63628 18.6825 6.62875 18.715L6.47176 18.6742C6.49233 18.5925 6.50538 18.5277 6.39872 18.4968C6.27544 18.4649 6.2454 18.6059 6.2284 18.6667L6.16454 18.8884C6.14425 18.9542 6.1199 19.063 6.2284 19.0912C6.31805 19.1139 6.37234 19.031 6.40481 18.9099L6.29506 18.8824L6.33302 18.7541L6.59126 18.8324L6.46866 19.2598L6.34983 19.2293L6.3766 19.139H6.37321C6.31844 19.2129 6.25177 19.2207 6.19333 19.21C5.93509 19.1443 5.96204 18.9852 6.02368 18.7726" fill="white"/>
<path fill-rule="evenodd" clip-rule="evenodd" d="M7.01748 19.0187L6.93971 19.3664L6.76465 19.3308L6.9512 18.5189L7.24963 18.5824C7.4243 18.618 7.47705 18.6912 7.45232 18.8422C7.43821 18.9288 7.3929 19.0221 7.28229 19.0145L7.28113 19.0132C7.37465 19.0439 7.38257 19.0885 7.36624 19.1653C7.35919 19.198 7.31059 19.3964 7.34412 19.4285L7.34528 19.4529L7.16413 19.4082C7.1566 19.3533 7.18229 19.2544 7.19244 19.1996C7.20258 19.1511 7.21891 19.0828 7.16674 19.0572C7.12597 19.0367 7.11071 19.0377 7.06453 19.0277L7.01748 19.0187ZM7.04733 18.893L7.16519 18.9229C7.23678 18.9327 7.27659 18.8978 7.29069 18.8162C7.30344 18.7414 7.28692 18.7123 7.22268 18.6978L7.09631 18.6736L7.04733 18.893Z" fill="white"/>
<path fill-rule="evenodd" clip-rule="evenodd" d="M8.14022 18.7002L8.31335 18.7192L8.23877 19.29C8.20254 19.471 8.12834 19.55 7.91715 19.5253C7.70229 19.4997 7.65128 19.4075 7.66423 19.2251L7.73939 18.6548L7.91387 18.6735L7.83899 19.2311C7.83098 19.2916 7.81619 19.3814 7.93039 19.3923C8.03173 19.3996 8.05472 19.3362 8.06622 19.2575" fill="white"/>
<path fill-rule="evenodd" clip-rule="evenodd" d="M8.50415 19.5565L8.55632 18.7404L8.88885 18.7539C9.04613 18.7613 9.08719 18.8822 9.08236 18.9977C9.07772 19.0679 9.05454 19.1464 8.98962 19.1889C8.93638 19.225 8.86789 19.2336 8.80451 19.2307L8.69611 19.225L8.67447 19.5671L8.50415 19.5565ZM8.70095 19.1005L8.78905 19.1052C8.86064 19.1076 8.90808 19.081 8.91426 18.9819C8.91784 18.8868 8.87958 18.8706 8.78683 18.8668L8.71708 18.8645L8.70095 19.1005Z" fill="white"/>
<path fill-rule="evenodd" clip-rule="evenodd" d="M31.9643 11.9133L30.6423 14.1753C30.1433 13.7933 29.5341 13.5122 28.7567 13.5122C26.9169 13.5122 26.1696 14.8049 26.1696 15.7155C26.1696 16.3916 26.6391 17.3888 28.2761 17.3888C28.9632 17.3888 29.94 16.9383 30.2211 16.7332L28.9137 19.3575C28.2905 19.4747 28.0856 19.5474 27.5582 19.5628C24.6282 19.6452 23.4443 17.9484 23.4451 16.2148C23.4471 13.9228 25.6087 11.1355 29.1922 11.1355C29.4117 11.1355 29.6803 11.2071 29.9099 11.2865L30.1421 11.0066" fill="white"/>
<path fill-rule="evenodd" clip-rule="evenodd" d="M37.419 11.0776L37.7934 19.2987H35.0074L35.0058 17.8889H33.106L32.4808 19.2987H29.4592L32.6182 13.4282L31.9059 13.4238L33.2592 11.0776H37.419ZM34.9876 13.5927L33.9136 15.9839H35.0201L34.9876 13.5927Z" fill="white"/>
<path fill-rule="evenodd" clip-rule="evenodd" d="M21.6861 11.0777C23.0658 11.085 23.8454 11.791 23.8454 12.8107C23.8454 13.7509 23.0232 14.583 22.1206 15.0134C23.0499 15.3355 23.1302 16.126 23.1302 16.6852C23.1302 18.0364 21.6921 19.2988 19.8226 19.2988H15.7454L17.3358 13.51L16.6825 13.5065L18.0179 11.0777C18.0179 11.0777 20.5642 11.0704 21.6861 11.0777ZM20.3325 14.4109C20.6179 14.4109 21.1218 14.3428 21.2478 13.8221C21.3858 13.2569 20.9129 13.2416 20.6861 13.2416L19.8755 13.2384L19.5929 14.4109H20.3325ZM19.1865 15.8637L18.8133 17.2148H19.7678C20.1432 17.2148 20.655 17.0391 20.7804 16.5994C20.9042 16.1585 20.5465 15.8637 20.1724 15.8637H19.1865Z" fill="white"/>
<path fill-rule="evenodd" clip-rule="evenodd" d="M8.95785 20.3089C7.54609 20.3089 6.09539 19.9812 4.64653 19.3329L4.61098 19.3165L4.59397 19.2823C3.94379 17.9885 3.59985 16.5736 3.59985 15.1891C3.59985 13.8066 3.92968 12.4521 4.58025 11.1601L4.59822 11.1258L4.63445 11.1086C5.97472 10.5101 7.41644 10.207 8.92114 10.207C10.3227 10.207 11.8196 10.5445 13.2493 11.1847L13.2859 11.2001L13.3029 11.235C13.9654 12.5527 14.3149 13.9674 14.3149 15.329C14.3149 16.6851 13.9794 18.0409 13.3159 19.3577L13.2985 19.3922L13.2616 19.4083C11.9418 19.9972 10.4535 20.3089 8.95785 20.3089ZM4.78062 19.1555C6.18804 19.7797 7.59188 20.0948 8.95785 20.0948C10.4062 20.0948 11.8466 19.7964 13.1289 19.2307C13.7659 17.9547 14.0887 16.6414 14.0887 15.329C14.0887 14.0111 13.7517 12.6404 13.1143 11.3615C11.7269 10.7466 10.2779 10.4206 8.92114 10.4206C7.46445 10.4206 6.06815 10.7118 4.76845 11.2865C4.14454 12.5387 3.82698 13.851 3.82698 15.1891C3.82698 16.5296 4.15691 17.9009 4.78062 19.1555Z" fill="white"/>
</svg>
