<svg width="44" height="32" viewBox="0 0 44 32" fill="none" xmlns="http://www.w3.org/2000/svg">
<rect x="1" y="1" width="42" height="30" rx="4" fill="white" stroke="#BFCEE0"/>
<path fill-rule="evenodd" clip-rule="evenodd" d="M7.81108 18.8143L9.23644 20.5794H5.7075L7.81108 18.8143ZM7.36289 18.2691L4.60238 20.5848L4.60124 14.8895L7.36289 18.2691ZM14.0049 12.5343C14.0049 12.5343 13.3989 12.2474 12.6949 12.2893C11.89 12.3367 11.2167 12.6454 10.8296 13.0526C10.586 13.3085 10.3167 13.6207 10.1814 13.9597C9.98529 14.4501 9.94341 15.0981 9.94341 15.0981C9.94341 15.0981 9.66191 14.8592 9.30922 14.163C8.89915 13.3532 8.78698 12.8627 8.7314 12.3031C8.68194 11.812 8.75959 11.3264 8.75959 11.3264H14.0049V12.5343ZM14.0049 14.1488V17.7399C14.0049 17.7399 13.6788 17.8652 13.4128 17.8652C13.1468 17.8652 12.6939 17.8257 12.1678 17.5365C11.6455 17.2496 11.3564 16.9025 11.1323 16.588C10.905 16.2681 10.7174 15.8246 10.6616 15.5051C10.6168 15.2494 10.5684 14.6117 10.8296 14.0935C10.9713 13.8122 11.3516 13.3301 12.0838 13.3027C12.6806 13.2798 13.0116 13.4367 13.3149 13.6032C13.8922 13.9206 14.0049 14.1488 14.0049 14.1488ZM8.29337 17.4877L9.2395 16.6991C8.93797 16.3139 8.85829 16.1688 8.52122 15.6715C8.17611 15.1626 7.88703 14.6026 7.63983 13.9456C7.37226 13.2339 7.30763 12.8344 7.33717 12.3031C7.37418 11.6271 7.52789 11.3264 7.52789 11.3264H4.59985L4.60121 12.9045C4.60121 12.9045 6.84254 15.7133 8.29337 17.4877ZM10.9967 20.5768H14.0049V18.3834C14.0049 18.3834 13.2588 18.7257 12.7738 18.7533C12.485 18.7702 12.2048 18.7813 11.7526 18.661C11.2499 18.5274 10.9644 18.3972 10.4985 18.013C10.1243 17.7048 9.69644 17.2496 9.69644 17.2496L8.74476 18.0431C9.1863 18.5831 9.51239 18.9763 9.61223 19.0821C10.0414 19.5357 10.2233 19.7024 10.5124 19.864C10.8014 20.026 11.7669 20.0172 11.7669 20.0172L10.9967 20.5768Z" fill="#E94E0F"/>
<path fill-rule="evenodd" clip-rule="evenodd" d="M36.7556 18.6257C36.7556 19.2612 36.8413 20.3059 36.1296 20.5602V20.6025H38.8327V20.5602C38.1215 20.292 38.2068 19.2612 38.2068 18.6257V13.3029C38.2068 12.6677 38.1215 11.6228 38.8327 11.3546V11.3123H36.1296V11.3546C36.8552 11.6228 36.7556 12.6535 36.7556 13.3029V18.6257ZM26.8437 13.3029L31.7238 19.4448C32.3496 20.2494 32.7909 20.7155 33.801 21.0542V13.1335C33.801 12.343 33.801 11.7781 34.541 11.3546V11.3123H32.0368V11.3546C32.7909 11.7781 32.7764 12.343 32.7764 13.1335V18.4846L27.5695 11.9616L27.3701 11.6792C27.2707 11.5663 27.2139 11.4958 27.1569 11.3264V11.3123H25.0794V11.3546C25.8193 11.7781 25.8193 12.343 25.8193 13.1335V18.7672C25.8193 19.5577 25.8193 20.1223 25.0655 20.5602V20.6025H27.5838V20.5602C26.8296 20.1223 26.8437 19.5577 26.8437 18.7672V13.3029ZM18.8891 15.0538V12.2866L19.8421 12.1875C20.6959 12.1028 21.6062 12.6112 21.6062 13.5855C21.6062 14.7433 20.2831 15.0538 19.3586 15.0538H18.8891ZM18.8891 19.473V15.9855L19.8848 15.9291C21.1369 15.8584 22.4742 16.4516 22.4742 17.8211C22.4742 19.1624 21.2936 19.6989 20.1267 19.586L18.8891 19.473ZM17.4377 18.6117C17.4377 19.2612 17.5231 20.292 16.8115 20.5602V20.6025H19.1591C20.2261 20.6025 21.3504 20.645 22.3461 20.1649C23.2994 19.713 24.0536 18.7811 24.0536 17.6938C24.0536 16.3104 23.0147 15.4632 21.7343 15.1947C22.5453 14.8419 23.1569 14.3054 23.1569 13.3594C23.1569 12.1028 22.0617 11.3123 20.1838 11.3123H16.8115V11.3546C17.5375 11.6228 17.4377 12.6535 17.4377 13.2887V18.6117Z" fill="#005B6A"/>
</svg>
