<svg width="42" height="30" viewBox="0 0 42 30" fill="none" xmlns="http://www.w3.org/2000/svg">
<rect width="42" height="30" rx="4" fill="#003D79"/>
<path fill-rule="evenodd" clip-rule="evenodd" d="M3.03789 15.8887C3.03789 15.3507 3.02842 14.8992 3 14.4966H3.98602L4.03225 15.1882H4.05992C4.2834 14.8227 4.69209 14.3905 5.45444 14.3905C6.04948 14.3905 6.51426 14.737 6.70914 15.2553H6.72827C6.88658 14.9961 7.07188 14.8042 7.28552 14.6693C7.53676 14.4871 7.82504 14.3905 8.19688 14.3905C8.94966 14.3905 9.71144 14.9185 9.71144 16.4167V19.1722H8.59611V16.5898C8.59611 15.8121 8.33624 15.3507 7.78809 15.3507C7.39702 15.3507 7.10855 15.6392 6.98852 15.9755C6.96028 16.0903 6.93243 16.2345 6.93243 16.368V19.1722H5.81672V16.4645C5.81672 15.8121 5.56614 15.3507 5.03618 15.3507C4.60854 15.3507 4.32073 15.6969 4.21822 16.0226C4.17142 16.1386 4.15266 16.2727 4.15266 16.4068V19.1722H3.03789V15.8887Z" fill="white"/>
<path fill-rule="evenodd" clip-rule="evenodd" d="M14.057 18.0492C14.057 18.4714 14.0755 18.8836 14.1221 19.1725H13.0899L13.0158 18.6541H12.9876C12.7089 19.0193 12.2348 19.2781 11.6492 19.2781C10.7381 19.2781 10.2271 18.597 10.2271 17.886C10.2271 16.7046 11.2399 16.1099 12.9132 16.1194V16.0423C12.9132 15.7349 12.7922 15.2263 11.9929 15.2263C11.5465 15.2263 11.0816 15.3705 10.775 15.5718L10.5516 14.8043C10.8869 14.5926 11.473 14.3907 12.1882 14.3907C13.6389 14.3907 14.057 15.3419 14.057 16.3592V18.0492ZM12.9411 16.8875C12.1325 16.8682 11.3611 17.0506 11.3611 17.7612C11.3611 18.2216 11.6492 18.4333 12.0119 18.4333C12.4668 18.4333 12.802 18.1259 12.9039 17.7899C12.9316 17.7035 12.9411 17.6072 12.9411 17.5306V16.8875Z" fill="white"/>
<path fill-rule="evenodd" clip-rule="evenodd" d="M14.8474 15.8887C14.8474 15.3507 14.8372 14.8992 14.8101 14.4966H15.8131L15.8692 15.1974H15.8967C16.0921 14.833 16.5848 14.3905 17.3375 14.3905C18.1279 14.3905 18.9459 14.9185 18.9459 16.3975V19.1722H17.8027V16.5323C17.8027 15.8597 17.561 15.3507 16.9381 15.3507C16.4826 15.3507 16.1667 15.6868 16.0455 16.0422C16.009 16.1481 15.9993 16.2924 15.9993 16.4259V19.1722H14.8474V15.8887Z" fill="white"/>
<path fill-rule="evenodd" clip-rule="evenodd" d="M23.9031 12.6179V17.8566C23.9031 18.3366 23.9214 18.856 23.9401 19.1725H22.9175L22.8717 18.4333H22.8528C22.5831 18.952 22.0338 19.2782 21.3745 19.2782C20.2967 19.2782 19.4412 18.3278 19.4412 16.8875C19.4318 15.3223 20.3799 14.3908 21.4674 14.3908C22.09 14.3908 22.5366 14.66 22.7407 15.0059H22.7596V12.6179H23.9031ZM22.7596 16.4451C22.7596 16.3501 22.75 16.2344 22.7321 16.1387C22.6297 15.6778 22.2669 15.3031 21.7464 15.3031C21.0121 15.3031 20.603 15.9755 20.603 16.8493C20.603 17.7036 21.0121 18.3278 21.7371 18.3278C22.2017 18.3278 22.6109 18.0014 22.7223 17.4927C22.75 17.3866 22.7596 17.2715 22.7596 17.1463V16.4451Z" fill="white"/>
<path fill-rule="evenodd" clip-rule="evenodd" d="M24.7109 19.1722H25.8647V14.4968H24.7109V19.1722Z" fill="white"/>
<path fill-rule="evenodd" clip-rule="evenodd" d="M26.6727 16.0039C26.6727 15.3705 26.663 14.9186 26.6353 14.4965H27.6301L27.6665 15.3892H27.705C27.9277 14.7267 28.4577 14.4965 28.9409 14.4965C29.0522 14.4965 29.1172 14.4769 29.2104 14.4965V15.5338C29.1172 15.5146 29.0151 15.4954 28.8757 15.4954C28.3273 15.4954 27.9552 15.86 27.8531 16.3877C27.835 16.4934 27.8162 16.6187 27.8162 16.7538V19.1725H26.6727V16.0039Z" fill="white"/>
<path fill-rule="evenodd" clip-rule="evenodd" d="M29.7402 19.1722H30.8923V14.4968H29.7402V19.1722Z" fill="white"/>
<path fill-rule="evenodd" clip-rule="evenodd" d="M29.4677 8.84381C28.7757 9.25774 27.1434 10.2247 26.534 10.5849C26.1626 10.7803 25.3025 10.8656 24.8161 10.1881C24.8073 10.1758 24.169 9.35198 24.143 9.32096C24.1247 9.29904 23.712 8.66679 22.7925 8.64703C22.6566 8.6437 21.9812 8.63998 21.3221 9.0269C20.446 9.54387 18.4086 10.747 18.4086 10.747C18.4081 10.747 18.4081 10.7481 18.407 10.7481C17.5695 11.243 16.917 11.6284 16.917 11.6284L17.688 12.6064C18.0486 13.069 18.8619 13.4269 19.5673 13.0086C19.5673 13.0086 22.1734 11.4498 22.1829 11.4453C23.31 10.8068 24.1797 10.8068 24.7569 11.0444C25.2751 11.2705 25.7258 11.834 25.7258 11.834C25.7258 11.834 26.3149 12.5881 26.4188 12.72C26.754 13.1461 27.3088 12.9787 27.3088 12.9787C27.3088 12.9787 27.5144 12.9546 27.8242 12.7646C27.8242 12.7646 30.3486 11.2527 30.3502 11.2522C31.1518 10.7665 31.8869 10.6758 32.2627 10.7115C33.4395 10.822 33.8051 11.6711 34.3153 12.2636C34.6158 12.612 34.887 12.8099 35.3016 12.7999C35.5741 12.7939 35.8819 12.6233 35.9273 12.5925L38.9501 10.7905C38.9501 10.7905 38.64 10.308 38.0048 9.55728C37.4362 8.88746 36.8324 9.19051 36.3509 9.43682C36.1487 9.54015 35.4158 10.0437 34.6897 10.395C34.1724 10.6452 33.4292 10.57 33.022 10.0502C32.9976 10.0186 32.3387 9.19462 32.2695 9.09325C32.0036 8.74919 31.4847 8.44104 30.8197 8.44104C30.4154 8.44104 29.9566 8.55494 29.4677 8.84381Z" fill="url(#paint0_linear_3482_128364)"/>
<defs>
<linearGradient id="paint0_linear_3482_128364" x1="16.917" y1="13.1939" x2="38.9501" y2="13.1939" gradientUnits="userSpaceOnUse">
<stop stop-color="#FFCA06"/>
<stop offset="0.330844" stop-color="#FBAA18"/>
<stop offset="0.694742" stop-color="#FFC907"/>
<stop offset="1" stop-color="#FAA619"/>
</linearGradient>
</defs>
</svg>
