<svg width="42" height="34" viewBox="0 0 42 34" fill="none" xmlns="http://www.w3.org/2000/svg">
<rect x="1" y="1.18652" width="40" height="32" rx="16" fill="white" stroke="#E0E9F4"/>
<path d="M14 12.2705V11.6205C13.641 11.6205 13.35 11.9115 13.35 12.2705H14ZM25.1602 12.2705H25.8102C25.8102 11.9115 25.5192 11.6205 25.1602 11.6205V12.2705ZM19.5094 20.7279C19.8684 20.7279 20.1594 20.4369 20.1594 20.0779C20.1594 19.7189 19.8684 19.4279 19.5094 19.4279V20.7279ZM24.5102 16.075C24.5102 16.434 24.8012 16.725 25.1602 16.725C25.5192 16.725 25.8102 16.434 25.8102 16.075H24.5102ZM14 12.9205H25.1602V11.6205H14V12.9205ZM19.5094 19.4279H15V20.7279H19.5094V19.4279ZM14.65 19.0779V12.2705H13.35V19.0779H14.65ZM24.5102 12.2705V16.075H25.8102V12.2705H24.5102ZM15 19.4279C14.8067 19.4279 14.65 19.2712 14.65 19.0779H13.35C13.35 19.9891 14.0887 20.7279 15 20.7279V19.4279Z" fill="#E62424"/>
<path d="M14 12.2705V12.9205C13.759 12.9205 13.5378 12.7872 13.4253 12.5741C13.3127 12.361 13.3273 12.1031 13.4631 11.9041L14 12.2705ZM25.1602 12.2705L25.6971 11.9041C25.8329 12.1031 25.8475 12.361 25.7349 12.5741C25.6224 12.7872 25.4012 12.9205 25.1602 12.9205V12.2705ZM23.4711 9.79562L24.008 9.4292L23.4711 9.79562ZM14 11.6205H25.1602V12.9205H14V11.6205ZM24.6233 12.6369L22.9342 10.162L24.008 9.4292L25.6971 11.9041L24.6233 12.6369ZM22.6451 10.0093H16.5151V8.70934H22.6451V10.0093ZM16.226 10.162L14.5369 12.6369L13.4631 11.9041L15.1522 9.4292L16.226 10.162ZM16.5151 10.0093C16.3994 10.0093 16.2912 10.0665 16.226 10.162L15.1522 9.4292C15.4597 8.97878 15.9698 8.70934 16.5151 8.70934V10.0093ZM22.9342 10.162C22.869 10.0665 22.7608 10.0093 22.6451 10.0093V8.70934C23.1904 8.70934 23.7005 8.97878 24.008 9.4292L22.9342 10.162Z" fill="#E62424"/>
<path d="M19.5781 9.3584L19.5781 12.2696" stroke="#E62424" stroke-width="1.3" stroke-linecap="round" stroke-linejoin="round"/>
<path d="M24.126 25.1865L27.9999 21.1865" stroke="#E62424" stroke-width="1.3" stroke-linecap="round" stroke-linejoin="round"/>
<path d="M28 25.1865L24.126 21.1865" stroke="#E62424" stroke-width="1.3" stroke-linecap="round" stroke-linejoin="round"/>
</svg>
