<svg width="42" height="34" viewBox="0 0 42 34" fill="none" xmlns="http://www.w3.org/2000/svg">
<rect x="1" y="1.18652" width="40" height="32" rx="16" fill="white" stroke="#E0E9F4"/>
<path d="M20.3695 19.5319L23.9724 19.3681C24.5456 19.3681 25.0369 18.8768 25.0369 18.3036C25.0369 17.7304 24.5456 17.2391 23.9724 17.2391H20.6971C20.4514 17.2391 20.1239 17.1572 19.9601 17.0754C19.6326 16.9116 18.8137 16.5841 17.6674 16.6659C15.8659 16.6659 15.129 18.713 15.129 18.713L13.8016 19.7341C13.3603 20.0735 13.2812 20.7079 13.6255 21.1453L15.3982 23.397C15.7448 23.8373 16.3856 23.9069 16.8186 23.5512L18.3224 22.3159L23.8086 21.8246C24.2181 21.8246 24.6275 21.579 24.955 21.3333C26.4289 19.9413 28.0666 17.8123 29.0492 16.5841C29.4586 16.0928 29.2949 15.3558 28.8036 15.0283C28.3941 14.7007 27.8209 14.7007 27.4115 15.1101L24.6719 17.5115" stroke="#54B827" stroke-width="1.3" stroke-miterlimit="10" stroke-linecap="round" stroke-linejoin="round"/>
<path d="M16.6577 16.839V10.9404C16.6577 10.3881 17.1054 9.94043 17.6577 9.94043H24.1025C24.6548 9.94043 25.1025 10.3881 25.1025 10.9404V14.669" stroke="#54B827" stroke-width="1.3" stroke-miterlimit="10" stroke-linecap="round" stroke-linejoin="round"/>
<path d="M21.1487 9.94043V12.3969" stroke="#54B827" stroke-width="1.3" stroke-miterlimit="10" stroke-linecap="round" stroke-linejoin="round"/>
</svg>
