<svg width="42" height="34" viewBox="0 0 42 34" fill="none" xmlns="http://www.w3.org/2000/svg">
<rect x="1" y="1.18652" width="40" height="32" rx="16" fill="white" stroke="#E0E9F4"/>
<path d="M23.7945 22.5879H18.9883M27.6183 22.5879H29.0769C29.5702 22.5879 29.9701 22.188 29.9701 21.6947V18.7681C29.9701 18.5954 29.92 18.4265 29.826 18.2817L28.8651 16.8016H23.4746V11.0797C23.4746 10.5864 23.0748 10.1865 22.5815 10.1865H13M15.1897 22.5879H13.8932C13.3999 22.5879 13 22.188 13 21.6947V13.7767" stroke="#2E47BA" stroke-width="1.16111" stroke-miterlimit="10" stroke-linecap="round" stroke-linejoin="round"/>
<path d="M23.4866 13.0049H26.1244C26.4415 13.0049 26.7348 13.173 26.8951 13.4466L28.8465 16.7784" stroke="#2E47BA" stroke-width="1.16111" stroke-miterlimit="10" stroke-linecap="round" stroke-linejoin="round"/>
<circle cx="25.6912" cy="22.5882" r="1.89678" stroke="#2E47BA" stroke-width="1.16111" stroke-miterlimit="10" stroke-linecap="round" stroke-linejoin="round"/>
<circle cx="17.0909" cy="22.5882" r="1.89678" stroke="#2E47BA" stroke-width="1.16111" stroke-miterlimit="10" stroke-linecap="round" stroke-linejoin="round"/>
</svg>
