<svg width="116" height="115" viewBox="0 0 116 115" fill="none" xmlns="http://www.w3.org/2000/svg">
<path d="M35.1401 61V54.4545H36.1458V61H35.1401ZM35.6515 53.3636C35.4555 53.3636 35.2864 53.2969 35.1444 53.1634C35.0052 53.0298 34.9356 52.8693 34.9356 52.6818C34.9356 52.4943 35.0052 52.3338 35.1444 52.2003C35.2864 52.0668 35.4555 52 35.6515 52C35.8475 52 36.0151 52.0668 36.1543 52.2003C36.2964 52.3338 36.3674 52.4943 36.3674 52.6818C36.3674 52.8693 36.2964 53.0298 36.1543 53.1634C36.0151 53.2969 35.8475 53.3636 35.6515 53.3636ZM39.2335 52.2727V61H38.2278V52.2727H39.2335ZM45.4405 58.3239V54.4545H46.4461V61H45.4405V59.892H45.3723C45.2189 60.2244 44.9802 60.5071 44.6564 60.7401C44.3325 60.9702 43.9234 61.0852 43.4291 61.0852C43.02 61.0852 42.6564 60.9957 42.3382 60.8168C42.02 60.6349 41.77 60.3622 41.5882 59.9986C41.4064 59.6321 41.3155 59.1705 41.3155 58.6136V54.4545H42.3211V58.5455C42.3211 59.0227 42.4547 59.4034 42.7217 59.6875C42.9916 59.9716 43.3353 60.1136 43.753 60.1136C44.003 60.1136 44.2572 60.0497 44.5157 59.9219C44.7771 59.794 44.9959 59.598 45.172 59.3338C45.351 59.0696 45.4405 58.733 45.4405 58.3239ZM53.1645 55.9205L52.2611 56.1761C52.2042 56.0256 52.1204 55.8793 52.0096 55.7372C51.9017 55.5923 51.754 55.473 51.5665 55.3793C51.379 55.2855 51.1389 55.2386 50.8463 55.2386C50.4457 55.2386 50.1119 55.331 49.8449 55.5156C49.5807 55.6974 49.4486 55.929 49.4486 56.2102C49.4486 56.4602 49.5395 56.6577 49.7213 56.8026C49.9031 56.9474 50.1872 57.0682 50.5736 57.1648L51.5452 57.4034C52.1304 57.5455 52.5665 57.7628 52.8534 58.0554C53.1403 58.3452 53.2838 58.7187 53.2838 59.1761C53.2838 59.5511 53.1758 59.8864 52.9599 60.1818C52.7469 60.4773 52.4486 60.7102 52.065 60.8807C51.6815 61.0511 51.2355 61.1364 50.727 61.1364C50.0594 61.1364 49.5068 60.9915 49.0693 60.7017C48.6318 60.4119 48.3548 59.9886 48.2383 59.4318L49.1929 59.1932C49.2838 59.5455 49.4557 59.8097 49.7085 59.9858C49.9642 60.1619 50.298 60.25 50.7099 60.25C51.1787 60.25 51.5508 60.1506 51.8264 59.9517C52.1048 59.75 52.244 59.5085 52.244 59.2273C52.244 59 52.1645 58.8097 52.0054 58.6562C51.8463 58.5 51.602 58.3835 51.2724 58.3068L50.1815 58.0511C49.5821 57.9091 49.1417 57.6889 48.8605 57.3906C48.5821 57.0895 48.4429 56.7131 48.4429 56.2614C48.4429 55.892 48.5466 55.5653 48.754 55.2812C48.9642 54.9972 49.2497 54.7741 49.6105 54.6122C49.9741 54.4503 50.3861 54.3693 50.8463 54.3693C51.494 54.3693 52.0025 54.5114 52.3719 54.7955C52.744 55.0795 53.0082 55.4545 53.1645 55.9205ZM57.8842 54.4545V55.3068H54.4922V54.4545H57.8842ZM55.4808 52.8864H56.4865V59.125C56.4865 59.4091 56.5277 59.6222 56.6101 59.7642C56.6953 59.9034 56.8033 59.9972 56.9339 60.0455C57.0675 60.0909 57.2081 60.1136 57.3558 60.1136C57.4666 60.1136 57.5575 60.108 57.6286 60.0966C57.6996 60.0824 57.7564 60.071 57.799 60.0625L58.0036 60.9659C57.9354 60.9915 57.8402 61.017 57.718 61.0426C57.5959 61.071 57.4411 61.0852 57.2536 61.0852C56.9695 61.0852 56.6911 61.0241 56.4183 60.902C56.1484 60.7798 55.924 60.5938 55.745 60.3438C55.5689 60.0938 55.4808 59.7784 55.4808 59.3977V52.8864ZM59.637 61V54.4545H60.6086V55.4432H60.6768C60.7961 55.1193 61.012 54.8565 61.3245 54.6548C61.637 54.4531 61.9893 54.3523 62.3813 54.3523C62.4552 54.3523 62.5475 54.3537 62.6583 54.3565C62.7691 54.3594 62.8529 54.3636 62.9097 54.3693V55.392C62.8757 55.3835 62.7975 55.3707 62.6754 55.3537C62.5561 55.3338 62.4296 55.3239 62.2961 55.3239C61.9779 55.3239 61.6938 55.3906 61.4438 55.5241C61.1967 55.6548 61.0007 55.8366 60.8558 56.0696C60.7137 56.2997 60.6427 56.5625 60.6427 56.858V61H59.637ZM66.268 61.1534C65.8532 61.1534 65.4768 61.0753 65.1387 60.919C64.8007 60.7599 64.5322 60.5312 64.3333 60.233C64.1345 59.9318 64.035 59.5682 64.035 59.142C64.035 58.767 64.1089 58.4631 64.2566 58.2301C64.4044 57.9943 64.6018 57.8097 64.849 57.6761C65.0961 57.5426 65.3689 57.4432 65.6671 57.3778C65.9683 57.3097 66.2708 57.2557 66.5748 57.2159C66.9725 57.1648 67.295 57.1264 67.5421 57.1009C67.7921 57.0724 67.974 57.0256 68.0876 56.9602C68.2041 56.8949 68.2623 56.7812 68.2623 56.6193V56.5852C68.2623 56.1648 68.1473 55.8381 67.9171 55.6051C67.6899 55.3722 67.3447 55.2557 66.8816 55.2557C66.4015 55.2557 66.0251 55.3608 65.7524 55.571C65.4796 55.7812 65.2879 56.0057 65.1771 56.2443L64.2225 55.9034C64.393 55.5057 64.6203 55.196 64.9044 54.9744C65.1913 54.75 65.5038 54.5937 65.8419 54.5057C66.1828 54.4148 66.518 54.3693 66.8475 54.3693C67.0578 54.3693 67.2992 54.3949 67.572 54.446C67.8475 54.4943 68.1132 54.5952 68.3689 54.7486C68.6274 54.902 68.8419 55.1335 69.0123 55.4432C69.1828 55.7528 69.268 56.1676 69.268 56.6875V61H68.2623V60.1136H68.2112C68.143 60.2557 68.0294 60.4077 67.8703 60.5696C67.7112 60.7315 67.4995 60.8693 67.2353 60.983C66.9711 61.0966 66.6487 61.1534 66.268 61.1534ZM66.4214 60.25C66.8191 60.25 67.1544 60.1719 67.4271 60.0156C67.7027 59.8594 67.91 59.6577 68.0492 59.4105C68.1913 59.1634 68.2623 58.9034 68.2623 58.6307V57.7102C68.2197 57.7614 68.126 57.8082 67.9811 57.8509C67.839 57.8906 67.6742 57.9261 67.4867 57.9574C67.3021 57.9858 67.1217 58.0114 66.9456 58.0341C66.7723 58.054 66.6316 58.071 66.5237 58.0852C66.2623 58.1193 66.018 58.1747 65.7907 58.2514C65.5663 58.3253 65.3845 58.4375 65.2453 58.5881C65.1089 58.7358 65.0407 58.9375 65.0407 59.1932C65.0407 59.5426 65.17 59.8068 65.4285 59.9858C65.6899 60.1619 66.0208 60.25 66.4214 60.25ZM75.9799 55.9205L75.0765 56.1761C75.0197 56.0256 74.9359 55.8793 74.8251 55.7372C74.7172 55.5923 74.5694 55.473 74.3819 55.3793C74.1944 55.2855 73.9544 55.2386 73.6618 55.2386C73.2612 55.2386 72.9274 55.331 72.6603 55.5156C72.3961 55.6974 72.264 55.929 72.264 56.2102C72.264 56.4602 72.3549 56.6577 72.5368 56.8026C72.7186 56.9474 73.0027 57.0682 73.389 57.1648L74.3606 57.4034C74.9459 57.5455 75.3819 57.7628 75.6689 58.0554C75.9558 58.3452 76.0993 58.7187 76.0993 59.1761C76.0993 59.5511 75.9913 59.8864 75.7754 60.1818C75.5623 60.4773 75.264 60.7102 74.8805 60.8807C74.497 61.0511 74.051 61.1364 73.5424 61.1364C72.8748 61.1364 72.3223 60.9915 71.8848 60.7017C71.4473 60.4119 71.1703 59.9886 71.0538 59.4318L72.0084 59.1932C72.0993 59.5455 72.2711 59.8097 72.524 59.9858C72.7797 60.1619 73.1135 60.25 73.5254 60.25C73.9941 60.25 74.3663 60.1506 74.6419 59.9517C74.9203 59.75 75.0595 59.5085 75.0595 59.2273C75.0595 59 74.9799 58.8097 74.8209 58.6562C74.6618 58.5 74.4174 58.3835 74.0879 58.3068L72.997 58.0511C72.3976 57.9091 71.9572 57.6889 71.676 57.3906C71.3976 57.0895 71.2584 56.7131 71.2584 56.2614C71.2584 55.892 71.362 55.5653 71.5694 55.2812C71.7797 54.9972 72.0652 54.7741 72.426 54.6122C72.7896 54.4503 73.2015 54.3693 73.6618 54.3693C74.3095 54.3693 74.818 54.5114 75.1873 54.7955C75.5595 55.0795 75.8237 55.4545 75.9799 55.9205ZM77.8531 61V54.4545H78.8588V61H77.8531ZM78.3645 53.3636C78.1685 53.3636 77.9994 53.2969 77.8574 53.1634C77.7182 53.0298 77.6486 52.8693 77.6486 52.6818C77.6486 52.4943 77.7182 52.3338 77.8574 52.2003C77.9994 52.0668 78.1685 52 78.3645 52C78.5605 52 78.7281 52.0668 78.8673 52.2003C79.0094 52.3338 79.0804 52.4943 79.0804 52.6818C79.0804 52.8693 79.0094 53.0298 78.8673 53.1634C78.7281 53.2969 78.5605 53.3636 78.3645 53.3636Z" fill="white"/>
<g clip-path="url(#clip0_4463_199251)">
<rect x="0.317383" width="115" height="115" rx="57.5" fill="#DCEDFF"/>
<path d="M69.4451 89.5494C69.3971 88.4256 70.2135 83.806 69.9447 83.4113C69.6086 82.9178 68.0146 76.4463 69.7889 75.4808C71.5632 74.5152 71.9756 79.4991 72.6487 79.7415C73.3217 79.984 76.4058 80.3687 77.4165 79.6158C78.4272 78.8629 79.7762 76.3701 80.8265 76.3735C81.6667 76.3762 81.8264 77.7345 81.8012 78.4133C82.4792 77.6498 83.9897 76.2822 84.6073 76.9201C85.1251 77.4548 84.9673 78.6041 84.7284 79.5812C84.6823 79.7699 84.6332 79.9521 84.5854 80.1223C85.5917 78.9884 87.0058 78.5828 87.4995 79.4396C88.1078 80.4952 86.7712 83.2233 84.7057 85.4906C81.6713 88.8213 78.9651 87.1789 77.9347 88.0636C77.4184 88.5069 77.1507 90.7068 76.9939 91.4908L69.4451 89.5494Z" fill="#FFD3B0"/>
<path d="M84.7878 79.8075C84.2955 80.5033 82.9291 82.0116 81.4014 82.4786" stroke="#EEAA8D" stroke-width="0.575" stroke-linecap="round"/>
<path d="M81.8519 78.127C81.5085 78.7494 80.5777 80.0921 79.6015 80.483" stroke="#EEAA8D" stroke-width="0.575" stroke-linecap="round"/>
<path d="M86.4418 82.8346C86.9069 81.5919 86.2583 80.8527 85.0214 82.0875C83.4752 83.631 82.0207 84.8936 79.7991 84.8085" stroke="#EEAA8D" stroke-width="0.575" stroke-linecap="round"/>
<path d="M77.6433 88.8475C77.4305 88.1631 69.9851 86.1928 69.5346 86.6971C64.5456 92.2826 57.756 113.817 55.2882 118.729C55.228 121.062 73.1619 120.134 74.2833 117.296C76.079 112.751 79.5219 94.8871 77.6433 88.8475Z" fill="#5472EF"/>
<path d="M65.9832 111.424C59.0167 97.2412 52.4163 84.392 44.8073 81.1388C37.1983 77.8856 42.755 109.775 38.7781 114.655C34.8012 119.534 41.1203 119.967 45.3668 120.648L62.3529 123.373C65.3015 122.491 71.0618 121.763 65.9832 111.424Z" fill="#5472EF"/>
<path d="M0.584073 90.4972C8.81322 71.9776 28.7011 73.7336 35.7411 75.9862C63.7165 84.9373 62.1264 132.375 47.983 153.216L-15.822 142.982C-10.4299 121.312 -1.60397 95.4214 0.584073 90.4972Z" fill="#435BBF"/>
<path d="M52.1099 33.4492C56.1548 35.0193 57.6183 40.2419 57.8445 42.6569C61.6088 42.2635 64.8861 46.9216 61.5089 50.0469C62.5416 50.6695 64.5504 53.0795 64.3241 57.7392C63.6988 70.6137 38.0094 81.8536 26.9441 70.7674C24.0621 67.8799 25.0043 64.4914 26.2694 63.4465C20.4023 61.1341 22.3397 54.8317 24.6795 53.7532C20.6343 46.6353 26.5238 41.7082 29.0641 41.2592C31.5231 35.8837 38.9903 34.8726 42.4166 35.039C43.9623 33.8548 48.065 31.879 52.1099 33.4492Z" fill="#6D3654"/>
<path d="M39.0927 86.7479C34.9998 87.2797 33.8356 90.743 31.7642 94.3271C23.695 93.0328 17.7269 79.6675 24.7231 74.0222C28.7812 70.7477 34.2838 72.4165 38.5023 74.4568C41.7977 76.0507 46.6028 82.2221 47.2779 86.1623C48.0737 90.8073 44.319 95.3984 43.1314 95.6075C42.7993 93.7241 42.5589 88.581 39.0927 86.7479Z" fill="white"/>
<path d="M28.2283 77.7291L33.9573 66.4481L43.5144 68.0107L43.1913 84.9415C39.6315 90.5503 28.7209 82.5062 28.2283 77.7291Z" fill="#FFD3B0"/>
<path d="M31.8601 70.5772L33.9571 66.448L37.4396 67.0174L43.4724 70.2012L43.2941 79.5414C40.9231 78.4939 34.3586 75.2586 31.8601 70.5772Z" fill="#EEAA8D"/>
<path d="M51.66 77.9777C56.49 77.5255 59.135 58.4217 56.1414 49.3471C54.6945 43.7821 37.3137 48.0893 38.8271 52.284C39.5634 54.3247 38.7153 54.6826 37.6541 55.3179C36.593 55.9532 35.4606 57.9588 35.7367 59.3459C36.0128 60.7331 35.9129 62.7888 34.6256 61.0091C33.3383 59.2295 30.7373 49.1436 28.056 54.8517C25.911 59.4182 29.2024 61.8905 31.1162 62.5559C33.6341 74.3548 46.83 78.43 51.66 77.9777Z" fill="#FFD3B0"/>
<path d="M42.6412 67.9418C44.2682 68.0575 46.4059 68.052 48.7059 71.0924" stroke="#EEAA8D" stroke-width="1.15" stroke-linecap="round"/>
<path d="M50.0735 60.3856C51.6098 62.3524 53.8109 65.9022 53.5827 66.5278C53.3961 67.0396 50.3268 66.3697 48.8348 65.5291" stroke="#EEAA8D" stroke-width="1.15" stroke-linecap="round"/>
<ellipse cx="44.2418" cy="58.2284" rx="2.88393" ry="1.55888" transform="rotate(10.5041 44.2418 58.2284)" fill="white"/>
<circle cx="43.7611" cy="58.2479" r="1.03925" transform="rotate(2.78042 43.7611 58.2479)" fill="#141414"/>
<ellipse cx="54.8293" cy="60.0231" rx="2.46926" ry="1.55888" transform="rotate(10.3903 54.8293 60.0231)" fill="white"/>
<circle cx="54.0145" cy="59.9944" r="1.03925" transform="rotate(2.78042 54.0145 59.9944)" fill="#141414"/>
<path d="M32.6988 55.8571C32.2018 54.6194 31.8472 53.5119 31.6582 52.6199C30.2613 46.0268 32.733 37.5611 41.7245 36.2806C46.8165 35.5554 55.3794 36.4994 58.1571 46.5938C58.5065 47.8633 58.8561 49.375 59.155 51.0263C56.3674 51.926 49.5137 52.3952 43.021 48.225C42.4476 50.6012 40.7966 56.0159 34.7483 55.0353C34.3769 55.6337 33.5939 55.0514 32.6988 55.8571Z" fill="#6D3654"/>
<path d="M17.7945 49.7523C15.9434 51.8291 14.3632 56.2832 13.8045 58.2507L20.2971 62.5002C21.6793 61.5529 24.3048 59.9436 24.6735 59.5601C25.7865 58.4028 25.8044 56.6498 26.2626 55.5754C26.9244 54.0234 26.2866 53.4002 26.1386 53.0127C25.9905 52.6253 25.9641 51.8957 26.0898 51.1491C26.1904 50.5519 25.3406 49.8572 24.9031 49.5845C25.2539 49.3165 25.9818 48.7254 26.0873 48.5043C26.2192 48.2279 26.3529 46.8003 25.4269 46.4738C24.5009 46.1472 20.1084 47.1563 17.7945 49.7523Z" fill="#FFD3B0"/>
<path d="M25.5007 49.305C25.0781 49.5125 24.1125 50.038 23.631 50.4803" stroke="#EEAA8D" stroke-width="1.15" stroke-linecap="round"/>
<path d="M26.4269 52.4412L24.9805 54.1239" stroke="#EEAA8D" stroke-width="1.15" stroke-linecap="round"/>
<path d="M13.2928 57.032C13.7645 56.8206 21.3339 61.5116 21.2506 62.0064C18.9903 75.43 10.4396 87.7968 5.61953 100.444C2.81383 101.134 -9.23385 82.4599 -7.75773 80.6005C-2.17827 73.5722 4.61442 60.9198 13.2928 57.032Z" fill="#5472EF"/>
<rect x="68.9453" y="42.6538" width="34.0481" height="26.6769" rx="2.875" fill="white"/>
<path d="M68.9453 45.5288C68.9453 43.941 70.2325 42.6538 71.8203 42.6538H100.118C101.706 42.6538 102.993 43.941 102.993 45.5288V48.657H68.9453V45.5288Z" fill="#2E47BA"/>
<circle cx="72.5738" cy="45.6556" r="1.20956" fill="#F59898"/>
<circle cx="75.9283" cy="45.6556" r="1.20956" fill="#FFCB71"/>
<circle cx="79.2838" cy="45.6556" r="1.20956" fill="#22C1CB"/>
<ellipse cx="94.845" cy="44.0027" rx="11.5" ry="11.5" transform="rotate(-45 94.845 44.0027)" fill="#FFCB71"/>
<path d="M93.4846 46.5374V46.3464C93.4884 45.6913 93.5464 45.1691 93.6587 44.7798C93.7747 44.3905 93.9432 44.076 94.1641 43.8364C94.3849 43.5968 94.6507 43.3797 94.9614 43.1851C95.1935 43.0353 95.4013 42.88 95.5847 42.719C95.7681 42.558 95.9141 42.3802 96.0227 42.1855C96.1313 41.9871 96.1855 41.7663 96.1855 41.5229C96.1855 41.2646 96.1238 41.0382 96.0002 40.8435C95.8767 40.6488 95.7101 40.4991 95.5005 40.3943C95.2946 40.2895 95.0662 40.2371 94.8154 40.2371C94.5721 40.2371 94.3419 40.2913 94.1248 40.3999C93.9076 40.5047 93.7298 40.6619 93.5913 40.8716C93.4528 41.0775 93.3779 41.3339 93.3667 41.6409H91.0757C91.0944 40.8922 91.2741 40.2745 91.6147 39.7878C91.9554 39.2974 92.4065 38.9325 92.968 38.6929C93.5295 38.4495 94.1491 38.3279 94.8267 38.3279C95.5716 38.3279 96.2305 38.4514 96.8032 38.6985C97.376 38.9418 97.8252 39.2956 98.1509 39.7598C98.4766 40.224 98.6394 40.7836 98.6394 41.4387C98.6394 41.8767 98.5664 42.266 98.4204 42.6067C98.2782 42.9436 98.0779 43.2431 97.8196 43.5051C97.5613 43.7634 97.2562 43.9974 96.9043 44.207C96.6086 44.383 96.3652 44.5664 96.1743 44.7573C95.9871 44.9482 95.8468 45.1691 95.7532 45.4199C95.6633 45.6707 95.6165 45.9796 95.6128 46.3464V46.5374H93.4846ZM94.5964 50.1311C94.2221 50.1311 93.902 50.0001 93.6362 49.738C93.3742 49.4722 93.245 49.1541 93.2488 48.7834C93.245 48.4166 93.3742 48.1021 93.6362 47.8401C93.902 47.578 94.2221 47.447 94.5964 47.447C94.9521 47.447 95.2646 47.578 95.5342 47.8401C95.8037 48.1021 95.9403 48.4166 95.9441 48.7834C95.9403 49.0305 95.8748 49.257 95.7476 49.4629C95.624 49.665 95.4612 49.8279 95.259 49.9514C95.0569 50.0712 94.836 50.1311 94.5964 50.1311Z" fill="#222E60"/>
<path d="M93.9139 57.3611C94.3232 57.8229 95.0479 57.8109 95.4417 57.3357L97.4804 54.8756L91.7945 54.9701L93.9139 57.3611Z" fill="#FFCB71"/>
</g>
<defs>
<clipPath id="clip0_4463_199251">
<rect x="0.317383" width="115" height="115" rx="57.5" fill="white"/>
</clipPath>
</defs>
</svg>
