<svg width="139" height="33" viewBox="0 0 139 33" fill="none" xmlns="http://www.w3.org/2000/svg">
<path fill-rule="evenodd" clip-rule="evenodd" d="M12.6085 9.09892C10.0209 9.09892 7.92314 11.1966 7.92314 13.7843C7.92314 14.4969 7.3455 15.0745 6.63295 15.0745C5.92041 15.0745 5.34277 14.4969 5.34277 13.7843C5.34277 9.77154 8.59576 6.51855 12.6085 6.51855C13.835 6.51855 14.9904 6.82242 16.0037 7.35898C17.0171 6.82242 18.1725 6.51855 19.399 6.51855C23.4117 6.51855 26.6647 9.77154 26.6647 13.7843C26.6647 14.4969 26.0871 15.0745 25.3745 15.0745C24.662 15.0745 24.0843 14.4969 24.0843 13.7843C24.0843 11.1966 21.9866 9.09892 19.399 9.09892C19.0112 9.09892 18.6344 9.14603 18.274 9.23485C19.2752 10.48 19.8743 12.0622 19.8743 13.7843C19.8743 15.922 18.1414 17.6549 16.0037 17.6549C13.8661 17.6549 12.1332 15.922 12.1332 13.7843C12.1332 12.0622 12.7323 10.48 13.7335 9.23485C13.3731 9.14603 12.9963 9.09892 12.6085 9.09892ZM16.0037 10.5555C15.2043 11.3959 14.7136 12.5328 14.7136 13.7843C14.7136 14.4969 15.2912 15.0745 16.0037 15.0745C16.7163 15.0745 17.2939 14.4969 17.2939 13.7843C17.2939 12.5328 16.8032 11.3959 16.0037 10.5555Z" fill="white"/>
<path d="M8.27625 17.6616C8.01823 16.9962 7.27128 16.6702 6.60583 16.9283C5.94032 17.1863 5.61439 17.9333 5.87241 18.5987C7.4478 22.6526 11.3863 25.5318 16.0037 25.5318C20.6212 25.5318 24.5597 22.6526 26.1351 18.5987C26.3931 17.9333 26.0672 17.1863 25.4017 16.9283C24.7363 16.6702 23.9893 17.003 23.7312 17.6616C22.5294 20.7581 19.5212 22.9514 16.0037 22.9514C12.4863 22.9514 9.47817 20.7581 8.27625 17.6616Z" fill="white"/>
<path d="M13.7178 9.23535C13.4253 9.59911 13.1672 9.99162 12.9482 10.408C13.8618 10.503 14.6677 10.9603 15.2198 11.6337C15.4245 11.2382 15.6839 10.8756 15.988 10.556C15.3822 9.91914 14.5991 9.45255 13.7178 9.23535Z" fill="url(#paint0_linear_4377_3375)"/>
<path d="M114.254 12.3826H111.903V16.7142C111.903 17.0751 111.993 17.3389 112.174 17.5055C112.354 17.6721 112.617 17.7693 112.964 17.7971C113.311 17.8109 113.741 17.804 114.254 17.7762V20.2128C112.409 20.421 111.105 20.2475 110.342 19.6921C109.593 19.1368 109.219 18.1441 109.219 16.7142V12.3826H107.408V9.80027H109.219V7.69694L111.903 6.88477V9.80027H114.254V12.3826Z" fill="white"/>
<path d="M130.641 11.5646C130.892 10.8895 131.302 10.3833 131.873 10.0457C132.458 9.70822 133.105 9.53946 133.815 9.53946V12.5772C132.994 12.4787 132.256 12.6475 131.602 13.0834C130.961 13.5194 130.641 14.2437 130.641 15.2562V20.2979H127.947V9.75041H130.641V11.5646Z" fill="white"/>
<path fill-rule="evenodd" clip-rule="evenodd" d="M92.5573 9.83213H95.2524V20.2847H92.5573V19.0513C91.7494 20.0687 90.6142 20.5774 89.1517 20.5774C87.7589 20.5774 86.561 20.0478 85.5582 18.9886C84.5693 17.9155 84.0748 16.6054 84.0748 15.0584C84.0748 13.5114 84.5693 12.2083 85.5582 11.1492C86.561 10.076 87.7589 9.53946 89.1517 9.53946C90.6142 9.53946 91.7494 10.0481 92.5573 11.0655V9.83213ZM87.5848 17.1908C88.128 17.7343 88.8175 18.0061 89.6532 18.0061C90.4889 18.0061 91.1783 17.7343 91.7216 17.1908C92.2787 16.6333 92.5573 15.9225 92.5573 15.0584C92.5573 14.1943 92.2787 13.4905 91.7216 12.947C91.1783 12.3895 90.4889 12.1108 89.6532 12.1108C88.8175 12.1108 88.128 12.3895 87.5848 12.947C87.0416 13.4905 86.77 14.1943 86.77 15.0584C86.77 15.9225 87.0416 16.6333 87.5848 17.1908Z" fill="white"/>
<path fill-rule="evenodd" clip-rule="evenodd" d="M123.855 9.83213H126.55V20.2847H123.855V19.0513C123.047 20.0687 121.912 20.5774 120.449 20.5774C119.056 20.5774 117.858 20.0478 116.856 18.9886C115.867 17.9155 115.372 16.6054 115.372 15.0584C115.372 13.5114 115.867 12.2083 116.856 11.1492C117.858 10.076 119.056 9.53946 120.449 9.53946C121.912 9.53946 123.047 10.0481 123.855 11.0655V9.83213ZM118.882 17.1908C119.425 17.7343 120.115 18.0061 120.951 18.0061C121.786 18.0061 122.476 17.7343 123.019 17.1908C123.576 16.6333 123.855 15.9225 123.855 15.0584C123.855 14.1943 123.576 13.4905 123.019 12.947C122.476 12.3895 121.786 12.1108 120.951 12.1108C120.115 12.1108 119.425 12.3895 118.882 12.947C118.339 13.4905 118.067 14.1943 118.067 15.0584C118.067 15.9225 118.339 16.6333 118.882 17.1908Z" fill="white"/>
<path fill-rule="evenodd" clip-rule="evenodd" d="M80.1438 9.82965H82.6776V19.6961C82.6776 21.299 82.1614 22.522 81.1292 23.3649C80.1103 24.2078 78.8769 24.6293 77.4291 24.6293C76.3432 24.6293 75.3846 24.4151 74.5534 23.9867C73.7356 23.5584 73.1055 22.9296 72.6631 22.1005L74.8752 20.7946C75.3846 21.7619 76.2627 22.2456 77.5095 22.2456C78.3273 22.2456 78.9708 22.0245 79.44 21.5823C79.9092 21.1401 80.1438 20.5114 80.1438 19.6961V18.5768C79.3797 19.627 78.3072 20.1521 76.9263 20.1521C75.5053 20.1521 74.3121 19.6408 73.3469 18.6182C72.395 17.5818 71.9191 16.3244 71.9191 14.8458C71.9191 13.381 72.4017 12.1304 73.367 11.094C74.3322 10.0577 75.5187 9.53946 76.9263 9.53946C78.3072 9.53946 79.3797 10.0646 80.1438 11.1148V9.82965ZM75.2975 16.8978C75.8337 17.4229 76.5107 17.6855 77.3285 17.6855C78.1463 17.6855 78.8166 17.4229 79.3394 16.8978C79.8757 16.3589 80.1438 15.6749 80.1438 14.8458C80.1438 14.0305 79.8757 13.3603 79.3394 12.8352C78.8166 12.2963 78.1463 12.0268 77.3285 12.0268C76.5107 12.0268 75.8337 12.2963 75.2975 12.8352C74.7746 13.3603 74.5132 14.0305 74.5132 14.8458C74.5132 15.6749 74.7746 16.3589 75.2975 16.8978Z" fill="white"/>
<path d="M66.6202 9.53946C67.7487 9.53946 68.6777 9.92319 69.4071 10.6907C70.1503 11.4581 70.5219 12.5186 70.5219 13.8722V20.2979H67.8588V14.2071C67.8588 13.5094 67.673 12.9791 67.3014 12.6163C66.9298 12.2395 66.4344 12.0512 65.8151 12.0512C65.1269 12.0512 64.5764 12.2675 64.1635 12.7C63.7507 13.1326 63.5442 13.7815 63.5442 14.6466V20.2979H60.8812V9.83249H63.5442V11.0046C64.1911 10.0278 65.2164 9.53946 66.6202 9.53946Z" fill="white"/>
<path d="M102.389 9.53946C103.517 9.53946 104.446 9.92319 105.176 10.6907C105.919 11.4581 106.29 12.5186 106.29 13.8722V20.2979H103.627V14.2071C103.627 13.5094 103.442 12.9791 103.07 12.6163C102.698 12.2395 102.203 12.0512 101.584 12.0512C100.895 12.0512 100.345 12.2675 99.932 12.7C99.5192 13.1326 99.3127 13.7815 99.3127 14.6466V20.2979H96.6497V9.83249H99.3127V11.0046C99.9596 10.0278 100.985 9.53946 102.389 9.53946Z" fill="white"/>
<path fill-rule="evenodd" clip-rule="evenodd" d="M51.5347 15.9986C51.8954 17.2755 52.8735 17.914 54.4689 17.914C55.4955 17.914 56.2724 17.5744 56.7995 16.8952L58.9637 18.1177C57.9371 19.5712 56.425 20.2979 54.4273 20.2979C52.707 20.2979 51.3267 19.7886 50.2862 18.7698C49.2457 17.751 48.7255 16.4673 48.7255 14.9187C48.7255 13.3837 49.2388 12.1068 50.2654 11.088C51.292 10.0556 52.6099 9.53946 54.2192 9.53946C55.7452 9.53946 57.0007 10.0556 57.9857 11.088C58.9845 12.1204 59.484 13.3973 59.484 14.9187C59.484 15.2583 59.4493 15.6183 59.3799 15.9986H51.5347ZM51.4931 13.961H56.7995C56.6469 13.2683 56.3279 12.7521 55.8423 12.4125C55.3706 12.0729 54.8296 11.9031 54.2192 11.9031C53.4978 11.9031 52.9012 12.0865 52.4295 12.4532C51.9579 12.8064 51.6457 13.309 51.4931 13.961Z" fill="white"/>
<path d="M43.4134 9.53946C44.601 9.53946 45.5469 9.93017 46.2512 10.7116C46.9692 11.493 47.3283 12.5396 47.3283 13.8512V20.2979H44.6562V14.0396C44.6562 13.4117 44.5043 12.9233 44.2005 12.5744C43.8968 12.2256 43.4687 12.0512 42.9163 12.0512C42.3087 12.0512 41.8323 12.2535 41.4871 12.6582C41.1557 13.0628 40.99 13.6489 40.99 14.4164V20.2979H38.318V14.0396C38.318 13.4117 38.1661 12.9233 37.8623 12.5744C37.5585 12.2256 37.1304 12.0512 36.5781 12.0512C35.9843 12.0512 35.5079 12.2535 35.1488 12.6582C34.8036 13.0628 34.631 13.6489 34.631 14.4164V20.2979H31.959V9.83249H34.631V10.9418C35.2524 10.0069 36.2121 9.53946 37.5102 9.53946C38.7806 9.53946 39.7196 10.0418 40.3272 11.0465C41.0176 10.0418 42.0464 9.53946 43.4134 9.53946Z" fill="white"/>
<defs>
<linearGradient id="paint0_linear_4377_3375" x1="15.988" y1="9.23522" x2="12.9323" y2="11.6119" gradientUnits="userSpaceOnUse">
<stop stop-color="#535353"/>
<stop offset="1" stop-opacity="0"/>
</linearGradient>
</defs>
</svg>
