<svg width="50" height="50" viewBox="0 0 50 50" fill="none" xmlns="http://www.w3.org/2000/svg">
<mask id="mask0_29_1706" style="mask-type:alpha" maskUnits="userSpaceOnUse" x="0" y="0" width="50" height="50">
<rect width="50" height="50" rx="25" fill="#DCEDFF"/>
</mask>
<g mask="url(#mask0_29_1706)">
<rect width="50" height="50" rx="25" fill="#DCEDFF"/>
<mask id="mask1_29_1706" style="mask-type:alpha" maskUnits="userSpaceOnUse" x="11" y="28" width="28" height="11">
<path d="M38.4863 36.722L34.5238 29.1052C34.2249 28.5307 33.6312 28.1703 32.9836 28.1703H16.9653C16.3177 28.1703 15.724 28.5307 15.4251 29.1052L11.4627 36.722C11.0117 37.5888 11.6407 38.625 12.6178 38.625H37.3311C38.3082 38.625 38.9372 37.5888 38.4863 36.722Z" fill="#F9B66F"/>
</mask>
<g mask="url(#mask1_29_1706)">
<path d="M38.4863 36.722L34.5238 29.1052C34.2249 28.5307 33.6312 28.1703 32.9836 28.1703H16.9653C16.3177 28.1703 15.724 28.5307 15.4251 29.1052L11.4627 36.722C11.0117 37.5888 11.6407 38.625 12.6178 38.625H37.3311C38.3082 38.625 38.9372 37.5888 38.4863 36.722Z" fill="#814743"/>
<path d="M38.1198 35.9373L33.9854 27.9899C33.6865 27.4155 33.0928 27.0551 32.4452 27.0551H17.5036C16.856 27.0551 16.2623 27.4155 15.9634 27.9899L11.829 35.9373C11.6035 36.3707 11.918 36.8888 12.4065 36.8888H37.5423C38.0308 36.8888 38.3453 36.3707 38.1198 35.9373Z" fill="#EB934E"/>
</g>
<ellipse cx="24.9745" cy="32.3" rx="6.09556" ry="2.17013" fill="#CC7051"/>
<ellipse cx="24.9737" cy="16.918" rx="3.80772" ry="3.81159" fill="white"/>
<path d="M31.6797 9.96824C29.851 8.44281 27.5652 7.375 24.9746 7.375C22.6887 7.375 20.5553 8.13772 18.879 9.51061C16.5932 11.3411 15.2217 14.0869 15.2217 17.1378C15.2217 23.0151 20.5759 29.1437 23.3501 31.9246C24.2597 32.8364 25.6894 32.8364 26.5991 31.9246C29.3732 29.1437 34.7275 23.0151 34.7275 17.1378C34.7275 14.2395 33.5083 11.7988 31.6797 9.96824ZM24.9746 20.4938C23.1459 20.4938 21.622 18.9683 21.622 17.1378C21.622 15.3073 23.1459 13.7818 24.9746 13.7818C26.8032 13.7818 28.3271 15.3073 28.3271 17.1378C28.3271 18.9683 26.8032 20.4938 24.9746 20.4938Z" fill="#F6B755"/>
</g>
</svg>
