<svg width="50" height="50" viewBox="0 0 50 50" fill="none" xmlns="http://www.w3.org/2000/svg">
<mask id="mask0_29_1728" style="mask-type:alpha" maskUnits="userSpaceOnUse" x="0" y="0" width="50" height="50">
<rect width="50" height="50" rx="25" fill="#F6B755"/>
</mask>
<g mask="url(#mask0_29_1728)">
<rect width="50" height="50" rx="25" fill="#DCEDFF"/>
<mask id="mask1_29_1728" style="mask-type:alpha" maskUnits="userSpaceOnUse" x="3" y="26" width="39" height="20">
<path d="M40.0869 26.4959C39.1462 25.9073 37.9115 26.025 37.0883 26.7313L31.15 31.9694C30.7384 31.6163 30.2092 31.3808 29.6213 31.3808H22.6246C22.0367 31.3808 21.4487 31.2043 20.9196 30.91C20.0964 30.4392 18.5089 29.7917 15.9219 29.9095C13.4525 29.9683 11.9238 31.734 11.1007 33.0876L3.69247 38.9732C2.92812 39.5617 2.98692 40.7977 3.86885 41.2685L11.6299 45.6827C12.2766 46.0358 13.041 45.9769 13.5701 45.5061L17.4506 42.3868L29.3861 41.3862C30.3268 41.3274 31.2088 40.9154 31.9143 40.268C35.0893 37.2075 38.7346 32.5579 40.7336 29.9683C41.498 28.8501 41.2628 27.261 40.0869 26.4959Z" fill="#FFE8C5"/>
</mask>
<g mask="url(#mask1_29_1728)">
<path d="M40.0869 26.4959C39.1462 25.9073 37.9115 26.025 37.0883 26.7313L31.15 31.9694C30.7384 31.6163 30.2092 31.3808 29.6213 31.3808H22.6246C22.0367 31.3808 21.4487 31.2043 20.9196 30.91C20.0964 30.4392 18.5089 29.7917 15.9219 29.9095C13.4525 29.9683 11.9238 31.734 11.1007 33.0876L3.69247 38.9732C2.92812 39.5617 2.98692 40.7977 3.86885 41.2685L11.6299 45.6827C12.2766 46.0358 13.041 45.9769 13.5701 45.5061L17.4506 42.3868L29.3861 41.3862C30.3268 41.3274 31.2088 40.9154 31.9143 40.268C35.0893 37.2075 38.7346 32.5579 40.7336 29.9683C41.498 28.8501 41.2628 27.261 40.0869 26.4959Z" fill="#F9B66F"/>
<path d="M31.611 31.3446V31.3446C32.6251 32.8282 31.6381 34.8515 29.8446 34.9656L24.0361 35.3351" stroke="#CC7051" stroke-width="1.5" stroke-linecap="round"/>
</g>
<mask id="mask2_29_1728" style="mask-type:alpha" maskUnits="userSpaceOnUse" x="3" y="32" width="15" height="17">
<path d="M17.5529 42.4615L11.2452 33.2804C10.9168 32.8024 10.2519 32.703 9.79817 33.0642L3.22754 38.2941L11.6018 48.6352L17.3715 43.7938C17.7661 43.4627 17.8446 42.886 17.5529 42.4615Z" fill="#2E47BA"/>
</mask>
<g mask="url(#mask2_29_1728)">
<path d="M17.5529 42.4615L11.2452 33.2804C10.9168 32.8024 10.2519 32.703 9.79817 33.0642L3.22754 38.2941L11.6018 48.6352L17.3715 43.7938C17.7661 43.4627 17.8446 42.886 17.5529 42.4615Z" fill="#CC7051"/>
<path opacity="0.25" d="M9.54395 45.8793L16.5119 40.317L19.0256 43.2405L14.0863 48.3614L9.54395 45.8793Z" fill="black"/>
<path d="M9.60118 38.9329C10.2795 38.9329 10.8293 38.3825 10.8293 37.7036C10.8293 37.0246 10.2795 36.4742 9.60118 36.4742C8.9229 36.4742 8.37305 37.0246 8.37305 37.7036C8.37305 38.3825 8.9229 38.9329 9.60118 38.9329Z" fill="white"/>
</g>
<path d="M26.1928 26.4369C31.1285 26.4369 35.1297 22.4317 35.1297 17.4909C35.1297 12.5502 31.1285 8.54492 26.1928 8.54492C21.2571 8.54492 17.2559 12.5502 17.2559 17.4909C17.2559 22.4317 21.2571 26.4369 26.1928 26.4369Z" fill="#CC7051"/>
<rect x="23.8066" y="8.54395" width="2.58304" height="17.8682" fill="#CC7051"/>
<path d="M23.8168 26.4369C28.7525 26.4369 32.7537 22.4317 32.7537 17.4909C32.7537 12.5502 28.7525 8.54492 23.8168 8.54492C18.8811 8.54492 14.8799 12.5502 14.8799 17.4909C14.8799 22.4317 18.8811 26.4369 23.8168 26.4369Z" fill="#F6B755"/>
<path d="M23.9936 16.7261C23.3469 16.6084 22.8765 16.2553 22.8177 15.8433C22.7589 15.4902 22.9353 15.1959 23.2881 15.0193C24.2288 14.6073 24.758 15.2547 24.8756 15.4313L25.5223 14.9605L26.1691 14.4896C25.8751 14.0776 25.3459 13.5479 24.5228 13.3714V12.4297H22.9353V13.4302C22.8177 13.4891 22.7001 13.4891 22.5825 13.5479C21.583 14.0188 21.0539 14.9605 21.1714 15.961C21.289 16.8438 21.9946 17.8444 23.5233 18.1975C24.17 18.3152 24.6404 18.6683 24.6992 19.0803C24.758 19.4335 24.5816 19.7277 24.2288 19.9043C23.2881 20.3163 22.7589 19.6689 22.6413 19.4923L21.9946 19.9632L21.3478 20.434C21.6418 20.846 22.171 21.3168 22.9941 21.5523V22.6116H24.5816V21.4934C24.6992 21.4345 24.8168 21.4345 24.9344 21.3757C25.9339 20.9048 26.463 19.9632 26.3454 18.9626C26.2279 18.0798 25.5223 17.0204 23.9936 16.7261Z" fill="white"/>
</g>
</svg>
