<svg width="24" height="24" viewBox="0 0 24 24" fill="none" xmlns="http://www.w3.org/2000/svg">
<path d="M9.57042 2.5472C10.6922 0.750867 13.3081 0.750867 14.4299 2.5472L15.1959 3.77374C15.7006 4.58194 16.5741 5.08627 17.5264 5.11927L18.9716 5.16936C21.0882 5.2427 22.3961 7.50811 21.4014 9.3778L20.7221 10.6544C20.2746 11.4956 20.2746 12.5043 20.7221 13.3455L21.4014 14.6221C22.3961 16.4918 21.0882 18.7572 18.9716 18.8305L17.5264 18.8806C16.5741 18.9136 15.7006 19.418 15.1959 20.2262L14.4299 21.4527C13.3081 23.249 10.6922 23.249 9.57042 21.4527L8.80445 20.2262C8.29973 19.418 7.42619 18.9136 6.47392 18.8806L5.02872 18.8305C2.91214 18.7572 1.60421 16.4918 2.59898 14.6221L3.2782 13.3455C3.72576 12.5043 3.72576 11.4956 3.2782 10.6544L2.59898 9.3778C1.60421 7.50811 2.91214 5.2427 5.02872 5.16936L6.47392 5.11927C7.42619 5.08627 8.29973 4.58194 8.80445 3.77374L9.57042 2.5472Z" stroke="#6C7E95" stroke-width="1.3" stroke-linecap="round"/>
<path d="M8.56396 11.9998C8.56396 13.8977 10.1025 15.4362 12.0003 15.4362C13.8982 15.4362 15.4367 13.8977 15.4367 11.9998C15.4367 10.102 13.8982 8.56348 12.0003 8.56348" stroke="#6C7E95" stroke-width="1.3" stroke-linecap="round"/>
</svg>
