<svg width="24" height="24" viewBox="0 0 24 24" fill="none" xmlns="http://www.w3.org/2000/svg">
<rect width="24" height="24" rx="3" fill="white"/>
<path fill-rule="evenodd" clip-rule="evenodd" d="M9.42448 20C12.3885 20 14.8045 19.7733 14.8045 19.4967C14.8045 19.2202 12.3885 18.9879 9.42448 18.9879C6.46042 18.9879 4.04443 19.2147 4.04443 19.4912C4.04443 19.7678 6.46042 20 9.42448 20Z" fill="#CAC9C9"/>
<path fill-rule="evenodd" clip-rule="evenodd" d="M9.12839 4.04425L19.318 8.31955C19.6089 8.44122 19.7487 8.7786 19.6256 9.07173L15.297 19.1488C15.174 19.4364 14.8328 19.5747 14.5364 19.453L4.35234 15.1722C4.06152 15.0505 3.92171 14.7131 4.04475 14.42L8.3678 4.34845C8.49643 4.06084 8.83758 3.92258 9.12839 4.04425Z" fill="#921D26"/>
<path fill-rule="evenodd" clip-rule="evenodd" d="M19.0613 8.862C19.0836 8.91731 19.0836 8.97815 19.0613 9.03345L14.878 18.7787C14.8277 18.8893 14.6991 18.9446 14.5816 18.8948L4.72753 14.7578C4.6716 14.7357 4.62686 14.6914 4.60449 14.6361L19.0613 8.862Z" fill="#70161E"/>
<path fill-rule="evenodd" clip-rule="evenodd" d="M9.13987 4.9348L18.6696 8.93355C18.7255 8.95568 18.7535 9.02205 18.7311 9.08289L14.6821 18.5018C14.6597 18.5571 14.5926 18.5848 14.5311 18.5626L5.00137 14.5639C4.94544 14.5418 4.91748 14.4754 4.93985 14.4146L8.98887 4.99011C9.01124 4.9348 9.07835 4.90715 9.13987 4.9348Z" fill="#D5232B"/>
<path fill-rule="evenodd" clip-rule="evenodd" d="M18.7266 8.99402C18.7378 9.02167 18.7378 9.04933 18.7266 9.08251L14.6832 18.5014C14.6608 18.5567 14.5937 18.5844 14.5322 18.5623L5.00244 14.5635C4.97447 14.5525 4.9521 14.5303 4.94092 14.5027L18.7266 8.99402Z" fill="#A11F24"/>
<path fill-rule="evenodd" clip-rule="evenodd" d="M16.9756 9.2774L11.0643 12.2253L10.4771 9.60925L16.9756 9.2774Z" fill="white"/>
<path fill-rule="evenodd" clip-rule="evenodd" d="M6.83936 14.3307L12.7507 11.3828L13.3379 13.9933L6.83936 14.3307Z" fill="#E6E6E6"/>
<path fill-rule="evenodd" clip-rule="evenodd" d="M11.062 12.2235L12.751 11.3828L12.874 11.9359L11.062 12.2235Z" fill="#B3B3B3"/>
</svg>
