<svg width="23" height="23" viewBox="0 0 23 23" fill="none" xmlns="http://www.w3.org/2000/svg">
<path d="M9.75817 1.44758C10.4901 0.664421 11.7321 0.664422 12.464 1.44758L13.7256 2.79738C14.0907 3.18799 14.6067 3.40175 15.1411 3.38369L16.9876 3.32129C18.0589 3.28509 18.9371 4.16329 18.9009 5.23463L18.8385 7.08114C18.8205 7.61548 19.0342 8.13155 19.4248 8.49662L20.7746 9.75817C21.5578 10.4901 21.5578 11.7321 20.7746 12.464L19.4248 13.7256C19.0342 14.0907 18.8205 14.6067 18.8385 15.1411L18.9009 16.9876C18.9371 18.0589 18.0589 18.9371 16.9876 18.9009L15.1411 18.8385C14.6067 18.8205 14.0907 19.0342 13.7256 19.4248L12.464 20.7746C11.7321 21.5578 10.4901 21.5578 9.75817 20.7746L8.49662 19.4248C8.13155 19.0342 7.61548 18.8205 7.08114 18.8385L5.23463 18.9009C4.16329 18.9371 3.28509 18.0589 3.32129 16.9876L3.38369 15.1411C3.40175 14.6067 3.18799 14.0907 2.79738 13.7256L1.44758 12.464C0.664421 11.7321 0.664421 10.4901 1.44758 9.75817L2.79738 8.49662C3.18799 8.13155 3.40175 7.61548 3.38369 7.08114L3.32129 5.23463C3.28509 4.16329 4.16329 3.28509 5.23463 3.32129L7.08114 3.38369C7.61548 3.40175 8.13155 3.18799 8.49662 2.79738L9.75817 1.44758Z" fill="#2E47BA" stroke="white" stroke-width="1.44444" stroke-linecap="round" stroke-linejoin="round"/>
</svg>
