<svg width="40" height="40" viewBox="0 0 40 40" fill="none" xmlns="http://www.w3.org/2000/svg">
<rect width="40" height="40" rx="20" fill="#DCEDFF"/>
<path fill-rule="evenodd" clip-rule="evenodd" d="M34.6227 25.0938V28.1675H34.6226C34.6127 29.1538 30.4359 29.9529 25.285 29.9529C20.134 29.9529 15.9572 29.1538 15.9473 28.1675H15.9473V28.1639V25.0938H34.6227Z" fill="#3A7D50"/>
<ellipse cx="25.284" cy="25.1483" rx="9.33769" ry="1.78893" fill="#59B278"/>
<path fill-rule="evenodd" clip-rule="evenodd" d="M34.6227 21.0156V24.0893H34.6226C34.6127 25.0757 30.4359 25.8747 25.285 25.8747C20.134 25.8747 15.9572 25.0757 15.9473 24.0893H15.9473V24.0858V21.0156H34.6227Z" fill="#3A7D50"/>
<ellipse cx="25.284" cy="21.0702" rx="9.33769" ry="1.78893" fill="#59B278"/>
<path fill-rule="evenodd" clip-rule="evenodd" d="M34.6227 16.7656V19.8393H34.6226C34.6127 20.8257 30.4359 21.6247 25.285 21.6247C20.134 21.6247 15.9572 20.8257 15.9473 19.8393H15.9473V19.8358V16.7656H34.6227Z" fill="#3A7D50"/>
<ellipse cx="25.284" cy="16.8202" rx="9.33769" ry="1.78893" fill="#59B278"/>
<path d="M17.4423 29.99C22.7099 29.99 26.9802 25.7197 26.9802 20.452C26.9802 15.1844 22.7099 10.9141 17.4423 10.9141C12.1746 10.9141 7.9043 15.1844 7.9043 20.452C7.9043 25.7197 12.1746 29.99 17.4423 29.99Z" fill="#458B5C"/>
<rect x="14.8857" y="10.9141" width="2.75677" height="19.0505" fill="#458B5C"/>
<path d="M14.9022 29.99C20.1699 29.99 24.4402 25.7197 24.4402 20.452C24.4402 15.1844 20.1699 10.9141 14.9022 10.9141C9.63455 10.9141 5.36426 15.1844 5.36426 20.452C5.36426 25.7197 9.63455 29.99 14.9022 29.99Z" fill="#59B377"/>
<path d="M15.0878 19.6354C14.3976 19.5099 13.8956 19.1334 13.8328 18.6942C13.7701 18.3177 13.9583 18.0039 14.3348 17.8157C15.3388 17.3764 15.9036 18.0667 16.0291 18.2549L16.7193 17.7529L17.4096 17.2509C17.0958 16.8117 16.5311 16.2469 15.6526 16.0587V15.0547H13.9583V16.1214C13.8328 16.1842 13.7073 16.1842 13.5818 16.2469C12.5151 16.7489 11.9504 17.7529 12.0759 18.8197C12.2014 19.7609 12.9543 20.8277 14.5858 21.2042C15.2761 21.3297 15.7781 21.7062 15.8408 22.1454C15.9036 22.5219 15.7153 22.8357 15.3388 23.0239C14.3348 23.4632 13.7701 22.7729 13.6446 22.5847L12.9544 23.0867L12.2641 23.5887C12.5778 24.0279 13.1426 24.5299 14.0211 24.7809V25.9104H15.7153V24.7182C15.8408 24.6554 15.9663 24.6554 16.0918 24.5927C17.1586 24.0907 17.7233 23.0867 17.5978 22.0199C17.4723 21.0787 16.7193 19.9492 15.0878 19.6354Z" fill="white"/>
</svg>
