<svg width="40" height="40" viewBox="0 0 40 40" fill="none" xmlns="http://www.w3.org/2000/svg">
<rect width="40" height="40" rx="20" fill="#DCEDFF"/>
<path d="M21.3021 31.1328H28.5078C29.0601 31.1328 29.5078 30.6851 29.5078 30.1328V19.2753H21.3021C20.7498 19.2753 20.3021 19.723 20.3021 20.2753V30.1328C20.3021 30.6851 20.7498 31.1328 21.3021 31.1328Z" fill="#CC7051"/>
<path d="M7.5791 15.7266L10.4543 19.2783H21.9551L19.249 15.7266H7.5791Z" fill="#EB934E"/>
<path d="M32.3857 15.7266L29.5105 19.2783H21.9573L24.6634 15.7266H32.3857Z" fill="#EB934E"/>
<path d="M21.9636 19.2812H10.4121V30.119C10.4121 30.6713 10.8598 31.119 11.4121 31.119H20.9636C21.5159 31.119 21.9636 30.6713 21.9636 30.119V19.2812Z" fill="#F9B66F"/>
<rect x="12.1631" y="27.6094" width="3.64635" height="1.79521" fill="white"/>
<path d="M17.2193 9.43012L22.7682 9.43012C23.1532 9.43012 23.3938 9.84702 23.2011 10.1804L20.4629 14.9172C20.2716 15.248 19.795 15.2507 19.6 14.9221L16.7893 10.1853C16.5915 9.85197 16.8318 9.43012 17.2193 9.43012Z" fill="#59B277"/>
<path d="M20.0723 11.9219L20.0723 6.3868" stroke="#59B277" stroke-width="3" stroke-linecap="round" stroke-linejoin="round"/>
</svg>
