<svg width="40" height="40" viewBox="0 0 40 40" fill="none" xmlns="http://www.w3.org/2000/svg">
<rect width="40" height="40" rx="20" fill="#DCEDFF"/>
<mask id="mask0_6193_20463" style="mask-type:alpha" maskUnits="userSpaceOnUse" x="6" y="7" width="23" height="24">
<path d="M17.5835 7.39062L28.4796 11.8458V25.9626L17.5835 30.4177L6.6875 25.9626V11.8458L17.5835 7.39062Z" fill="#C4C4C4"/>
</mask>
<g mask="url(#mask0_6193_20463)">
<path d="M17.5835 7.39062L28.4796 11.8458V25.9626L17.5835 30.4177L6.6875 25.9626V11.8458L17.5835 7.39062Z" fill="#EB934E"/>
<path d="M8.10101 21.4766L11.8828 23.0255V25.7735L8.10101 24.2238V21.4766Z" fill="white"/>
<path d="M28.482 11.8438H17.5859V30.4157L28.482 25.9605V11.8438Z" fill="#CC7051"/>
<path d="M20.971 23.0623L22.3164 21.0256C22.5753 20.6336 23.0722 20.4747 23.5105 20.6437L25.4842 21.4046C26.9185 21.9575 27.9835 23.157 28.6054 24.5628C29.5353 26.665 30.6784 28.2676 31.6466 29.3472C32.2008 29.9651 31.9805 31.082 31.1867 31.3243L26.7207 32.6879C25.747 32.9852 24.6651 32.9352 23.8797 32.2873C22.0595 30.7858 20.9435 28.4353 20.3563 26.5586C19.9843 25.3694 20.2842 24.102 20.971 23.0623Z" fill="#BD6041"/>
<path d="M24.1998 13.4219H21.9531V18.1558L24.1998 17.2372V13.4219Z" fill="#814743"/>
<path d="M28.4796 11.8458L17.5835 7.39062L6.6875 11.8458L17.5835 16.3998L28.4796 11.8458Z" fill="#F9B66F"/>
<path d="M24.1934 13.6355L21.9362 14.5789L11.1094 10.0361L13.3376 9.125L24.1934 13.6355Z" fill="#BF684F"/>
</g>
<path d="M21.9353 23.4782L22.7871 21.1907C22.9511 20.7505 23.3994 20.4837 23.8645 20.5496L25.9589 20.8462C27.4809 21.0618 28.7888 21.9904 29.7114 23.22C31.0911 25.0586 32.5659 26.3624 33.7525 27.1961C34.4316 27.6733 34.4686 28.8111 33.7498 29.2261L29.7059 31.5608C28.8242 32.0699 27.7589 32.2649 26.8477 31.8107C24.736 30.7579 23.1191 28.7192 22.1242 27.0231C21.4937 25.9483 21.5004 24.6459 21.9353 23.4782Z" fill="#5AB277"/>
<path d="M26.2344 24.0312C26.8445 24.7305 28.4381 26.4363 29.9312 27.6659" stroke="white" stroke-width="1.3" stroke-linecap="round" stroke-linejoin="round"/>
<path d="M25.2188 25.9922C25.5973 26.426 26.5861 27.4844 27.5125 28.2473" stroke="white" stroke-width="1.3" stroke-linecap="round" stroke-linejoin="round"/>
<path d="M23.2332 21.6881C23.2613 21.9628 23.5068 22.1627 23.7815 22.1346C24.0562 22.1065 24.2561 21.861 24.228 21.5863L23.2332 21.6881ZM22.1103 20.3581L22.201 20.8498L22.1103 20.3581ZM21.6417 23.2726L22.1204 23.4169L22.409 22.4594L21.9303 22.3151L21.6417 23.2726ZM24.228 21.5863C24.1974 21.2866 24.0626 20.8063 23.7288 20.4189C23.3675 19.9994 22.7977 19.7229 22.0195 19.8664L22.201 20.8498C22.6147 20.7735 22.8319 20.9098 22.9712 21.0715C23.138 21.2652 23.2175 21.5344 23.2332 21.6881L24.228 21.5863ZM22.0195 19.8664C21.0323 20.0486 20.5509 20.7962 20.5176 21.5407C20.4864 22.2358 20.8549 23.0354 21.6417 23.2726L21.9303 22.3151C21.7036 22.2468 21.4996 21.9641 21.5165 21.5855C21.5313 21.2562 21.7188 20.9388 22.201 20.8498L22.0195 19.8664Z" fill="#814743"/>
</svg>
