<svg width="40" height="40" viewBox="0 0 40 40" fill="none" xmlns="http://www.w3.org/2000/svg">
<rect width="40" height="40" rx="20" fill="#DCEDFF"/>
<path d="M23.1275 7.70146C24.4726 7.29809 25.9175 7.88174 26.6051 9.10616L27.2973 10.3389C27.6196 10.9128 28.1216 11.3648 28.7261 11.6252L30.0245 12.1846C31.3142 12.7402 32.0459 14.116 31.7855 15.4959L31.5234 16.8852C31.4014 17.532 31.4955 18.201 31.7912 18.789L32.4262 20.0521C33.057 21.3067 32.7332 22.831 31.6467 23.7207L30.553 24.6165C30.0437 25.0335 29.6858 25.6065 29.5343 26.247L29.2089 27.6228C28.8857 28.9893 27.6578 29.9488 26.2536 29.9321L24.84 29.9152C24.1818 29.9073 23.5393 30.1161 23.0115 30.5094L21.8779 31.3542C20.7519 32.1933 19.1945 32.139 18.1297 31.2236L17.0576 30.302C16.5585 29.8729 15.9321 29.6199 15.275 29.5819L13.8636 29.5004C12.4617 29.4194 11.3035 28.3767 11.0762 26.991L10.8473 25.5959C10.7408 24.9464 10.4236 24.3499 9.94462 23.8984L8.91584 22.9287C7.89397 21.9655 7.67697 20.4224 8.39357 19.2147L9.11502 17.9989C9.45091 17.4329 9.59132 16.7721 9.5146 16.1183L9.34982 14.7142C9.18615 13.3195 10.0118 11.9979 11.3371 11.5334L12.6712 11.0658C13.2924 10.8481 13.8247 10.4321 14.1861 9.88203L14.9625 8.7005C15.7336 7.5269 17.2156 7.04523 18.5293 7.54124L19.852 8.04061C20.4677 8.2731 21.1429 8.29662 21.7734 8.10755L23.1275 7.70146Z" fill="#F9B66F"/>
<circle cx="20.4149" cy="19.4159" r="8.16588" fill="#CC7051"/>
<path d="M22.6895 15.3906L18.1455 23.4386" stroke="white" stroke-width="1.3" stroke-miterlimit="10" stroke-linecap="round" stroke-linejoin="round"/>
<path d="M18.3978 17.6901C18.9286 17.6901 19.359 17.1753 19.359 16.5403C19.359 15.9054 18.9286 15.3906 18.3978 15.3906C17.8669 15.3906 17.4365 15.9054 17.4365 16.5403C17.4365 17.1753 17.8669 17.6901 18.3978 17.6901Z" stroke="white" stroke-width="1.3" stroke-miterlimit="10" stroke-linecap="round" stroke-linejoin="round"/>
<path d="M22.4261 23.4401C22.957 23.4401 23.3873 22.9253 23.3873 22.2903C23.3873 21.6554 22.957 21.1406 22.4261 21.1406C21.8952 21.1406 21.4648 21.6554 21.4648 22.2903C21.4648 22.9253 21.8952 23.4401 22.4261 23.4401Z" stroke="white" stroke-width="1.3" stroke-miterlimit="10" stroke-linecap="round" stroke-linejoin="round"/>
</svg>
