<svg width="40" height="40" viewBox="0 0 40 40" fill="none" xmlns="http://www.w3.org/2000/svg">
<rect width="40" height="40" rx="20" fill="#DCEDFF"/>
<path d="M25.5509 11.3359H13.0721C11.2114 11.3359 9.70312 12.8443 9.70312 14.7049V27.1529C9.70312 29.0135 11.2114 30.5218 13.0721 30.5218H27.75C28.8546 30.5218 29.75 29.6264 29.75 28.5218V17.8486C29.75 16.744 28.8546 15.8486 27.75 15.8486H27.5509V13.3359C27.5509 12.2314 26.6555 11.3359 25.5509 11.3359Z" fill="#CC7051"/>
<path d="M24.2891 23.9603V22.25C24.2891 21.6977 24.7368 21.25 25.2891 21.25H29.8142C30.3665 21.25 30.8142 21.6977 30.8142 22.25V23.9603C30.8142 24.5126 30.3665 24.9603 29.8142 24.9603H25.2891C24.7368 24.9603 24.2891 24.5126 24.2891 23.9603Z" fill="#F9B66F"/>
<path d="M26.3827 11.3359H11.9444C10.7066 11.3359 9.70312 12.3394 9.70312 13.5772C9.70312 14.8151 10.7066 15.8186 11.9444 15.8186H27.5509V12.5041C27.5509 11.859 27.0279 11.3359 26.3827 11.3359Z" fill="#F9B66F"/>
<mask id="mask0_6193_19461" style="mask-type:alpha" maskUnits="userSpaceOnUse" x="15" y="4" width="14" height="12">
<rect x="15.4922" y="4.44531" width="13.4986" height="11.3697" fill="#C4C4C4"/>
</mask>
<g mask="url(#mask0_6193_19461)">
<path d="M22.772 19.3332C25.9521 18.7879 28.0879 15.7678 27.5426 12.5878C26.9972 9.40769 23.9771 7.27185 20.7971 7.81722C17.617 8.36258 15.4812 11.3826 16.0265 14.5627C16.5719 17.7428 19.592 19.8786 22.772 19.3332Z" fill="#59B377"/>
<path d="M21.8186 13.0611C21.3889 13.0568 21.0469 12.8815 20.9635 12.6228C20.8867 12.402 20.9678 12.1931 21.1756 12.0405C21.7363 11.6714 22.1487 12.0296 22.2439 12.1303L22.6086 11.7558L22.9734 11.3812C22.7385 11.1486 22.3391 10.8661 21.7892 10.8434L21.6853 10.2373L20.6625 10.4127L20.7729 11.0567C20.7037 11.1076 20.6279 11.1205 20.5586 11.1714C19.9666 11.5849 19.7296 12.2495 19.9158 12.8805C20.089 13.4357 20.6541 14.0017 21.678 14.0601C22.1077 14.0644 22.4497 14.2397 22.5331 14.4984C22.6099 14.7192 22.5288 14.9281 22.3209 15.0807C21.7603 15.4499 21.3479 15.0916 21.2527 14.991L20.8879 15.3655L20.5232 15.74C20.7581 15.9727 21.151 16.2173 21.7073 16.2779L21.8243 16.9597L22.8471 16.7843L22.7236 16.0646C22.7929 16.0137 22.8687 16.0007 22.9379 15.9498C23.53 15.5363 23.7669 14.8718 23.5807 14.2408C23.4075 13.6855 22.836 13.0816 21.8186 13.0611Z" fill="white"/>
</g>
<circle cx="26.0705" cy="23.1018" r="0.828336" fill="#814743"/>
</svg>
