<svg width="40" height="40" viewBox="0 0 40 40" fill="none" xmlns="http://www.w3.org/2000/svg">
<rect width="40" height="40" rx="20" fill="#DCEDFF"/>
<path fill-rule="evenodd" clip-rule="evenodd" d="M33.2301 26.8828V29.9565H33.23C33.2301 29.958 33.2301 29.9594 33.2301 29.9608C33.2301 30.9488 29.0494 31.7497 23.8924 31.7497C18.7353 31.7497 14.5547 30.9488 14.5547 29.9608C14.5547 29.9594 14.5547 29.958 14.5547 29.9565H14.5547V26.8828H33.2301Z" fill="#3A7D50"/>
<ellipse cx="23.8924" cy="26.9296" rx="9.33769" ry="1.78893" fill="#59B278"/>
<path fill-rule="evenodd" clip-rule="evenodd" d="M33.2301 22.8047V25.8784H33.23C33.2301 25.8798 33.2301 25.8813 33.2301 25.8827C33.2301 26.8707 29.0494 27.6716 23.8924 27.6716C18.7353 27.6716 14.5547 26.8707 14.5547 25.8827C14.5547 25.8813 14.5547 25.8798 14.5547 25.8784H14.5547V22.8047H33.2301Z" fill="#3A7D50"/>
<ellipse cx="23.8924" cy="22.8514" rx="9.33769" ry="1.78893" fill="#59B278"/>
<path d="M16.0458 31.7713C21.3135 31.7713 25.5838 27.501 25.5838 22.2333C25.5838 16.9656 21.3135 12.6953 16.0458 12.6953C10.7781 12.6953 6.50781 16.9656 6.50781 22.2333C6.50781 27.501 10.7781 31.7713 16.0458 31.7713Z" fill="#458B5C"/>
<rect x="13.4922" y="12.6953" width="2.75677" height="19.0505" fill="#458B5C"/>
<path d="M13.5067 31.7713C18.7744 31.7713 23.0447 27.501 23.0447 22.2333C23.0447 16.9656 18.7744 12.6953 13.5067 12.6953C8.23904 12.6953 3.96875 16.9656 3.96875 22.2333C3.96875 27.501 8.23904 31.7713 13.5067 31.7713Z" fill="#59B377"/>
<path d="M13.6933 21.4167C13.0031 21.2912 12.5011 20.9147 12.4383 20.4754C12.3756 20.0989 12.5638 19.7852 12.9403 19.5969C13.9443 19.1577 14.5091 19.8479 14.6346 20.0362L15.3248 19.5342L16.0151 19.0322C15.7013 18.5929 15.1366 18.0282 14.2581 17.8399V16.8359H12.5638V17.9027C12.4383 17.9654 12.3128 17.9654 12.1873 18.0282C11.1206 18.5302 10.5558 19.5342 10.6813 20.6009C10.8068 21.5422 11.5598 22.6089 13.1913 22.9854C13.8816 23.1109 14.3836 23.4874 14.4463 23.9267C14.5091 24.3032 14.3208 24.6169 13.9443 24.8052C12.9403 25.2444 12.3756 24.5542 12.2501 24.3659L11.5598 24.8679L10.8696 25.3699C11.1833 25.8092 11.7481 26.3112 12.6266 26.5622V27.6917H14.3208V26.4994C14.4463 26.4367 14.5718 26.4367 14.6973 26.3739C15.7641 25.8719 16.3288 24.8679 16.2033 23.8012C16.0778 22.8599 15.3248 21.7304 13.6933 21.4167Z" fill="white"/>
<path d="M30.3804 15.7482L25.5749 12.9737C25.2415 12.7812 25.2416 12.2999 25.5751 12.1075L30.3149 9.37445C30.6459 9.18357 31.0601 9.41953 31.0646 9.80164L31.1303 15.3092C31.135 15.6967 30.716 15.9419 30.3804 15.7482Z" fill="#F36565"/>
<path d="M29.1641 12.1641L26.3965 16.9576" stroke="#F36565" stroke-width="3" stroke-linecap="round" stroke-linejoin="round"/>
</svg>
