<svg width="40" height="40" viewBox="0 0 40 40" fill="none" xmlns="http://www.w3.org/2000/svg">
<rect width="40" height="40" rx="20" fill="#DCEDFF"/>
<rect x="8.40625" y="22.4375" width="6.02592" height="7.06868" rx="1" fill="#EB934E"/>
<rect x="16.3047" y="17.9375" width="6.02592" height="11.5687" rx="1" fill="#EB934E"/>
<rect x="24.1953" y="13.4375" width="6.02592" height="16.0686" rx="1" fill="#EB934E"/>
<path d="M21.7734 13.6872L18.9404 8.916C18.7439 8.58494 18.9795 8.16526 19.3645 8.16077L24.8354 8.09689C25.2175 8.09243 25.4632 8.50087 25.2802 8.83633L22.6422 13.6714C22.4566 14.0116 21.9712 14.0205 21.7734 13.6872Z" fill="#F36565"/>
<path fill-rule="evenodd" clip-rule="evenodd" d="M23.7902 9.25884C24.1823 9.98861 23.9086 10.898 23.1788 11.2901L10.8039 17.9388C10.0741 18.3309 9.16466 18.0572 8.77257 17.3274C8.38049 16.5976 8.65424 15.6882 9.38401 15.2961L21.7589 8.64741C22.4887 8.25532 23.3981 8.52907 23.7902 9.25884Z" fill="#F36565"/>
</svg>
