<svg width="40" height="40" viewBox="0 0 40 40" fill="none" xmlns="http://www.w3.org/2000/svg">
<rect width="40" height="40" rx="20" fill="#DCEDFF"/>
<rect x="9.09375" y="24.1641" width="6.02592" height="7.06868" rx="1" fill="#EB934E"/>
<rect x="16.9922" y="19.6641" width="6.02592" height="11.5687" rx="1" fill="#EB934E"/>
<rect x="24.8828" y="15.1641" width="6.02592" height="16.0686" rx="1" fill="#EB934E"/>
<path fill-rule="evenodd" clip-rule="evenodd" d="M21.7291 14.1662L22.4697 15.4136C22.6676 15.7469 23.153 15.738 23.3386 15.3978L25.9766 10.5627C26.1596 10.2273 25.9139 9.81882 25.5318 9.82328L20.0609 9.88715C19.6759 9.89165 19.4402 10.3113 19.6368 10.6424L20.1961 11.5843L10.0687 17.0254C9.33891 17.4175 9.06517 18.3269 9.45725 19.0567C9.84933 19.7865 10.7588 20.0602 11.4885 19.6681L21.7291 14.1662Z" fill="#59B277"/>
</svg>
