<svg width="40" height="40" viewBox="0 0 40 40" fill="none" xmlns="http://www.w3.org/2000/svg">
<rect width="40" height="40" rx="20" fill="#DCEDFF"/>
<mask id="mask0_6193_19477" style="mask-type:alpha" maskUnits="userSpaceOnUse" x="6" y="7" width="23" height="24">
<path d="M17.7152 7.1875L28.9773 11.7923V26.3834L17.7152 30.9882L6.45312 26.3834V11.7923L17.7152 7.1875Z" fill="#C4C4C4"/>
</mask>
<g mask="url(#mask0_6193_19477)">
<path d="M17.7152 7.1875L28.9773 11.7923V26.3834L17.7152 30.9882L6.45312 26.3834V11.7923L17.7152 7.1875Z" fill="#EB934E"/>
<path d="M7.90951 21.7422L11.8184 23.3431V26.1835L7.90951 24.5817V21.7422Z" fill="white"/>
<path d="M28.9799 11.7891H17.7178V30.9849L28.9799 26.3801V11.7891Z" fill="#CC7051"/>
<path d="M26.4569 31.5635C29.7144 31.5635 32.3551 28.9574 32.3551 25.7427C32.3551 22.5279 29.7144 19.9219 26.4569 19.9219C23.1993 19.9219 20.5586 22.5279 20.5586 25.7427C20.5586 28.9574 23.1993 31.5635 26.4569 31.5635Z" fill="#BD5F40"/>
<path d="M24.5565 13.4219H22.2344V18.3149L24.5565 17.3654V13.4219Z" fill="#814743"/>
<path d="M28.9773 11.7923L17.7152 7.1875L6.45312 11.7923L17.7152 16.4993L28.9773 11.7923Z" fill="#F9B66F"/>
<path d="M24.546 13.6465L22.213 14.6215L11.0225 9.92607L13.3256 8.98438L24.546 13.6465Z" fill="#BF684F"/>
</g>
<path d="M28.4521 30.76C31.4848 30.76 33.9433 28.3338 33.9433 25.3409C33.9433 22.3481 31.4848 19.9219 28.4521 19.9219C25.4194 19.9219 22.9609 22.3481 22.9609 25.3409C22.9609 28.3338 25.4194 30.76 28.4521 30.76Z" fill="#59B377"/>
<path d="M28.5604 24.8838C28.163 24.8125 27.874 24.5986 27.8379 24.349C27.8017 24.1351 27.9101 23.9569 28.1269 23.8499C28.7049 23.6004 29.03 23.9925 29.1023 24.0995L29.4997 23.8143L29.8971 23.5291C29.7164 23.2795 29.3913 22.9586 28.8855 22.8517V22.2812H27.9101V22.8873C27.8379 22.923 27.7656 22.923 27.6934 22.9586C27.0792 23.2438 26.7541 23.8143 26.8263 24.4204C26.8986 24.9551 27.3321 25.5612 28.2714 25.7751C28.6688 25.8464 28.9578 26.0603 28.9939 26.3099C29.03 26.5238 28.9217 26.7021 28.7049 26.809C28.1269 27.0586 27.8017 26.6664 27.7295 26.5595L27.3321 26.8447L26.9347 27.1299C27.1154 27.3794 27.4405 27.6647 27.9463 27.8073V28.449H28.9217V27.7716C28.9939 27.736 29.0662 27.736 29.1384 27.7003C29.7526 27.4151 30.0777 26.8447 30.0054 26.2386C29.9332 25.7038 29.4997 25.0621 28.5604 24.8838Z" fill="white"/>
</svg>
