<svg width="40" height="40" viewBox="0 0 40 40" fill="none" xmlns="http://www.w3.org/2000/svg">
<rect width="40" height="40" rx="20" fill="#DCEDFF"/>
<path d="M12.7624 30.0234L32.6719 30.0234C33.5003 30.0234 34.1719 29.3519 34.1719 28.5234V21.0556C34.1719 20.2272 33.5003 19.5556 32.6719 19.5556H12.7624V30.0234Z" fill="#EB934E"/>
<path d="M20.3522 19.6328H29.0234V11.4882C29.0234 10.6597 28.3519 9.98816 27.5234 9.98816L20.3522 9.98816V19.6328Z" fill="#CC7051"/>
<path d="M20.4121 9.98438H12.5313C11.7028 9.98438 11.0312 10.6559 11.0312 11.4844V19.6129H21.9121V11.4844C21.9121 10.6559 21.2405 9.98438 20.4121 9.98438Z" fill="#F9B66F"/>
<path d="M25.9693 19.6172H16.4375V30.0247H25.9693C26.7977 30.0247 27.4693 29.3531 27.4693 28.5247V21.1172C27.4693 20.2888 26.7977 19.6172 25.9693 19.6172Z" fill="#F9B66F"/>
<mask id="mask0_6193_7371" style="mask-type:alpha" maskUnits="userSpaceOnUse" x="16" y="19" width="12" height="12">
<path d="M25.9693 19.6172H16.4375V30.0247H25.9693C26.7977 30.0247 27.4693 29.3531 27.4693 28.5247V21.1172C27.4693 20.2888 26.7977 19.6172 25.9693 19.6172Z" fill="#F9B66F"/>
</mask>
<g mask="url(#mask0_6193_7371)">
<path d="M28.0727 25.7422H18.1094C17.5571 25.7422 17.1094 26.1899 17.1094 26.7422V30.2743C17.1094 30.8266 17.5571 31.2743 18.1094 31.2743H28.0727C28.6249 31.2743 29.0727 30.8266 29.0727 30.2743V26.7422C29.0727 26.1899 28.6249 25.7422 28.0727 25.7422Z" fill="#F1A45E"/>
</g>
<path d="M17.7993 9.98438H15.1406V12.2119H17.7993V9.98438Z" fill="#CC7051"/>
<path d="M16.4359 19.2266H7.33594C6.50751 19.2266 5.83594 19.8981 5.83594 20.7266V28.5235C5.83594 29.352 6.50751 30.0235 7.33594 30.0235H16.4359V19.2266Z" fill="#F9B66F"/>
<path d="M21.9121 19.4219H11.0312" stroke="#CC7051" stroke-width="0.5" stroke-miterlimit="10"/>
<path d="M23.2446 19.6172H20.5859V21.8608H23.2446V19.6172Z" fill="#CC7051"/>
<path d="M16.4375 30.0247L16.4375 19.6172" stroke="#CC7051" stroke-width="0.5" stroke-miterlimit="10"/>
<path d="M12.3618 19.2266H9.70312V21.8435H12.3618V19.2266Z" fill="#CC7051"/>
<path d="M21.8516 26.8037L24.6399 23.6875L27.5326 26.8037" stroke="white" stroke-linecap="round" stroke-linejoin="round"/>
<path d="M29.6742 26.3438H19.7109C19.1587 26.3438 18.7109 26.7915 18.7109 27.3438V30.8759C18.7109 31.4282 19.1587 31.8759 19.7109 31.8759H29.6742C30.2265 31.8759 30.6742 31.4282 30.6742 30.8759V27.3438C30.6742 26.7915 30.2265 26.3438 29.6742 26.3438Z" fill="#F36565"/>
<path d="M21.9141 28.5H27.4694" stroke="white" stroke-linecap="round" stroke-linejoin="round"/>
<path d="M23.2031 30.1172H26.1799" stroke="white" stroke-linecap="round" stroke-linejoin="round"/>
</svg>
