<svg width="40" height="40" viewBox="0 0 40 40" fill="none" xmlns="http://www.w3.org/2000/svg">
<rect width="40" height="40" rx="20" fill="#DCEDFF"/>
<path d="M23.5411 31.1369C28.8925 31.1369 33.2306 26.7987 33.2306 21.4473C33.2306 16.096 28.8925 11.7578 23.5411 11.7578C18.1897 11.7578 13.8516 16.096 13.8516 21.4473C13.8516 26.7987 18.1897 31.1369 23.5411 31.1369Z" fill="#458B5C"/>
<rect x="20.9531" y="11.7578" width="2.80057" height="19.3532" fill="#458B5C"/>
<mask id="mask0_6193_19439" style="mask-type:alpha" maskUnits="userSpaceOnUse" x="11" y="11" width="20" height="21">
<path d="M20.963 31.1369C26.3143 31.1369 30.6525 26.7987 30.6525 21.4473C30.6525 16.096 26.3143 11.7578 20.963 11.7578C15.6116 11.7578 11.2734 16.096 11.2734 21.4473C11.2734 26.7987 15.6116 31.1369 20.963 31.1369Z" fill="#59B377"/>
</mask>
<g mask="url(#mask0_6193_19439)">
<path d="M20.963 31.1369C26.3143 31.1369 30.6525 26.7987 30.6525 21.4473C30.6525 16.096 26.3143 11.7578 20.963 11.7578C15.6116 11.7578 11.2734 16.096 11.2734 21.4473C11.2734 26.7987 15.6116 31.1369 20.963 31.1369Z" fill="#59B377"/>
<circle cx="13.3052" cy="15.9927" r="5.17242" fill="#458B5C"/>
<path d="M21.1555 20.6223C20.4543 20.4948 19.9443 20.1123 19.8806 19.6661C19.8168 19.2836 20.0081 18.9649 20.3905 18.7736C21.4105 18.3274 21.9842 19.0286 22.1117 19.2198L22.8129 18.7099L23.5141 18.1999C23.1954 17.7537 22.6217 17.1799 21.7292 16.9887V15.9688H20.0081V17.0524C19.8806 17.1162 19.7531 17.1162 19.6256 17.1799C18.5419 17.6899 17.9682 18.7099 18.0957 19.7936C18.2232 20.7498 18.9881 21.8335 20.6455 22.2159C21.3467 22.3434 21.8567 22.7259 21.9205 23.1721C21.9842 23.5546 21.793 23.8734 21.4105 24.0646C20.3905 24.5108 19.8168 23.8096 19.6893 23.6184L18.9881 24.1283L18.2869 24.6383C18.6056 25.0846 19.1794 25.5945 20.0718 25.8495V26.997H21.793V25.7858C21.9205 25.722 22.048 25.722 22.1755 25.6583C23.2592 25.1483 23.8329 24.1283 23.7054 23.0447C23.5779 22.0884 22.8129 20.941 21.1555 20.6223Z" fill="white"/>
</g>
<circle cx="12.8365" cy="14.0318" r="5.17242" fill="#F36565"/>
<path d="M14.3762 12.3125L11.0312 15.6574" stroke="white" stroke-width="1.45343" stroke-linecap="round"/>
<path d="M14.375 15.6574L11.0301 12.3125" stroke="white" stroke-width="1.45343" stroke-linecap="round"/>
</svg>
