<svg width="40" height="40" viewBox="0 0 40 40" fill="none" xmlns="http://www.w3.org/2000/svg">
<path d="M8 11.2198C8 10.7431 8.33646 10.3327 8.80388 10.2392L19.8039 8.03922C19.9333 8.01333 20.0667 8.01333 20.1961 8.03922L31.1961 10.2392C31.6635 10.3327 32 10.7431 32 11.2198V20C32 26.6274 26.6274 32 20 32C13.3726 32 8 26.6274 8 20V11.2198Z" fill="#F6D14B"/>
<path d="M20.833 24.3208V17.3896H22.1674V18.0136C22.4842 17.4952 23.0698 17.2744 23.7226 17.2744C24.9802 17.2744 25.9498 18.292 25.9498 19.8856C25.9498 21.4888 25.009 22.516 23.7226 22.516C23.137 22.516 22.5898 22.3048 22.2538 21.8536V24.3208H20.833ZM22.1674 19.8952C22.1674 20.8264 22.6474 21.3256 23.329 21.3256C24.0106 21.3256 24.4906 20.8264 24.4906 19.8952C24.4906 18.964 24.0106 18.4552 23.329 18.4552C22.6474 18.4552 22.1674 18.964 22.1674 19.8952Z" fill="white"/>
<path d="M14.3252 22.4008V15.6328H17.234C18.7796 15.6328 19.6532 16.372 19.6532 17.572C19.6532 18.6376 18.9524 19.3384 17.6948 19.4824L20.1236 22.4008H18.29L15.8228 19.2616V22.4008H14.3252ZM15.8228 18.3016H17.1764C17.81 18.3016 18.1844 18.0616 18.1844 17.572C18.1844 17.0728 17.81 16.8232 17.1764 16.8232H15.8228V18.3016Z" fill="white"/>
</svg>
