<svg width="40" height="40" viewBox="0 0 40 40" fill="none" xmlns="http://www.w3.org/2000/svg">
<rect x="8" y="8" width="24" height="24" rx="3" fill="#F6D14B"/>
<path d="M16 16V8H24V16L20 14L16 16Z" fill="white"/>
<path d="M25.0342 23.7468V19H28.1214V19.7208H25.8941V21.0095H27.9615V21.7303H25.8941V23.026H28.14V23.7468H25.0342Z" fill="white"/>
<path d="M21.0693 23.7468V19H24.1566V19.7208H21.9292V21.0095H23.9966V21.7303H21.9292V23.026H24.1751V23.7468H21.0693Z" fill="white"/>
<path d="M16.8243 23.7468V19H18.6044C18.969 19 19.275 19.0634 19.5222 19.1901C19.771 19.3168 19.9587 19.4945 20.0854 19.7231C20.2137 19.9503 20.2778 20.2153 20.2778 20.5181C20.2778 20.8225 20.2129 21.0868 20.0831 21.3108C19.9548 21.5333 19.7656 21.7056 19.5152 21.8277C19.2649 21.9482 18.9574 22.0085 18.5928 22.0085H17.3249V21.2946H18.4769C18.6901 21.2946 18.8647 21.2652 19.0007 21.2065C19.1367 21.1463 19.2371 21.0589 19.302 20.9446C19.3684 20.8287 19.4017 20.6866 19.4017 20.5181C19.4017 20.3497 19.3684 20.206 19.302 20.087C19.2356 19.9665 19.1344 19.8753 18.9984 19.8135C18.8624 19.7502 18.687 19.7185 18.4722 19.7185H17.6842V23.7468H16.8243ZM19.2765 21.5959L20.4516 23.7468H19.4921L18.3378 21.5959H19.2765Z" fill="white"/>
<path d="M13 23.7468V19H16.0409V19.7208H13.8599V21.0095H15.8323V21.7303H13.8599V23.7468H13Z" fill="white"/>
</svg>
