<svg width="40" height="40" viewBox="0 0 40 40" fill="none" xmlns="http://www.w3.org/2000/svg">
<path d="M6.00071 30.1833L12.366 19.1582L19.7161 23.4017L13.3507 34.4268L11.2671 29.5488L6.00071 30.1833Z" fill="#F0C734"/>
<path d="M33.9993 30.3913L27.634 19.3662L20.2839 23.6098L26.6493 34.6348L28.7329 29.7568L33.9993 30.3913Z" fill="#F0C734"/>
<path d="M19.0913 6.05623C19.4805 5.67334 20.1048 5.67334 20.494 6.05623L23.2506 8.76835C23.4356 8.95041 23.6842 9.05338 23.9438 9.05549L27.8107 9.08693C28.3567 9.09137 28.7981 9.53284 28.8026 10.0788L28.834 13.9457C28.8361 14.2053 28.9391 14.4539 29.1211 14.6389L31.8333 17.3955C32.2162 17.7847 32.2162 18.409 31.8333 18.7982L29.1211 21.5548C28.9391 21.7398 28.8361 21.9884 28.834 22.248L28.8026 26.1149C28.7981 26.6609 28.3567 27.1023 27.8107 27.1068L23.9438 27.1382C23.6842 27.1403 23.4356 27.2433 23.2506 27.4253L20.494 30.1375C20.1048 30.5204 19.4805 30.5204 19.0913 30.1375L16.3347 27.4253C16.1497 27.2433 15.9011 27.1403 15.6415 27.1382L11.7746 27.1068C11.2286 27.1023 10.7872 26.6609 10.7827 26.1149L10.7513 22.248C10.7492 21.9884 10.6462 21.7398 10.4642 21.5548L7.75203 18.7982C7.36914 18.409 7.36914 17.7847 7.75203 17.3955L10.4642 14.6389C10.6462 14.4539 10.7492 14.2053 10.7513 13.9457L10.7827 10.0788C10.7872 9.53284 11.2286 9.09137 11.7746 9.08693L15.6415 9.05549C15.9011 9.05338 16.1497 8.95041 16.3347 8.76835L19.0913 6.05623Z" fill="#F6D14B"/>
<path d="M20.3002 20.6356V20.1474C20.3002 19.7767 20.3786 19.4361 20.5353 19.1257C20.695 18.8122 20.9256 18.5621 21.227 18.3752C21.5314 18.1853 21.9021 18.0904 22.3391 18.0904C22.7821 18.0904 23.1544 18.1838 23.4557 18.3707C23.7602 18.5575 23.9892 18.8077 24.1429 19.1211C24.2996 19.4316 24.378 19.7737 24.378 20.1474V20.6356C24.378 21.0063 24.2996 21.3484 24.1429 21.6618C23.9862 21.9723 23.7556 22.2209 23.4512 22.4078C23.1468 22.5977 22.7761 22.6926 22.3391 22.6926C21.8961 22.6926 21.5238 22.5977 21.2225 22.4078C20.9211 22.2209 20.692 21.9723 20.5353 21.6618C20.3786 21.3484 20.3002 21.0063 20.3002 20.6356ZM21.6158 20.1474V20.6356C21.6158 20.8496 21.667 21.0515 21.7695 21.2414C21.875 21.4313 22.0648 21.5262 22.3391 21.5262C22.6134 21.5262 22.8002 21.4328 22.8997 21.2459C23.0022 21.0591 23.0534 20.8556 23.0534 20.6356V20.1474C23.0534 19.9274 23.0052 19.7224 22.9087 19.5325C22.8123 19.3427 22.6224 19.2477 22.3391 19.2477C22.0679 19.2477 21.8795 19.3427 21.774 19.5325C21.6685 19.7224 21.6158 19.9274 21.6158 20.1474ZM15.5488 15.3372V14.849C15.5488 14.4752 15.6287 14.1332 15.7884 13.8227C15.9482 13.5093 16.1787 13.2591 16.4801 13.0723C16.7845 12.8854 17.1522 12.792 17.5832 12.792C18.0293 12.792 18.403 12.8854 18.7044 13.0723C19.0058 13.2591 19.2348 13.5093 19.3915 13.8227C19.5483 14.1332 19.6266 14.4752 19.6266 14.849V15.3372C19.6266 15.7109 19.5467 16.053 19.387 16.3634C19.2303 16.6739 18.9997 16.9225 18.6953 17.1094C18.3939 17.2932 18.0232 17.3851 17.5832 17.3851C17.1432 17.3851 16.771 17.2917 16.4666 17.1049C16.1652 16.915 15.9361 16.6663 15.7794 16.3589C15.6257 16.0485 15.5488 15.7079 15.5488 15.3372ZM16.8734 14.849V15.3372C16.8734 15.5572 16.9247 15.7607 17.0271 15.9475C17.1326 16.1344 17.318 16.2278 17.5832 16.2278C17.8605 16.2278 18.0488 16.1344 18.1483 15.9475C18.2508 15.7607 18.302 15.5572 18.302 15.3372V14.849C18.302 14.629 18.2538 14.424 18.1573 14.2341C18.0609 14.0443 17.8695 13.9493 17.5832 13.9493C17.315 13.9493 17.1296 14.0458 17.0271 14.2387C16.9247 14.4315 16.8734 14.635 16.8734 14.849ZM16.1456 22.3716L22.5109 13.113H23.6954L17.33 22.3716H16.1456Z" fill="white"/>
</svg>
