<svg width="40" height="40" viewBox="0 0 40 40" fill="none" xmlns="http://www.w3.org/2000/svg">
<path fill-rule="evenodd" clip-rule="evenodd" d="M26.9824 32C28.8045 32 30.354 30.7036 30.6311 28.9474L31.9563 20.5474C32.3003 18.3667 30.5701 16.4 28.3076 16.4H23.9969C23.3173 16.4 22.7663 15.8627 22.7663 15.2V10.959C22.7663 9.32479 21.4079 8 19.7321 8C19.3324 8 18.9701 8.22955 18.8078 8.58575L14.4774 18.0874C14.2799 18.5207 13.8392 18.8 13.353 18.8H12.5V32H26.9824ZM11.5 32V18.8H10.4611C9.10185 18.8 8 19.8745 8 21.2V29.6C8 30.9255 9.10185 32 10.4611 32H11.5Z" fill="#F6D14B"/>
<path fill-rule="evenodd" clip-rule="evenodd" d="M26.9689 20.3536L21.2308 26.0918L17.6465 22.5074L18.3536 21.8003L21.2308 24.6775L26.2618 19.6465L26.9689 20.3536Z" fill="white"/>
</svg>
