<svg width="40" height="40" viewBox="0 0 40 40" fill="none" xmlns="http://www.w3.org/2000/svg">
<path d="M6.00071 29.8649L12.366 18.8398L19.7161 23.0834L13.3507 34.1084L11.2671 29.2304L6.00071 29.8649Z" fill="#F0C734"/>
<path d="M33.9994 30.0729L27.634 19.0479L20.284 23.2914L26.6493 34.3165L28.733 29.4384L33.9994 30.0729Z" fill="#F0C734"/>
<circle cx="19.9998" cy="17.6826" r="12" fill="#F6D14B"/>
<path d="M19.9988 12L21.8891 15.3982L25.7051 16.1459L23.0574 18.9938L23.5255 22.8541L19.9988 21.216L16.4721 22.8541L16.9402 18.9938L14.2924 16.1459L18.1085 15.3982L19.9988 12Z" fill="white"/>
<path fill-rule="evenodd" clip-rule="evenodd" d="M19.9995 25.6826C24.4178 25.6826 27.9995 22.1009 27.9995 17.6826C27.9995 13.2643 24.4178 9.68262 19.9995 9.68262C15.5812 9.68262 11.9995 13.2643 11.9995 17.6826C11.9995 22.1009 15.5812 25.6826 19.9995 25.6826ZM19.9995 26.6826C24.9701 26.6826 28.9995 22.6532 28.9995 17.6826C28.9995 12.7121 24.9701 8.68262 19.9995 8.68262C15.0289 8.68262 10.9995 12.7121 10.9995 17.6826C10.9995 22.6532 15.0289 26.6826 19.9995 26.6826Z" fill="white"/>
</svg>
