<svg width="40" height="40" viewBox="0 0 40 40" fill="none" xmlns="http://www.w3.org/2000/svg">
<path d="M8 11.2198C8 10.7431 8.33646 10.3327 8.80388 10.2392L19.8039 8.03922C19.9333 8.01333 20.0667 8.01333 20.1961 8.03922L31.1961 10.2392C31.6635 10.3327 32 10.7431 32 11.2198V20C32 26.6274 26.6274 32 20 32C13.3726 32 8 26.6274 8 20V11.2198Z" fill="#F6D14B"/>
<path fill-rule="evenodd" clip-rule="evenodd" d="M26.7071 16.2929C27.0976 16.6834 27.0976 17.3166 26.7071 17.7071L20.2071 24.2071C19.8166 24.5976 19.1834 24.5976 18.7929 24.2071L15.2929 20.7071C14.9024 20.3166 14.9024 19.6834 15.2929 19.2929C15.6834 18.9024 16.3166 18.9024 16.7071 19.2929L19.5 22.0858L25.2929 16.2929C25.6834 15.9024 26.3166 15.9024 26.7071 16.2929Z" fill="white"/>
</svg>
