<svg width="21" height="20" viewBox="0 0 21 20" fill="none" xmlns="http://www.w3.org/2000/svg">
<path d="M15.4169 8.98602C15.6291 8.43026 15.7454 7.82708 15.7454 7.19675C15.7454 4.4259 13.4992 2.17969 10.7283 2.17969C7.95746 2.17969 5.71124 4.4259 5.71124 7.19675C5.71124 7.82708 5.82748 8.43026 6.0397 8.98602" stroke="#93a6ff" stroke-width="1.3"/>
<path d="M12.3119 8.86779C12.7538 8.44862 13.0294 7.85582 13.0294 7.19865C13.0294 5.92828 11.9996 4.89844 10.7292 4.89844C9.45885 4.89844 8.42902 5.92828 8.42902 7.19865C8.42902 7.85582 8.70461 8.44862 9.14653 8.86779" stroke="#93a6ff" stroke-width="1.3"/>
<path d="M7.90067 16.0568L4.38995 12.6681C5.17163 10.767 7.22184 9.71893 9.2206 10.1986L9.30023 10.2177C9.62631 10.296 9.96048 10.3355 10.2958 10.3355H13.5611C14.1916 10.3355 14.6412 10.9469 14.4533 11.5487C14.2502 12.1993 13.6478 12.6423 12.9663 12.6423H11.0991C11.023 12.6423 10.9613 12.704 10.9613 12.7801C10.9613 12.8562 11.023 12.9179 11.0991 12.9179H13.6817C14.1941 12.9179 14.6921 12.7481 15.0978 12.4351L17.613 10.4943C17.9809 10.2104 18.501 10.2379 18.8369 10.559C19.2109 10.9165 19.2257 11.5089 18.8701 11.8847L15.3702 15.5832C15.0842 15.8855 14.6863 16.0568 14.2702 16.0568H7.90067Z" stroke="#93a6ff" stroke-width="1.3"/>
<rect width="6.14679" height="2.71522" rx="1" transform="matrix(0.722871 0.690983 -0.722871 0.690983 3.94073 12.2148)" stroke="#93a6ff" stroke-width="1.3"/>
</svg>
