<svg width="21" height="20" viewBox="0 0 21 20" fill="none" xmlns="http://www.w3.org/2000/svg">
<path d="M14.9323 8.98602C15.1445 8.43026 15.2608 7.82708 15.2608 7.19675C15.2608 4.4259 13.0145 2.17969 10.2437 2.17969C7.47284 2.17969 5.22662 4.4259 5.22662 7.19675C5.22662 7.82708 5.34286 8.43026 5.55508 8.98602" stroke="#93a6ff" stroke-width="1.3"/>
<path d="M11.8273 8.86779C12.2692 8.44862 12.5448 7.85582 12.5448 7.19865C12.5448 5.92828 11.515 4.89844 10.2446 4.89844C8.97424 4.89844 7.9444 5.92828 7.9444 7.19865C7.9444 7.85582 8.21999 8.44862 8.66191 8.86779" stroke="#93a6ff" stroke-width="1.3"/>
<path d="M7.41605 16.0568L3.90533 12.6681C4.68701 10.767 6.73722 9.71893 8.73598 10.1986L8.81561 10.2177C9.14169 10.296 9.47586 10.3355 9.8112 10.3355H13.0765C13.707 10.3355 14.1566 10.9469 13.9687 11.5487C13.7656 12.1993 13.1632 12.6423 12.4817 12.6423H10.6145C10.5384 12.6423 10.4767 12.704 10.4767 12.7801C10.4767 12.8562 10.5384 12.9179 10.6145 12.9179H13.197C13.7095 12.9179 14.2074 12.7481 14.6131 12.4351L17.1284 10.4943C17.4963 10.2104 18.0164 10.2379 18.3523 10.559C18.7263 10.9165 18.7411 11.5089 18.3855 11.8847L14.8856 15.5832C14.5995 15.8855 14.2017 16.0568 13.7856 16.0568H7.41605Z" stroke="#93a6ff" stroke-width="1.3"/>
<rect width="6.14679" height="2.71522" rx="1" transform="matrix(0.722871 0.690983 -0.722871 0.690983 3.45612 12.2148)" stroke="#93a6ff" stroke-width="1.3"/>
<path d="M2.24323 2L18.2432 18" stroke="#93a6ff" stroke-width="1.3"/>
</svg>
