<svg width="20" height="20" viewBox="0 0 20 20" fill="none" xmlns="http://www.w3.org/2000/svg">
<path d="M7.97527 2.12271C8.91011 0.625763 11.09 0.625763 12.0248 2.12271L12.6632 3.14482C13.0838 3.81832 13.8117 4.2386 14.6053 4.2661L15.8096 4.30784C17.5734 4.36896 18.6634 6.2568 17.8344 7.81487L17.2684 8.87872C16.8954 9.57972 16.8954 10.4203 17.2684 11.1213L17.8344 12.1851C18.6634 13.7432 17.5734 15.631 15.8096 15.6922L14.6053 15.7339C13.8117 15.7614 13.0838 16.1817 12.6632 16.8552L12.0248 17.8773C11.09 19.3742 8.91011 19.3742 7.97527 17.8773L7.33696 16.8552C6.91636 16.1817 6.18841 15.7614 5.39485 15.7339L4.19052 15.6922C2.4267 15.631 1.33676 13.7432 2.16573 12.1851L2.73175 11.1213C3.10472 10.4203 3.10472 9.57972 2.73175 8.87872L2.16573 7.81487C1.33676 6.2568 2.4267 4.36896 4.19052 4.30784L5.39485 4.2661C6.18841 4.2386 6.91636 3.81832 7.33696 3.14482L7.97527 2.12271Z" stroke="#6C7E95" stroke-width="1.3" stroke-linecap="round"/>
<path d="M7.13647 10.0004C7.13647 11.5819 8.41857 12.864 10.0001 12.864C11.5817 12.864 12.8637 11.5819 12.8637 10.0004C12.8637 8.41881 11.5817 7.13672 10.0001 7.13672" stroke="#6C7E95" stroke-width="1.3" stroke-linecap="round"/>
</svg>
