<svg width="32" height="32" viewBox="0 0 32 32" fill="none" xmlns="http://www.w3.org/2000/svg">
<circle cx="16" cy="16" r="16" fill="#D9EDF7"/>
<path d="M22.3471 9.62115C20.7197 8.00237 18.4767 7.00195 16 7.00195C11.0294 7.00195 7 11.0314 7 16.002C7 20.9725 11.0294 25.002 16 25.002C20.9706 25.002 25 20.9725 25 16.002C25 14.7896 24.7603 13.6332 24.3256 12.5776" stroke="#0088CC" stroke-width="1.3" stroke-linecap="round"/>
<path d="M18.9063 12.3312C19.3432 12.1925 19.7549 12.6042 19.6162 13.0411L17.2574 20.4707C17.0509 21.1211 16.1214 21.0938 15.9534 20.4324L15.2198 17.545C15.1177 17.1433 14.8041 16.8297 14.4024 16.7276L11.515 15.994C10.8536 15.826 10.8263 14.8965 11.4767 14.69L18.9063 12.3312Z" stroke="#0088CC" stroke-width="1.3" stroke-linecap="round"/>
</svg>
