<svg width="32" height="32" viewBox="0 0 32 32" fill="none" xmlns="http://www.w3.org/2000/svg">
<circle cx="16" cy="16" r="16" fill="#DAE7E5"/>
<path d="M22.3471 9.62115C20.7197 8.00237 18.4767 7.00195 16 7.00195C11.0294 7.00195 7 11.0314 7 16.002C7 20.9725 11.0294 25.002 16 25.002C20.9706 25.002 25 20.9725 25 16.002C25 14.7896 24.7603 13.6332 24.3256 12.5776" stroke="#075E54" stroke-width="1.3" stroke-linecap="round"/>
<path d="M20.5747 18.7812L19.0967 17.303C18.8023 17.0098 18.3147 17.0187 18.0101 17.3235L17.3844 17.949C17.3139 18.0195 17.2054 18.0349 17.1185 17.9862V17.9862C16.6483 17.7256 16.0047 17.3685 15.3275 16.6908C14.6482 16.0116 14.2908 15.3671 14.0295 14.8965V14.8965C13.9825 14.8116 13.997 14.7054 14.0657 14.6368L14.4491 14.254L14.6948 14.008C14.9999 13.7028 15.0084 13.2154 14.7146 12.9213L13.2366 11.443C12.9429 11.1493 12.4552 11.1582 12.1501 11.4634L11.7395 11.8764C11.7362 11.8797 11.7362 11.8851 11.7396 11.8884V11.8884C11.7426 11.8914 11.7429 11.8962 11.7403 11.8996C11.6026 12.0765 11.4876 12.2799 11.4017 12.4991C11.3216 12.7101 11.2717 12.9115 11.2489 13.1132C11.0538 14.7312 11.7931 16.2098 13.7996 18.2164C16.5732 20.9898 18.8084 20.7802 18.9048 20.77C19.1148 20.7449 19.3161 20.6947 19.5206 20.6153C19.7385 20.5302 19.9423 20.4149 20.1193 20.2771C20.122 20.275 20.1257 20.2751 20.1282 20.2774V20.2774C20.1309 20.2798 20.135 20.2797 20.1376 20.2771L20.555 19.8684C20.8595 19.5633 20.8682 19.0757 20.5747 18.7812Z" stroke="#075E54" stroke-width="1.3" stroke-linecap="round"/>
</svg>
