<svg width="32" height="32" viewBox="0 0 32 32" fill="none" xmlns="http://www.w3.org/2000/svg">
<rect width="32" height="32" rx="16" fill="#EEEEFA"/>
<path d="M22.3002 11.4998V9.7998C22.3002 9.24752 21.8525 8.7998 21.3002 8.7998H10.7002C10.1479 8.7998 9.7002 9.24752 9.7002 9.79981V22.1998C9.7002 22.7521 10.1479 23.1998 10.7002 23.1998H18.7002H21.3002C21.8525 23.1998 22.3002 22.7521 22.3002 22.1998V19.5998V13.2998" stroke="#908BE0" stroke-width="1.3" stroke-miterlimit="10" stroke-linecap="round" stroke-linejoin="round"/>
<path d="M18.7002 13.1245V12.4745C19.0592 12.4745 19.3502 12.7655 19.3502 13.1245H18.7002ZM12.6502 14.65C12.6502 14.2911 12.9412 14 13.3002 14C13.6592 14 13.9502 14.2911 13.9502 14.65H12.6502ZM18.7002 13.7745H13.3002V12.4745H18.7002V13.7745ZM14.3002 16.8311H17.7002V18.1311H14.3002V16.8311ZM18.0502 16.4811V13.1245H19.3502V16.4811H18.0502ZM13.9502 14.65V16.4811H12.6502V14.65H13.9502ZM17.7002 16.8311C17.8935 16.8311 18.0502 16.6744 18.0502 16.4811H19.3502C19.3502 17.3924 18.6115 18.1311 17.7002 18.1311V16.8311ZM14.3002 18.1311C13.3889 18.1311 12.6502 17.3924 12.6502 16.4811H13.9502C13.9502 16.6744 14.1069 16.8311 14.3002 16.8311V18.1311Z" fill="#908BE0"/>
<path d="M13.2998 13.1245H18.6998L18.0288 11.9907C17.8488 11.6866 17.5217 11.5 17.1682 11.5H14.8314C14.4779 11.5 14.1508 11.6866 13.9708 11.9907L13.2998 13.1245Z" stroke="#908BE0" stroke-width="1.3" stroke-linejoin="round"/>
<path d="M14.2002 20.5H17.8002" stroke="#908BE0" stroke-width="1.3" stroke-miterlimit="10" stroke-linecap="round" stroke-linejoin="round"/>
</svg>
