<svg width="500" height="500" viewBox="0 0 500 500" fill="none" xmlns="http://www.w3.org/2000/svg">
<rect opacity="0.3" y="401" width="500" height="99" fill="#6CAFFF"/>
<ellipse opacity="0.2" cx="252.5" cy="414.5" rx="179.5" ry="4.5" fill="#222E60"/>
<rect opacity="0.1" x="51" y="118" width="260" height="193" fill="#0C1B62"/>
<rect opacity="0.4" x="51" y="118" width="90" height="104" fill="white"/>
<rect opacity="0.6" x="311" y="68" width="127" height="51" fill="#28DBE4"/>
<path d="M133.921 410.918V385.469L147.917 384.197L139.647 410.918H133.921Z" fill="#6D3654"/>
<path d="M299.336 410.918V385.469L313.332 384.197L305.062 410.918H299.336Z" fill="#6D3654"/>
<rect x="121.205" y="281.767" width="95.4317" height="106.884" rx="2.54485" fill="#41D5DE"/>
<rect x="159.378" y="281.767" width="57.259" height="106.884" rx="2.54485" fill="#22C1CB"/>
<path d="M363.864 183.791H307.298C305.601 183.791 304.108 184.911 303.633 186.54L281.515 262.458C281.131 263.776 280.07 264.786 278.734 265.104L163.583 292.521C161.864 292.93 160.65 294.466 160.65 296.234V336.481C160.65 338.589 162.359 340.299 164.468 340.299H349.945C351.916 340.299 353.563 338.799 353.746 336.837L367.665 187.963C367.874 185.724 366.113 183.791 363.864 183.791Z" fill="#41D5DE"/>
<path d="M363.878 183.791H343.413C341.496 183.791 339.876 185.212 339.628 187.113L327.879 276.989C327.588 279.214 329.27 281.208 331.512 281.298L355.52 282.258C357.553 282.339 359.292 280.813 359.475 278.787L367.679 187.951C367.881 185.716 366.121 183.791 363.878 183.791Z" fill="#77EEF5"/>
<rect x="160.65" y="340.298" width="193.408" height="48.3521" rx="3.81727" fill="#22C1CB"/>
<path d="M219.818 174.883C229.997 159.614 241.449 157.07 243.358 157.07C243.994 195.454 238.395 270.442 210.911 263.317C176.556 254.41 196.914 213.056 201.368 211.148C205.821 209.239 209.639 190.153 219.818 174.883Z" fill="#5472EF"/>
<path d="M309.524 166.613C299.344 157.07 290.437 153.252 256.718 153.252C212.82 153.252 227.452 225.144 205.821 274.133L285.984 279.222C297.224 244.867 317.667 174.247 309.524 166.613Z" fill="#435BBF"/>
<path d="M248.435 172.009C255.615 174.138 256.706 180.677 259.387 187.694C274.216 187.694 288.749 165.463 277.837 153.339C271.507 146.306 261.169 147.714 253.025 150.158C246.663 152.066 236.28 161.742 233.938 168.608C231.178 176.701 236.586 186.006 238.653 186.721C239.789 183.443 241.698 174.297 248.435 172.009Z" fill="white"/>
<path d="M228.716 68.8135C221.082 71.3584 217.901 80.9015 217.265 85.355C210.327 84.2876 203.836 92.6218 209.811 98.7155C207.842 99.7758 203.904 104.06 203.904 112.712C203.904 136.619 250.483 159.752 271.979 140.21C277.577 135.12 276.137 128.758 273.887 126.709C284.964 122.953 281.942 111.103 277.705 108.895C285.839 96.0728 275.372 86.4154 270.706 85.355C266.635 75.1756 252.892 72.6308 246.53 72.6308C243.773 70.298 236.351 66.2687 228.716 68.8135Z" fill="#6D3654"/>
<path d="M268.161 155.161L255.446 135.438L240.813 137.983L244.63 169.158C252.265 178.828 268.161 164.068 268.161 155.161Z" fill="#FFD3B0"/>
<path d="M255.446 135.438L240.168 139.892L243.349 153.889C243.349 153.889 253.654 153.48 259.891 142.437L255.446 135.438Z" fill="#EEAA8D"/>
<path d="M225.544 151.343C216.637 150.071 213.456 114.443 219.818 97.9015C222.999 87.7225 254.81 97.2653 251.628 104.9C250.081 108.614 251.62 109.353 253.529 110.626C255.437 111.898 257.354 115.715 256.718 118.26C256.082 120.805 256.082 124.622 258.627 121.441C261.172 118.26 266.898 99.8101 271.351 110.626C274.914 119.278 268.594 123.562 264.989 124.622C259.263 146.254 234.451 152.616 225.544 151.343Z" fill="#FFD3B0"/>
<path d="M230.065 118.897C227.042 122.402 222.646 128.78 223.012 129.96C223.312 130.925 229.058 129.96 231.897 128.537" stroke="#EEAA8D" stroke-width="1.27242" stroke-linecap="round"/>
<ellipse rx="5.3488" ry="2.89124" transform="matrix(-1 0 0 1 241.063 115.426)" fill="white"/>
<circle r="1.9275" transform="matrix(-1 0 0 1 241.064 115.426)" fill="#141414"/>
<ellipse rx="4.57973" ry="2.89124" transform="matrix(-1 0 0 1 221.208 115.426)" fill="white"/>
<circle r="1.9275" transform="matrix(-1 0 0 1 221.981 115.426)" fill="#141414"/>
<path d="M242.077 130.349C241.049 132.102 237.573 135.574 231.897 135.434" stroke="#EEAA8D" stroke-width="1.27242" stroke-linecap="round"/>
<path d="M262.659 112.071C263.691 109.823 264.448 107.803 264.878 106.168C268.059 94.0796 264.242 78.1743 247.7 74.9932C238.333 73.1917 222.385 74.17 216.331 92.6202C215.569 94.9404 214.786 97.7094 214.083 100.742C219.167 102.659 231.821 104.145 244.224 97.0038C245.072 101.457 247.644 111.637 258.936 110.364C259.571 111.506 261.074 110.498 262.659 112.071Z" fill="#6D3654"/>
<mask id="mask0_286_24061" style="mask-type:alpha" maskUnits="userSpaceOnUse" x="41" y="353" width="78" height="49">
<path d="M81.7602 370.837C87.8678 370.837 95.7568 359.385 98.9379 353.659L118.66 365.111C112.934 378.471 98.3016 403.92 88.1222 400.739C75.1407 396.682 40.4064 364.475 41.0426 357.476C41.6788 350.478 74.1256 370.837 81.7602 370.837Z" fill="#FFCB71"/>
</mask>
<g mask="url(#mask0_286_24061)">
<path d="M81.7602 370.837C87.8678 370.837 95.7568 359.385 98.9379 353.659L118.66 365.111C112.934 378.471 98.3016 403.92 88.1222 400.739C75.1407 396.682 40.4064 364.475 41.0426 357.476C41.6788 350.478 74.1256 370.837 81.7602 370.837Z" fill="#FFCB71"/>
<path d="M88.8319 393.231C71.8342 383.422 50.5308 362.153 42.0037 352.746L28.3676 358.877L51.9402 387.101L84.1808 405.282C92.8135 405.353 105.83 403.041 88.8319 393.231Z" fill="white"/>
</g>
<mask id="mask1_286_24061" style="mask-type:alpha" maskUnits="userSpaceOnUse" x="162" y="382" width="68" height="51">
<path d="M196.278 406.464C199.332 402.393 203.064 388.65 204.549 382.288L229.997 385.469C225.544 396.497 216.382 419.57 215.364 423.642C214.092 428.732 200.095 428.096 171.466 431.913C142.836 435.73 192.461 411.554 196.278 406.464Z" fill="#FFCB71"/>
</mask>
<g mask="url(#mask1_286_24061)">
<path d="M196.278 406.464C199.332 402.393 203.064 388.65 204.549 382.288L229.997 385.469C225.544 396.497 216.382 419.57 215.364 423.642C214.092 428.732 200.095 428.096 171.466 431.913C142.836 435.73 192.461 411.554 196.278 406.464Z" fill="#FFCB71"/>
<path d="M218.823 418.897C202.356 424.362 175.753 426.637 163.742 427.135C163.229 427.156 162.74 427.308 162.304 427.58C161.361 428.17 160.832 429.243 160.938 430.351L161.161 432.659C161.352 434.641 163.033 436.143 165.024 436.11L204.802 435.452C205.558 435.439 206.292 435.205 206.911 434.771C218.248 426.822 235.189 413.466 218.823 418.897Z" fill="white"/>
</g>
<path d="M168.921 252.501C182.663 253.01 208.154 262.893 219.182 267.77V295.764H181.009C160.862 321.636 119.678 373.381 116.115 373.381C111.662 373.381 107.208 361.93 98.3015 358.749C89.3946 355.567 101.483 344.116 103.391 340.298C105.3 336.481 135.838 277.95 140.928 267.77C146.017 257.591 151.743 251.865 168.921 252.501Z" fill="#222E60"/>
<path d="M212.811 295.764H191.816L205.813 262.681L215.356 266.498L212.811 295.764Z" fill="#141F4D"/>
<path d="M222.363 254.41C233.56 249.321 267.322 254.41 282.803 257.591C325.556 279.986 299.344 293.219 280.894 297.036C278.349 296.612 272.496 296.018 269.442 297.036C265.625 298.309 243.994 356.84 240.177 376.563C236.359 396.285 219.182 391.195 205.185 388.651C191.189 386.106 203.276 376.563 205.185 358.749C206.648 345.093 208.366 260.772 222.363 254.41Z" fill="#222E60"/>
<path d="M229.361 170.43C234.96 172.975 243.994 184.215 247.811 189.516C247.599 197.363 245.139 210.511 236.996 200.332C226.816 187.608 229.361 191.425 220.454 188.88C213.329 186.844 205.185 176.156 202.004 171.066C208.79 169.794 223.762 167.885 229.361 170.43Z" fill="#FFD3B0"/>
<mask id="mask2_286_24061" style="mask-type:alpha" maskUnits="userSpaceOnUse" x="236" y="161" width="108" height="122">
<path d="M337.517 218.782C333.064 208.603 315.886 148.163 291.074 164.705C272.688 176.962 285.136 212.845 296.8 227.054C284.287 215.814 258.754 193.335 256.718 193.335C254.682 193.335 251.629 190.79 250.356 189.517C242.213 189.008 237.632 198.212 236.359 202.878C237.208 204.15 239.032 207.458 239.54 210.512C240.177 214.33 282.436 267.751 291.074 274.769C301.253 283.039 320.339 286.514 333.064 274.769C349.605 259.5 341.971 228.962 337.517 218.782Z" fill="#5472EF"/>
</mask>
<g mask="url(#mask2_286_24061)">
<path d="M337.517 218.782C333.064 208.603 315.886 148.163 291.074 164.705C272.688 176.962 285.136 212.845 296.8 227.054C284.287 215.814 258.754 193.335 256.718 193.335C254.682 193.335 251.629 190.79 250.356 189.517C242.213 189.008 237.632 198.212 236.359 202.878C237.208 204.15 239.032 207.458 239.54 210.512C240.177 214.33 282.436 267.751 291.074 274.769C301.253 283.039 320.339 286.514 333.064 274.769C349.605 259.5 341.971 228.962 337.517 218.782Z" fill="#5472EF"/>
<path opacity="0.2" d="M347.688 279.222L344.507 247.412C325.166 289.147 289.793 270.739 274.524 256.319L225.535 206.694L268.161 281.131L312.696 289.402L347.688 279.222Z" fill="#141F4D"/>
</g>
<path d="M187.4 195.801L174.92 154.955C174.45 153.417 175.506 151.834 177.106 151.678L197.027 149.735C198.817 149.56 200.486 150.659 201.034 152.372L213.767 192.234C214.261 193.781 213.201 195.388 211.584 195.542L190.075 197.59C188.872 197.705 187.754 196.957 187.4 195.801Z" fill="#222E60"/>
<path d="M182.577 158.577C182.088 159.511 180.683 159.739 179.438 159.087C178.193 158.435 177.58 157.149 178.069 156.215C178.558 155.282 179.964 155.053 181.209 155.705C182.454 156.358 183.067 157.643 182.577 158.577Z" fill="#FFCB71"/>
<path d="M183.85 163.667C183.361 164.6 181.955 164.829 180.71 164.177C179.465 163.524 178.852 162.239 179.341 161.305C179.83 160.371 181.236 160.143 182.481 160.795C183.726 161.447 184.339 162.733 183.85 163.667Z" fill="#FFCB71"/>
<circle cx="308.243" cy="190.153" r="10.1794" fill="#768EF2"/>
<path d="M180.373 212.42C179.949 205.633 179.1 190.661 179.1 185.063V169.794L182.281 178.701C185.463 174.671 192.588 166.74 195.642 167.249C197.169 167.249 191.613 175.732 188.644 179.973C191.613 175.732 197.805 167.757 198.823 169.794C199.606 171.36 196.672 177.047 194.022 181.517C196.179 178.203 198.725 174.785 199.459 175.52C200.732 176.792 195.006 190.153 195.642 195.242C196.278 200.332 198.187 205.422 197.551 211.148C197.042 215.728 185.887 213.904 180.373 212.42Z" fill="#FFD3B0"/>
<mask id="mask3_286_24061" style="mask-type:alpha" maskUnits="userSpaceOnUse" x="168" y="210" width="43" height="55">
<path d="M198.187 210.511C192.079 216.619 183.766 213.905 180.373 211.784C177.828 218.146 177.192 215.601 175.283 220.691C173.756 224.763 170.821 242.534 168.912 252.501C168.912 252.501 183.572 253.147 210.751 264.224C209.903 249.379 206.33 218.146 203.276 215.601C200.223 213.056 198.611 211.148 198.187 210.511Z" fill="#768EF2"/>
</mask>
<g mask="url(#mask3_286_24061)">
<path d="M198.187 210.511C192.079 216.619 183.766 213.905 180.373 211.784C177.828 218.146 177.192 215.601 175.283 220.691C173.756 224.763 170.821 242.534 168.912 252.501C168.912 252.501 183.572 253.147 210.751 264.224C209.903 249.379 206.33 218.146 203.276 215.601C200.223 213.056 198.611 211.148 198.187 210.511Z" fill="#768EF2"/>
<path opacity="0.2" d="M160.642 258.864L212.811 277.95C231.987 260.904 176.051 243.945 167.64 243.594L160.642 258.864Z" fill="#141F4D"/>
</g>
<path d="M241.889 70.5449C244.515 71.527 246.515 73.5131 247.736 76.0375" stroke="#4F1836" stroke-width="1.27242" stroke-linecap="round"/>
<rect x="280.258" y="281.767" width="95.4317" height="106.884" rx="3.81727" fill="#55E4ED"/>
<rect x="318.431" y="281.767" width="57.259" height="106.884" rx="3.81727" fill="#77EEF5"/>
<rect x="337.862" y="336.954" width="95.1986" height="80.5315" rx="3.81727" fill="#435BBF"/>
<rect x="396.254" y="336.954" width="36.8064" height="80.5315" rx="3.81727" fill="#5472EF"/>
<rect x="359.448" y="336.954" width="18.2648" height="57.0086" fill="#FFCB71"/>
</svg>
