<svg width="20" height="20" viewBox="0 0 20 20" fill="none" xmlns="http://www.w3.org/2000/svg">
<path fill-rule="evenodd" clip-rule="evenodd" d="M18 10C18 14.4183 14.4183 18 10 18C5.58172 18 2 14.4183 2 10C2 5.58172 5.58172 2 10 2C14.4183 2 18 5.58172 18 10ZM10 5.25C10.4142 5.25 10.75 5.58579 10.75 6V9.25H14C14.4142 9.25 14.75 9.58579 14.75 10C14.75 10.4142 14.4142 10.75 14 10.75H10.75V14C10.75 14.4142 10.4142 14.75 10 14.75C9.58579 14.75 9.25 14.4142 9.25 14V10.75H6C5.58579 10.75 5.25 10.4142 5.25 10C5.25 9.58579 5.58579 9.25 6 9.25H9.25V6C9.25 5.58579 9.58579 5.25 10 5.25Z" fill="white"/>
</svg>
