<svg width="16" height="16" viewBox="0 0 16 16" fill="none" xmlns="http://www.w3.org/2000/svg">
<path d="M8.17101 14.1427L7.71139 13.6831L8.17101 14.1427ZM9.16271 1.83729L8.70309 1.37767L9.16271 1.83729ZM2.51416 8.48584L2.97378 8.94546L2.51416 8.48584ZM11.2795 4.68037C11.5333 4.42653 11.5333 4.01498 11.2795 3.76113C11.0256 3.50729 10.6141 3.50729 10.3602 3.76113L11.2795 4.68037ZM15.2792 7.95377C15.533 7.69993 15.533 7.28837 15.2792 7.03453C15.0253 6.78069 14.6138 6.78069 14.3599 7.03453L15.2792 7.95377ZM2.97378 8.94546L9.62233 2.29691L8.70309 1.37767L2.05454 8.02622L2.97378 8.94546ZM7.71139 13.6831C7.21715 14.1773 6.53896 14.5186 5.79414 14.5389C5.06384 14.5588 4.19149 14.2722 3.28805 13.3688L2.36881 14.288C3.48567 15.4049 4.69062 15.8695 5.82956 15.8384C6.95396 15.8078 7.9369 15.296 8.63063 14.6023L7.71139 13.6831ZM12.8744 2.16622C13.7096 3.00144 13.7054 4.45659 12.7437 5.41828L13.6629 6.33752C15.0772 4.92328 15.19 2.64332 13.7936 1.24698L12.8744 2.16622ZM9.62233 2.29691C10.584 1.33522 12.0392 1.33099 12.8744 2.16622L13.7936 1.24698C12.3973 -0.149363 10.1173 -0.0365664 8.70309 1.37767L9.62233 2.29691ZM2.05454 8.02622C1.36081 8.71995 0.84908 9.7029 0.818432 10.8273C0.787388 11.9662 1.25194 13.1712 2.36881 14.288L3.28805 13.3688C2.38461 12.4654 2.09804 11.593 2.11795 10.8627C2.13825 10.1179 2.47954 9.4397 2.97378 8.94546L2.05454 8.02622ZM12.7437 5.41828L10.7044 7.45755L11.6237 8.37678L13.6629 6.33752L12.7437 5.41828ZM10.7044 7.45755L7.52433 10.6377L8.44356 11.5569L11.6237 8.37678L10.7044 7.45755ZM6.42326 9.53659L11.2795 4.68037L10.3602 3.76113L5.50402 8.61735L6.42326 9.53659ZM8.63063 14.6023L15.2792 7.95377L14.3599 7.03453L7.71139 13.6831L8.63063 14.6023ZM6.42326 10.6377C6.11921 10.3336 6.11921 9.84064 6.42326 9.53659L5.50402 8.61735C4.69229 9.42908 4.69229 10.7452 5.50402 11.5569L6.42326 10.6377ZM7.52433 10.6377C7.22028 10.9417 6.72731 10.9417 6.42326 10.6377L5.50402 11.5569C6.31575 12.3686 7.63183 12.3686 8.44356 11.5569L7.52433 10.6377Z" fill="#FFFFFF"/>
</svg>
