<svg width="24" height="24" viewBox="0 0 24 24" fill="none" xmlns="http://www.w3.org/2000/svg">
<path d="M12.003 0H11.997C5.3805 0 0 5.382 0 12C0 14.625 0.846 17.058 2.2845 19.0335L0.789 23.4915L5.4015 22.017C7.299 23.274 9.5625 24 12.003 24C18.6195 24 24 18.6165 24 12C24 5.3835 18.6195 0 12.003 0Z" fill="#4CAF50"/>
<path d="M18.9856 16.9463C18.6961 17.7638 17.5471 18.4418 16.6306 18.6398C16.0036 18.7733 15.1846 18.8798 12.4276 17.7368C8.90108 16.2758 6.63008 12.6923 6.45308 12.4598C6.28358 12.2273 5.02808 10.5623 5.02808 8.84031C5.02808 7.11831 5.90258 6.27981 6.25508 5.91981C6.54458 5.62431 7.02308 5.48931 7.48208 5.48931C7.63058 5.48931 7.76408 5.49681 7.88408 5.50281C8.23658 5.51781 8.41358 5.53881 8.64608 6.09531C8.93558 6.79281 9.64058 8.51481 9.72458 8.69181C9.81008 8.86881 9.89558 9.10881 9.77558 9.34131C9.66308 9.58131 9.56408 9.68781 9.38708 9.89181C9.21008 10.0958 9.04208 10.2518 8.86508 10.4708C8.70308 10.6613 8.52008 10.8653 8.72408 11.2178C8.92808 11.5628 9.63308 12.7133 10.6711 13.6373C12.0106 14.8298 13.0966 15.2108 13.4851 15.3728C13.7746 15.4928 14.1196 15.4643 14.3311 15.2393C14.5996 14.9498 14.9311 14.4698 15.2686 13.9973C15.5086 13.6583 15.8116 13.6163 16.1296 13.7363C16.4536 13.8488 18.1681 14.6963 18.5206 14.8718C18.8731 15.0488 19.1056 15.1328 19.1911 15.2813C19.2751 15.4298 19.2751 16.1273 18.9856 16.9463Z" fill="#FAFAFA"/>
</svg>