<svg width="24" height="24" viewBox="0 0 24 24" fill="none" xmlns="http://www.w3.org/2000/svg">
<path d="M19.2008 6.00039V3.40039C19.2008 2.84811 18.7531 2.40039 18.2008 2.40039H5.80078C5.2485 2.40039 4.80078 2.84811 4.80078 3.40039V20.6004C4.80078 21.1527 5.2485 21.6004 5.80078 21.6004H15.0865H18.2008C18.7531 21.6004 19.2008 21.1527 19.2008 20.6004V16.8004V8.40039" stroke="white" stroke-width="1.3" stroke-miterlimit="10" stroke-linecap="round" stroke-linejoin="round"/>
<path d="M7.57834 11.4852L8.52062 12.4275L10.4052 10.543" stroke="white" stroke-width="1.3" stroke-miterlimit="10" stroke-linecap="round" stroke-linejoin="round"/>
<path d="M7.57834 7.88466L8.52062 8.82693L10.4052 6.94238" stroke="white" stroke-width="1.3" stroke-miterlimit="10" stroke-linecap="round" stroke-linejoin="round"/>
<path d="M7.57834 15.0849L8.52062 16.0271L10.4052 14.1426" stroke="white" stroke-width="1.3" stroke-miterlimit="10" stroke-linecap="round" stroke-linejoin="round"/>
<path d="M13.2012 12H15.6012" stroke="white" stroke-width="1.3" stroke-miterlimit="10" stroke-linecap="round" stroke-linejoin="round"/>
<path d="M13.2012 8.40039H15.6012" stroke="white" stroke-width="1.3" stroke-miterlimit="10" stroke-linecap="round" stroke-linejoin="round"/>
<path d="M13.2012 15.6006H15.6012" stroke="white" stroke-width="1.3" stroke-miterlimit="10" stroke-linecap="round" stroke-linejoin="round"/>
</svg>
