<svg width="24" height="24" viewBox="0 0 24 24" fill="none" xmlns="http://www.w3.org/2000/svg">
<path d="M19.2008 6.00039V3.40039C19.2008 2.84811 18.7531 2.40039 18.2008 2.40039H5.80078C5.2485 2.40039 4.80078 2.84811 4.80078 3.40039V20.6004C4.80078 21.1527 5.2485 21.6004 5.80078 21.6004H15.0865H18.2008C18.7531 21.6004 19.2008 21.1527 19.2008 20.6004V16.8004V8.40039" stroke="#203551" stroke-width="1.3" stroke-miterlimit="10" stroke-linecap="round" stroke-linejoin="round"/>
<path d="M7.57833 11.4851L8.52061 12.4274L10.4052 10.5429" stroke="#203551" stroke-width="1.3" stroke-miterlimit="10" stroke-linecap="round" stroke-linejoin="round"/>
<path d="M7.57833 7.88456L8.52061 8.82683L10.4052 6.94228" stroke="#203551" stroke-width="1.3" stroke-miterlimit="10" stroke-linecap="round" stroke-linejoin="round"/>
<path d="M7.57833 15.0848L8.52061 16.027L10.4052 14.1425" stroke="#203551" stroke-width="1.3" stroke-miterlimit="10" stroke-linecap="round" stroke-linejoin="round"/>
<path d="M13.2012 12H15.6012" stroke="#203551" stroke-width="1.3" stroke-miterlimit="10" stroke-linecap="round" stroke-linejoin="round"/>
<path d="M13.2012 8.40039H15.6012" stroke="#203551" stroke-width="1.3" stroke-miterlimit="10" stroke-linecap="round" stroke-linejoin="round"/>
<path d="M13.2012 15.6006H15.6012" stroke="#203551" stroke-width="1.3" stroke-miterlimit="10" stroke-linecap="round" stroke-linejoin="round"/>
</svg>
