<svg width="24" height="24" viewBox="0 0 24 24" fill="none" xmlns="http://www.w3.org/2000/svg">
<path d="M12.4704 14.5711C12.195 14.8465 11.8453 15.0355 11.4641 15.1149L9.10162 15.6071C8.67843 15.6952 8.30369 15.3205 8.39186 14.8973L8.88404 12.5348C8.96346 12.1536 9.15243 11.8039 9.42778 11.5285L17.8508 3.10555C18.2413 2.71502 18.8745 2.71502 19.265 3.10554L20.8934 4.73393C21.2839 5.12445 21.2839 5.75762 20.8934 6.14814L12.4704 14.5711Z" stroke="#203551" stroke-width="1.3" stroke-miterlimit="10" stroke-linecap="round" stroke-linejoin="round"/>
<path d="M19.9285 12.528V19.5985C19.9285 20.703 19.0331 21.5985 17.9285 21.5985H4.40039C3.29582 21.5985 2.40039 20.703 2.40039 19.5985V6.07031C2.40039 4.96574 3.29582 4.07031 4.40039 4.07031H11.4709" stroke="#203551" stroke-width="1.3" stroke-miterlimit="10" stroke-linecap="round" stroke-linejoin="round"/>
</svg>
