<svg width="20" height="20" viewBox="0 0 20 20" fill="none" xmlns="http://www.w3.org/2000/svg">
<path d="M10 17.5C14.1421 17.5 17.5 14.1421 17.5 10C17.5 5.85786 14.1421 2.5 10 2.5C5.85786 2.5 2.5 5.85786 2.5 10C2.5 14.1421 5.85786 17.5 10 17.5Z" stroke="#FFFFFF" stroke-width="1.42857" stroke-linecap="round"/>
<path d="M7.1875 9.6875C7.87786 9.6875 8.4375 9.12786 8.4375 8.4375C8.4375 7.74714 7.87786 7.1875 7.1875 7.1875C6.49714 7.1875 5.9375 7.74714 5.9375 8.4375C5.9375 9.12786 6.49714 9.6875 7.1875 9.6875Z" fill="#FFFFFF"/>
<path d="M12.8125 9.6875C13.5029 9.6875 14.0625 9.12786 14.0625 8.4375C14.0625 7.74714 13.5029 7.1875 12.8125 7.1875C12.1221 7.1875 11.5625 7.74714 11.5625 8.4375C11.5625 9.12786 12.1221 9.6875 12.8125 9.6875Z" fill="#FFFFFF"/>
<path d="M13.25 11.875C12.9196 12.4442 12.4455 12.9167 11.8751 13.2451C11.3048 13.5735 10.6582 13.7464 10 13.7464C9.34184 13.7464 8.69523 13.5735 8.12486 13.2451C7.5545 12.9167 7.0804 12.4442 6.75 11.875" stroke="#FFFFFF" stroke-width="1.3" stroke-linecap="round"/>
</svg>
