<svg width="24" height="24" viewBox="0 0 24 24" fill="none" xmlns="http://www.w3.org/2000/svg">
<path d="M12.003 0H11.997C5.3805 0 0 5.382 0 12C0 14.625 0.846 17.058 2.2845 19.0335L0.789 23.4915L5.4015 22.017C7.299 23.274 9.5625 24 12.003 24C18.6195 24 24 18.6165 24 12C24 5.3835 18.6195 0 12.003 0Z" fill="#BFCEE0"/>
<path d="M18.9855 16.9463C18.696 17.7638 17.547 18.4418 16.6305 18.6398C16.0035 18.7733 15.1845 18.8798 12.4275 17.7368C8.90095 16.2758 6.62995 12.6923 6.45295 12.4598C6.28345 12.2273 5.02795 10.5623 5.02795 8.84031C5.02795 7.11831 5.90245 6.27981 6.25495 5.91981C6.54445 5.62431 7.02295 5.48931 7.48195 5.48931C7.63045 5.48931 7.76395 5.49681 7.88395 5.50281C8.23645 5.51781 8.41345 5.53881 8.64595 6.09531C8.93545 6.79281 9.64045 8.51481 9.72445 8.69181C9.80995 8.86881 9.89546 9.10881 9.77545 9.34131C9.66296 9.58131 9.56395 9.68781 9.38695 9.89181C9.20995 10.0958 9.04195 10.2518 8.86495 10.4708C8.70295 10.6613 8.51995 10.8653 8.72395 11.2178C8.92795 11.5628 9.63295 12.7133 10.671 13.6373C12.0105 14.8298 13.0965 15.2108 13.485 15.3728C13.7745 15.4928 14.1195 15.4643 14.331 15.2393C14.5995 14.9498 14.931 14.4698 15.2685 13.9973C15.5085 13.6583 15.8115 13.6163 16.1295 13.7363C16.4535 13.8488 18.168 14.6963 18.5205 14.8718C18.873 15.0488 19.1055 15.1328 19.191 15.2813C19.275 15.4298 19.275 16.1273 18.9855 16.9463Z" fill="#FAFAFA"/>
</svg>