<svg width="40" height="40" viewBox="0 0 40 40" fill="none" xmlns="http://www.w3.org/2000/svg">
<rect width="40" height="40" rx="20" fill="#DCEDFF"/>
<mask id="mask0_1944_64101" style="mask-type:alpha" maskUnits="userSpaceOnUse" x="10" y="8" width="20" height="24">
<path d="M12.4538 31.879H28.0805C29.0372 31.879 29.8345 31.0817 29.8345 30.125V13.649C27.921 11.7355 26.2152 10.0336 24.3017 8.12012H12.4538C11.4971 8.12012 10.6998 8.91739 10.6998 9.87413V30.2844C10.6998 31.0817 11.4971 31.879 12.4538 31.879Z" fill="white"/>
</mask>
<g mask="url(#mask0_1944_64101)">
<path d="M12.4538 31.879H28.0805C29.0372 31.879 29.8345 31.0817 29.8345 30.125V13.649C27.921 11.7355 26.2152 10.0336 24.3017 8.12012H12.4538C11.4971 8.12012 10.6998 8.91739 10.6998 9.87413V30.2844C10.6998 31.0817 11.4971 31.879 12.4538 31.879Z" fill="white"/>
<path d="M19.016 11.3203H14.5263C14.1804 11.3203 13.8999 11.6008 13.8999 11.9467C13.8999 12.2927 14.1804 12.5731 14.5263 12.5731H19.016C19.3619 12.5731 19.6424 12.2927 19.6424 11.9467C19.6424 11.6008 19.3619 11.3203 19.016 11.3203Z" fill="#BF684F"/>
<path d="M21.416 14.5205H14.5263C14.1803 14.5205 13.8999 14.801 13.8999 15.1469C13.8999 15.4929 14.1804 15.7733 14.5263 15.7733H21.416C21.7619 15.7733 22.0424 15.4929 22.0424 15.1469C22.0424 14.801 21.7619 14.5205 21.416 14.5205Z" fill="#F9B66F"/>
<rect x="9.36865" y="19.7783" width="18.3041" height="9.41832" rx="1.5" fill="#CC7051"/>
</g>
<path d="M24.3099 8.12012V11.8625C24.3099 12.9318 25.0228 13.6447 26.092 13.6447H29.8345L24.3099 8.12012Z" fill="#F9B66F"/>
<rect x="8.56885" y="18.1777" width="18.3041" height="9.41832" rx="1.5" fill="#F6B755"/>
<path d="M15.2278 22.1881C15.2278 22.427 15.1702 22.651 15.055 22.8601C14.9441 23.0691 14.767 23.2377 14.5238 23.3657C14.2849 23.4937 13.9819 23.5577 13.615 23.5577H12.8662V25.2729H11.9702V20.8057H13.615C13.9606 20.8057 14.255 20.8654 14.4982 20.9849C14.7414 21.1043 14.9227 21.2686 15.0422 21.4777C15.1659 21.6867 15.2278 21.9235 15.2278 22.1881ZM13.5766 22.8345C13.8241 22.8345 14.0075 22.779 14.127 22.6681C14.2465 22.5529 14.3062 22.3929 14.3062 22.1881C14.3062 21.7529 14.063 21.5353 13.5766 21.5353H12.8662V22.8345H13.5766Z" fill="#BF684F"/>
<path d="M17.6816 20.8057C18.1509 20.8057 18.5626 20.8974 18.9168 21.0809C19.2752 21.2643 19.5504 21.5267 19.7424 21.8681C19.9386 22.2051 20.0368 22.5977 20.0368 23.0457C20.0368 23.4937 19.9386 23.8862 19.7424 24.2233C19.5504 24.5561 19.2752 24.8142 18.9168 24.9977C18.5626 25.1811 18.1509 25.2729 17.6816 25.2729H16.12V20.8057H17.6816ZM17.6496 24.5113C18.1189 24.5113 18.4816 24.3833 18.7376 24.1273C18.9936 23.8713 19.1216 23.5107 19.1216 23.0457C19.1216 22.5806 18.9936 22.2179 18.7376 21.9577C18.4816 21.6931 18.1189 21.5609 17.6496 21.5609H17.016V24.5113H17.6496Z" fill="#BF684F"/>
<path d="M23.7219 20.8057V21.5289H21.8595V22.6745H23.2867V23.3849H21.8595V25.2729H20.9635V20.8057H23.7219Z" fill="#BF684F"/>
</svg>
