<svg width="24" height="24" viewBox="0 0 24 24" fill="none" xmlns="http://www.w3.org/2000/svg">
<path d="M19.4666 17.3337H17.3332H6.66657H4.53324C3.96744 17.3337 3.42482 17.109 3.02474 16.7089C2.62466 16.3088 2.3999 15.7662 2.3999 15.2004V10.9337C2.3999 10.3679 2.62466 9.82531 3.02474 9.42523C3.42482 9.02515 3.96744 8.80039 4.53324 8.80039H19.4666C20.0324 8.80039 20.575 9.02515 20.9751 9.42523C21.3751 9.82531 21.5999 10.3679 21.5999 10.9337V15.2004M8.7999 21.6004H15.1999C15.7657 21.6004 16.3083 21.3756 16.7084 20.9755C17.1085 20.5755 17.3332 20.0329 17.3332 19.4671V15.2004C17.3332 14.6346 17.1085 14.092 16.7084 13.6919C16.3083 13.2918 15.7657 13.0671 15.1999 13.0671H8.7999C8.23411 13.0671 7.69148 13.2918 7.29141 13.6919C6.89133 14.092 6.66657 14.6346 6.66657 15.2004V19.4671C6.66657 20.0329 6.89133 20.5755 7.29141 20.9755C7.69148 21.3756 8.23411 21.6004 8.7999 21.6004ZM17.3332 8.80039V4.53372C17.3332 3.96793 17.1085 3.42531 16.7084 3.02523C16.3083 2.62515 15.7657 2.40039 15.1999 2.40039H8.7999C8.23411 2.40039 7.69148 2.62515 7.29141 3.02523C6.89133 3.42531 6.66657 3.96793 6.66657 4.53372V8.80039H17.3332Z" stroke="#203551" stroke-width="1.3" stroke-linecap="round" stroke-linejoin="round"/>
</svg>
