<svg width="20" height="20" viewBox="0 0 20 20" fill="none" xmlns="http://www.w3.org/2000/svg">
<path d="M3.77778 14.4444H5.55556L14.4444 14.4444H16.2222C16.6937 14.4444 17.1459 14.2571 17.4793 13.9237C17.8127 13.5903 18 13.1382 18 12.6667V9.11111C18 8.63962 17.8127 8.18743 17.4793 7.85403C17.1459 7.52063 16.6937 7.33333 16.2222 7.33333L3.77778 7.33333C3.30628 7.33333 2.8541 7.52063 2.5207 7.85403C2.1873 8.18743 2 8.63962 2 9.11111V12.6667M12.6667 18H7.33333C6.86184 18 6.40965 17.8127 6.07626 17.4793C5.74286 17.1459 5.55556 16.6937 5.55556 16.2222V12.6667C5.55556 12.1952 5.74286 11.743 6.07626 11.4096C6.40965 11.0762 6.86184 10.8889 7.33333 10.8889L12.6667 10.8889C13.1382 10.8889 13.5903 11.0762 13.9237 11.4096C14.2571 11.743 14.4444 12.1952 14.4444 12.6667V16.2222C14.4444 16.6937 14.2571 17.1459 13.9237 17.4793C13.5903 17.8127 13.1382 18 12.6667 18ZM5.55556 7.33333V3.77778C5.55556 3.30628 5.74286 2.8541 6.07626 2.5207C6.40965 2.1873 6.86184 2 7.33333 2L12.6667 2C13.1382 2 13.5903 2.1873 13.9237 2.5207C14.2571 2.8541 14.4444 3.30628 14.4444 3.77778V7.33333L5.55556 7.33333Z" stroke="#93A6FF" stroke-width="1.3" stroke-linecap="round" stroke-linejoin="round"/>
</svg>
