<svg width="24" height="24" viewBox="0 0 24 24" fill="none" xmlns="http://www.w3.org/2000/svg">
<path fill-rule="evenodd" clip-rule="evenodd" d="M9.42448 20.0002C12.3885 20.0002 14.8045 19.7734 14.8045 19.4969C14.8045 19.2203 12.3885 18.988 9.42448 18.988C6.46042 18.988 4.04443 19.2148 4.04443 19.4913C4.04443 19.7679 6.46042 20.0002 9.42448 20.0002Z" fill="#CAC9C9"/>
<path fill-rule="evenodd" clip-rule="evenodd" d="M9.12839 4.04425L19.318 8.31955C19.6089 8.44122 19.7487 8.7786 19.6256 9.07173L15.297 19.1488C15.174 19.4364 14.8328 19.5747 14.5364 19.453L4.35234 15.1722C4.06152 15.0505 3.92171 14.7131 4.04475 14.42L8.3678 4.34845C8.49643 4.06084 8.83758 3.92258 9.12839 4.04425Z" fill="#921D26"/>
<path fill-rule="evenodd" clip-rule="evenodd" d="M19.0613 8.86206C19.0836 8.91737 19.0836 8.97821 19.0613 9.03351L14.878 18.7787C14.8277 18.8894 14.6991 18.9447 14.5816 18.8949L4.72753 14.7579C4.6716 14.7357 4.62686 14.6915 4.60449 14.6362L19.0613 8.86206Z" fill="#70161E"/>
<path fill-rule="evenodd" clip-rule="evenodd" d="M9.13987 4.93492L18.6696 8.93368C18.7255 8.9558 18.7535 9.02217 18.7311 9.08301L14.6821 18.5019C14.6597 18.5572 14.5926 18.5849 14.5311 18.5628L5.00137 14.564C4.94544 14.5419 4.91748 14.4755 4.93985 14.4147L8.98887 4.99023C9.01124 4.93492 9.07835 4.90727 9.13987 4.93492Z" fill="#D5232B"/>
<path fill-rule="evenodd" clip-rule="evenodd" d="M18.7266 8.99414C18.7378 9.02179 18.7378 9.04945 18.7266 9.08263L14.6832 18.5016C14.6608 18.5569 14.5937 18.5845 14.5322 18.5624L5.00244 14.5636C4.97447 14.5526 4.9521 14.5305 4.94092 14.5028L18.7266 8.99414Z" fill="#A11F24"/>
<path fill-rule="evenodd" clip-rule="evenodd" d="M16.9756 9.27734L11.0643 12.2252L10.4771 9.60919L16.9756 9.27734Z" fill="white"/>
<path fill-rule="evenodd" clip-rule="evenodd" d="M6.83936 14.3307L12.7507 11.3828L13.3379 13.9933L6.83936 14.3307Z" fill="#E6E6E6"/>
<path fill-rule="evenodd" clip-rule="evenodd" d="M11.062 12.2235L12.751 11.3828L12.874 11.9359L11.062 12.2235Z" fill="#B3B3B3"/>
</svg>
