<svg width="24" height="24" viewBox="0 0 24 24" fill="none" xmlns="http://www.w3.org/2000/svg">
<path d="M2.38498 20.337C2.14319 20.3412 1.93832 20.4275 1.82704 20.296C1.71577 20.1644 1.86864 19.9086 1.904 19.7079C1.97784 19.2919 2.07715 18.879 2.14891 18.4625C2.18011 18.2826 2.2529 18.2192 2.43645 18.2311C2.72088 18.2488 3.00843 18.2311 3.29233 18.2389C3.35265 18.2389 3.4634 18.2337 3.4634 18.3185C3.4634 18.435 3.42597 18.5119 3.28037 18.5031C3.08226 18.4916 2.90235 18.4885 2.68396 18.4963C2.49261 18.5031 2.43177 18.5556 2.40422 18.734C2.3413 19.1411 2.33246 19.1395 2.73804 19.1395C2.82436 19.1395 2.91119 19.1395 2.99803 19.1395C3.06406 19.1395 3.14674 19.125 3.14206 19.2347C3.1379 19.3272 3.12178 19.4078 2.99959 19.4058C2.84359 19.4032 2.6876 19.4219 2.53161 19.4021C2.31946 19.374 2.24978 19.4671 2.21442 19.6621C2.13955 20.0729 2.13019 20.0713 2.54305 20.0713C2.68136 20.0713 2.8202 20.0646 2.95903 20.0745C3.01883 20.0786 3.12074 20.0745 3.11502 20.167C3.1093 20.2596 3.07654 20.3485 2.94083 20.3391C2.7136 20.3412 2.59713 20.337 2.38498 20.337Z" fill="#902782"/>
<path d="M13.3625 20.3638C12.9366 20.3664 12.6615 20.0643 12.7203 19.6571C12.7634 19.3582 12.8035 19.0571 12.9064 18.7732C13.0515 18.3723 13.4264 18.1565 13.8252 18.2334C13.9376 18.2488 14.042 18.2999 14.123 18.3793C14.204 18.4586 14.2573 18.5619 14.275 18.6739C14.2901 18.743 14.3504 18.8392 14.2194 18.8522C14.1372 18.8605 14.0228 18.912 13.989 18.7649C13.9469 18.5813 13.8367 18.4789 13.6391 18.4914C13.5478 18.493 13.4592 18.5224 13.3849 18.5755C13.3106 18.6286 13.2542 18.7029 13.2231 18.7888C13.1077 19.0711 13.0749 19.3737 13.025 19.6727C12.9985 19.8287 13.037 19.9712 13.1872 20.0497C13.2566 20.0866 13.3353 20.1023 13.4136 20.095C13.4918 20.0877 13.5662 20.0577 13.6276 20.0086C13.7024 19.9498 13.7642 19.8762 13.8091 19.7923C13.8778 19.6826 14.0072 19.7003 14.0883 19.7403C14.1695 19.7804 14.0852 19.888 14.0509 19.9483C13.8991 20.2171 13.6536 20.344 13.3625 20.3638Z" fill="#902882"/>
<path d="M15.9734 19.8801C16.0254 19.6092 16.0924 19.279 16.1569 18.9483C16.1834 18.812 16.2869 18.8235 16.3795 18.8406C16.5053 18.8646 16.4434 18.9644 16.4315 19.0294C16.3904 19.2592 16.3363 19.4865 16.2942 19.7158C16.2661 19.8718 16.2308 20.0517 16.445 20.0948C16.6592 20.138 16.7991 20.0101 16.85 19.8156C16.9202 19.5489 16.9665 19.2753 17.0159 19.0029C17.0331 18.9103 17.0487 18.837 17.1667 18.8334C17.2847 18.8297 17.3456 18.8474 17.3144 18.9894C17.2275 19.3861 17.1443 19.7839 17.0767 20.1853C17.0518 20.3314 16.9608 20.3741 16.8641 20.3288C16.719 20.2612 16.6041 20.3257 16.4741 20.3507C16.1897 20.4063 15.9042 20.2451 15.9734 19.8801Z" fill="#912883"/>
<path d="M4.58576 20.3116C4.13598 20.4447 4.20462 20.0287 4.04291 19.853C3.80216 19.9929 3.77096 20.4634 3.31494 20.3075C3.48185 20.1031 3.63629 19.8972 3.80892 19.7074C3.90615 19.6003 3.91291 19.514 3.84532 19.3892C3.75328 19.2254 3.6836 19.0486 3.59885 18.8666C4.03147 18.7106 3.97167 19.123 4.11882 19.2992C4.35177 19.1708 4.37881 18.7158 4.82443 18.8656C4.66272 19.0658 4.5192 19.2571 4.36113 19.4349C4.26546 19.5421 4.25714 19.6336 4.32421 19.7589C4.42197 19.9346 4.49632 20.1192 4.58576 20.3116Z" fill="#902883"/>
<path d="M9.83659 18.8246C10.0238 18.8163 10.1345 18.8402 10.2344 18.8927C10.2864 18.9193 10.3904 18.9629 10.3384 19.0295C10.2999 19.0908 10.2437 19.1933 10.134 19.1288C10.0197 19.0647 9.88547 19.0462 9.75808 19.0768C9.64628 19.0981 9.56309 19.1704 9.56049 19.2848C9.55789 19.3992 9.66188 19.4283 9.75964 19.4408C9.81163 19.4486 9.86363 19.4605 9.91563 19.4673C10.1106 19.4928 10.2739 19.5656 10.2973 19.7855C10.3217 20.019 10.2099 20.1911 9.99986 20.2811C9.87433 20.3403 9.73645 20.3688 9.5977 20.364C9.45896 20.3592 9.32337 20.3213 9.20222 20.2535C9.15335 20.2265 9.05039 20.1766 9.11071 20.0975C9.16271 20.0388 9.2147 19.9254 9.34002 20.019C9.49601 20.1376 9.67696 20.1438 9.85583 20.0663C9.94683 20.0268 10.0186 19.9623 10.0035 19.8484C9.98843 19.7346 9.89587 19.7263 9.81112 19.7081C9.77732 19.7013 9.74196 19.7018 9.70712 19.6956C9.49913 19.6576 9.28386 19.6233 9.27034 19.3462C9.25942 19.1153 9.42633 18.9172 9.6806 18.8496C9.73195 18.8376 9.78408 18.8293 9.83659 18.8246Z" fill="#902883"/>
<path d="M11.6805 18.9403C11.6912 18.9471 11.7003 18.9563 11.7071 18.967C11.7138 18.9778 11.7181 18.99 11.7196 19.0026C11.7211 19.0153 11.7198 19.0281 11.7157 19.0401C11.7116 19.0522 11.7049 19.0632 11.6961 19.0724C11.6279 19.1446 11.5448 19.1582 11.421 19.09C11.3477 19.0495 11.2343 19.0661 11.1423 19.0802C11.0896 19.0843 11.0403 19.1078 11.0039 19.1463C10.9676 19.1847 10.9469 19.2353 10.9457 19.2881C10.9457 19.4088 11.0497 19.4285 11.148 19.4441C11.2078 19.4535 11.2671 19.467 11.3264 19.4764C11.4995 19.5039 11.6441 19.5653 11.6727 19.7655C11.7049 19.9875 11.6207 20.1622 11.4267 20.2626C11.3006 20.3305 11.1597 20.3665 11.0165 20.3672C10.8732 20.3679 10.732 20.3334 10.6052 20.2667C10.5469 20.2381 10.4492 20.1815 10.4928 20.1107C10.5365 20.04 10.6015 19.9293 10.7372 20.0312C10.8849 20.1419 11.0596 20.144 11.2307 20.0743C11.3238 20.0364 11.4007 19.973 11.3934 19.8664C11.3856 19.7457 11.2811 19.728 11.1854 19.7104C11.1335 19.7015 11.0815 19.7026 11.0295 19.6906C10.8584 19.65 10.6811 19.6085 10.6603 19.3901C10.6467 19.2905 10.6655 19.1893 10.7139 19.1012C10.7623 19.0132 10.8378 18.9431 10.9291 18.9013C11.0469 18.8417 11.1782 18.814 11.31 18.8208C11.4418 18.8277 11.5695 18.8689 11.6805 18.9403Z" fill="#902883"/>
<path d="M21.4656 18.8383C21.6341 18.9881 21.8239 18.7863 22.0162 18.8248C22.1114 18.844 22.2674 18.8607 22.2393 18.9751C22.2334 19.0065 22.2199 19.0361 22.2001 19.0613C22.1803 19.0864 22.1547 19.1064 22.1255 19.1196C22.0963 19.1327 22.0644 19.1387 22.0324 19.1369C22.0005 19.1351 21.9694 19.1256 21.9419 19.1092C21.7479 19.0172 21.5514 19.1571 21.4906 19.4061C21.4297 19.6552 21.3736 19.9126 21.3346 20.1689C21.3127 20.3249 21.2306 20.3561 21.1047 20.3353C21.0007 20.3182 21.0371 20.2048 21.0527 20.1351C21.125 19.7524 21.2087 19.3718 21.2768 18.9912C21.2945 18.8882 21.3257 18.8258 21.4656 18.8383Z" fill="#912983"/>
<path d="M17.5388 20.1411C17.6105 19.7876 17.6979 19.3742 17.7759 18.9587C17.8014 18.8214 17.9319 18.7923 17.9792 18.8438C18.1066 18.9873 18.1997 18.8714 18.3057 18.8438C18.3962 18.8115 18.495 18.8115 18.5855 18.8438C18.65 18.8708 18.7722 18.8885 18.7238 18.9858C18.6858 19.0612 18.6198 19.1667 18.4882 19.1381C18.1705 19.0684 18.0307 19.1558 17.9615 19.4699C17.9059 19.7226 17.8539 19.9763 17.8086 20.2311C17.7821 20.3808 17.6729 20.3351 17.5877 20.3351C17.4868 20.333 17.5247 20.2597 17.5388 20.1411Z" fill="#912984"/>
<path d="M19.3066 18.9494C19.2167 19.3951 19.1283 19.8095 19.0508 20.2255C19.0232 20.3731 18.9192 20.3378 18.8324 20.3347C18.7456 20.3315 18.7632 20.2307 18.7752 20.1662C18.8496 19.7757 18.9312 19.3862 19.0019 18.9957C19.0258 18.8673 19.0887 18.8215 19.2156 18.834C19.3196 18.8444 19.3118 18.9078 19.3066 18.9494Z" fill="#912A84"/>
<path d="M19.3025 18.5165C19.1793 18.4968 19.0898 18.5321 19.1028 18.4125C19.1158 18.2929 19.1683 18.2191 19.302 18.243C19.3592 18.2534 19.4507 18.2519 19.4351 18.3356C19.4112 18.4515 19.4028 18.5191 19.3025 18.5165Z" fill="#963389"/>
<path d="M7.52824 18.8432C7.34937 18.7787 7.19078 18.8494 7.03686 18.9347C6.97031 18.7267 6.84967 18.7932 6.72488 18.8728C6.6448 19.2794 6.56005 19.6845 6.48933 20.0927C6.47581 20.1701 6.45345 20.3147 6.55017 20.336C6.72072 20.374 6.74932 20.2554 6.7722 20.128C6.80964 19.9153 6.84967 19.7032 6.89491 19.4926C6.96771 19.1536 7.0899 19.0735 7.42893 19.138C7.55736 19.1619 7.62652 19.0589 7.66447 18.982C7.71127 18.8946 7.59376 18.8671 7.52824 18.8432Z" fill="#902782"/>
<path d="M6.07653 18.8992C5.91378 18.7812 5.69175 18.7396 5.56071 18.8836C5.52015 18.9283 5.4978 18.9736 5.44112 18.9211C5.27785 18.7713 5.16657 18.8805 5.12913 19.063C5.01543 19.6291 4.90468 20.1959 4.79687 20.7633C4.78647 20.82 4.75631 20.924 4.83743 20.9412C4.93154 20.9609 5.04542 20.9838 5.06882 20.8195C5.09637 20.624 5.14681 20.4316 5.19153 20.2194C5.62363 20.4794 5.96577 20.3567 6.11605 19.8955C6.16841 19.7225 6.20649 19.5454 6.22992 19.3662C6.25748 19.1888 6.23356 19.0115 6.07653 18.8992ZM5.93874 19.4192C5.90546 19.5825 5.89298 19.7759 5.7869 19.9392C5.70475 20.0671 5.58723 20.1383 5.43436 20.0894C5.28149 20.0406 5.26381 19.9043 5.28564 19.7691C5.3158 19.5825 5.33192 19.3885 5.44164 19.2252C5.52743 19.0963 5.65379 19.0401 5.80198 19.0911C5.95017 19.142 5.94861 19.2715 5.93874 19.4192Z" fill="#902782"/>
<path d="M20.5592 18.8921C20.3439 18.7668 20.0392 18.8063 19.8395 18.9961C19.6055 19.2197 19.5348 19.5124 19.5275 19.8203C19.5197 20.1562 19.7449 20.3688 20.1089 20.3647C20.2357 20.3465 20.3902 20.3272 20.5249 20.2336C20.5768 20.1967 20.6658 20.1707 20.5961 20.0813C20.5441 20.0152 20.4973 19.9378 20.3912 20.0225C20.3378 20.0673 20.2741 20.098 20.2058 20.1119C20.1375 20.1258 20.0668 20.1224 20.0002 20.1021C19.8525 20.0584 19.8099 19.9424 19.814 19.7989C19.8187 19.6279 19.9461 19.6736 20.0402 19.6715C20.23 19.6669 20.4203 19.6658 20.6122 19.6715C20.7162 19.6715 20.762 19.6383 20.7864 19.5322C20.842 19.2634 20.7625 19.0117 20.5592 18.8921ZM20.1479 19.4797C20.1479 19.4797 19.8837 19.4979 19.8879 19.4032C19.8567 19.2691 20.0959 19.0673 20.256 19.0663C20.4162 19.0652 20.5087 19.1578 20.516 19.3206C20.5233 19.4745 20.5103 19.4797 20.1479 19.4797Z" fill="#902883"/>
<path d="M15.4064 18.8651C15.2892 18.819 15.1608 18.8092 15.0379 18.837C14.915 18.8649 14.8034 18.929 14.7174 19.0211C14.5427 19.2067 14.4892 19.4407 14.4574 19.684C14.4132 20.0439 14.4985 20.2357 14.7471 20.3252C14.8877 20.3744 15.0412 20.3727 15.1807 20.3203C15.3202 20.268 15.4369 20.1683 15.5104 20.0387C15.6154 19.8554 15.674 19.6492 15.6809 19.4381C15.6981 19.1625 15.6445 18.9659 15.4064 18.8651ZM15.3996 19.4402C15.3726 19.5915 15.3575 19.7839 15.2436 19.9435C15.1589 20.0626 15.0435 20.139 14.8901 20.0896C14.7367 20.0402 14.7148 19.9123 14.7299 19.7776C14.7517 19.5811 14.7762 19.3824 14.9015 19.2187C14.9857 19.1089 15.1027 19.0481 15.2416 19.0928C15.3903 19.1391 15.4132 19.2675 15.3991 19.4402H15.3996Z" fill="#902882"/>
<path d="M8.67354 18.8799C8.45203 18.7639 8.14836 18.8185 7.95597 19.0151C7.7433 19.2329 7.68506 19.5101 7.6653 19.7597C7.66062 20.0035 7.7173 20.1814 7.90553 20.2843C8.14888 20.4164 8.39275 20.3743 8.62518 20.2511C8.68965 20.2167 8.80717 20.1887 8.71773 20.0633C8.6543 19.9749 8.5971 19.9646 8.50714 20.0332C8.45521 20.0732 8.39455 20.1004 8.33012 20.1125C8.2657 20.1246 8.19932 20.1213 8.1364 20.1029C7.98613 20.0613 7.94297 19.9401 7.94401 19.8002C7.94401 19.6349 8.07296 19.6708 8.17072 19.6692C8.36155 19.6666 8.55238 19.6635 8.74269 19.6692C8.86333 19.6739 8.90284 19.6255 8.92 19.5075C8.96264 19.2153 8.88205 18.9891 8.67354 18.8799ZM8.30955 19.495C8.30955 19.495 8.02513 19.4841 8.03657 19.3811C8.04801 19.2106 8.18424 19.0692 8.39015 19.0666C8.5581 19.0634 8.65326 19.1529 8.65326 19.3172C8.65326 19.5257 8.30955 19.495 8.30955 19.495Z" fill="#902782"/>
<path d="M4.99393 10.5974C4.95545 10.6317 4.55871 11.0654 4.52595 11.1044C3.25045 12.4702 2.17501 14.0099 1.33174 15.6776C1.21371 15.9126 1.11023 16.1544 1 16.3936C1.1339 16.2891 1.24937 16.1629 1.34162 16.0202C2.22142 14.804 3.23485 13.7084 4.3398 12.6955L4.43756 12.6362L4.44224 12.473C4.45212 12.2775 4.53011 12.0825 4.45472 11.8859C4.45992 11.8781 4.46408 11.8698 4.47032 11.8615C4.48059 11.8571 4.48969 11.8504 4.49691 11.8418C4.50412 11.8333 4.50924 11.8232 4.51187 11.8124C4.51449 11.8015 4.51455 11.7902 4.51203 11.7793C4.50951 11.7684 4.50448 11.7583 4.49735 11.7497C4.51503 11.6379 4.52803 11.525 4.59147 11.4268C4.65491 11.3285 4.70742 11.2391 4.7095 11.1231H4.68923C4.67103 11.0825 5.04697 10.6234 4.99393 10.5974Z" fill="#902682"/>
<path d="M14.4619 4C14.4785 4.33694 14.4765 4.61513 14.5108 4.88916C14.5373 5.10235 14.4697 5.18606 14.2612 5.24274C12.4465 5.73215 10.7067 6.46578 9.08951 7.42352C7.92515 8.10559 6.83571 8.90816 5.83915 9.818C5.78403 9.87 5.72909 9.922 5.67432 9.974C5.75855 9.98908 5.81627 9.94176 5.87503 9.89652L5.89323 9.90432C6.17297 9.87676 6.4132 9.71349 6.69139 9.67969C6.75645 9.66176 6.81727 9.631 6.87026 9.58921C7.33564 9.43322 7.80362 9.44206 8.27419 9.56426C8.33607 9.60533 8.39951 9.64329 8.4619 9.68385C8.48305 9.69537 8.50536 9.70461 8.52846 9.71141C8.63246 9.72909 8.73645 9.73169 8.83681 9.75769C8.87179 9.7626 8.90738 9.75486 8.93716 9.73585C12.161 8.28304 15.5367 7.78386 19.0444 8.08649C19.5218 8.12756 19.997 8.2014 20.4733 8.26016C20.4791 8.24716 20.4853 8.23416 20.491 8.22168L14.4619 4Z" fill="#902682"/>
<path d="M15.9108 17.6149C15.8177 17.0788 15.7444 16.5385 15.6638 15.9998C15.3539 13.9134 15.043 11.8264 14.731 9.73882C14.7112 9.60467 14.6587 9.56567 14.5318 9.56775C14.1944 9.57399 13.8559 9.57503 13.5189 9.56775C13.3936 9.56463 13.3343 9.61975 13.2797 9.72375C11.8269 12.3749 10.3719 15.0254 8.91455 17.6752C8.81055 17.8624 8.89323 17.8666 9.04558 17.865C9.5302 17.8598 10.0153 17.8556 10.5015 17.865C10.6663 17.8686 10.7495 17.8036 10.8197 17.6643C11.0277 17.2556 11.2487 16.8552 11.4562 16.447C11.5186 16.3238 11.5935 16.2728 11.7365 16.2744C12.4202 16.2822 13.104 16.2812 13.7883 16.2744C13.9333 16.2744 14.0056 16.2999 14.015 16.4673C14.0301 16.7346 14.081 16.9992 14.1091 17.266C14.172 17.8598 14.1705 17.8598 14.7611 17.8598H15.0466C15.2629 17.8598 15.4808 17.8473 15.6955 17.8634C15.9004 17.8801 15.9457 17.8156 15.9108 17.6149ZM13.6489 14.7628C13.2246 14.7566 12.8003 14.7628 12.3308 14.7628L13.5205 12.5228C13.6182 13.2658 13.7046 13.9314 13.795 14.5964C13.8117 14.7165 13.7805 14.7649 13.6489 14.7628Z" fill="#EB7023"/>
<path d="M21.1787 9.59558C20.6457 9.52226 20.106 9.58726 19.6671 9.5701C19.0842 9.5701 18.5991 9.57634 18.1145 9.56646C17.9642 9.56334 17.8977 9.60649 17.8737 9.75625C17.8327 10.0126 17.7739 10.2653 17.7229 10.5201C17.246 12.8849 16.7686 15.25 16.2909 17.6152C16.253 17.8013 16.2634 17.8751 16.4828 17.8663C16.9154 17.8491 17.3486 17.8564 17.7827 17.8637C17.9309 17.8663 17.9907 17.8211 18.0188 17.6672C18.1935 16.7676 18.389 15.8717 18.5596 14.9711C18.5944 14.7886 18.6677 14.7553 18.8315 14.7579C19.3161 14.7657 19.8018 14.7719 20.2875 14.7542C21.8068 14.6981 22.9113 13.7143 23.1338 12.2318C23.3418 10.8269 22.5826 9.78901 21.1787 9.59558ZM20.1632 13.1881C19.8096 13.2047 19.4539 13.1881 19.0993 13.1948C18.9506 13.1985 18.9236 13.1428 18.9516 13.0082C19.0697 12.4508 19.1872 11.8928 19.2917 11.3323C19.3167 11.2013 19.365 11.1597 19.4929 11.1643C19.7087 11.1727 19.9256 11.1669 20.1419 11.1669V11.1706C20.3582 11.1706 20.575 11.1612 20.7903 11.1706C21.186 11.1914 21.4059 11.4165 21.4335 11.8112C21.4855 12.561 20.9494 13.1486 20.1632 13.1881Z" fill="#EB7023"/>
<path d="M4.44838 11.7418C4.31059 12.4178 4.4619 13.0771 4.82276 13.5097L4.8316 13.5206L4.84304 13.5347C4.90522 13.6118 4.97337 13.684 5.04687 13.7505C5.41761 14.0838 5.86011 14.2704 6.33589 14.3895C6.66244 14.4722 6.9947 14.5393 7.31449 14.6422C7.66287 14.7551 7.78246 14.949 7.75958 15.3109C7.73307 15.743 7.46424 15.9983 7.09766 16.1663C6.69351 16.3521 6.23867 16.3967 5.80613 16.293C5.37359 16.1892 4.98845 15.9432 4.71253 15.5943C4.59449 15.4456 4.52794 15.4196 4.37922 15.5605C4.06464 15.8579 3.7329 16.1372 3.39907 16.4133C3.29508 16.5006 3.29144 16.5448 3.37879 16.654C3.9778 17.4075 4.74425 17.8281 5.71036 17.8983C6.69467 17.9695 7.63843 17.8583 8.45427 17.2561C9.33147 16.6093 9.60602 15.7092 9.43026 14.6609C9.26907 13.6985 8.58426 13.2648 7.72371 13.023C7.66547 13.0064 7.60567 12.9949 7.54743 12.9793C7.21361 12.8894 6.87147 12.8197 6.54804 12.7032C6.17574 12.5696 6.06914 12.3164 6.17886 11.9378C6.28857 11.5593 6.54284 11.3139 6.89954 11.174C7.22218 11.0436 7.57814 11.0201 7.91509 11.1071C8.25204 11.1941 8.5522 11.3868 8.77146 11.657C8.89261 11.8032 8.96073 11.7969 9.09072 11.6763C9.38191 11.4049 9.68089 11.1402 9.9908 10.8911C10.138 10.7726 10.1166 10.7044 10.0085 10.5703C9.71518 10.2159 9.34801 9.92982 8.93265 9.7321C8.93265 9.7321 7.14601 8.95889 5.66928 9.97024C5.2895 10.2252 4.97251 10.563 4.74217 10.9582C4.74217 10.9582 4.49206 11.4329 4.44838 11.7418Z" fill="#EB7023"/>
</svg>