<svg width="33" height="32" viewBox="0 0 33 32" fill="none" xmlns="http://www.w3.org/2000/svg">
<ellipse cx="16.1602" cy="16" rx="16.1602" ry="16" fill="#FCDBDB"/>
<path d="M19.7928 12.8119C19.7928 14.9171 18.0862 16.6238 15.9809 16.6238C13.8757 16.6238 12.1691 14.9171 12.1691 12.8119C12.1691 10.7066 13.8757 9 15.9809 9C17.0338 9 17.987 9.42685 18.6768 10.1169" stroke="#F36565" stroke-width="1.3" stroke-linecap="round"/>
<path d="M17.4866 12.8125C17.4866 13.6447 16.812 14.3194 15.9797 14.3194C15.1475 14.3194 14.4728 13.6447 14.4728 12.8125" stroke="#F36565" stroke-width="1.3" stroke-linecap="round"/>
<path d="M21.9725 23.0003V22.5313C21.9725 20.3221 20.1816 18.5312 17.9725 18.5312H14C11.7909 18.5312 10 20.3221 10 22.5313V23.0003" stroke="#F36565" stroke-width="1.3" stroke-linecap="round"/>
<path d="M15.985 20.8164V22.9984" stroke="#F36565" stroke-width="1.3" stroke-linecap="round"/>
</svg>
