<svg width="232" height="43" viewBox="0 0 232 43" fill="none" xmlns="http://www.w3.org/2000/svg">
<path d="M23.5305 6.25846C25.3103 5.31484 27.3409 4.77734 29.5028 4.77734C36.5619 4.77734 42.2833 10.4987 42.2833 17.5579C42.2833 18.8121 41.268 19.8273 40.0139 19.8273C38.7597 19.8273 37.7444 18.8121 37.7444 17.5579C37.7444 13.0071 34.0536 9.31623 29.5028 9.31623C28.8219 9.31623 28.1531 9.39984 27.52 9.55512C29.2878 11.741 30.3389 14.524 30.3389 17.5579C30.3389 21.3204 27.293 24.3662 23.5305 24.3662C19.768 24.3662 16.7222 21.3204 16.7222 17.5579C16.7222 15.4079 17.2478 13.3893 18.1914 11.6096C19.792 11.7768 21.2133 12.5771 22.1808 13.7596C21.5955 14.8943 21.2611 16.1843 21.2611 17.546C21.2611 18.8001 22.2764 19.8154 23.5305 19.8154C24.7847 19.8154 25.8 18.8001 25.8 17.546C25.8 15.3482 24.94 13.3535 23.5305 11.8723C22.4674 10.7615 21.0938 9.93734 19.5411 9.55512C18.908 9.39984 18.2392 9.31623 17.5583 9.31623C13.0075 9.31623 9.31666 13.0071 9.31666 17.5579C9.31666 18.8121 8.30138 19.8273 7.04722 19.8273C5.79305 19.8273 4.77777 18.8121 4.77777 17.5579C4.77777 10.4987 10.4992 4.77734 17.5583 4.77734C19.7202 4.77734 21.7508 5.31484 23.5305 6.25846Z" fill="#203551"/>
<path d="M6.99951 23.0882C8.17004 22.6343 9.48393 23.2076 9.93779 24.3782C12.052 29.8248 17.3433 33.6829 23.5305 33.6829C29.7177 33.6829 35.0092 29.8248 37.1233 24.3782C37.5773 23.2196 38.8912 22.6343 40.0617 23.0882C41.2322 23.5421 41.8055 24.856 41.3517 26.0265C38.5805 33.1573 31.6528 38.2218 23.5305 38.2218C15.4083 38.2218 8.48055 33.1573 5.70941 26.0265C5.25555 24.856 5.82886 23.5421 6.99951 23.0882Z" fill="#203551"/>
<path d="M193.022 15.8495H189.002V23.2555C189.002 23.8726 189.156 24.3236 189.464 24.6085C189.773 24.8933 190.223 25.0595 190.816 25.107C191.409 25.1307 192.145 25.1188 193.022 25.0714V29.2372C189.868 29.5933 187.638 29.2966 186.333 28.3471C185.052 27.3976 184.412 25.7004 184.412 23.2555V15.8495H181.317V11.4344H184.412V7.83819L189.002 6.44957V11.4344H193.022V15.8495Z" fill="#203551"/>
<path d="M221.039 14.4509C221.468 13.2968 222.17 12.4312 223.146 11.8541C224.146 11.277 225.253 10.9885 226.467 10.9885V16.1822C225.062 16.0139 223.801 16.3024 222.682 17.0478C221.587 17.7932 221.039 19.0315 221.039 20.7628V29.3829H216.433V11.3491H221.039V14.4509Z" fill="#203551"/>
<path fill-rule="evenodd" clip-rule="evenodd" d="M160.533 11.4889H155.925V13.5977C154.544 11.8582 152.603 10.9885 150.103 10.9885C147.721 10.9885 145.673 11.9059 143.958 13.7407C142.268 15.5516 141.422 17.7796 141.422 20.4246C141.422 23.0695 142.268 25.3094 143.958 27.1442C145.673 28.9552 147.721 29.8607 150.103 29.8607C152.603 29.8607 154.544 28.9909 155.925 27.2514V29.3603H160.533V11.4889ZM150.96 25.4643C149.531 25.4643 148.352 24.9996 147.423 24.0703C146.495 23.1172 146.03 21.9019 146.03 20.4246C146.03 18.9472 146.495 17.7439 147.423 16.8145C148.352 15.8614 149.531 15.3848 150.96 15.3848C152.389 15.3848 153.568 15.8614 154.496 16.8145C155.449 17.7439 155.925 18.9472 155.925 20.4246C155.925 21.9019 155.449 23.1172 154.496 24.0703C153.568 24.9996 152.389 25.4643 150.96 25.4643Z" fill="#203551"/>
<path fill-rule="evenodd" clip-rule="evenodd" d="M209.436 11.4889H214.044V29.3603H209.436V27.2514C208.055 28.9909 206.114 29.8607 203.614 29.8607C201.232 29.8607 199.184 28.9552 197.47 27.1442C195.779 25.3094 194.933 23.0695 194.933 20.4246C194.933 17.7796 195.779 15.5516 197.47 13.7407C199.184 11.9059 201.232 10.9885 203.614 10.9885C206.114 10.9885 208.055 11.8582 209.436 13.5977V11.4889ZM200.935 24.0703C201.863 24.9996 203.042 25.4643 204.471 25.4643C205.9 25.4643 207.079 24.9996 208.007 24.0703C208.96 23.1172 209.436 21.9019 209.436 20.4246C209.436 18.9472 208.96 17.7439 208.007 16.8145C207.079 15.8614 205.9 15.3848 204.471 15.3848C203.042 15.3848 201.863 15.8614 200.935 16.8145C200.006 17.7439 199.541 18.9472 199.541 20.4246C199.541 21.9019 200.006 23.1172 200.935 24.0703Z" fill="#203551"/>
<path fill-rule="evenodd" clip-rule="evenodd" d="M139.033 11.4846H134.701V13.6819C133.395 11.8863 131.561 10.9885 129.2 10.9885C126.793 10.9885 124.765 11.8744 123.114 13.6464C121.464 15.4184 120.639 17.5566 120.639 20.061C120.639 22.589 121.453 24.739 123.08 26.511C124.73 28.2593 126.77 29.1335 129.2 29.1335C131.561 29.1335 133.395 28.2357 134.701 26.4401V28.3538C134.701 29.7478 134.3 30.8228 133.498 31.5788C132.696 32.3349 131.595 32.7129 130.197 32.7129C128.065 32.7129 126.564 31.886 125.693 30.2321L121.911 32.4648C122.667 33.8824 123.745 34.9574 125.143 35.6898C126.564 36.4223 128.203 36.7885 130.06 36.7885C132.535 36.7885 134.644 36.0679 136.386 34.6266C138.151 33.1854 139.033 31.0945 139.033 28.3538V11.4846ZM129.888 24.9162C128.489 24.9162 127.332 24.4673 126.415 23.5695C125.521 22.6481 125.074 21.4786 125.074 20.061C125.074 18.667 125.521 17.5211 126.415 16.6233C127.332 15.7019 128.489 15.2412 129.888 15.2412C131.286 15.2412 132.432 15.7019 133.326 16.6233C134.243 17.5211 134.701 18.667 134.701 20.061C134.701 21.4786 134.243 22.6481 133.326 23.5695C132.432 24.4673 131.286 24.9162 129.888 24.9162Z" fill="#203551"/>
<path d="M111.579 10.9885C113.509 10.9885 115.097 11.6445 116.344 12.9567C117.615 14.2689 118.25 16.0821 118.25 18.3963V29.3829H113.697V18.9689C113.697 17.776 113.379 16.8694 112.744 16.2491C112.108 15.605 111.261 15.2829 110.202 15.2829C109.026 15.2829 108.085 15.6527 107.379 16.3923C106.673 17.1319 106.32 18.2413 106.32 19.7205V29.3829H101.767V11.4895H106.32V13.4935C107.426 11.8235 109.179 10.9885 111.579 10.9885Z" fill="#203551"/>
<path d="M177.5 12.9567C176.252 11.6445 174.664 10.9885 172.735 10.9885C170.334 10.9885 168.581 11.8235 167.475 13.4935V11.4895H162.922V29.3829H167.475V19.7205C167.475 18.2413 167.828 17.1319 168.534 16.3923C169.24 15.6527 170.181 15.2829 171.358 15.2829C172.417 15.2829 173.264 15.605 173.899 16.2491C174.535 16.8694 174.852 17.776 174.852 18.9689V29.3829H179.406V18.3963C179.406 16.0821 178.77 14.2689 177.5 12.9567Z" fill="#203551"/>
<path fill-rule="evenodd" clip-rule="evenodd" d="M85.7865 22.0321C86.4032 24.2153 88.0755 25.3069 90.8032 25.3069C92.5584 25.3069 93.8867 24.7262 94.788 23.565L98.4883 25.6552C96.733 28.1403 94.1476 29.3829 90.732 29.3829C87.7908 29.3829 85.4307 28.512 83.6518 26.7701C81.8728 25.0282 80.9833 22.8334 80.9833 20.1857C80.9833 17.5612 81.8609 15.378 83.6162 13.6361C85.3714 11.871 87.6248 10.9885 90.3762 10.9885C92.9854 10.9885 95.132 11.871 96.8161 13.6361C98.5239 15.4013 99.3778 17.5844 99.3778 20.1857C99.3778 20.7663 99.3185 21.3818 99.1999 22.0321H85.7865ZM85.7154 18.5483H94.788C94.5271 17.3638 93.9816 16.4812 93.1514 15.9006C92.3449 15.32 91.4199 15.0297 90.3762 15.0297C89.1428 15.0297 88.1229 15.3432 87.3164 15.9703C86.51 16.5741 85.9763 17.4335 85.7154 18.5483Z" fill="#203551"/>
<path d="M76.7529 12.9925C75.5488 11.6565 73.9315 10.9885 71.901 10.9885C69.5637 10.9885 67.8047 11.8473 66.6242 13.5651C65.5854 11.8473 63.9799 10.9885 61.8078 10.9885C59.5885 10.9885 57.9476 11.7877 56.8852 13.3862V11.4895H52.3167V29.3829H56.8852V19.3268C56.8852 18.0146 57.1803 17.0126 57.7705 16.3207C58.3844 15.6288 59.1989 15.2829 60.2142 15.2829C61.1586 15.2829 61.8905 15.5811 62.4099 16.1776C62.9293 16.774 63.189 17.609 63.189 18.6826V29.3829H67.7575V19.3268C67.7575 18.0146 68.0408 17.0126 68.6075 16.3207C69.1977 15.6288 70.0123 15.2829 71.0511 15.2829C71.9955 15.2829 72.7274 15.5811 73.2468 16.1776C73.7662 16.774 74.0259 17.609 74.0259 18.6826V29.3829H78.5944V18.3605C78.5944 16.1179 77.9806 14.3286 76.7529 12.9925Z" fill="#203551"/>
</svg>
