<svg width="57" height="40" viewBox="0 0 57 40" fill="none" xmlns="http://www.w3.org/2000/svg">
<rect x="1" y="1" width="55" height="38" rx="6" fill="white" stroke="#BFCEE0"/>
<path fill-rule="evenodd" clip-rule="evenodd" d="M12.9798 23.2013L14.5886 25.1936H10.6055L12.9798 23.2013ZM12.4765 22.584L9.36065 25.1978L9.35938 18.7695L12.4765 22.584ZM19.9747 16.1133C19.9747 16.1133 19.2907 15.7895 18.4961 15.8368C17.5876 15.8903 16.8276 16.2387 16.3907 16.6984C16.1158 16.9872 15.8118 17.3395 15.6592 17.7222C15.4378 18.2757 15.3905 19.0071 15.3905 19.0071C15.3905 19.0071 15.0728 18.7374 14.6747 17.9516C14.2118 17.0377 14.0852 16.484 14.0225 15.8524C13.9667 15.2981 14.0543 14.75 14.0543 14.75H19.9747V16.1133ZM19.9738 17.9361V21.9893C19.9738 21.9893 19.6057 22.1307 19.3055 22.1307C19.0053 22.1307 18.494 22.0862 17.9002 21.7597C17.3108 21.4359 16.9845 21.0442 16.7315 20.6892C16.475 20.3281 16.2632 19.8276 16.2002 19.4669C16.1496 19.1783 16.0951 18.4586 16.3898 17.8736C16.5497 17.5561 16.979 17.012 17.8054 16.981C18.4791 16.9552 18.8526 17.1323 19.195 17.3202C19.8466 17.6785 19.9738 17.9361 19.9738 17.9361ZM13.5283 21.7043L14.5962 20.8141C14.2558 20.3794 14.1659 20.2156 13.7854 19.6543C13.3959 19.0799 13.0696 18.4479 12.7906 17.7063C12.4886 16.903 12.4156 16.4521 12.449 15.8524C12.4908 15.0894 12.6643 14.75 12.6643 14.75H9.35938L9.36091 16.5312C9.36091 16.5312 11.8907 19.7015 13.5283 21.7043ZM16.5809 25.1929H19.9762V22.7172C19.9762 22.7172 19.134 23.1036 18.5866 23.1347C18.2607 23.1538 17.9444 23.1663 17.434 23.0305C16.8666 22.8798 16.5443 22.7328 16.0185 22.2991C15.5961 21.9512 15.1132 21.4375 15.1132 21.4375L14.0391 22.3331C14.5374 22.9427 14.9055 23.3864 15.0182 23.5058C15.5026 24.0178 15.7079 24.2059 16.0342 24.3884C16.3604 24.5712 17.4501 24.5613 17.4501 24.5613L16.5809 25.1929Z" fill="#E94E0F"/>
<path fill-rule="evenodd" clip-rule="evenodd" d="M45.6558 22.9891C45.6558 23.7064 45.7525 24.8855 44.9492 25.1725V25.2203H48.0002V25.1725C47.1974 24.8698 47.2938 23.7064 47.2938 22.9891V16.9812C47.2938 16.2643 47.1974 15.0849 48.0002 14.7822V14.7344H44.9492V14.7822C45.7683 15.0849 45.6558 16.2483 45.6558 16.9812V22.9891ZM34.4681 16.9812L39.9762 23.9136C40.6826 24.8217 41.1807 25.3479 42.3208 25.7301V16.79C42.3208 15.8977 42.3208 15.2601 43.156 14.7822V14.7344H40.3295V14.7822C41.1807 15.2601 41.1643 15.8977 41.1643 16.79V22.8298L35.2872 15.4673L35.0621 15.1486C34.95 15.0212 34.8858 14.9415 34.8216 14.7503V14.7344H32.4767V14.7822C33.3118 15.2601 33.3118 15.8977 33.3118 16.79V23.1488C33.3118 24.041 33.3118 24.6783 32.4609 25.1725V25.2203H35.3033V25.1725C34.4521 24.6783 34.4681 24.041 34.4681 23.1488V16.9812ZM25.4922 18.9584V15.835L26.5679 15.7232C27.5315 15.6276 28.5591 16.2014 28.5591 17.3011C28.5591 18.6079 27.0656 18.9584 26.0221 18.9584H25.4922ZM25.4922 23.9438V20.0075L26.616 19.9438C28.0293 19.8641 29.5387 20.5336 29.5387 22.0794C29.5387 23.5933 28.2062 24.1988 26.8891 24.0714L25.4922 23.9438ZM23.8513 22.9732C23.8513 23.7064 23.9477 24.8698 23.1445 25.1725V25.2203H25.7943C26.9986 25.2203 28.2676 25.2683 29.3915 24.7264C30.4674 24.2163 31.3186 23.1644 31.3186 21.9373C31.3186 20.3758 30.1461 19.4195 28.7008 19.1165C29.6163 18.7183 30.3066 18.1128 30.3066 17.045C30.3066 15.6267 29.0704 14.7344 26.9508 14.7344H23.1445V14.7822C23.9639 15.0849 23.8513 16.2483 23.8513 16.9652V22.9732Z" fill="#005B6A"/>
</svg>
