<svg width="55" height="38" viewBox="0 0 55 38" fill="none" xmlns="http://www.w3.org/2000/svg">
<rect width="55" height="38" rx="6" fill="#00529C"/>
<path fill-rule="evenodd" clip-rule="evenodd" d="M17.7578 16.6953H20.0994C21.0476 16.6953 21.7545 17.1149 21.7545 17.9981C21.7545 18.6456 21.4268 19.0063 20.8576 19.1973V19.2119C21.5361 19.3521 21.8862 19.7202 21.8862 20.3453C21.8862 21.5746 20.8136 21.832 19.902 21.832H17.7578V16.6953ZM19.1133 18.7279H19.4929C19.9378 18.7279 20.3976 18.6175 20.3976 18.1829C20.3976 17.7125 19.9598 17.668 19.5071 17.668H19.1133V18.7279ZM19.1133 20.8595H19.5151C20.0107 20.8595 20.5284 20.7858 20.5284 20.2632C20.5284 19.7043 19.9962 19.6523 19.5293 19.6523H19.1133V20.8595Z" fill="white"/>
<path fill-rule="evenodd" clip-rule="evenodd" d="M23.6633 16.6953H25.3264L27.2886 21.832H25.8004L25.4215 20.7357H23.5104L23.109 21.832H21.7305L23.6633 16.6953ZM24.4956 17.7539H24.4803L23.8242 19.7631H25.1006L24.4956 17.7539Z" fill="white"/>
<path fill-rule="evenodd" clip-rule="evenodd" d="M27.4805 16.6953H29.2091L30.9306 20.1838H30.9448L30.9233 16.6953H32.1636V21.832H30.4786L28.6982 18.3217H28.6842L28.7277 21.832H27.4805V16.6953Z" fill="white"/>
<path fill-rule="evenodd" clip-rule="evenodd" d="M32.625 16.6953H33.9815V18.7933H33.9962L35.5274 16.6953H37.1619L35.2796 19.0869L37.3077 21.832H35.5785L33.9962 19.4993H33.9815V21.832H32.625V16.6953Z" fill="white"/>
<path fill-rule="evenodd" clip-rule="evenodd" d="M38.9844 16.6953H41.326C42.274 16.6953 42.9818 17.1149 42.9818 17.9981C42.9818 18.6456 42.6541 19.0063 42.0848 19.1973V19.2119C42.7631 19.3521 43.1132 19.7202 43.1132 20.3453C43.1132 21.5746 42.0409 21.832 41.1295 21.832H38.9844V16.6953ZM40.3398 18.7279H40.7188C41.164 18.7279 41.6231 18.6175 41.6231 18.1829C41.6231 17.7125 41.1859 17.668 40.7339 17.668H40.3398V18.7279ZM40.3398 20.8595H40.7412C41.2368 20.8595 41.755 20.7858 41.755 20.2632C41.755 19.7043 41.2226 19.6523 40.7557 19.6523H40.3398V20.8595Z" fill="white"/>
<path fill-rule="evenodd" clip-rule="evenodd" d="M43.418 16.6953H45.8397C46.744 16.6953 47.4811 17.1072 47.4811 17.9909C47.4811 18.6752 47.16 19.1315 46.5038 19.2858V19.3004C46.9405 19.4184 46.9702 19.8082 47.2255 20.4338L47.7217 21.832H46.3068L46.0149 20.9053C45.7376 20.0221 45.5624 19.8008 45.0591 19.8008H44.7745V21.832H43.418V16.6953ZM44.7734 18.831H45.1311C45.5687 18.831 46.1233 18.8159 46.1233 18.2347C46.1233 17.7567 45.6486 17.668 45.1311 17.668H44.7734V18.831Z" fill="white"/>
<mask id="mask0_5805_59245" style="mask-type:alpha" maskUnits="userSpaceOnUse" x="6" y="14" width="44" height="11">
<path fill-rule="evenodd" clip-rule="evenodd" d="M6 24.4267H49.4519V14.1055H6V24.4267Z" fill="white"/>
</mask>
<g mask="url(#mask0_5805_59245)">
<path fill-rule="evenodd" clip-rule="evenodd" d="M48.0938 21.832H49.4503V16.6953H48.0938V21.832Z" fill="white"/>
<path fill-rule="evenodd" clip-rule="evenodd" d="M14.661 14.1055H7.56054C6.69868 14.1055 6 14.8279 6 15.7191V15.7362V22.8135C6 23.6961 6.6858 24.4135 7.53656 24.4267H14.6572C15.5193 24.4267 16.2182 23.7044 16.2182 22.8135L16.2216 15.7191C16.2216 14.8279 15.5231 14.1055 14.661 14.1055ZM8.40268 23.6005L8.01527 23.6047C7.54637 23.6047 7.16628 23.2161 7.16628 22.7365L7.16406 22.6682V16.1163L7.1665 15.7635C7.18404 15.2994 7.5335 14.9258 7.99129 14.9258H8.77878C9.49233 14.9258 10.0711 15.5518 10.0711 16.2906C10.0711 16.6557 9.92926 16.9872 9.69947 17.2282L7.69024 19.2852L9.57337 21.2198C9.81625 21.4723 9.963 21.8042 9.963 22.1678C9.963 22.9592 9.26432 23.6005 8.40268 23.6005ZM14.1942 23.594L10.6833 23.5924C10.6833 23.5924 11.0893 22.7072 11.0893 22.1593C11.0893 21.4913 10.8678 20.8944 10.5212 20.4995L9.32031 19.2644L10.5461 17.9867C10.9108 17.6406 11.1533 17.0264 11.1533 16.3269C11.1533 15.7729 11.0014 15.2822 10.757 14.9258H11.6077C12.3215 14.9258 12.9003 15.5518 12.9003 16.2906C12.9003 16.6557 12.7587 16.9872 12.5289 17.2282L10.558 19.2637L14.6513 23.475C14.5217 23.5575 14.3581 23.594 14.1942 23.594ZM15.0507 22.277L12.1172 19.2606L13.5144 17.828C13.799 17.4694 13.9793 16.9289 13.9793 16.3247C13.9793 15.7672 13.8252 15.2646 13.5785 14.908L14.2039 14.9268C14.6728 14.9268 15.0529 15.3161 15.0529 15.7954L15.0507 22.277Z" fill="white"/>
</g>
</svg>
